<svg xmlns="http://www.w3.org/2000/svg" height="48" width="48" viewBox="0 0 48 48"><title>alarm add</title><g fill="#212121" class="nc-icon-wrapper"><path d="M24,47c2.925-.005,5.42-2.117,5.91-5h-11.82c.49,2.883,2.985,4.995,5.91,5Z" fill="#212121"></path><path d="M39,26v-3.051c-.33,.03-.662,.051-1,.051-6.069,.006-10.993-4.908-11-10.976-.004-3.546,1.704-6.876,4.586-8.942C24.468-1.124,15.288,1.236,11.082,8.354c-1.368,2.315-2.088,4.957-2.082,7.646v10c0,5.6-4.766,12.352-4.814,12.419-.321,.45-.217,1.074,.233,1.395,.17,.121,.373,.186,.581,.186H43c.552,0,1-.448,1-1,0-.208-.065-.412-.186-.581-.048-.067-4.814-6.819-4.814-12.419Z" fill="#212121"></path><path data-color="color-2" d="M38,3c-4.971,0-9,4.029-9,9s4.029,9,9,9,9-4.029,9-9-4.029-9-9-9Zm5,10h-4v4c0,.553-.448,1-1,1s-1-.447-1-1v-4h-4c-.552,0-1-.448-1-1s.448-1,1-1h4V7c0-.552,.448-1,1-1s1,.448,1,1v4h4c.552,0,1,.448,1,1s-.448,1-1,1Z" fill="#212121"></path></g></svg>