<svg xmlns="http://www.w3.org/2000/svg" height="48" width="48" viewBox="0 0 48 48"><title>alarm disable</title><g fill="#212121" class="nc-icon-wrapper"><path d="M29.91,42H18.09a5.993,5.993,0,0,0,11.82,0Z" fill="#212121"></path><path d="M36.308,7.45A14.989,14.989,0,0,0,9,16V26c0,5.6-4.766,12.352-4.814,12.419a1,1,0,0,0-.075,1.039.852.852,0,0,0,.078.111Z" fill="#212121"></path><path d="M12.242,40H43a1,1,0,0,0,.814-1.581C43.766,38.352,39,31.6,39,26V16a14.985,14.985,0,0,0-.23-2.528Z" fill="#212121"></path><path data-color="color-2" d="M2.293,45.707a1,1,0,0,1,0-1.414l42-42a1,1,0,0,1,1.414,1.414l-42,42a1,1,0,0,1-1.414,0Z" fill="#212121"></path></g></svg>