<svg xmlns="http://www.w3.org/2000/svg" height="48" width="48" viewBox="0 0 48 48"><title>alpha order</title><g fill="#212121" class="nc-icon-wrapper"><path d="M43,33H37V4a2,2,0,0,0-4,0V33H27a1,1,0,0,0-.809,1.588l8,11a1,1,0,0,0,1.618,0l8-11A1,1,0,0,0,43,33Z" fill="#212121"></path><path data-color="color-2" d="M15.568,2.666A1,1,0,0,0,14.625,2H10.859a1,1,0,0,0-.943.667l-6.354,18A1,1,0,0,0,4.505,22H6.917a1,1,0,0,0,.957-.709l1.233-4.049H16.4l1.233,4.049a1,1,0,0,0,.957.709H21a1,1,0,0,0,.943-1.334ZM10.174,13.688q2.132-6.9,2.584-8.655.11.494.362,1.34t2.263,7.315Z" fill="#212121"></path><path data-color="color-2" d="M19.189,42.5H10.358L19.75,29a.993.993,0,0,0,.179-.571v-1.42a1,1,0,0,0-1-1H6.573a1,1,0,0,0-1,1v1.5a1,1,0,0,0,1,1H14.9l-9.4,13.482a1,1,0,0,0-.18.572V45a1,1,0,0,0,1,1H19.189a1,1,0,0,0,1-1V43.5A1,1,0,0,0,19.189,42.5Z" fill="#212121"></path></g></svg>