<svg xmlns="http://www.w3.org/2000/svg" height="48" width="48" viewBox="0 0 48 48"><title>at sign</title><g fill="#212121" class="nc-icon-wrapper"><path d="M24,35c-5.514,0-10-4.935-10-11s4.486-11,10-11,10,4.935,10,11-4.486,11-10,11Zm0-18c-3.309,0-6,3.14-6,7s2.691,7,6,7,6-3.14,6-7-2.691-7-6-7Z" fill="#212121" data-color="color-2"></path><path d="M25.036,46.949c-8.505,0-16.638-4.751-20.607-12.696C-.752,23.885,2.481,11.238,11.95,4.835,21.573-1.669,35.739,.498,42.27,9.471c4.262,5.853,4.948,14.588,1.596,20.319-2.796,4.787-7.156,6.131-10.023,5.355-2.369-.642-3.842-2.613-3.842-5.146V14c0-1.104,.896-2,2-2s2,.896,2,2V30c0,.722,.273,1.118,.887,1.284,1.159,.313,3.685-.362,5.525-3.513,2.557-4.371,1.952-11.375-1.377-15.946-5.715-7.853-17.831-8.419-24.845-3.677-7.684,5.197-10.4,15.878-6.184,24.316,4.222,8.449,14.146,12.523,23.083,9.48,1.043-.357,2.181,.204,2.538,1.248,.355,1.046-.203,2.182-1.249,2.538-2.417,.824-4.896,1.217-7.343,1.217Z" fill="#212121"></path></g></svg>