<svg xmlns="http://www.w3.org/2000/svg" height="48" width="48" viewBox="0 0 48 48"><title>attachment</title><g fill="#212121" class="nc-icon-wrapper"><path fill="#212121" d="M23.245,46.981C15.187,46.584,9,39.633,9,31.565V12.322C9,6.598,13.24,1.587,18.94,1.05 C25.48,0.434,31,5.585,31,12l0,17.755c0,3.557-2.55,6.732-6.078,7.185C20.654,37.489,17,34.163,17,30V13c0-0.552,0.448-1,1-1h2 c0.552,0,1,0.448,1,1l0,16.882c0,1.451,0.978,2.784,2.402,3.06C25.317,33.314,27,31.85,27,30l0-17.755 c0-3.557-2.55-6.732-6.078-7.185C16.654,4.511,13,7.837,13,12l0,19.678c0,5.725,4.24,10.736,9.94,11.272 C29.48,43.566,35,38.415,35,32V7c0-0.552,0.448-1,1-1h2c0.552,0,1,0.448,1,1v25C39,40.522,31.858,47.406,23.245,46.981z"></path></g></svg>