<svg xmlns="http://www.w3.org/2000/svg" height="48" width="48" viewBox="0 0 48 48"><title>bag 16</title><g fill="#212121" class="nc-icon-wrapper"><path data-color="color-2" fill="#212121" d="M44.414,9l-7.707-7.707C36.52,1.105,36.266,1,36,1H12c-0.266,0-0.52,0.105-0.707,0.293 L3.586,9H44.414z"></path> <path fill="#212121" d="M3,11v34c0,1.105,0.895,2,2,2h38c1.105,0,2-0.895,2-2V11H3z M24,31c-6.065,0-11-4.935-11-11 c0-0.552,0.447-1,1-1s1,0.448,1,1c0,4.962,4.037,9,9,9s9-4.038,9-9c0-0.552,0.447-1,1-1s1,0.448,1,1C35,26.065,30.065,31,24,31z"></path></g></svg>