<svg xmlns="http://www.w3.org/2000/svg" height="48" width="48" viewBox="0 0 48 48"><title>banana</title><g fill="#212121" class="nc-icon-wrapper"><path fill="#212121" d="M46.1,31.8c-0.7-1.1-1.8-1.5-2.9-1.3l-0.2,0.1c-2.2,0.5-9.1,2.2-20.5-2.9C10.8,22.5,9.8,16.5,9,4.5 c0-0.3-0.2-0.5-0.4-0.7S8.1,3.6,7.8,3.6l-5,0.6C2.3,4.3,2,4.8,2,5.3l0.2,7.1C1.9,13.6,0,21.3,1.7,28.7c2.3,9.9,14,15.4,24.3,15.6 c0.5,0,1,0,1.5,0c8.9,0,16-2.1,18.2-5.6C47.4,36.3,47.2,33.4,46.1,31.8z"></path> <path data-color="color-2" fill="#212121" d="M23.2,25.9c5.1,2.2,9.8,3.4,14.1,3.4c2.2,0,3.8-0.3,4.8-0.5c1.8-1.4,3-2.8,3.6-4.3 c1-2.8,0-5.6-1.4-6.8c-1-0.9-2.2-1.1-3.2-0.5l-0.2,0.1c-2.1,1.1-8.3,4.3-20.6,2.1c-2.8-0.5-5.1-1.2-7-2 C14.7,20.8,17.6,23.4,23.2,25.9z"></path></g></svg>