<svg xmlns="http://www.w3.org/2000/svg" height="48" width="48" viewBox="0 0 48 48"><title>basket</title><g fill="#212121" class="nc-icon-wrapper"><rect data-color="color-2" x="1" y="14" width="46" height="7" rx="1" fill="#212121"></rect><path d="M5,23V41a5,5,0,0,0,5,5H38a5,5,0,0,0,5-5V23ZM16,39a1,1,0,0,1-2,0V29a1,1,0,0,1,2,0Zm9,0a1,1,0,0,1-2,0V29a1,1,0,0,1,2,0Zm9,0a1,1,0,0,1-2,0V29a1,1,0,0,1,2,0Z" fill="#212121"></path><path d="M13.437,12l5.431-9.5A1,1,0,1,0,17.132,1.5l-6,10.5Z" fill="#212121"></path><path d="M34.563,12h2.3l-6-10.5a1,1,0,0,0-1.736.992Z" fill="#212121"></path></g></svg>