<svg xmlns="http://www.w3.org/2000/svg" height="48" width="48" viewBox="0 0 48 48"><title>battery low</title><g fill="#212121" class="nc-icon-wrapper"><rect data-color="color-2" x="5" y="14" width="9" height="20" rx="1" ry="1" fill="#212121"></rect><path data-color="color-2" d="M47,17h-2v14h2c.552,0,1-.448,1-1v-12c0-.552-.448-1-1-1Z" fill="#212121"></path><path d="M38,9H5c-2.757,0-5,2.243-5,5v20c0,2.757,2.243,5,5,5H38c2.757,0,5-2.243,5-5V14c0-2.757-2.243-5-5-5Zm3,25c0,1.654-1.346,3-3,3H5c-1.654,0-3-1.346-3-3V14c0-1.654,1.346-3,3-3H38c1.654,0,3,1.346,3,3v20Z" fill="#212121"></path></g></svg>