<svg xmlns="http://www.w3.org/2000/svg" height="48" width="48" viewBox="0 0 48 48"><title>blockchain</title><g fill="#212121" class="nc-icon-wrapper"><path d="M24,32.988l8.02-4.926-7.5-4.582a1,1,0,0,0-1.042,0l-7.52,4.6Z" fill="#212121"></path><path d="M25,34.723l8-4.89V38.1a1,1,0,0,1-.479.853L25,43.55Z" fill="#212121"></path><path d="M23,34.723l-8-4.89V38.1a1,1,0,0,0,.479.853L23,43.55Z" fill="#212121"></path><path d="M9,23.822.98,18.9l7.5-4.583a1,1,0,0,1,1.042,0l7.52,4.6Z" fill="#212121" data-color="color-2"></path><path d="M8,25.556,0,20.667v8.267a1,1,0,0,0,.479.853L8,34.384Z" fill="#212121" data-color="color-2"></path><path d="M10,25.556v8.828l3-1.834V28.662a2,2,0,0,1,.957-1.707L18,24.485V20.666Z" fill="#212121" data-color="color-2"></path><path d="M39,23.822,47.02,18.9l-7.5-4.583a1,1,0,0,0-1.042,0l-7.52,4.6Z" fill="#212121" data-color="color-2"></path><path d="M24,14.655l8.02-4.926-7.5-4.582a1,1,0,0,0-1.042,0l-7.52,4.6Z" fill="#212121"></path><path d="M20,18.934v4.328l2.436-1.488A2.943,2.943,0,0,1,23,21.527V16.389L15,11.5v3.818l4.521,2.762A1,1,0,0,1,20,18.934Z" fill="#212121"></path><path d="M25.562,21.772,28,23.262V18.934a1,1,0,0,1,.479-.854L33,15.318V11.5l-8,4.889v5.138A2.953,2.953,0,0,1,25.562,21.772Z" fill="#212121"></path><path d="M40,25.556l8-4.889v8.267a1,1,0,0,1-.479.853L40,34.384Z" fill="#212121" data-color="color-2"></path><path d="M38,25.556v8.828L35,32.55V28.662a2,2,0,0,0-.957-1.707L30,24.485V20.666Z" fill="#212121"></path></g></svg>