<svg xmlns="http://www.w3.org/2000/svg" height="48" width="48" viewBox="0 0 48 48"><title>blueprint</title><g fill="#212121" class="nc-icon-wrapper"><path d="M39,30a1,1,0,0,0,1,1h1a6.989,6.989,0,0,1,6,3.408V8a7,7,0,0,0-7.011-7A1,1,0,0,0,39,2Z" fill="#212121" data-color="color-2"></path><path d="M41,33H39.777A2.777,2.777,0,0,1,37,30.223V7H2A1,1,0,0,0,1,8V42a1,1,0,0,0,1,1H41a5,5,0,0,0,0-10Zm-9,3a1,1,0,0,1-1,1H15a1,1,0,0,1-1-1V32a1,1,0,0,1,2,0v3H30V15H21v9a1,1,0,0,1-1,1H15a1,1,0,0,1,0-2h4V15H8V36a1,1,0,0,1-2,0V14a1,1,0,0,1,1-1H31a1,1,0,0,1,1,1Z" fill="#212121"></path></g></svg>