<svg xmlns="http://www.w3.org/2000/svg" height="48" width="48" viewBox="0 0 48 48"><title>book</title><g fill="#212121" class="nc-icon-wrapper"><path data-color="color-2" fill="#212121" d="M35,3c-4.231,0-7.87,1.223-10,3.101v34.431c0,0.819,0.941,1.307,1.588,0.805C28.385,39.944,31.519,39,35,39 c5.421,0,10,2.29,10,5c0,0.553,0.447,1,1,1s1-0.447,1-1V10C47,6.075,41.729,3,35,3z"></path> <path fill="#212121" d="M23,6.101C20.87,4.223,17.231,3,13,3C6.271,3,1,6.075,1,10v34c0,0.553,0.447,1,1,1s1-0.447,1-1 c0-2.71,4.579-5,10-5c3.481,0,6.615,0.944,8.412,2.338C22.059,41.839,23,41.351,23,40.532V6.101z"></path></g></svg>