<svg xmlns="http://www.w3.org/2000/svg" height="48" width="48" viewBox="0 0 48 48"><title>bouquet</title><g fill="#212121" class="nc-icon-wrapper"><path d="M28.818,40H19.182l-2.119,5.648A1,1,0,0,0,18,47H30a1,1,0,0,0,.937-1.352Z" fill="#212121"></path><path d="M41.606,21.293a4.418,4.418,0,0,0-6.242,0,2.422,2.422,0,0,1-3.415,0,4.419,4.419,0,0,0-6.242,0,2.417,2.417,0,0,1-3.414,0,4.419,4.419,0,0,0-6.242,0,2.422,2.422,0,0,1-3.415,0,4.418,4.418,0,0,0-6.242,0,1,1,0,0,0-.048,1.363L19.675,38H23V35a1,1,0,0,1,2,0v3h3.325L41.654,22.656A1,1,0,0,0,41.606,21.293Z" fill="#212121"></path><path d="M14.035,7.694A7.948,7.948,0,0,0,12,13a1,1,0,0,1-2,0,9.952,9.952,0,0,1,2.263-6.326A12.534,12.534,0,0,0,6,5,1,1,0,0,0,5,6v5a7.99,7.99,0,0,0,14.351,4.846A10.005,10.005,0,0,1,14.035,7.694Z" fill="#212121" data-color="color-2"></path><path d="M33.965,7.694A7.948,7.948,0,0,1,36,13a1,1,0,0,0,2,0,9.952,9.952,0,0,0-2.263-6.326A12.534,12.534,0,0,1,42,5a1,1,0,0,1,1,1v5a7.99,7.99,0,0,1-14.351,4.846A10.005,10.005,0,0,0,33.965,7.694Z" fill="#212121" data-color="color-2"></path><path d="M31,1a12.534,12.534,0,0,0-6.263,1.674A9.952,9.952,0,0,1,27,9a1,1,0,0,1-2,0,7.965,7.965,0,0,0-2.095-5.379c-.11-.12-.22-.24-.337-.353-.082-.08-.168-.155-.254-.231-.116-.1-.233-.206-.355-.3-.092-.073-.188-.142-.283-.212q-.186-.135-.38-.26c-.1-.063-.2-.125-.3-.184-.135-.078-.271-.151-.41-.221-.106-.053-.211-.1-.319-.153-.144-.065-.292-.123-.441-.18-.108-.041-.216-.083-.327-.12-.158-.052-.319-.095-.481-.137-.107-.028-.213-.059-.322-.083-.181-.039-.367-.066-.553-.093-.094-.014-.186-.033-.28-.043A8.141,8.141,0,0,0,17,1a1,1,0,0,0-1,1V7a8.008,8.008,0,0,0,7,7.931V19a1,1,0,0,0,2,0V14.931A8.008,8.008,0,0,0,32,7V2A1,1,0,0,0,31,1Z" fill="#212121" data-color="color-2"></path></g></svg>