<svg xmlns="http://www.w3.org/2000/svg" height="48" width="48" viewBox="0 0 48 48"><title>briefcase 24</title><g fill="#212121" class="nc-icon-wrapper"><path data-color="color-2" fill="#212121" d="M29,36c0,0.552-0.448,1-1,1h-8c-0.552,0-1-0.448-1-1v-2H3v10c0,1.105,0.895,2,2,2h38 c1.105,0,2-0.895,2-2V34H29V36z"></path> <path fill="#212121" d="M45,10H3c-1.105,0-2,0.895-2,2v19c0,0.552,0.448,1,1,1h17v-2c0-0.552,0.448-1,1-1h8c0.552,0,1,0.448,1,1v2 h17c0.552,0,1-0.448,1-1V12C47,10.895,46.105,10,45,10z"></path> <path data-color="color-2" fill="#212121" d="M18,4h12v4h2V3c0-0.552-0.448-1-1-1H17c-0.552,0-1,0.448-1,1v5h2V4z"></path></g></svg>