<svg xmlns="http://www.w3.org/2000/svg" height="48" width="48" viewBox="0 0 48 48"><title>bullet list</title><g fill="#212121" class="nc-icon-wrapper"><path data-color="color-2" d="M17,9H45a1,1,0,0,0,0-2H17a1,1,0,0,0,0,2Z" fill="#212121"></path><path data-color="color-2" d="M45,19H17a1,1,0,0,0,0,2H45a1,1,0,0,0,0-2Z" fill="#212121"></path><path data-color="color-2" d="M45,31H17a1,1,0,0,0,0,2H45a1,1,0,0,0,0-2Z" fill="#212121"></path><path data-color="color-2" d="M45,43H17a1,1,0,0,0,0,2H45a1,1,0,0,0,0-2Z" fill="#212121"></path><circle cx="7" cy="32" r="5" fill="#212121"></circle><circle cx="7" cy="8" r="5" fill="#212121"></circle></g></svg>