<svg xmlns="http://www.w3.org/2000/svg" height="48" width="48" viewBox="0 0 48 48"><title>check double</title><g fill="#212121" class="nc-icon-wrapper"><path data-color="color-2" d="M45.942,9.333c-.645-.521-1.588-.42-2.109,.225l-19.952,24.702-2.53-2.53-1.895,2.347,3.484,3.484c.282,.282,.664,.439,1.061,.439,.026,0,.053,0,.079-.002,.425-.022,.82-.225,1.088-.556L46.167,11.442c.521-.645,.42-1.589-.225-2.109Z" fill="#212121"></path><path d="M13,38c-.396,0-.778-.157-1.061-.439L1.939,27.561c-.586-.585-.586-1.536,0-2.121,.586-.586,1.535-.586,2.121,0l8.82,8.82L32.833,9.558c.521-.645,1.466-.745,2.109-.225,.645,.521,.745,1.465,.225,2.109L14.167,37.442c-.268,.331-.663,.533-1.088,.556-.026,.001-.053,.002-.079,.002Z" fill="#212121"></path></g></svg>