<svg xmlns="http://www.w3.org/2000/svg" height="48" width="48" viewBox="0 0 48 48"><title>child</title><g fill="#212121" class="nc-icon-wrapper"><path d="M43,17c-.094,0-.182.023-.274.028A19.988,19.988,0,0,0,24,4a3,3,0,0,0,0,6,2,2,0,0,0,2-2,1,1,0,0,1,2,0,4,4,0,0,1-4,4,5.006,5.006,0,0,1-5-5,4.944,4.944,0,0,1,.71-2.526A20.028,20.028,0,0,0,5.274,17.028C5.182,17.023,5.094,17,5,17a4.99,4.99,0,0,0-.763,9.923,19.974,19.974,0,0,0,39.526,0A4.99,4.99,0,0,0,43,17ZM14.209,21.928a1,1,0,0,1-1.867-.719,4.97,4.97,0,0,1,8.007-1.9,1,1,0,1,1-1.344,1.48,2.971,2.971,0,0,0-4.8,1.141ZM29.89,31.152a6,6,0,0,1-11.78,0A.993.993,0,0,1,19.1,30h9.8A.993.993,0,0,1,29.89,31.152ZM35.084,22.5a1,1,0,0,1-1.293-.574A2.971,2.971,0,0,0,29,20.787a1,1,0,0,1-1.344-1.48,4.97,4.97,0,0,1,8.007,1.9A1,1,0,0,1,35.084,22.5Z" fill="#212121"></path></g></svg>