<svg xmlns="http://www.w3.org/2000/svg" height="48" width="48" viewBox="0 0 48 48"><title>circle arrow right</title><g fill="#212121" class="nc-icon-wrapper"><path fill="#212121" d="M24,1C11.3,1,1,11.3,1,24s10.3,23,23,23s23-10.3,23-23S36.7,1,24,1z M34.9,24.4c-0.1,0.1-0.1,0.2-0.2,0.3 l-8,8C26.5,32.9,26.3,33,26,33s-0.5-0.1-0.7-0.3c-0.4-0.4-0.4-1,0-1.4l6.3-6.3H12c-0.6,0-1-0.4-1-1s0.4-1,1-1h19.6l-6.3-6.3 c-0.4-0.4-0.4-1,0-1.4s1-0.4,1.4,0l8,8c0.1,0.1,0.2,0.2,0.2,0.3C35,23.9,35,24.1,34.9,24.4z"></path></g></svg>