<svg xmlns="http://www.w3.org/2000/svg" height="48" width="48" viewBox="0 0 48 48"><title>circle arrow left</title><g fill="#212121" class="nc-icon-wrapper"><path fill="#212121" d="M24,1C11.3,1,1,11.3,1,24s10.3,23,23,23s23-10.3,23-23S36.7,1,24,1z M36,25H16.4l6.3,6.3 c0.4,0.4,0.4,1,0,1.4C22.5,32.9,22.3,33,22,33s-0.5-0.1-0.7-0.3l-8-8c-0.1-0.1-0.2-0.2-0.2-0.3c-0.1-0.2-0.1-0.5,0-0.8 c0.1-0.1,0.1-0.2,0.2-0.3l8-8c0.4-0.4,1-0.4,1.4,0s0.4,1,0,1.4L16.4,23H36c0.6,0,1,0.4,1,1S36.6,25,36,25z"></path></g></svg>