<svg xmlns="http://www.w3.org/2000/svg" height="48" width="48" viewBox="0 0 48 48"><title>circle arrow up</title><g fill="#212121" class="nc-icon-wrapper"><path fill="#212121" d="M24,1C11.3,1,1,11.3,1,24s10.3,23,23,23s23-10.3,23-23S36.7,1,24,1z M32.7,22.7C32.5,22.9,32.3,23,32,23 s-0.5-0.1-0.7-0.3L25,16.4V36c0,0.6-0.4,1-1,1s-1-0.4-1-1V16.4l-6.3,6.3c-0.4,0.4-1,0.4-1.4,0s-0.4-1,0-1.4l8-8 c0.1-0.1,0.2-0.2,0.3-0.2c0.2-0.1,0.5-0.1,0.8,0c0.1,0.1,0.2,0.1,0.3,0.2l8,8C33.1,21.7,33.1,22.3,32.7,22.7z"></path></g></svg>