<svg xmlns="http://www.w3.org/2000/svg" height="48" width="48" viewBox="0 0 48 48"><title>control panel</title><g fill="#212121" class="nc-icon-wrapper"><path d="M24,6c-12.699-.003-22.997,10.289-23,22.988-.001,4.459,1.294,8.822,3.728,12.558,.184,.283,.499,.454,.837,.454H42.435c.338,0,.653-.171,.837-.454,6.932-10.64,3.926-24.886-6.714-31.818-3.736-2.434-8.099-3.729-12.558-3.728Zm-1,4c0-.552,.448-1,1-1s1,.448,1,1v5c0,.552-.448,1-1,1s-1-.448-1-1v-5ZM10,30H5c-.552,0-1-.448-1-1s.448-1,1-1h5c.552,0,1,.448,1,1s-.448,1-1,1Zm16.121,1.121c-1.171,1.172-3.071,1.172-4.243,0h0c-.8-.8-10.552-13.1-11.662-14.5-.336-.438-.254-1.066,.184-1.402,.36-.277,.862-.276,1.221,.002,1.4,1.11,13.7,10.862,14.5,11.663,1.168,1.171,1.168,3.066,0,4.237Zm7.779-11.021c-.552,0-1-.448-1-1,0-.265,.105-.519,.293-.707l3.536-3.536c.397-.384,1.03-.373,1.414,.025,.374,.388,.374,1.002,0,1.389l-3.536,3.536c-.187,.188-.442,.293-.707,.293Zm9.1,9.9h-5c-.552,0-1-.448-1-1s.448-1,1-1h5c.552,0,1,.448,1,1s-.448,1-1,1Z" fill="#212121"></path></g></svg>