<svg xmlns="http://www.w3.org/2000/svg" height="48" width="48" viewBox="0 0 48 48"><title>deer</title><g fill="#212121" class="nc-icon-wrapper"><path fill="#212121" d="M47,10V2c0-0.5522461-0.4477539-1-1-1s-1,0.4477539-1,1v8c0,1.6542969-1.3457031,3-3,3h-3V6 c0-0.5522461-0.4477539-1-1-1s-1,0.4477539-1,1v7h-3.4909058C31.126709,11.6688232,27.9709473,11,24,11 s-7.126709,0.6688232-9.5090942,2H11V6c0-0.5522461-0.4477539-1-1-1S9,5.4477539,9,6v7H6c-1.6542969,0-3-1.3457031-3-3V2 c0-0.5522461-0.4477539-1-1-1S1,1.4477539,1,2v8c0,2.7568359,2.2431641,5,5,5h5.921936 c-1.0075073,1.1000366-1.7424927,2.4380493-2.2270508,4H2c-0.5522461,0-1,0.4477539-1,1c0,3.8598633,3.1401367,7,7,7h1.1741943 C10.1472778,35.7954102,15.2093506,46.1183472,23,46.9411621v-8.0422363C20.7207031,38.4342651,19,36.4144287,19,34 c0-2.7568359,2.2431641-5,5-5s5,2.2431641,5,5c0,2.4144287-1.7207031,4.4342651-4,4.8989258v8.0422363 C32.7906494,46.1183472,37.8527222,35.7954102,38.8258057,27H40c3.8598633,0,7-3.1401367,7-7c0-0.5522461-0.4477539-1-1-1 h-7.6948853c-0.4845581-1.5619507-1.2195435-2.8999634-2.2270508-4H42C44.7568359,15,47,12.7568359,47,10z M21,26 c-0.5522461,0-1-0.4477539-1-1c0-1.1030273-0.8969727-2-2-2s-2,0.8969727-2,2c0,0.5522461-0.4477539,1-1,1s-1-0.4477539-1-1 c0-2.2055664,1.7944336-4,4-4s4,1.7944336,4,4C22,25.5522461,21.5522461,26,21,26z M33,26c-0.5522461,0-1-0.4477539-1-1 c0-1.1030273-0.8969727-2-2-2s-2,0.8969727-2,2c0,0.5522461-0.4477539,1-1,1s-1-0.4477539-1-1c0-2.2055664,1.7944336-4,4-4 s4,1.7944336,4,4C34,25.5522461,33.5522461,26,33,26z"></path></g></svg>