<svg xmlns="http://www.w3.org/2000/svg" height="48" width="48" viewBox="0 0 48 48"><title>desk lamp</title><g fill="#212121" class="nc-icon-wrapper"><circle fill="#212121" cx="42.001" cy="26" r="3.999"></circle> <path fill="#212121" d="M36.001,45h-9.755l12.545-13.94c-0.567-0.361-1.07-0.813-1.487-1.337L23.556,45H12.001c-0.553,0-1,0.448-1,1 s0.447,1,1,1h24c0.553,0,1-0.448,1-1S36.554,45,36.001,45z"></path> <path data-color="color-2" fill="#212121" d="M6.287,14.405C4.874,15.847,4,17.821,4,20c0,4.418,3.582,8,8,8 c2.179,0,4.153-0.874,5.595-2.287L6.287,14.405z"></path> <path fill="#212121" d="M37.302,22.275c0.417-0.525,0.919-0.976,1.487-1.337L29.045,10.11c-0.646-1.226-1.442-2.357-2.356-3.384 l4.018-4.019c0.391-0.391,0.391-1.023,0-1.414s-1.023-0.391-1.414,0l-4.018,4.019C22.271,2.639,18.328,1,14,1 C9.498,1,5.254,2.746,2.049,5.916C1.859,6.103,1.753,6.358,1.752,6.624s0.104,0.522,0.293,0.71l22.621,22.621 c0.188,0.188,0.441,0.293,0.707,0.293c0.001,0,0.002,0,0.003,0c0.266,0,0.521-0.107,0.708-0.297C29.254,26.747,31,22.502,31,18 c0-1.042-0.109-2.058-0.289-3.049L37.302,22.275z"></path></g></svg>