<svg xmlns="http://www.w3.org/2000/svg" height="48" width="48" viewBox="0 0 48 48"><title>digital image</title><g fill="#212121" class="nc-icon-wrapper"><path d="M33,46c-.553,0-1-.447-1-1V3c0-.553,.447-1,1-1s1,.447,1,1V45c0,.553-.447,1-1,1Z" fill="#212121"></path><circle cx="15" cy="16" r="4" fill="#212121"></circle><path d="M30,18.004c-.325-.004-.635,.156-.822,.426l-8.318,12.015-5.152-5.152c-.212-.211-.5-.312-.806-.288-.298,.029-.567,.191-.733,.44l-6,9c-.204,.307-.224,.701-.05,1.026s.513,.528,.882,.528H30V18.004Z" fill="#212121"></path><path d="M30,41H6c-1.654,0-3-1.346-3-3V10c0-1.654,1.346-3,3-3H30v-2H6c-2.757,0-5,2.243-5,5v28c0,2.757,2.243,5,5,5H30v-2Z" fill="#212121"></path><path d="M43,30h-1c-.552,0-1-.448-1-1v-8h-1c-.552,0-1-.448-1-1v-1c0-.552,.448-1,1-1h2.5c.828,0,1.5,.672,1.5,1.5v9.5c0,.552-.448,1-1,1Z" fill="#212121" data-color="color-2"></path><path d="M42,16c-2.757,0-5-2.243-5-5v-3c0-2.757,2.243-5,5-5s5,2.243,5,5v3c0,2.757-2.243,5-5,5Zm0-10c-1.103,0-2,.897-2,2v3c0,1.103,.897,2,2,2s2-.897,2-2v-3c0-1.103-.897-2-2-2Z" fill="#212121" data-color="color-2"></path><path d="M42,45c-2.757,0-5-2.243-5-5v-3c0-2.757,2.243-5,5-5s5,2.243,5,5v3c0,2.757-2.243,5-5,5Zm0-10c-1.103,0-2,.897-2,2v3c0,1.103,.897,2,2,2s2-.897,2-2v-3c0-1.103-.897-2-2-2Z" fill="#212121" data-color="color-2"></path></g></svg>