<svg xmlns="http://www.w3.org/2000/svg" height="48" width="48" viewBox="0 0 48 48"><title>download</title><g fill="#212121" class="nc-icon-wrapper"><path data-color="color-2" d="M15,25a1,1,0,0,0-.8,1.6l9,12a1,1,0,0,0,1.6,0l9-12A1,1,0,0,0,33,25H26V4a2,2,0,0,0-4,0V25Z" fill="#212121"></path><path d="M37,18H32a1,1,0,0,0,0,2h5a3,3,0,0,1,3,3V41a3,3,0,0,1-3,3H11a3,3,0,0,1-3-3V23a3,3,0,0,1,3-3h5a1,1,0,0,0,0-2H11a5.006,5.006,0,0,0-5,5V41a5.006,5.006,0,0,0,5,5H37a5.006,5.006,0,0,0,5-5V23A5.006,5.006,0,0,0,37,18Z" fill="#212121"></path></g></svg>