<svg xmlns="http://www.w3.org/2000/svg" height="48" width="48" viewBox="0 0 48 48"><title>drums</title><g fill="#212121" class="nc-icon-wrapper"><path d="M35.724,10.492l-2.767,1.384C39.135,13.165,43,15.673,43,18c0,3.311-7.8,7-19,7S5,21.311,5,18c0-2.327,3.865-4.835,10.043-6.124l-2.767-1.384C6.646,12.09,3,14.828,3,18c0,5.047,9.225,9,21,9s21-3.953,21-9C45,14.828,41.354,12.09,35.724,10.492Z" fill="#212121"></path><path d="M32.447,16.105l-3.974-1.987-2.237,1.118L31.553,17.9a1,1,0,0,0,.894-1.79Z" fill="#212121" data-color="color-2"></path><path d="M44.9,2.553a1,1,0,0,0-1.342-.448L24,11.882,4.447,2.105A1,1,0,0,0,3.553,3.9L21.764,13l-6.211,3.105a1,1,0,0,0,.894,1.79l28-14A1,1,0,0,0,44.9,2.553Z" fill="#212121" data-color="color-2"></path><path d="M39,26.524v13.64A20.775,20.775,0,0,1,37,41V27.232a38.731,38.731,0,0,1-7,1.427V42.624q-.974.126-2,.213V28.85c-1.291.095-2.623.15-4,.15s-2.709-.055-4-.15V42.837q-1.027-.086-2-.213V28.659a38.731,38.731,0,0,1-7-1.427V41a20.38,20.38,0,0,1-2-.832V26.524A16.1,16.1,0,0,1,3,22.7V36c0,5.047,9.225,9,21,9a49.358,49.358,0,0,0,4.987-.256h0l.055-.005C38.3,43.793,45,40.3,45,36V22.7A16.1,16.1,0,0,1,39,26.524Z" fill="#212121"></path></g></svg>