<svg xmlns="http://www.w3.org/2000/svg" height="48" width="48" viewBox="0 0 48 48"><title>ecology</title><g fill="#212121" class="nc-icon-wrapper"><path d="M23.045,27.824A7.916,7.916,0,0,1,24.072,28.9c.009.09.028.2.045.3A11,11,0,0,1,34,23a11.981,11.981,0,0,0,3.53-.547c-.346-.151-.673-.284-.936-.384L35.3,20.887a1,1,0,0,0-.207-.146,13.787,13.787,0,0,0-4.02-.9,10.463,10.463,0,0,0-2.247-1.059,9.194,9.194,0,0,0-3.765.646,1.009,1.009,0,0,0-.457.312c-.971,1.173-3.229,4.072-3.229,5.638C21.375,26.253,22.149,26.981,23.045,27.824Z" fill="#212121"></path><path d="M21,46a2.986,2.986,0,0,1,.254-1.2,20.91,20.91,0,0,1-10.489-4.517l1.25-1.874a3.6,3.6,0,0,0,1.924-1.3c1.048-1.887-.195-4.583-.618-5.4a8.832,8.832,0,0,0-.39-2.168,4.926,4.926,0,0,0-2.219-1.871A9.858,9.858,0,0,1,9.313,24a1.558,1.558,0,0,1,1.545-1.64A5.016,5.016,0,0,0,14.01,20.3a5.246,5.246,0,0,0,2.858-1.8c.59-1.033.045-3.193-.4-4.551a5.792,5.792,0,0,0-.112-2.778,5.364,5.364,0,0,0-1.7-2.2,13.217,13.217,0,0,0-1.673-2.812,20.838,20.838,0,0,1,7.6-2.852,2.713,2.713,0,0,0-.212,1.914,3.552,3.552,0,0,0,2.1,1.643,3.325,3.325,0,0,0,.9,2.983,3.2,3.2,0,0,0,2.962.25l.021-.005a20.12,20.12,0,0,1,.08,2.753,1,1,0,0,0,.258.705c.21.232,2.116,2.277,4.2,2.569a2.436,2.436,0,0,0,.342.023c1.9,0,4.04-2.059,4.819-2.881a39.439,39.439,0,0,0,4.956-1.525,21.054,21.054,0,0,1,3.015,6,3.016,3.016,0,0,1,1.878-.744A23,23,0,1,0,21.124,46.814,2.965,2.965,0,0,1,21,46Z" fill="#212121"></path><path d="M46.316,19.023a1.009,1.009,0,0,0-1.117.35A13.885,13.885,0,0,1,34,25a8.987,8.987,0,0,0-6.13,15.571c.349-.586.707-1.276,1.125-2.088,1.717-3.341,4.067-7.916,10.318-10.146a1,1,0,1,1,.672,1.883c-5.505,1.966-7.559,5.964-9.211,9.176-.444.865-.857,1.663-1.3,2.373A5.8,5.8,0,0,1,24,45a1,1,0,0,0,0,2c3.928,0,5.87-2.007,7.325-4.427A8.882,8.882,0,0,0,34,43,13.015,13.015,0,0,0,47,30V19.973A1,1,0,0,0,46.316,19.023Z" fill="#212121" data-color="color-2"></path></g></svg>