<svg xmlns="http://www.w3.org/2000/svg" height="48" width="48" viewBox="0 0 48 48"><title>edit</title><g fill="#212121" class="nc-icon-wrapper"><path data-color="color-2" d="M44,44H4a1,1,0,0,0,0,2H44a1,1,0,0,0,0-2Z" fill="#212121"></path><path data-color="color-2" d="M42.707,10.293l-8-8a1,1,0,0,0-1.414,0L29,6.586,38.414,16l4.293-4.293A1,1,0,0,0,42.707,10.293Z" fill="#212121"></path><path d="M27.586,8,9.293,26.293a1,1,0,0,0-.241.391l-4,12A1,1,0,0,0,6,40a.987.987,0,0,0,.316-.052l12-4a1,1,0,0,0,.391-.241L37,17.414Z" fill="#212121"></path></g></svg>