<svg xmlns="http://www.w3.org/2000/svg" height="48" width="48" viewBox="0 0 48 48"><title>energy</title><g fill="#212121" class="nc-icon-wrapper"><path d="M34.438,11.774c-.245-.3-.462-.569-.645-.806a1,1,0,0,0-1.745.3,15.325,15.325,0,0,1-2.474,4.648c.064-3.972-.723-10.981-6.479-14.756A1,1,0,0,0,21.546,2c0,3.276-1.755,6.767-4.806,9.575C13.788,14.293,6.929,21.476,7,29.433c.05,5.54,2.871,13.2,10.027,16.241.107-3.477,1.624-5.946,3.108-8.326,1.41-2.264,2.743-4.4,2.865-7.389a1,1,0,0,1,1.685-.688c4.033,3.8,6.194,9.43,6.3,16.3,5.133-2.189,9.337-6.96,9.957-14.721C41.743,20.771,36.809,14.694,34.438,11.774Z" fill="#212121"></path></g></svg>