<svg xmlns="http://www.w3.org/2000/svg" height="48" width="48" viewBox="0 0 48 48"><title>face recognition</title><g fill="#212121" class="nc-icon-wrapper"><path d="M4,13a1,1,0,0,1-1-1V4A1,1,0,0,1,4,3h8a1,1,0,0,1,0,2H5v7A1,1,0,0,1,4,13Z" fill="#212121" data-color="color-2"></path><path d="M44,13a1,1,0,0,1-1-1V5H36a1,1,0,0,1,0-2h8a1,1,0,0,1,1,1v8A1,1,0,0,1,44,13Z" fill="#212121" data-color="color-2"></path><path d="M12,45H4a1,1,0,0,1-1-1V36a1,1,0,0,1,2,0v7h7a1,1,0,0,1,0,2Z" fill="#212121" data-color="color-2"></path><path d="M44,45H36a1,1,0,0,1,0-2h7V36a1,1,0,0,1,2,0v8A1,1,0,0,1,44,45Z" fill="#212121" data-color="color-2"></path><path d="M37.316,36.772l-5.591-1.864a3.991,3.991,0,0,1-2.7-3.374,9.344,9.344,0,0,1-10.057,0,3.992,3.992,0,0,1-2.7,3.383l-5.581,1.86a1,1,0,0,0-.684.949V38a1,1,0,0,0,1,1H37a1,1,0,0,0,1-1v-.279A1,1,0,0,0,37.316,36.772Z" fill="#212121"></path><path d="M24,31c-5.539,0-10-6.564-10-12V17a10,10,0,0,1,20,0v2C34,24.436,29.539,31,24,31Z" fill="#212121"></path></g></svg>