<svg xmlns="http://www.w3.org/2000/svg" height="48" width="48" viewBox="0 0 48 48"><title>file text</title><g fill="#212121" class="nc-icon-wrapper"><polygon data-color="color-2" points="31 1.586 31 13 42.414 13 31 1.586" fill="#212121"></polygon><path d="M30,15c-.552,0-1-.448-1-1V1H6c-.552,0-1,.448-1,1V46c0,.552,.448,1,1,1H42c.552,0,1-.448,1-1V15h-13Zm-16,0h8c.552,0,1,.448,1,1s-.448,1-1,1H14c-.552,0-1-.448-1-1s.448-1,1-1Zm20,22H14c-.552,0-1-.448-1-1s.448-1,1-1h20c.552,0,1,.448,1,1s-.448,1-1,1Zm0-10H14c-.552,0-1-.448-1-1s.448-1,1-1h20c.552,0,1,.448,1,1s-.448,1-1,1Z" fill="#212121"></path></g></svg>