<svg xmlns="http://www.w3.org/2000/svg" height="48" width="48" viewBox="0 0 48 48"><title>finger snap</title><g fill="#212121" class="nc-icon-wrapper"><path d="M37.293,8.707a1,1,0,0,0,1.414,0L41,6.414l2.293,2.293a1,1,0,0,0,1.414-1.414L42.414,5l2.293-2.293a1,1,0,0,0-1.414-1.414L41,3.586,38.707,1.293a1,1,0,0,0-1.414,1.414L39.586,5,37.293,7.293A1,1,0,0,0,37.293,8.707Z" fill="#212121" data-color="color-2"></path><path d="M28.293,17.707a1,1,0,0,0,1.414,0l6-6a1,1,0,0,0-1.414-1.414l-6,6A1,1,0,0,0,28.293,17.707Z" fill="#212121" data-color="color-2"></path><path d="M27.726,12.962A1.036,1.036,0,0,0,28,13a1,1,0,0,0,.961-.726l2-7a1,1,0,0,0-1.924-.548l-2,7A1,1,0,0,0,27.726,12.962Z" fill="#212121" data-color="color-2"></path><path d="M41.758,15.03l-8,2A1,1,0,0,0,34,19a1.017,1.017,0,0,0,.243-.03l8-2a1,1,0,1,0-.484-1.94Z" fill="#212121" data-color="color-2"></path><path d="M42.5,21H21.712a3,3,0,0,1-2.027-5.211l3.908-3.582A4,4,0,0,0,24.32,7.2a2.72,2.72,0,0,0-3.593-1.01L2,16V40.618S16.433,44,24.043,44a2.273,2.273,0,0,0,.549-4.422,3.019,3.019,0,0,0,2.6-2.955,2.854,2.854,0,0,0-1.751-2.681s2.8-.489,2.8-2.863A2.941,2.941,0,0,0,26,28H42.5a3.5,3.5,0,0,0,0-7Z" fill="#212121"></path></g></svg>