<svg xmlns="http://www.w3.org/2000/svg" height="48" width="48" viewBox="0 0 48 48"><title>flag diagonal 33</title><g fill="#212121" class="nc-icon-wrapper"><path data-color="color-2" fill="#212121" d="M5.4,11.1c-0.3-0.5-0.9-0.6-1.4-0.4c-0.5,0.3-0.6,0.9-0.4,1.4l19,32.9 c0.2,0.3,0.5,0.5,0.9,0.5c0.2,0,0.3,0,0.5-0.1c0.5-0.3,0.6-0.9,0.4-1.4L5.4,11.1z"></path> <path fill="#212121" d="M35.4,3c-0.2-0.3-0.4-0.4-0.7-0.5c-0.3,0-0.6,0-0.8,0.3c-3.2,3-6.8,2.9-10.3,2.9c-0.4,0-0.8,0-1.1,0 c-4.1,0-8.4,0.5-11.5,5.9c-0.2,0.3-0.2,0.7,0,1l9,15.6c0.2,0.3,0.5,0.5,0.9,0.5c0,0,0,0,0,0c0.4,0,0.7-0.2,0.9-0.5 c2.6-4.6,5.9-5,9.9-5l2,0c3.5,0,7.2-0.3,10.7-3.3c0.4-0.3,0.4-0.8,0.2-1.2L35.4,3z"></path></g></svg>