<svg xmlns="http://www.w3.org/2000/svg" height="48" width="48" viewBox="0 0 48 48"><title>floppy disk</title><g fill="#212121" class="nc-icon-wrapper"><path d="M44.707,12.293l-9-9A1,1,0,0,0,35,3H31V13a1,1,0,0,1-1,1H11a1,1,0,0,1-1-1V3H8A5.006,5.006,0,0,0,3,8V40a5.006,5.006,0,0,0,5,5H40a5.006,5.006,0,0,0,5-5V13A1,1,0,0,0,44.707,12.293ZM38,37a1,1,0,0,1-1,1H11a1,1,0,0,1-1-1V26a1,1,0,0,1,1-1H37a1,1,0,0,1,1,1Z" fill="#212121"></path><path data-color="color-2" d="M28,3H24v7a1,1,0,0,0,1,1h2a1,1,0,0,0,1-1Z" fill="#212121"></path></g></svg>