<svg xmlns="http://www.w3.org/2000/svg" height="48" width="48" viewBox="0 0 48 48"><title>flower rose</title><g fill="#212121" class="nc-icon-wrapper"><path d="M32.087,34.533a7.929,7.929,0,0,0-5.536-.058A20.063,20.063,0,0,0,28,27a1,1,0,0,0-2,0,17.9,17.9,0,0,1-7.412,14.538A8.973,8.973,0,0,0,10.892,30a1,1,0,0,0-1.006.565,8.971,8.971,0,0,0,6,12.6A17.964,17.964,0,0,1,8,45a1,1,0,0,0,0,2,20.059,20.059,0,0,0,17.163-9.744,7.924,7.924,0,0,0,2.768,4.488,8.928,8.928,0,0,0,5.779,2.13,9.079,9.079,0,0,0,3.7-.793,1,1,0,0,0,.587-1.018A8.936,8.936,0,0,0,32.087,34.533Z" fill="#212121"></path><path d="M27,1C20.271,1,15,4.075,15,8c0,2.744,2.55,5.161,6.655,6.31a6.992,6.992,0,0,1,4.861,4.3,22.133,22.133,0,0,1,2.594-1.46c2.954-1.49,5.74-2.909,5.877-7.316C34.849,7.11,31.4,5,27,5c-.818,0-8,.084-8,3s7.182,3,8,3a1,1,0,0,0,0-2,13.032,13.032,0,0,1-5.829-1A13.032,13.032,0,0,1,27,7c3.536,0,6,1.581,6,3s-2.464,3-6,3c-5.421,0-10-2.29-10-5s4.579-5,10-5S37,5.29,37,8v2h-.021c-.217,5.513-3.946,7.41-6.968,8.935C27.449,20.228,26,21.054,26,23a2.946,2.946,0,0,0,.419,1.5A1,1,0,0,1,24.69,25.5,4.925,4.925,0,0,1,24,23a4.714,4.714,0,0,1,.891-2.862,5.015,5.015,0,0,0-3.736-3.893A13.155,13.155,0,0,1,15,12.77V16a12,12,0,0,0,24,0V8C39,4.075,33.729,1,27,1Z" fill="#212121" data-color="color-2"></path></g></svg>