<svg xmlns="http://www.w3.org/2000/svg" height="48" width="48" viewBox="0 0 48 48"><title>gaming console</title><g fill="#212121" class="nc-icon-wrapper"><path d="M18,11a1,1,0,0,0-1,1V25h2V12A1,1,0,0,0,18,11Z" fill="#212121"></path><path d="M45,1H27a1,1,0,0,0-1,1V23.042a7.453,7.453,0,0,1,6.781,5.707L35.919,42.57l.012.091A8.044,8.044,0,0,1,36,43.5,5.477,5.477,0,0,1,34.739,47H45a1,1,0,0,0,1-1V2A1,1,0,0,0,45,1ZM37,32a1,1,0,0,1-2,0V16a1,1,0,0,1,2,0ZM36,12a2,2,0,1,1,2-2A2,2,0,0,1,36,12Z" fill="#212121" data-color="color-2"></path><path d="M14.927,42.709l.02-.024Z" fill="#212121"></path><circle cx="12" cy="40" r="2" fill="#212121"></circle><path d="M33.948,42.923,30.837,29.217A5.49,5.49,0,0,0,21.259,27H14.741a5.489,5.489,0,0,0-9.58,2.229L2.077,42.77l-.025.152A5.515,5.515,0,0,0,2,43.5,3.5,3.5,0,0,0,5.5,47a3.441,3.441,0,0,0,2.161-.762L10.808,43.8A4.029,4.029,0,1,1,15.859,41h4.282a4,4,0,1,1,5.051,2.8l3.136,2.431A3.455,3.455,0,0,0,30.5,47,3.5,3.5,0,0,0,34,43.5,5.377,5.377,0,0,0,33.948,42.923ZM10.5,33A2.5,2.5,0,1,1,13,30.5,2.5,2.5,0,0,1,10.5,33Zm15,0A2.5,2.5,0,1,1,28,30.5,2.5,2.5,0,0,1,25.5,33Z" fill="#212121"></path><circle cx="24" cy="40" r="2" fill="#212121"></circle></g></svg>