<svg xmlns="http://www.w3.org/2000/svg" height="48" width="48" viewBox="0 0 48 48"><title>globe 2</title><g fill="#212121" class="nc-icon-wrapper"><path data-color="color-2" fill="#212121" d="M24,35c8.271,0,15-6.729,15-15S32.271,5,24,5S9,11.729,9,20S15.729,35,24,35z"></path> <path fill="#212121" d="M45,20c0-5.309-1.984-10.303-5.468-14.118l3.175-3.175c0.391-0.391,0.391-1.023,0-1.414 s-1.023-0.391-1.414,0l-3.182,3.182c-0.859-0.777-1.781-1.497-2.777-2.136c-0.466-0.298-1.083-0.164-1.382,0.301 c-0.298,0.465-0.164,1.083,0.301,1.382C39.73,7.538,43,13.512,43,20c0,10.477-8.523,19-19,19c-5.11,0-9.877-2.024-13.395-5.547 c-0.01-0.011-0.013-0.025-0.023-0.035c-0.01-0.01-0.023-0.013-0.034-0.022c-0.982-0.992-1.871-2.095-2.634-3.312 c-0.293-0.467-0.91-0.61-1.379-0.315c-0.468,0.293-0.609,0.911-0.315,1.379c0.67,1.067,1.428,2.054,2.252,2.967l-3.179,3.179 c-0.391,0.391-0.391,1.023,0,1.414C5.488,38.902,5.744,39,6,39s0.512-0.098,0.707-0.293l3.175-3.175 c3.571,3.265,8.174,5.205,13.118,5.437V45h-7c-0.552,0-1,0.448-1,1s0.448,1,1,1h16c0.552,0,1-0.448,1-1s-0.448-1-1-1h-7v-4.051 C36.113,40.422,45,31.242,45,20z"></path></g></svg>