<svg xmlns="http://www.w3.org/2000/svg" height="48" width="48" viewBox="0 0 48 48"><title>grid layout</title><g fill="#212121" class="nc-icon-wrapper"><path d="M40,3H8c-2.761,0-5,2.239-5,5V40c0,2.761,2.239,5,5,5H40c2.761,0,5-2.239,5-5V8c0-2.761-2.239-5-5-5ZM21,37c0,.552-.448,1-1,1H11c-.552,0-1-.448-1-1v-9c0-.552,.448-1,1-1h9c.552,0,1,.448,1,1v9Zm0-17c0,.552-.448,1-1,1H11c-.552,0-1-.448-1-1V11c0-.552,.448-1,1-1h9c.552,0,1,.448,1,1v9Zm17,17c0,.552-.448,1-1,1h-9c-.552,0-1-.448-1-1v-9c0-.552,.448-1,1-1h9c.552,0,1,.448,1,1v9Zm0-17c0,.552-.448,1-1,1h-9c-.552,0-1-.448-1-1V11c0-.552,.448-1,1-1h9c.552,0,1,.448,1,1v9Z" fill="#212121"></path></g></svg>