<svg xmlns="http://www.w3.org/2000/svg" height="48" width="48" viewBox="0 0 48 48"><title>hair woman</title><g fill="#212121" class="nc-icon-wrapper"><path d="M44.038,30.505A31.8,31.8,0,0,1,42,19.379C41.906,9.247,33.833,1,24,1h0A18,18,0,0,0,6,19,31.828,31.828,0,0,1,3.962,30.505c-1.406,4.149-2.517,7.427,1.414,14.958a1,1,0,0,0,1.07.52l7.469-1.391A5,5,0,0,0,18,39.676V36.3a11.427,11.427,0,0,0,12,0v3.378a5,5,0,0,0,4.084,4.916l7.47,1.391a1.039,1.039,0,0,0,.183.017,1,1,0,0,0,.887-.537C46.555,37.932,45.444,34.654,44.038,30.505ZM33.4,21.9l-.673,1.009a6,6,0,0,0,.7,7.506C31.008,33.7,27.708,36,24,36c-3.77,0-7.118-2.375-9.543-5.748a5.992,5.992,0,0,0,.151-6.774L12,19.5A14.5,14.5,0,0,0,26.312,7.343l6.537,7.191A6,6,0,0,1,33.4,21.9Z" fill="#212121"></path></g></svg>