<svg xmlns="http://www.w3.org/2000/svg" height="48" width="48" viewBox="0 0 48 48"><title>hair man</title><g fill="#212121" class="nc-icon-wrapper"><path d="M41.905,44.015,33.5,42.582A2.994,2.994,0,0,1,31,39.624V35.7c4.988-3.4,8.567-10.174,8.583-17.607.009-.1.01-.184.018-.278,0-.008.006-.014.006-.022.539-5.927-.423-10.147-2.941-12.9C33.537,1.462,28.508,1,24,1c-4.527,0-9.577.466-12.7,3.919C8.965,7.5,8,11.364,8.315,16.6c.021.464.052.939.1,1.439,0,.632.035,1.257.085,1.878,0,.036,0,.068,0,.1,0,.009.006.016.007.024C9.088,26.7,12.454,32.6,17,35.7v3.925a2.994,2.994,0,0,1-2.5,2.958L6.1,44.015A1,1,0,0,0,6.262,46a.982.982,0,0,0,.169-.015l8.409-1.432A4.988,4.988,0,0,0,19,39.624V36.835a11.312,11.312,0,0,0,10,0v2.789a4.988,4.988,0,0,0,4.16,4.929l8.409,1.432a.982.982,0,0,0,.169.015,1,1,0,0,0,.167-1.985ZM24,36c-6.739,0-12.7-7.281-13.493-16.089A5.013,5.013,0,0,1,15.5,15H25a6.994,6.994,0,0,0,5.746-3.007,10.956,10.956,0,0,0,6.821,6.428C37.4,27.828,31.139,36,24,36Z" fill="#212121"></path></g></svg>