<svg xmlns="http://www.w3.org/2000/svg" height="48" width="48" viewBox="0 0 48 48"><title>handshake</title><g fill="#212121" class="nc-icon-wrapper"><path d="M23,39.668a3.24,3.24,0,0,0-3.464-.727,3.541,3.541,0,0,0-4.38-4.679,3.5,3.5,0,0,0-4.6-4.769,3.523,3.523,0,0,0-5.809-3.685l-.713.713A3.523,3.523,0,0,0,7.719,32.33,3.513,3.513,0,0,0,12.2,37.071a3.552,3.552,0,0,0,4.677,4.567A3.238,3.238,0,0,0,22.2,45.05L23,44.256A3.244,3.244,0,0,0,23,39.668Z" fill="#212121"></path> <path data-color="color-2" d="M35.815,17.441A10.837,10.837,0,0,1,32.382,18a10.534,10.534,0,0,1-5.734-1.652L19.659,20.7a4.755,4.755,0,0,1-5.945-7.33l7.831-8.155c.19-.19.391-.364.592-.538A8.876,8.876,0,0,0,18.739,4H15.414L13.707,2.293a1,1,0,0,0-1.414,0l-11,11a1,1,0,0,0,0,1.414L3,16.414v3.461a8.359,8.359,0,0,0,1.079,3.907,5.505,5.505,0,0,1,8.573,3.424,5.5,5.5,0,0,1,4.864,5.03,5.546,5.546,0,0,1,4.206,4.582,5.236,5.236,0,0,1,2.765,8.759,4.078,4.078,0,0,0,3.982-1.083,4.155,4.155,0,0,0,1.207-2.774,3.4,3.4,0,0,0,5.2-4.081,4.16,4.16,0,0,0,5.41-5.113,4.172,4.172,0,0,0,3.49-7.1Z" fill="#212121"></path> <path d="M46.707,13.293l-11-11a1,1,0,0,0-1.414,0L32.586,4H29.261a8.877,8.877,0,0,0-6.274,2.6l-7.831,8.157a2.756,2.756,0,0,0,.334,4.113h0A2.756,2.756,0,0,0,18.6,19l8.16-5.085A8.381,8.381,0,0,0,32.382,16a8.686,8.686,0,0,0,3.908-.912L45,23.825V16.414l1.707-1.707A1,1,0,0,0,46.707,13.293Z" fill="#212121"></path></g></svg>