<svg xmlns="http://www.w3.org/2000/svg" height="48" width="48" viewBox="0 0 48 48"><title>headphones</title><g fill="#212121" class="nc-icon-wrapper"><path d="M34.965,22a16.5,16.5,0,0,0-3.194.426A1,1,0,0,0,31,23.4V44.6a1,1,0,0,0,.724.961A11.246,11.246,0,0,0,34.829,46a12,12,0,1,0,.136-24Z" fill="#212121"></path><path d="M16.276,22.438A11.071,11.071,0,0,0,13,22a12,12,0,1,0,.034,24,16.4,16.4,0,0,0,3.195-.425A1,1,0,0,0,17,44.6V23.4A1,1,0,0,0,16.276,22.438Z" fill="#212121"></path><path data-color="color-2" d="M43,19v3.533a14.057,14.057,0,0,1,1.89,1.57c.039.038.072.082.11.121V19A17.086,17.086,0,0,0,28,2H20A17.086,17.086,0,0,0,3,19v5.22a14.088,14.088,0,0,1,2-1.694V19A15.08,15.08,0,0,1,20,4h8A15.08,15.08,0,0,1,43,19Z" fill="#212121"></path></g></svg>