<svg xmlns="http://www.w3.org/2000/svg" height="48" width="48" viewBox="0 0 48 48"><title>hide</title><g fill="#212121" class="nc-icon-wrapper"><path d="M38.576,13.667l-6.46,6.459A8.984,8.984,0,0,1,20.128,32.114l-5.556,5.557A20.967,20.967,0,0,0,24,40c11.246,0,19.421-9.9,22.414-14.164a3.228,3.228,0,0,0,.007-3.674A41.736,41.736,0,0,0,38.576,13.667Z" fill="#212121"></path><path d="M1.575,25.825a41.617,41.617,0,0,0,7.849,8.509l6.463-6.463A8.984,8.984,0,0,1,27.873,15.884l5.555-5.554A20.947,20.947,0,0,0,24,8C12.564,8,4.5,17.911,1.565,22.176a3.237,3.237,0,0,0,.009,3.648Z" fill="#212121"></path><path data-color="color-2" d="M4,45a1,1,0,0,1-.707-1.707l40-40a1,1,0,1,1,1.414,1.414l-40,40A1,1,0,0,1,4,45Z" fill="#212121"></path></g></svg>