<svg xmlns="http://www.w3.org/2000/svg" height="48" width="48" viewBox="0 0 48 48"><title>hourglass</title><g fill="#212121" class="nc-icon-wrapper"><path data-color="color-2" d="M41,47H7c-.552,0-1-.448-1-1s.448-1,1-1H41c.552,0,1,.448,1,1s-.448,1-1,1Z" fill="#212121"></path><path d="M38,11.999V5H10v6.999c0,6.384,4.607,10.344,7.063,12.001-2.457,1.656-7.063,5.615-7.063,12.001v6.999h2.393c2.101-4.113,6.395-11,11.607-11s9.506,6.887,11.607,11h2.393v-6.999c0-6.386-4.607-10.345-7.063-12.001,2.456-1.657,7.063-5.617,7.063-12.001Z" fill="#212121"></path><path data-color="color-2" d="M41,3H7c-.552,0-1-.448-1-1s.448-1,1-1H41c.552,0,1,.448,1,1s-.448,1-1,1Z" fill="#212121"></path></g></svg>