<svg xmlns="http://www.w3.org/2000/svg" height="48" width="48" viewBox="0 0 48 48"><title>interview</title><g fill="#212121" class="nc-icon-wrapper"><path d="M11.272,7.272l1.414,1.414a16,16,0,0,1,22.628,0l1.414-1.414a18,18,0,0,0-25.456,0Z" fill="#212121" data-color="color-2"></path><path d="M24,10a9.968,9.968,0,0,0-7.071,2.929l1.414,1.414a8,8,0,0,1,11.314,0l1.414-1.414A9.968,9.968,0,0,0,24,10Z" fill="#212121" data-color="color-2"></path><path d="M31,38V34.721l-2.316-.773a1,1,0,0,1-.6-1.345L31,25.873V24A12.958,12.958,0,0,1,47,11.362V47H39V42H35A4,4,0,0,1,31,38Z" fill="#212121"></path><path d="M17,38V34.721l2.316-.773a1,1,0,0,0,.6-1.345L17,25.873V24A13,13,0,0,0,4,11a13.015,13.015,0,0,0-3,.362V47H9V42h4A4,4,0,0,0,17,38Z" fill="#212121"></path><circle cx="24" cy="20" r="2" fill="#212121" data-color="color-2"></circle></g></svg>