<svg xmlns="http://www.w3.org/2000/svg" height="48" width="48" viewBox="0 0 48 48"><title>launch</title><g fill="#212121" class="nc-icon-wrapper"><path data-color="color-2" d="M44.868,2.009l-15,2a1,1,0,0,0-.575,1.7l5.086,5.086L21.586,23.586a2,2,0,1,0,2.828,2.828L37.207,13.621l5.086,5.086A1,1,0,0,0,43,19a1.019,1.019,0,0,0,.321-.053,1,1,0,0,0,.67-.815l2-15a1,1,0,0,0-1.123-1.123Z" fill="#212121"></path><path d="M39,28a1,1,0,0,0-1,1V41a3,3,0,0,1-3,3H7a3,3,0,0,1-3-3V13a3,3,0,0,1,3-3H19a1,1,0,0,0,0-2H7a5.006,5.006,0,0,0-5,5V41a5.006,5.006,0,0,0,5,5H35a5.006,5.006,0,0,0,5-5V29A1,1,0,0,0,39,28Z" fill="#212121"></path></g></svg>