<svg xmlns="http://www.w3.org/2000/svg" height="48" width="48" viewBox="0 0 48 48"><title>leave</title><g fill="#212121" class="nc-icon-wrapper"><path d="M27,27a1,1,0,0,0-1,1v8H17V12a1,1,0,0,0-.459-.841L5.405,4H26V14a1,1,0,0,0,2,0V3a1,1,0,0,0-1-1H2A1,1,0,0,0,1,3V37a1,1,0,0,0,.459.841l14,9A1,1,0,0,0,17,46V38H27a1,1,0,0,0,1-1V28A1,1,0,0,0,27,27Z" fill="#212121"></path><path data-color="color-2" d="M46.614,20.211l-9-7A1,1,0,0,0,36,14v5H23a2,2,0,0,0,0,4H36v5a1,1,0,0,0,.561.9,1,1,0,0,0,1.053-.109l9-7a1,1,0,0,0,0-1.578Z" fill="#212121"></path></g></svg>