<svg xmlns="http://www.w3.org/2000/svg" height="48" width="48" viewBox="0 0 48 48"><title>license key</title><g fill="#212121" class="nc-icon-wrapper"><path d="M45,3H3A2,2,0,0,0,1,5V43a2,2,0,0,0,2,2H45a2,2,0,0,0,2-2V5A2,2,0,0,0,45,3ZM13,6a2,2,0,1,1-2,2A2,2,0,0,1,13,6ZM6,6A2,2,0,1,1,4,8,2,2,0,0,1,6,6ZM44,43H4a1,1,0,0,1-1-1V14a1,1,0,0,1,1-1H44a1,1,0,0,1,1,1V42A1,1,0,0,1,44,43Z" fill="#212121"></path><path d="M40.773,24.366A1,1,0,0,0,40,24H22.134a7.5,7.5,0,1,0,0,7h3.63l1.789.895a1,1,0,0,0,.894,0L30.236,31h1.528l1.789.895a1,1,0,0,0,.894,0L36.236,31H39a1,1,0,0,0,.98-.8l1-5A1,1,0,0,0,40.773,24.366ZM13.5,30A2.5,2.5,0,1,1,16,27.5,2.5,2.5,0,0,1,13.5,30Z" fill="#212121" data-color="color-2"></path></g></svg>