<svg xmlns="http://www.w3.org/2000/svg" height="48" width="48" viewBox="0 0 48 48"><title>lifering</title><g fill="#212121" class="nc-icon-wrapper"><path fill="#212121" d="M45,24c0-11.58-9.421-21-21-21S3,12.42,3,24s9.421,21,21,21S45,35.58,45,24z M34.574,21h8.166 C42.896,21.98,43,22.977,43,24s-0.104,2.02-0.261,3h-8.166C34.845,26.045,35,25.041,35,24S34.845,21.955,34.574,21z M24,33 c-4.963,0-9-4.038-9-9s4.037-9,9-9s9,4.038,9,9S28.963,33,24,33z M27,5.261v8.166C26.045,13.155,25.041,13,24,13 s-2.045,0.155-3,0.426V5.261C21.98,5.104,22.977,5,24,5S26.02,5.104,27,5.261z M13.426,27H5.261C5.104,26.02,5,25.023,5,24 s0.104-2.02,0.261-3h8.166C13.155,21.955,13,22.959,13,24S13.155,26.045,13.426,27z M21,42.739v-8.166 C21.955,34.845,22.959,35,24,35s2.045-0.155,3-0.426v8.166C26.02,42.896,25.023,43,24,43S21.98,42.896,21,42.739z"></path> <path data-color="color-2" fill="#212121" d="M2,14c0.553,0,1-0.448,1-1C3,7.486,7.486,3,13,3c0.553,0,1-0.448,1-1s-0.447-1-1-1 C6.383,1,1,6.383,1,13C1,13.552,1.447,14,2,14z"></path> <path data-color="color-2" fill="#212121" d="M35,3c5.514,0,10,4.486,10,10c0,0.552,0.447,1,1,1s1-0.448,1-1c0-6.617-5.383-12-12-12 c-0.553,0-1,0.448-1,1S34.447,3,35,3z"></path> <path data-color="color-2" fill="#212121" d="M46,34c-0.553,0-1,0.448-1,1c0,5.514-4.486,10-10,10c-0.553,0-1,0.448-1,1s0.447,1,1,1 c6.617,0,12-5.383,12-12C47,34.448,46.553,34,46,34z"></path> <path data-color="color-2" fill="#212121" d="M13,45C7.486,45,3,40.514,3,35c0-0.552-0.447-1-1-1s-1,0.448-1,1c0,6.617,5.383,12,12,12 c0.553,0,1-0.448,1-1S13.553,45,13,45z"></path></g></svg>