<svg xmlns="http://www.w3.org/2000/svg" height="48" width="48" viewBox="0 0 48 48"><title>light control</title><g fill="#212121" class="nc-icon-wrapper"><rect data-color="color-2" x="19" y="14" width="10" height="10" fill="#212121"></rect><path d="M40,3H8c-2.761,0-5,2.239-5,5V40c0,2.761,2.239,5,5,5H40c2.761,0,5-2.239,5-5V8c0-2.761-2.239-5-5-5ZM8.5,41c-.828,0-1.5-.672-1.5-1.5s.672-1.5,1.5-1.5,1.5,.672,1.5,1.5-.672,1.5-1.5,1.5Zm0-31c-.828,0-1.5-.672-1.5-1.5s.672-1.5,1.5-1.5,1.5,.672,1.5,1.5-.672,1.5-1.5,1.5Zm22.5,25c0,.552-.448,1-1,1h-12c-.552,0-1-.448-1-1V13c0-.552,.448-1,1-1h12c.552,0,1,.448,1,1v22Zm8.5,6c-.828,0-1.5-.672-1.5-1.5s.672-1.5,1.5-1.5,1.5,.672,1.5,1.5-.672,1.5-1.5,1.5Zm0-31c-.828,0-1.5-.672-1.5-1.5s.672-1.5,1.5-1.5,1.5,.672,1.5,1.5-.672,1.5-1.5,1.5Z" fill="#212121"></path></g></svg>