<svg xmlns="http://www.w3.org/2000/svg" height="48" width="48" viewBox="0 0 48 48"><title>like</title><g fill="#212121" class="nc-icon-wrapper"><path d="M45.847,19.458A6,6,0,0,0,41.022,17H29V9a8.155,8.155,0,0,0-2.238-6.18A6.987,6.987,0,0,0,21.947,1a1,1,0,0,0-.943.9,62.837,62.837,0,0,1-1.987,10.776,20.819,20.819,0,0,1-2.755,4.891,19.74,19.74,0,0,0-3.232,6.185A1,1,0,0,0,13,24V44a1,1,0,0,0,1,1H38.575a5.948,5.948,0,0,0,5.9-5.089l2.449-16A5.957,5.957,0,0,0,45.847,19.458Z" fill="#212121"></path><rect data-color="color-2" x="0.999" y="19" width="10.001" height="26" rx="1" fill="#212121"></rect></g></svg>