<svg xmlns="http://www.w3.org/2000/svg" height="48" width="48" viewBox="0 0 48 48"><title>loader bars</title><g fill="#212121" class="nc-icon-wrapper"><path fill="#212121" d="M24,1c-0.552,0-1,0.448-1,1v8c0,0.552,0.448,1,1,1s1-0.448,1-1V2C25,1.448,24.552,1,24,1z"></path> <path opacity="0.9" fill="#212121" d="M33.899,15.101c0.256,0,0.512-0.098,0.707-0.293l5.657-5.657c0.391-0.391,0.391-1.023,0-1.414 s-1.023-0.391-1.414,0l-5.657,5.657c-0.391,0.391-0.391,1.023,0,1.414C33.388,15.003,33.644,15.101,33.899,15.101z"></path> <path opacity="0.8" fill="#212121" d="M46,23h-8c-0.552,0-1,0.448-1,1s0.448,1,1,1h8c0.552,0,1-0.448,1-1S46.552,23,46,23z"></path> <path opacity="0.7" fill="#212121" d="M34.606,33.192c-0.391-0.391-1.023-0.391-1.414,0s-0.391,1.023,0,1.414l5.657,5.657 c0.195,0.195,0.451,0.293,0.707,0.293s0.512-0.098,0.707-0.293c0.391-0.391,0.391-1.023,0-1.414L34.606,33.192z"></path> <path opacity="0.6" fill="#212121" d="M24,37c-0.552,0-1,0.448-1,1v8c0,0.552,0.448,1,1,1s1-0.448,1-1v-8C25,37.448,24.552,37,24,37 z"></path> <path opacity="0.5" fill="#212121" d="M13.394,33.192l-5.657,5.657c-0.391,0.391-0.391,1.023,0,1.414 c0.195,0.195,0.451,0.293,0.707,0.293s0.512-0.098,0.707-0.293l5.657-5.657c0.391-0.391,0.391-1.023,0-1.414 S13.784,32.802,13.394,33.192z"></path> <path opacity="0.4" fill="#212121" d="M11,24c0-0.552-0.448-1-1-1H2c-0.552,0-1,0.448-1,1s0.448,1,1,1h8C10.552,25,11,24.552,11,24z "></path> <path opacity="0.3" fill="#212121" d="M9.151,7.737c-0.391-0.391-1.023-0.391-1.414,0s-0.391,1.023,0,1.414l5.657,5.657 c0.195,0.195,0.451,0.293,0.707,0.293s0.512-0.098,0.707-0.293c0.391-0.391,0.391-1.023,0-1.414L9.151,7.737z"></path> </g></svg>