<svg xmlns="http://www.w3.org/2000/svg" height="48" width="48" viewBox="0 0 48 48"><title>love song</title><g fill="#212121" class="nc-icon-wrapper"><path d="M26.5,32c.167,0,.334.007.5.02V25.439l-14,2.8v.534A93.075,93.075,0,0,0,20.356,36.4,6.506,6.506,0,0,1,26.5,32Z" fill="#212121"></path><path d="M35,1a12.013,12.013,0,0,0-9,4.074A11.993,11.993,0,0,0,5,13a16.158,16.158,0,0,0,2,7.088V20a3.009,3.009,0,0,1,2.41-2.941l20-4A3.14,3.14,0,0,1,30,13a3,3,0,0,1,3,3V35.113C38.983,29.348,47,20.271,47,13A12.013,12.013,0,0,0,35,1Z" fill="#212121"></path><path d="M30.634,15.227a1.009,1.009,0,0,0-.83-.207l-20,4A1,1,0,0,0,9,20V38.764A4.5,4.5,0,1,0,11,42.5V26.6L29,23V34.762A4.5,4.5,0,1,0,31,38.5V16A1,1,0,0,0,30.634,15.227Z" fill="#212121" data-color="color-2"></path></g></svg>