<svg xmlns="http://www.w3.org/2000/svg" height="48" width="48" viewBox="0 0 48 48"><title>lucky seven</title><g fill="#212121" class="nc-icon-wrapper"><path d="M3,5H45a2,2,0,0,1,2,2v4a0,0,0,0,1,0,0H1a0,0,0,0,1,0,0V7A2,2,0,0,1,3,5Z" fill="#212121"></path><path d="M1,37H47a0,0,0,0,1,0,0v4a2,2,0,0,1-2,2H3a2,2,0,0,1-2-2V37A0,0,0,0,1,1,37Z" fill="#212121"></path><path d="M15,35V13H1V35ZM3,17.5a.5.5,0,0,1,.5-.5h9a.5.5,0,0,1,.5.5v3.216a.505.505,0,0,1-.233.423c-.831.54-3.6,3.758-3.76,9.366a.5.5,0,0,1-.495.5H4.521a.5.5,0,0,1-.506-.523C4.347,24.769,10,20,10,20H6a1,1,0,0,0-1,1v.5a.5.5,0,0,1-.5.5h-1a.5.5,0,0,1-.5-.5Z" fill="#212121" data-color="color-2"></path><path d="M47,35V13H33V35ZM35,17.5a.5.5,0,0,1,.5-.5h9a.5.5,0,0,1,.5.5v3.216a.505.505,0,0,1-.233.423c-.831.54-3.605,3.758-3.76,9.366a.5.5,0,0,1-.495.5H36.521a.5.5,0,0,1-.506-.523C36.347,24.769,42,20,42,20H38a1,1,0,0,0-1,1v.5a.5.5,0,0,1-.5.5h-1a.5.5,0,0,1-.5-.5Z" fill="#212121" data-color="color-2"></path><path d="M31,35V13H17V35ZM19,17.5a.5.5,0,0,1,.5-.5h9a.5.5,0,0,1,.5.5v3.216a.505.505,0,0,1-.233.423c-.831.54-3.605,3.758-3.76,9.366a.5.5,0,0,1-.5.5H20.521a.5.5,0,0,1-.506-.523C20.347,24.769,26,20,26,20H22a1,1,0,0,0-1,1v.5a.5.5,0,0,1-.5.5h-1a.5.5,0,0,1-.5-.5Z" fill="#212121" data-color="color-2"></path></g></svg>