<svg xmlns="http://www.w3.org/2000/svg" height="48" width="48" viewBox="0 0 48 48"><title>megaphone</title><g fill="#212121" class="nc-icon-wrapper"><path data-color="color-2" d="M42,14h-1v10h1c2.757,0,5-2.243,5-5s-2.243-5-5-5Z" fill="#212121"></path><path data-color="color-2" d="M21.28,31H11.6l5.368,13.226c.695,1.724,2.361,2.773,4.116,2.773,.549,0,1.106-.104,1.646-.319,2.257-.913,3.358-3.494,2.455-5.752l-3.903-9.928Z" fill="#212121"></path><path d="M38.439,2.102c-.343-.167-.751-.125-1.053,.109-.087,.067-8.815,6.789-15.386,6.789H11C5.486,9,1,13.486,1,19s4.486,10,10,10h11c5.614,0,15.329,6.751,15.427,6.819,.171,.12,.372,.181,.573,.181,.158,0,.316-.037,.462-.113,.331-.172,.538-.514,.538-.887V3c0-.382-.218-.73-.561-.898Z" fill="#212121"></path></g></svg>