<svg xmlns="http://www.w3.org/2000/svg" height="48" width="48" viewBox="0 0 48 48"><title>mirror tablet phone</title><g fill="#212121" class="nc-icon-wrapper"> <path d="M42,47H26a3,3,0,0,1-3-3V22a3,3,0,0,1,3-3H42a3,3,0,0,1,3,3V44A3,3,0,0,1,42,47ZM26,21a1,1,0,0,0-1,1V42a1,1,0,0,0,1,1H42a1,1,0,0,0,1-1V22a1,1,0,0,0-1-1Z" fill="#212121" data-color="color-2"></path> <path d="M21,43H6a3,3,0,0,1-3-3V4A3,3,0,0,1,6,1H32a3,3,0,0,1,3,3V17H33V4a1,1,0,0,0-1-1H6A1,1,0,0,0,5,4V36a1,1,0,0,0,1,1H21Z" fill="#212121"></path> </g></svg>