<svg xmlns="http://www.w3.org/2000/svg" height="48" width="48" viewBox="0 0 48 48"><title>palm tree</title><g fill="#212121" class="nc-icon-wrapper"><path d="M38.226,47H9.774a1,1,0,0,1-.791-1.612,18.956,18.956,0,0,1,30.034,0A1,1,0,0,1,38.226,47Z" fill="#212121"></path><path d="M23.081,15.584a34.432,34.432,0,0,1,1.213,9.056,34.381,34.381,0,0,1-1.947,11.432C22.894,36.029,23.445,36,24,36a21.055,21.055,0,0,1,4.147.427A32.946,32.946,0,0,0,29,29a32.815,32.815,0,0,0-2.537-12.68l-2.738-1.615Z" fill="#212121"></path><path d="M37.766,11.079A14.759,14.759,0,0,0,29.278,8.8l8.154-3.9a1,1,0,0,0,.06-1.772C37.229,2.979,30.971-.5,26.351,1.962a8.308,8.308,0,0,0-3.968,5.686,7.7,7.7,0,0,0-4.878-3.517c-5.028-.986-10,3.945-10.214,4.155a1,1,0,0,0,.593,1.7l9.168,1.077c-3.264,1.118-5.551,2.755-6.886,4.968-1.746,2.9-1.782,6.7-.105,11.313a1,1,0,0,0,.8.648A.978.978,0,0,0,11,28a1,1,0,0,0,.807-.409l2.953-4.032L14,19l3,1.5,6.181-8.438,8.249,4.865L34,15v3.443l7.492,4.418A.991.991,0,0,0,42,23a1,1,0,0,0,1-1.059C42.7,16.918,40.942,13.264,37.766,11.079Z" fill="#212121" data-color="color-2"></path></g></svg>