<svg xmlns="http://www.w3.org/2000/svg" height="48" width="48" viewBox="0 0 48 48"><title>paragraph</title><g fill="#212121" class="nc-icon-wrapper"><rect x="2" y="3" width="18" height="18" rx="1" fill="#212121"></rect><rect x="2" y="27" width="18" height="18" rx="1" fill="#212121"></rect><path data-color="color-2" d="M27,8H45a1,1,0,0,0,0-2H27a1,1,0,0,0,0,2Z" fill="#212121"></path><path data-color="color-2" d="M45,16H27a1,1,0,0,0,0,2H45a1,1,0,0,0,0-2Z" fill="#212121"></path><path data-color="color-2" d="M45,30H27a1,1,0,0,0,0,2H45a1,1,0,0,0,0-2Z" fill="#212121"></path><path data-color="color-2" d="M45,40H27a1,1,0,0,0,0,2H45a1,1,0,0,0,0-2Z" fill="#212121"></path></g></svg>