<svg xmlns="http://www.w3.org/2000/svg" height="48" width="48" viewBox="0 0 48 48"><title>park</title><g fill="#212121" class="nc-icon-wrapper"><path d="M28,39H2a1,1,0,0,0,0,2H4v5a1,1,0,0,0,2,0V41H24v5a1,1,0,0,0,2,0V41h2a1,1,0,0,0,0-2Z" fill="#212121"></path><path d="M26,37H4V28a1,1,0,0,1,1-1H25a1,1,0,0,1,1,1Z" fill="#212121"></path><path d="M44.223,14.105A11.109,11.109,0,0,0,45,10c0-4.963-3.141-9-7-9s-7,4.037-7,9a11.109,11.109,0,0,0,.777,4.105A12.213,12.213,0,0,0,29,22c0,5.224,3,9.6,7,10.717V46a1,1,0,0,0,2,0V22a1,1,0,0,1,2,0V32.717C44,31.6,47,27.224,47,22A12.213,12.213,0,0,0,44.223,14.105Z" fill="#212121" data-color="color-2"></path></g></svg>