<svg xmlns="http://www.w3.org/2000/svg" height="48" width="48" viewBox="0 0 48 48"><title>position marker</title><g fill="#212121" class="nc-icon-wrapper"><path fill="#212121" d="M36,13c0-6.617-5.383-12-12-12S12,6.383,12,13c0,5.934,4.334,10.863,10,11.819V40h4V24.819 C31.666,23.863,36,18.934,36,13z"></path> <path data-color="color-2" fill="#212121" d="M28,33.108v2.006c9.88,0.555,16,3.08,16,4.885c0,2.039-7.791,5-20,5S4,42.039,4,40 c0-1.806,6.12-4.331,16-4.885v-2.006C10.524,33.622,2,35.967,2,40c0,4.596,11.067,7,22,7s22-2.404,22-7 C46,35.967,37.476,33.622,28,33.108z"></path></g></svg>