<svg xmlns="http://www.w3.org/2000/svg" height="48" width="48" viewBox="0 0 48 48"><title>question mark</title><g fill="#212121" class="nc-icon-wrapper"><circle data-color="color-2" cx="23" cy="42.5" r="3.5" fill="#212121"></circle><path d="M23.927,3.001c-3.65,0-7.239,.931-10.429,2.704l-2.238,1.244c-.483,.268-.656,.877-.388,1.36l1.944,3.496c.268,.483,.877,.656,1.36,.388l1.748-.972c2.486-1.383,5.305-2.151,8.075-2.222,2.44,0,6.533,.736,6.533,5.667,0,2.781-1.508,4.157-4.173,6.35-2.833,2.331-6.36,5.233-6.36,10.983v2c0,.552,.448,1,1,1h4c.552,0,1-.448,1-1v-2c0-2.781,1.508-4.157,4.173-6.351,2.834-2.331,6.36-5.233,6.36-10.982,0-6.978-5.035-11.666-12.606-11.666Z" fill="#212121"></path></g></svg>