<svg xmlns="http://www.w3.org/2000/svg" height="48" width="48" viewBox="0 0 48 48"><title>reload</title><g fill="#212121" class="nc-icon-wrapper"><path d="M5,24A18.983,18.983,0,0,1,34.154,7.955l-3.029,2.569A1,1,0,0,0,31.5,12.25l10.867,3.028a.979.979,0,0,0,.268.037,1,1,0,0,0,.992-1.125L42.24,3.123A1,1,0,0,0,40.6,2.485L37.332,5.258A23,23,0,0,0,1,24a2,2,0,0,0,4,0Z" fill="#212121"></path><path data-color="color-2" d="M45,22a2,2,0,0,0-2,2A18.982,18.982,0,0,1,13.847,40.045l3.028-2.569A1,1,0,0,0,16.5,35.75L5.629,32.722a1,1,0,0,0-1.26,1.088L5.76,44.877a1,1,0,0,0,1.639.638l3.269-2.773A23,23,0,0,0,47,24,2,2,0,0,0,45,22Z" fill="#212121"></path></g></svg>