<svg xmlns="http://www.w3.org/2000/svg" height="48" width="48" viewBox="0 0 48 48"><title>replay</title><g fill="#212121" class="nc-icon-wrapper"><path d="M10,35H6a2,2,0,0,1-2-2V15a2,2,0,0,1,2-2H22v5a1,1,0,0,0,1.614.79l9-7a1,1,0,0,0,0-1.58l-9-7A1,1,0,0,0,22,4V9H6a6.006,6.006,0,0,0-6,6V33a6.006,6.006,0,0,0,6,6h4a2,2,0,0,0,0-4Z" fill="#212121"></path><path data-color="color-2" d="M42,9H38a2,2,0,0,0,0,4h4a2,2,0,0,1,2,2V33a2,2,0,0,1-2,2H26V30a1,1,0,0,0-1.614-.79l-9,7a1,1,0,0,0,0,1.58l9,7A1,1,0,0,0,26,44V39H42a6.006,6.006,0,0,0,6-6V15A6.006,6.006,0,0,0,42,9Z" fill="#212121"></path></g></svg>