<svg xmlns="http://www.w3.org/2000/svg" height="48" width="48" viewBox="0 0 48 48"><title>s pulse</title><g fill="#212121" class="nc-icon-wrapper"><path d="M40,3H8c-2.761,0-5,2.239-5,5V40c0,2.761,2.239,5,5,5H40c2.761,0,5-2.239,5-5V8c0-2.761-2.239-5-5-5Zm0,22h-6.382l-4.718,9.447c-.246,.494-.847,.695-1.341,.449-.194-.097-.352-.254-.449-.449l-9-18.008-3.173,7.932c-.153,.383-.525,.632-.937,.629h-6c-.552,0-1-.448-1-1s.448-1,1-1h5.323l3.748-9.371c.146-.366,.493-.612,.887-.629,.396-.028,.769,.192,.937,.552l9.105,18.212,4.1-8.211c.17-.341,.519-.555,.9-.553h7c.552,0,1,.448,1,1s-.448,1-1,1Z" fill="#212121"></path></g></svg>