<svg xmlns="http://www.w3.org/2000/svg" height="48" width="48" viewBox="0 0 48 48"><title>s question</title><g fill="#212121" class="nc-icon-wrapper"><path d="M40,3H8c-2.761,0-5,2.239-5,5V40c0,2.761,2.239,5,5,5H40c2.761,0,5-2.239,5-5V8c0-2.761-2.239-5-5-5ZM23,39c-1.381,0-2.5-1.119-2.5-2.5s1.119-2.5,2.5-2.5,2.5,1.119,2.5,2.5-1.119,2.5-2.5,2.5Zm5.089-14.841c-2.867,2.426-3.089,3.536-3.089,4.841v1c0,.552-.448,1-1,1h-2c-.552,0-1-.448-1-1v-1c0-2.977,1.221-5.116,4.505-7.895,.956-.809,3.937-3.668,2.173-6.521-1.144-1.851-5.372-2.126-8.869-.579l-.914,.404c-.505,.223-1.096-.005-1.319-.51l-.809-1.829c-.223-.505,.005-1.096,.51-1.319l.914-.404c4.851-2.146,11.376-1.935,13.889,2.135,2.29,3.704,1.144,8.18-2.991,11.678Z" fill="#212121"></path></g></svg>