<svg xmlns="http://www.w3.org/2000/svg" height="48" width="48" viewBox="0 0 48 48"><title>s remove</title><g fill="#212121" class="nc-icon-wrapper"><path d="M40,3H8c-2.761,0-5,2.239-5,5V40c0,2.761,2.239,5,5,5H40c2.761,0,5-2.239,5-5V8c0-2.761-2.239-5-5-5Zm-7.293,28.293c.397,.384,.408,1.017,.025,1.414s-1.017,.408-1.414,.025c-.008-.008-.017-.016-.025-.025l-7.293-7.293-7.293,7.293c-.397,.384-1.03,.373-1.414-.025-.374-.388-.374-1.002,0-1.389l7.293-7.293-7.293-7.293c-.384-.397-.373-1.03,.025-1.414,.388-.374,1.002-.374,1.389,0l7.293,7.293,7.293-7.293c.397-.384,1.03-.373,1.414,.025,.374,.388,.374,1.002,0,1.389l-7.293,7.293,7.293,7.293Z" fill="#212121"></path></g></svg>