<svg xmlns="http://www.w3.org/2000/svg" height="48" width="48" viewBox="0 0 48 48"><title>salad</title><g fill="#212121" class="nc-icon-wrapper"><path d="M5,5A1,1,0,0,0,4,6v4A11.013,11.013,0,0,0,15,21a1,1,0,0,0,1-1V16A11.013,11.013,0,0,0,5,5Z" fill="#212121" data-color="color-2"></path> <path d="M22.9,21h18.81a6.99,6.99,0,0,0-5.753-8.936A9,9,0,1,0,22.9,21ZM25,9a1,1,0,0,1,1,1,6.006,6.006,0,0,0,6,6,1,1,0,0,1,0,2,8.009,8.009,0,0,1-8-8A1,1,0,0,1,25,9Z" fill="#212121" data-color="color-2"></path> <path d="M45,23H3a1,1,0,0,0-1,1A22.09,22.09,0,0,0,14.675,43.905.992.992,0,0,0,15.1,44H32.9a.992.992,0,0,0,.425-.095A22.09,22.09,0,0,0,46,24,1,1,0,0,0,45,23Z" fill="#212121"></path></g></svg>