<svg xmlns="http://www.w3.org/2000/svg" height="48" width="48" viewBox="0 0 48 48"><title>save for later</title><g fill="#212121" class="nc-icon-wrapper"><path d="M39,20A10.972,10.972,0,0,1,28.426,6H5A3,3,0,0,0,2,9V43a3,3,0,0,0,3,3H39a3,3,0,0,0,3-3V19.574A10.966,10.966,0,0,1,39,20Zm1,23a1,1,0,0,1-1,1H5a1,1,0,0,1-1-1V37a1,1,0,0,1,1-1H39a1,1,0,0,1,1,1Z" fill="#212121"></path><path d="M39,0a9,9,0,1,0,9,9A9,9,0,0,0,39,0Zm4,10H40v3a1,1,0,0,1-2,0V10H35a1,1,0,0,1,0-2h3V5a1,1,0,0,1,2,0V8h3a1,1,0,0,1,0,2Z" fill="#212121" data-color="color-2"></path></g></svg>