<svg xmlns="http://www.w3.org/2000/svg" height="48" width="48" viewBox="0 0 48 48"><title>screen enlarge</title><g fill="#212121" class="nc-icon-wrapper"><rect data-color="color-2" x="9" y="9" width="30" height="30" rx="1" ry="1" fill="#212121"></rect><path d="M4,17c.552,0,1-.448,1-1V8c0-1.657,1.343-3,3-3h8c.552,0,1-.448,1-1s-.448-1-1-1H8c-2.76,.003-4.997,2.24-5,5v8c0,.552,.448,1,1,1Z" fill="#212121"></path><path d="M40,3h-8c-.552,0-1,.448-1,1s.448,1,1,1h8c1.657,0,3,1.343,3,3v8c0,.552,.448,1,1,1s1-.448,1-1V8c-.003-2.76-2.24-4.997-5-5Z" fill="#212121"></path><path d="M44,31c-.552,0-1,.448-1,1v8c0,1.657-1.343,3-3,3h-8c-.552,0-1,.448-1,1s.448,1,1,1h8c2.76-.003,4.997-2.24,5-5v-8c0-.552-.448-1-1-1Z" fill="#212121"></path><path d="M16,43H8c-1.657,0-3-1.343-3-3v-8c0-.552-.448-1-1-1s-1,.448-1,1v8c.003,2.76,2.24,4.997,5,5h8c.552,0,1-.448,1-1s-.448-1-1-1Z" fill="#212121"></path></g></svg>