<svg xmlns="http://www.w3.org/2000/svg" height="48" width="48" viewBox="0 0 48 48"><title>selfie 2</title><g fill="#212121" class="nc-icon-wrapper"><circle cx="20" cy="17" r="4" fill="#212121" data-color="color-2"></circle><path d="M16.031,32H7a1,1,0,0,1-1-1V11a1,1,0,0,1,1-1H20.031a5.02,5.02,0,0,1-1.607-2H4a3,3,0,0,0-3,3V31a3,3,0,0,0,3,3H14.424A5.02,5.02,0,0,1,16.031,32Z" fill="#212121"></path><path d="M27,29H13a6,6,0,0,1,6-6h2a6,6,0,0,1,6,6Z" fill="#212121" data-color="color-2"></path><path d="M37,29V18.531l-3-5.249V31h1A2,2,0,0,0,37,29Z" fill="#212121"></path><path d="M39.916,6.031a4,4,0,0,0-2.274-1.278l-9.29-1.688L27.637,3H23.17A3.114,3.114,0,0,0,20,5.839,3,3,0,0,0,23,9h4l8,2,4,7V29a4,4,0,0,1-4,4H19.138a3.093,3.093,0,0,0-3.118,2.649,3,3,0,0,0,2.462,3.3l9.024,1.946a3.969,3.969,0,0,1,.946.332l6.492,3.246A5,5,0,0,0,37.18,45H47V14Z" fill="#212121" data-color="color-2"></path></g></svg>