<svg xmlns="http://www.w3.org/2000/svg" height="48" width="48" viewBox="0 0 48 48"><title>settings</title><g fill="#212121" class="nc-icon-wrapper"><path d="M35.629,24.383c5.515-.457,9.892-4.834,10.348-10.349,.092-1.448-.073-2.9-.485-4.291l-5.305,5.304c-.391,.39-1.024,.39-1.414,0l-5.815-5.815c-.391-.391-.391-1.024,0-1.414l5.304-5.305c-1.391-.41-2.843-.571-4.29-.477-5.516,.456-9.893,4.833-10.35,10.348-.094,1.449,.068,2.903,.479,4.295L3.046,35.688c-1.299,1.174-1.4,3.179-.226,4.478,.036,.04,.072,.078,.11,.115l4.793,4.794c1.24,1.236,3.247,1.232,4.483-.008,.037-.036,.072-.074,.107-.112L31.333,23.9c1.392,.412,2.847,.576,4.296,.483Z" fill="#212121"></path><path data-color="color-2" d="M8.414,14h2.586l6.208,6.208,3.153-2.847-6.361-6.361v-2.586c0-.265-.105-.519-.293-.707L8.707,2.707c-.391-.391-1.024-.391-1.414,0L2.707,7.293c-.391,.391-.391,1.024,0,1.414l5,5c.187,.187,.442,.293,.707,.293Z" fill="#212121"></path><path data-color="color-2" d="M43.989,35.373l-10.433-9.027c-.516-.044-1.03-.116-1.539-.215l-6.42,7.1,9.776,10.753c.067,.077,.138,.152,.213,.225,2.382,2.382,6.244,2.382,8.627,0h0c.073-.073,.144-.148,.213-.224,2.256-2.499,2.06-6.354-.437-8.612Z" fill="#212121"></path></g></svg>