<svg xmlns="http://www.w3.org/2000/svg" height="48" width="48" viewBox="0 0 48 48"><title>shop</title><g fill="#212121" class="nc-icon-wrapper"><path d="M39.883,22h-.248c-1.838-.007-3.633-.555-5.162-1.575-1.118,.743-2.382,1.238-3.707,1.452-.51,.083-1.026,.124-1.543,.123-1.86,.003-3.678-.548-5.223-1.583-3.173,2.106-7.3,2.106-10.473,0-1.539,1.026-3.346,1.577-5.196,1.583h-.215c-.713-.002-1.424-.09-2.116-.262v20.262c0,1.657,1.343,3,3,3h10v-11c0-.552,.448-1,1-1h8c.552,0,1,.448,1,1v11h10c1.657,0,3-1.343,3-3V21.739c-.693,.171-1.403,.259-2.117,.261Z" fill="#212121"></path><path data-color="color-2" d="M46.747,12.336L38.747,3.336c-.19-.214-.461-.336-.747-.336H10c-.286,0-.557,.122-.747,.336L1.253,12.336c-.169,.188-.259,.434-.253,.687,.095,3.867,3.248,6.958,7.116,6.977h.215c1.949,0,3.819-.772,5.2-2.147,.276,.271,.572,.521,.886,.747,2.952,2.113,6.996,1.796,9.583-.751,2.903,2.864,7.569,2.864,10.472,0,1.371,1.372,3.229,2.145,5.168,2.151h.051c3.942,.083,7.209-3.036,7.309-6.977,.006-.253-.084-.499-.253-.687Z" fill="#212121"></path></g></svg>