<svg xmlns="http://www.w3.org/2000/svg" height="48" width="48" viewBox="0 0 48 48"><title>shopping cart</title><g fill="#212121" class="nc-icon-wrapper"><path d="M37.69,32H16.469c-2.472,0-4.6-1.845-4.95-4.292L8.133,4H2c-.553,0-1-.448-1-1s.447-1,1-1h7c.498,0,.92,.366,.99,.858l.877,6.142H45c.298,0,.58,.133,.771,.362,.189,.23,.268,.532,.212,.825l-3.381,17.748c-.448,2.355-2.514,4.065-4.911,4.065Z" fill="#212121"></path><path data-color="color-2" d="M15,46c-2.757,0-5-2.243-5-5s2.243-5,5-5,5,2.243,5,5-2.243,5-5,5Z" fill="#212121"></path><path data-color="color-2" d="M40,46c-2.757,0-5-2.243-5-5s2.243-5,5-5,5,2.243,5,5-2.243,5-5,5Z" fill="#212121"></path></g></svg>