<svg xmlns="http://www.w3.org/2000/svg" height="48" width="48" viewBox="0 0 48 48"><title>spaceship</title><g fill="#212121" class="nc-icon-wrapper"><path data-color="color-2" d="M22.317,7.141C16.258,5.9,9.8,8.543,5.214,14.382a1,1,0,0,0,.079,1.325l4.758,4.759A47.18,47.18,0,0,1,22.317,7.141Z" fill="#212121"></path><path data-color="color-2" d="M27.509,37.924l4.784,4.783a1,1,0,0,0,1.325.079c5.875-4.616,8.52-11.122,7.221-17.213A47.779,47.779,0,0,1,27.509,37.924Z" fill="#212121"></path><path d="M46.708,1.3A.974.974,0,0,0,45.948,1C18.506,2.433,9.156,26.405,9.064,26.647a1,1,0,0,0,.229,1.06l11,11A1,1,0,0,0,21,39a.987.987,0,0,0,.358-.066C21.6,38.841,45.447,29.374,47,2.057A1,1,0,0,0,46.708,1.3ZM27,25a4,4,0,1,1,4-4A4,4,0,0,1,27,25Z" fill="#212121"></path><path data-color="color-2" d="M12.243,35.757a6.007,6.007,0,0,0-8.486,0h0C1.6,37.913,1.057,45.118,1,45.933A1,1,0,0,0,2,47l.067,0c.815-.056,8.02-.6,10.176-2.755A6.007,6.007,0,0,0,12.243,35.757Z" fill="#212121"></path></g></svg>