<svg xmlns="http://www.w3.org/2000/svg" height="48" width="48" viewBox="0 0 48 48"><title>stack</title><g fill="#212121" class="nc-icon-wrapper"><path data-color="color-2" d="M45.5,32.132l-4.34-2.48L25.488,38.6a2.994,2.994,0,0,1-2.976,0L6.844,29.652,2.5,32.132a1,1,0,0,0,0,1.736l21,12a1,1,0,0,0,.992,0l21-12a1,1,0,0,0,0-1.736Z" fill="#212121"></path><path data-color="color-2" d="M45.5,23.132l-4.34-2.48L25.488,29.6a2.994,2.994,0,0,1-2.976,0L6.844,20.652,2.5,23.132a1,1,0,0,0,0,1.736l21,12a1,1,0,0,0,.992,0l21-12a1,1,0,0,0,0-1.736Z" fill="#212121"></path><path d="M45.5,14.132l-21-12a1,1,0,0,0-.992,0l-21,12a1,1,0,0,0,0,1.736l21,12a1,1,0,0,0,.992,0l21-12a1,1,0,0,0,0-1.736Z" fill="#212121"></path></g></svg>