<svg xmlns="http://www.w3.org/2000/svg" height="48" width="48" viewBox="0 0 48 48"><title>stopwatch</title><g fill="#212121" class="nc-icon-wrapper"><path data-color="color-2" d="M30,1h-12c-.552,0-1,.448-1,1s.448,1,1,1h4V7h4V3h4c.552,0,1-.448,1-1s-.448-1-1-1Z" fill="#212121"></path><path data-color="color-2" d="M44.707,14.293l-6-6c-.397-.384-1.03-.373-1.414,.025-.374,.388-.374,1.002,0,1.389l6,6c.397,.384,1.03,.373,1.414-.025,.374-.388,.374-1.002,0-1.389Z" fill="#212121"></path><path d="M24,9c-10.493,0-19,8.507-19,19s8.507,19,19,19,19-8.507,19-19c-.012-10.489-8.511-18.988-19-19Zm2.121,21.121c-.566,.567-1.32,.879-2.121,.879s-1.555-.312-2.121-.879c-.985-.985-7.103-10.289-7.797-11.347-.13-.198-.103-.46,.064-.628,.167-.168,.429-.194,.628-.064,1.058,.694,10.363,6.812,11.347,7.797,.567,.566,.879,1.32,.879,2.121s-.312,1.555-.879,2.121Z" fill="#212121"></path></g></svg>