<svg xmlns="http://www.w3.org/2000/svg" height="48" width="48" viewBox="0 0 48 48"><title>telephone</title><g fill="#212121" class="nc-icon-wrapper"><path d="M44.793,34.391l-10-13A1,1,0,0,0,34,21H14a1,1,0,0,0-.793.391l-10,13A1,1,0,0,0,3,35v6a5.006,5.006,0,0,0,5,5H40a5.006,5.006,0,0,0,5-5V35A1,1,0,0,0,44.793,34.391ZM24,40a7,7,0,1,1,7-7A7,7,0,0,1,24,40Z" fill="#212121"></path><path data-color="color-2" d="M16.818,13.759,16.3,9.141a30.652,30.652,0,0,1,15.391,0l-.514,4.618a2.469,2.469,0,0,0,1.568,2.573l7.6,2.927a2.466,2.466,0,0,0,3.01-1.054l3.3-5.6a2.479,2.479,0,0,0-.643-3.232,36.58,36.58,0,0,0-44.034,0A2.48,2.48,0,0,0,1.341,12.6l3.3,5.606a2.466,2.466,0,0,0,3.01,1.052l7.6-2.927A2.468,2.468,0,0,0,16.818,13.759Z" fill="#212121"></path></g></svg>