<svg xmlns="http://www.w3.org/2000/svg" height="48" width="48" viewBox="0 0 48 48"><title>theater</title><g fill="#212121" class="nc-icon-wrapper"><path d="M46.334,13.487A42.943,42.943,0,0,0,33,11.021V22A17.012,17.012,0,0,1,18.64,38.774,14.989,14.989,0,0,0,47,31.988V14.43A1,1,0,0,0,46.334,13.487ZM36,42H28a1,1,0,0,1-1-1,5,5,0,0,1,10,0A1,1,0,0,1,36,42Zm3.5-15.012h-3a1.5,1.5,0,0,1,0-3h3a1.5,1.5,0,0,1,0,3Z" fill="#212121" data-color="color-2"></path><path d="M30.334,3.5a42.551,42.551,0,0,0-28.668,0A1,1,0,0,0,1,4.441V22a15,15,0,0,0,30,0V4.441A1,1,0,0,0,30.334,3.5ZM7,15.5A1.5,1.5,0,0,1,8.5,14h3a1.5,1.5,0,0,1,0,3h-3A1.5,1.5,0,0,1,7,15.5ZM16,32a5.006,5.006,0,0,1-5-5,1,1,0,0,1,1-1h8a1,1,0,0,1,1,1A5.006,5.006,0,0,1,16,32Zm7.5-15h-3a1.5,1.5,0,0,1,0-3h3a1.5,1.5,0,0,1,0,3Z" fill="#212121"></path></g></svg>