<svg xmlns="http://www.w3.org/2000/svg" height="48" width="48" viewBox="0 0 48 48"><title>time clock</title><g fill="#212121" class="nc-icon-wrapper"><path fill="#212121" d="M24,1C11.3,1,1,11.3,1,24s10.3,23,23,23s23-10.3,23-23S36.7,1,24,1z M23,5c0-0.6,0.4-1,1-1s1,0.4,1,1v4 c0,0.6-0.4,1-1,1s-1-0.4-1-1V5z M9,25H5c-0.6,0-1-0.4-1-1s0.4-1,1-1h4c0.6,0,1,0.4,1,1S9.6,25,9,25z M25,43c0,0.6-0.4,1-1,1 s-1-0.4-1-1v-4c0-0.6,0.4-1,1-1s1,0.4,1,1V43z M32,25h-8c-0.3,0-0.6-0.2-0.8-0.4l-8-12c-0.3-0.5-0.2-1.1,0.3-1.4 c0.5-0.3,1.1-0.2,1.4,0.3L24.5,23H32c0.6,0,1,0.4,1,1S32.6,25,32,25z M43,25h-4c-0.6,0-1-0.4-1-1s0.4-1,1-1h4c0.6,0,1,0.4,1,1 S43.6,25,43,25z"></path></g></svg>