<svg xmlns="http://www.w3.org/2000/svg" height="48" width="48" viewBox="0 0 48 48"><title>translation</title><g fill="#212121" class="nc-icon-wrapper"><path d="M34,25.881q-.268,1.043-1.541,5.161H35.57q-1.2-3.857-1.349-4.362C34.12,26.343,34.048,26.076,34,25.881Z" fill="#212121"></path><path d="M43,18H25a4,4,0,0,0-4,4V38a4,4,0,0,0,4,4H35.649l4.726,3.781A1,1,0,0,0,42,45V42h1a4,4,0,0,0,4-4V22A4,4,0,0,0,43,18ZM37.038,36l-.864-2.838H31.827L30.963,36H28.239l4.208-11.971h3.09L39.762,36Z" fill="#212121"></path><path d="M11.931,11.058a9.484,9.484,0,0,0,.938,2.263A8.971,8.971,0,0,0,14.046,15a8.212,8.212,0,0,0,1.106-1.663,8.909,8.909,0,0,0,.841-2.279Z" fill="#212121" data-color="color-2"></path><path d="M19,22a6,6,0,0,1,.269-1.782A15.654,15.654,0,0,1,14.1,17.586,16.533,16.533,0,0,1,8.484,20.33a7.3,7.3,0,0,0-1.175-2.1,14.3,14.3,0,0,0,5.2-2.115,12.554,12.554,0,0,1-1.765-2.451,12.055,12.055,0,0,1-1.079-2.605h-.28c-.672,0-1.3.028-1.862.084V8.971a15.191,15.191,0,0,0,1.919.1h3.333v-.9a5.106,5.106,0,0,0-.083-.952H15.11a4.957,4.957,0,0,0-.084.938v.91H18.57a15.439,15.439,0,0,0,1.933-.1v2.171a17.882,17.882,0,0,0-1.849-.084h-.322A11.176,11.176,0,0,1,17.323,13.8a11.372,11.372,0,0,1-1.61,2.311A12.457,12.457,0,0,0,20.5,18.04,5.979,5.979,0,0,1,25,16h2V6a4,4,0,0,0-4-4H5A4,4,0,0,0,1,6V22a4,4,0,0,0,4,4H6v3a1,1,0,0,0,1.625.781L12.351,26H19Z" fill="#212121" data-color="color-2"></path></g></svg>