<svg xmlns="http://www.w3.org/2000/svg" height="48" width="48" viewBox="0 0 48 48"><title>trumpet</title><g fill="#212121" class="nc-icon-wrapper"><path d="M44.707,16.1,31.9,3.293a1,1,0,0,0-1.687.905,16.977,16.977,0,0,1-4.637,15.4l-3.959,4.526-.99-.99a1,1,0,1,0-1.415,1.414L20.3,25.631l-1.32,1.509L17.8,25.961a1,1,0,1,0-1.414,1.414l1.273,1.273-1.32,1.509L14.968,28.79A1,1,0,1,0,13.554,30.2l1.455,1.456A9,9,0,0,0,28.4,43.639l5.657-5.657a8.979,8.979,0,0,0-3.42-14.857l-1.821,1.594a6.987,6.987,0,0,1,3.827,11.849l-5.657,5.657a7,7,0,0,1-9.9-9.9l11.314-9.9a16.977,16.977,0,0,1,15.4-4.637,1,1,0,0,0,.905-1.687Z" fill="#212121"></path><path d="M6.068,40.518H3.654a1,1,0,0,0-.707,1.707l2.828,2.828a1,1,0,0,0,1.707-.707V41.932l3.612-3.612a11.1,11.1,0,0,1,.123-2.951Z" fill="#212121"></path><path d="M23.786,29.123,28.4,33.739a1,1,0,0,0,1.414-1.414L25.3,27.8Z" fill="#212121" data-color="color-2"></path><path d="M20.769,31.763l4.805,4.8a1,1,0,1,0,1.415-1.414l-4.711-4.711Z" fill="#212121" data-color="color-2"></path><path d="M17.752,34.4,22.746,39.4a1,1,0,0,0,1.414-1.414l-4.9-4.9Z" fill="#212121" data-color="color-2"></path></g></svg>