<svg xmlns="http://www.w3.org/2000/svg" height="48" width="48" viewBox="0 0 48 48"><title>unlink</title><g fill="#212121" class="nc-icon-wrapper"><path d="M24.706,28.948l-2.083,2.083A5.967,5.967,0,0,1,20.9,35.585l-4.656,4.657a6,6,0,0,1-8.486-8.486L12.414,27.1a5.979,5.979,0,0,1,4.242-1.754c.1,0,.207.024.311.03l2.083-2.084-1.909-1.909a9.949,9.949,0,0,0-7.555,2.889L4.929,28.928A10,10,0,0,0,19.071,43.071l4.656-4.657a9.946,9.946,0,0,0,2.889-7.556Z" fill="#212121"></path><path d="M23.292,19.05l2.084-2.083c-.006-.1-.03-.207-.03-.311A5.979,5.979,0,0,1,27.1,12.414l4.656-4.657a6,6,0,0,1,8.486,8.486L35.585,20.9a5.967,5.967,0,0,1-4.554,1.724l-2.083,2.083,1.91,1.91a9.946,9.946,0,0,0,7.556-2.889l4.657-4.656A10,10,0,0,0,28.928,4.929L24.272,9.586a9.949,9.949,0,0,0-2.889,7.555Z" fill="#212121"></path><path data-color="color-2" d="M27.534,23.292l4.879-4.879a2,2,0,0,0-2.828-2.828l-4.879,4.879Z" fill="#212121"></path><path data-color="color-2" d="M20.464,24.706l-4.879,4.879a2,2,0,1,0,2.828,2.828l4.879-4.879Z" fill="#212121"></path><path data-color="color-2" d="M44,45a1,1,0,0,1-.707-.293l-40-40A1,1,0,0,1,4.707,3.293l40,40A1,1,0,0,1,44,45Z" fill="#212121"></path></g></svg>