<svg xmlns="http://www.w3.org/2000/svg" height="48" width="48" viewBox="0 0 48 48"><title>upload</title><g fill="#212121" class="nc-icon-wrapper"><path data-color="color-2" d="M15,15h7V31a2,2,0,0,0,4,0V15h7a1,1,0,0,0,.774-1.633l-9-11a1.035,1.035,0,0,0-1.548,0l-9,11A1,1,0,0,0,15,15Z" fill="#212121"></path><path d="M38,19H32a1,1,0,0,0,0,2h6a3,3,0,0,1,3,3V41a3,3,0,0,1-3,3H10a3,3,0,0,1-3-3V24a3,3,0,0,1,3-3h6a1,1,0,0,0,0-2H10a5.006,5.006,0,0,0-5,5V41a5.006,5.006,0,0,0,5,5H38a5.006,5.006,0,0,0,5-5V24A5.006,5.006,0,0,0,38,19Z" fill="#212121"></path></g></svg>