<svg xmlns="http://www.w3.org/2000/svg" height="48" width="48" viewBox="0 0 48 48"><title>vacuum cleaner</title><g fill="#212121" class="nc-icon-wrapper"><path d="M47.423,45.094,41,42.1V28H38V42.1l-6.423,3A1,1,0,0,0,31,46v1a1,1,0,0,0,1,1H47a1,1,0,0,0,1-1V46A1,1,0,0,0,47.423,45.094Z" fill="#212121" data-color="color-2"></path><path d="M21,36a6,6,0,1,1-6,6A6.006,6.006,0,0,1,21,36Zm0,8a2,2,0,1,0-2-2A2,2,0,0,0,21,44Z" fill="#212121" data-color="color-2"></path><path d="M13.068,43H0a5,5,0,0,0,5,5H15.726A7.993,7.993,0,0,1,13.068,43Z" fill="#212121"></path><path d="M18,18H15A15,15,0,0,0,0,33v8H13.069A7.979,7.979,0,0,1,25,35.082V25A7,7,0,0,0,18,18Zm-4,8a8,8,0,0,1-8,8H2V33A13.009,13.009,0,0,1,14,20.051Z" fill="#212121"></path><path d="M39.389,18.268l-.657-.657A2.484,2.484,0,0,1,38,15.843V9A9,9,0,0,0,20,9v4H19a1,1,0,0,0-1,1v2a8.985,8.985,0,0,1,7,3.355V14a1,1,0,0,0-1-1H23V9A6,6,0,0,1,35,9v6.843a5.464,5.464,0,0,0,1.611,3.889l.657.657A2.484,2.484,0,0,1,38,22.157V26h3V22.157A5.464,5.464,0,0,0,39.389,18.268Z" fill="#212121"></path></g></svg>