<svg xmlns="http://www.w3.org/2000/svg" height="48" width="48" viewBox="0 0 48 48"><title>vector</title><g fill="#212121" class="nc-icon-wrapper"><path fill="#212121" d="M42,7c-2.414,0-4.434,1.721-4.899,4H29V8c0-0.552-0.448-1-1-1h-8c-0.552,0-1,0.448-1,1v3h-8.101 C10.434,8.721,8.414,7,6,7c-2.757,0-5,2.243-5,5s2.243,5,5,5c2.414,0,4.434-1.721,4.899-4H19v3c0,0.552,0.448,1,1,1h8 c0.552,0,1-0.448,1-1v-3h8.101c0.465,2.279,2.484,4,4.899,4c2.757,0,5-2.243,5-5S44.757,7,42,7z"></path> <path data-color="color-2" fill="#212121" d="M5.038,31.001H2c-0.552,0-1,0.448-1,1v8c0,0.552,0.448,1,1,1h8c0.552,0,1-0.448,1-1v-8 c0-0.552-0.448-1-1-1H7.036C7.404,24.589,11.278,19.069,17,16.509v-2.17C10.118,17.038,5.424,23.48,5.038,31.001z"></path> <path data-color="color-2" fill="#212121" d="M46,31.001h-3.038C42.576,23.48,37.882,17.038,31,14.339v2.17 c5.722,2.561,9.596,8.08,9.964,14.492H38c-0.552,0-1,0.448-1,1v8c0,0.552,0.448,1,1,1h8c0.552,0,1-0.448,1-1v-8 C47,31.449,46.552,31.001,46,31.001z"></path></g></svg>