<svg xmlns="http://www.w3.org/2000/svg" height="48" width="48" viewBox="0 0 48 48"><title>warning sign</title><g fill="#212121" class="nc-icon-wrapper"><path d="M45.521,39.04L27.527,5.134c-1.021-1.948-3.427-2.699-5.375-1.679-.717,.376-1.303,.961-1.679,1.679L2.479,39.04c-.676,1.264-.635,2.791,.108,4.017,.716,1.207,2.017,1.946,3.42,1.943H41.993c1.403,.003,2.704-.736,3.42-1.943,.743-1.226,.784-2.753,.108-4.017ZM23.032,15h1.937c.565,0,1.017,.467,1,1.031l-.438,14c-.017,.54-.459,.969-1,.969h-1.062c-.54,0-.983-.429-1-.969l-.438-14c-.018-.564,.435-1.031,1-1.031Zm.968,25c-1.657,0-3-1.343-3-3s1.343-3,3-3,3,1.343,3,3-1.343,3-3,3Z" fill="#212121"></path></g></svg>