<svg xmlns="http://www.w3.org/2000/svg" height="48" width="48" viewBox="0 0 48 48"><title>watering plants</title><g fill="#212121" class="nc-icon-wrapper"><path d="M35,15c-2.757,0-5-2.243-5-5,0-4.364,4.116-8.53,4.291-8.705,.39-.391,1.026-.393,1.416-.002,.176,.175,4.293,4.343,4.293,8.707,0,2.757-2.243,5-5,5Z" fill="#212121" data-color="color-2"></path><path d="M13,13c-2.206,0-4-1.794-4-4,0-2.385,2.977-5.431,3.316-5.771,.188-.189,.433-.283,.714-.293,.268,.002,.523,.111,.71,.303,.334,.344,3.26,3.423,3.26,5.761,0,2.206-1.794,4-4,4Z" fill="#212121" data-color="color-2"></path><path d="M23,19c-1.654,0-3-1.346-3-3,0-2.347,2.059-4.473,2.293-4.707,.391-.391,1.023-.391,1.414,0,.234,.234,2.293,2.36,2.293,4.707,0,1.654-1.346,3-3,3Z" fill="#212121" data-color="color-2"></path><path d="M35,21c-5.202,0-9.745,2.857-12.158,7.079-.933-6.258-6.328-11.079-12.842-11.079H4c-.553,0-1,.447-1,1v1c0,8.271,6.729,15,15,15h1c0-4.542-3.753-9.129-8.196-10.018-.541-.108-.893-.635-.784-1.177s.634-.897,1.177-.784c5.405,1.081,9.803,6.454,9.804,11.979h0v12c0,.553,.447,1,1,1s1-.447,1-1v-5c0-6.645,4.383-11.864,11.726-13.962,.528-.146,1.084,.155,1.236,.688,.151,.53-.156,1.084-.688,1.236-6.434,1.838-10.274,6.338-10.274,12.038h2c9.925,0,18-8.075,18-18v-2h-10Z" fill="#212121"></path></g></svg>