<svg xmlns="http://www.w3.org/2000/svg" height="48" width="48" viewBox="0 0 48 48"><title>world</title><g fill="#212121" class="nc-icon-wrapper"><path data-color="color-2" d="M41.047,25.049c-.574-1.363-3.173-2.5-4.453-2.98L35.3,20.887a1,1,0,0,0-.207-.146,13.787,13.787,0,0,0-4.02-.9,10.463,10.463,0,0,0-2.247-1.059,9.194,9.194,0,0,0-3.765.646,1.009,1.009,0,0,0-.457.312c-.971,1.173-3.229,4.072-3.229,5.638,0,.877.774,1.605,1.67,2.448A7.916,7.916,0,0,1,24.072,28.9c.028.276.1.6.18,1.009.159.761.489,2.346.158,2.859a8.191,8.191,0,0,0-.651,6.438,2.71,2.71,0,0,0,1.788,1.817,2.5,2.5,0,0,0,.675.088c1.525,0,3.29-1.214,4.872-2.3a12.658,12.658,0,0,1,1.741-1.089c1.455-.569,2.123-2.375,2.611-3.692a7.6,7.6,0,0,1,.319-.789,7.211,7.211,0,0,1,2.683-2.1C40.069,30.334,41.783,26.8,41.047,25.049Z" fill="#212121"></path><path d="M24,1A23,23,0,1,0,47,24,23.026,23.026,0,0,0,24,1Zm0,44a20.893,20.893,0,0,1-13.237-4.717l1.25-1.874a3.6,3.6,0,0,0,1.924-1.3c1.048-1.887-.195-4.583-.618-5.4a8.832,8.832,0,0,0-.39-2.168,4.926,4.926,0,0,0-2.219-1.871A9.858,9.858,0,0,1,9.313,24a1.558,1.558,0,0,1,1.545-1.64A5.016,5.016,0,0,0,14.01,20.3a5.246,5.246,0,0,0,2.858-1.8c.59-1.033.045-3.193-.4-4.551a5.792,5.792,0,0,0-.112-2.778,5.364,5.364,0,0,0-1.7-2.2,13.217,13.217,0,0,0-1.673-2.812,20.838,20.838,0,0,1,7.6-2.852,2.713,2.713,0,0,0-.212,1.914,3.552,3.552,0,0,0,2.1,1.643,3.325,3.325,0,0,0,.9,2.983,3.2,3.2,0,0,0,2.962.25l.021-.005a20.12,20.12,0,0,1,.08,2.753,1,1,0,0,0,.258.705c.21.232,2.116,2.277,4.2,2.569a2.436,2.436,0,0,0,.342.023c1.9,0,4.04-2.059,4.819-2.881a39.439,39.439,0,0,0,4.956-1.525A20.963,20.963,0,0,1,24,45Z" fill="#212121"></path></g></svg>