<svg xmlns="http://www.w3.org/2000/svg" height="48" width="48" viewBox="0 0 48 48"><title>yoga</title><g fill="#212121" class="nc-icon-wrapper"><circle cx="24" cy="10" r="5" fill="#212121"></circle> <path data-color="color-2" d="M15.775,39.55A4.5,4.5,0,0,1,15.62,39H2a1,1,0,0,0,0,2H16.666A4.486,4.486,0,0,1,15.775,39.55Z" fill="#212121"></path> <path data-color="color-2" d="M46,39H32.381a4.715,4.715,0,0,1-.155.548A4.466,4.466,0,0,1,31.333,41H46a1,1,0,0,0,0-2Z" fill="#212121"></path> <path d="M41.562,19.75a2,2,0,0,0-2.811-.312l-3.6,2.882-4.734-4.734A2,2,0,0,0,29,17H19a2,2,0,0,0-1.414.586L12.852,22.32l-3.6-2.882a2,2,0,1,0-2.5,3.124l5,4a2,2,0,0,0,2.663-.148L18,22.828V30H13a2.5,2.5,0,0,0-.86,4.848l5.616,2.059a2.5,2.5,0,0,0,3.1,3.441L24,39.2l3.14,1.152a2.5,2.5,0,0,0,3.1-3.441l5.616-2.059A2.5,2.5,0,0,0,35,30H30V22.828l3.586,3.586a2,2,0,0,0,2.663.148l5-4A2,2,0,0,0,41.562,19.75Z" fill="#212121"></path></g></svg>