<svg xmlns="http://www.w3.org/2000/svg" height="48" width="48" viewBox="0 0 48 48"><title>banana</title><g stroke-linejoin="miter" fill="#212121" stroke-linecap="butt" class="nc-icon-wrapper"><path data-cap="butt" data-color="color-2" fill="none" stroke="#212121" stroke-width="2" stroke-miterlimit="10" d="M9.656,16.4 c2.494,1.806,5.737,3.031,10.327,3.849c13.057,2.326,19.499-1.317,21.443-2.31c1.944-0.993,4.477,2.504,3.189,6.167 c-0.487,1.384-1.747,2.792-3.616,4.114"></path> <path fill="none" stroke="#212121" stroke-width="2" stroke-linecap="square" stroke-miterlimit="10" d="M7.971,4.615 c0.875,12.25,1.875,18.625,14,24s19.25,3.375,21.375,2.875s3.75,3.5,1.625,6.75s-9.625,5.375-18.875,5.125S4.991,38.263,2.721,28.49 c-1.8-7.75,0.5-16,0.5-16l-0.25-7.25L7.971,4.615z"></path></g></svg>