<svg xmlns="http://www.w3.org/2000/svg" height="48" width="48" viewBox="0 0 48 48"><title>barcode qr</title><g stroke-linejoin="miter" fill="#212121" stroke-linecap="butt" class="nc-icon-wrapper"><polygon fill="none" stroke="#212121" stroke-width="2" stroke-linecap="square" stroke-miterlimit="10" points="18,18 2,18 2,2 18,2 18,2 " stroke-linejoin="miter"></polygon> <polyline fill="none" stroke="#212121" stroke-width="2" stroke-linecap="square" stroke-miterlimit="10" points="46,38 46,30 36,30 36,27 " stroke-linejoin="miter"></polyline> <line fill="none" stroke="#212121" stroke-width="2" stroke-linecap="square" stroke-miterlimit="10" x1="46" y1="46" x2="30" y2="46" stroke-linejoin="miter"></line> <polygon data-color="color-2" fill="none" stroke="#212121" stroke-width="2" stroke-linecap="square" stroke-miterlimit="10" points=" 12,12 8,12 8,8 12,8 12,12 " stroke-linejoin="miter"></polygon> <polygon fill="none" stroke="#212121" stroke-width="2" stroke-linecap="square" stroke-miterlimit="10" points="46,18 30,18 30,2 46,2 46,2 " stroke-linejoin="miter"></polygon> <polygon data-color="color-2" fill="none" stroke="#212121" stroke-width="2" stroke-linecap="square" stroke-miterlimit="10" points=" 40,12 36,12 36,8 40,8 40,12 " stroke-linejoin="miter"></polygon> <polygon fill="none" stroke="#212121" stroke-width="2" stroke-linecap="square" stroke-miterlimit="10" points="18,46 2,46 2,30 18,30 18,30 " stroke-linejoin="miter"></polygon> <polygon data-color="color-2" fill="none" stroke="#212121" stroke-width="2" stroke-linecap="square" stroke-miterlimit="10" points=" 12,40 8,40 8,36 12,36 12,40 " stroke-linejoin="miter"></polygon> <polygon data-color="color-2" fill="none" stroke="#212121" stroke-width="2" stroke-linecap="square" stroke-miterlimit="10" points=" 40,40 36,40 36,36 40,36 40,40 " stroke-linejoin="miter"></polygon> <polyline fill="none" stroke="#212121" stroke-width="2" stroke-linecap="square" stroke-miterlimit="10" points="25,41 25,37 29,37 29,27 " stroke-linejoin="miter"></polyline> <polyline fill="none" stroke="#212121" stroke-width="2" stroke-linecap="square" stroke-miterlimit="10" points="17,25 17,23 24,23 24,27 " stroke-linejoin="miter"></polyline> <polyline fill="none" stroke="#212121" stroke-width="2" stroke-linecap="square" stroke-miterlimit="10" points="22,11 25,11 25,6 " stroke-linejoin="miter"></polyline> <line fill="none" stroke="#212121" stroke-width="2" stroke-linecap="square" stroke-miterlimit="10" x1="43" y1="24" x2="43" y2="30" stroke-linejoin="miter"></line> <polyline fill="none" stroke="#212121" stroke-width="2" stroke-linecap="square" stroke-miterlimit="10" points="2,22 2,24 8,24 " stroke-linejoin="miter"></polyline></g></svg>