<svg xmlns="http://www.w3.org/2000/svg" height="48" width="48" viewBox="0 0 48 48"><title>bouquet</title><g stroke-linejoin="miter" fill="#212121" stroke-linecap="butt" class="nc-icon-wrapper"><path d="M40.9,23a3.414,3.414,0,0,0-4.828,0,3.416,3.416,0,0,1-4.829,0,3.414,3.414,0,0,0-4.828,0,3.414,3.414,0,0,1-4.828,0,3.416,3.416,0,0,0-4.829,0,3.414,3.414,0,0,1-4.828,0A3.414,3.414,0,0,0,7.1,23L20,38h8Z" fill="none" stroke="#212121" stroke-linecap="square" stroke-miterlimit="10" stroke-width="2"></path><polyline points="20 38 18 46 30 46 28 38" fill="none" stroke="#212121" stroke-linecap="square" stroke-miterlimit="10" stroke-width="2"></polyline><line x1="24" y1="14" x2="24" y2="19" fill="none" stroke="#212121" stroke-miterlimit="10" stroke-width="2" data-cap="butt" data-color="color-2"></line><path d="M12,12A7,7,0,0,0,5,5v5a7,7,0,0,0,10.89,5.819" fill="none" stroke="#212121" stroke-miterlimit="10" stroke-width="2" data-cap="butt" data-color="color-2"></path><path d="M22.912,5.284A11.609,11.609,0,0,1,31,2V7A7,7,0,0,1,17,7V2a7,7,0,0,1,7,7" fill="none" stroke="#212121" stroke-miterlimit="10" stroke-width="2" data-cap="butt" data-color="color-2"></path><path d="M17,5.184a11.646,11.646,0,0,0-6.08,3.093" fill="none" stroke="#212121" stroke-miterlimit="10" stroke-width="2" data-cap="butt" data-color="color-2"></path><path d="M36,12a7,7,0,0,1,7-7v5a7,7,0,0,1-10.89,5.819" fill="none" stroke="#212121" stroke-miterlimit="10" stroke-width="2" data-cap="butt" data-color="color-2"></path><path d="M31,5.184a11.646,11.646,0,0,1,6.08,3.093" fill="none" stroke="#212121" stroke-miterlimit="10" stroke-width="2" data-cap="butt" data-color="color-2"></path><line x1="24" y1="38" x2="24" y2="34" fill="none" stroke="#212121" stroke-linecap="square" stroke-miterlimit="10" stroke-width="2"></line></g></svg>