<svg xmlns="http://www.w3.org/2000/svg" height="48" width="48" viewBox="0 0 48 48"><title>child</title><g stroke-linejoin="miter" fill="#212121" stroke-linecap="butt" class="nc-icon-wrapper"><path data-color="color-2" d="M19.468,20.3a2.987,2.987,0,0,0-5.328.842" fill="none" stroke="#212121" stroke-linecap="square" stroke-miterlimit="10" stroke-width="2"></path><path data-color="color-2" d="M28.532,20.3a2.987,2.987,0,0,1,5.328.842" fill="none" stroke="#212121" stroke-linecap="square" stroke-miterlimit="10" stroke-width="2"></path><path d="M42,18a3.937,3.937,0,0,0-.995.14A17.98,17.98,0,0,0,7,18.14,3.937,3.937,0,0,0,6,18a4,4,0,0,0,0,8c.04,0,.076-.01.115-.012a17.995,17.995,0,0,0,35.77,0c.039,0,.075.012.115.012a4,4,0,0,0,0-8Z" fill="none" stroke="#212121" stroke-linecap="square" stroke-miterlimit="10" stroke-width="2"></path><path data-cap="butt" d="M24,6a4,4,0,1,0,2.828,6.828" fill="none" stroke="#212121" stroke-miterlimit="10" stroke-width="2"></path><path data-color="color-2" d="M24,35a6,6,0,0,0,6-6H18A6,6,0,0,0,24,35Z" fill="none" stroke="#212121" stroke-linecap="square" stroke-miterlimit="10" stroke-width="2"></path></g></svg>