<svg xmlns="http://www.w3.org/2000/svg" height="48" width="48" viewBox="0 0 48 48"><title>cogwheel</title><g stroke-linejoin="miter" fill="#212121" stroke-linecap="butt" class="nc-icon-wrapper"><circle data-color="color-2" cx="24" cy="24" r="7" fill="none" stroke="#212121" stroke-linecap="square" stroke-miterlimit="10" stroke-width="2"></circle> <path d="M46,27V21L39.6,20.466a15.89,15.89,0,0,0-2.072-4.991l4.155-4.91L37.435,6.322l-4.91,4.155A15.876,15.876,0,0,0,27.534,8.4L27,2H21l-.534,6.4a15.89,15.89,0,0,0-4.991,2.072l-4.91-4.155L6.322,10.565l4.155,4.91A15.876,15.876,0,0,0,8.4,20.466L2,21v6l6.4.534a15.89,15.89,0,0,0,2.072,4.991l-4.155,4.91,4.243,4.243,4.91-4.155A15.876,15.876,0,0,0,20.466,39.6L21,46h6l.534-6.405a15.89,15.89,0,0,0,4.991-2.072l4.91,4.155,4.243-4.243-4.155-4.91A15.876,15.876,0,0,0,39.6,27.534Z" fill="none" stroke="#212121" stroke-linecap="square" stroke-miterlimit="10" stroke-width="2"></path></g></svg>