<svg xmlns="http://www.w3.org/2000/svg" height="48" width="48" viewBox="0 0 48 48"><title>deer</title><g stroke-linejoin="miter" fill="#212121" stroke-linecap="butt" class="nc-icon-wrapper"><line data-cap="butt" data-color="color-2" fill="none" stroke="#212121" stroke-width="2" stroke-miterlimit="10" x1="24" y1="38" x2="24" y2="46" stroke-linejoin="miter" stroke-linecap="butt"></line> <path data-cap="butt" data-color="color-2" fill="none" stroke="#212121" stroke-width="2" stroke-miterlimit="10" d="M14.6803026,14H6 c-2.2091391,0-4-1.7908611-4-4V2" stroke-linejoin="miter" stroke-linecap="butt"></path> <line data-cap="butt" data-color="color-2" fill="none" stroke="#212121" stroke-width="2" stroke-miterlimit="10" x1="10" y1="14" x2="10" y2="6" stroke-linejoin="miter" stroke-linecap="butt"></line> <path data-cap="butt" data-color="color-2" fill="none" stroke="#212121" stroke-width="2" stroke-miterlimit="10" d="M33.319622,14H42 c2.2091408,0,4-1.7908611,4-4V2" stroke-linejoin="miter" stroke-linecap="butt"></path> <line data-cap="butt" data-color="color-2" fill="none" stroke="#212121" stroke-width="2" stroke-miterlimit="10" x1="38" y1="14" x2="38" y2="6" stroke-linejoin="miter" stroke-linecap="butt"></line> <circle data-color="color-2" fill="none" stroke="#212121" stroke-width="2" stroke-linecap="square" stroke-miterlimit="10" cx="24" cy="34" r="4" stroke-linejoin="miter"></circle> <path data-color="color-2" fill="none" stroke="#212121" stroke-width="2" stroke-linecap="square" stroke-miterlimit="10" d="M15,25 c0-1.6568546,1.3431454-3,3-3s3,1.3431454,3,3" stroke-linejoin="miter"></path> <path data-color="color-2" fill="none" stroke="#212121" stroke-width="2" stroke-linecap="square" stroke-miterlimit="10" d="M27,25 c0-1.6568546,1.3431454-3,3-3s3,1.3431454,3,3" stroke-linejoin="miter"></path> <path data-cap="butt" fill="none" stroke="#212121" stroke-width="2" stroke-miterlimit="10" d="M10.0822163,26H7.9999938 C4.6862888,26,2,23.3137112,2,20.0000057V20h8.4338722" stroke-linejoin="miter" stroke-linecap="butt"></path> <path data-cap="butt" fill="none" stroke="#212121" stroke-width="2" stroke-miterlimit="10" d="M37.9177818,26h2.0822258 C43.3137131,26,46,23.3137112,46,20.0000057V20h-8.4338722" stroke-linejoin="miter" stroke-linecap="butt"></path> <path fill="none" stroke="#212121" stroke-width="2" stroke-linecap="square" stroke-miterlimit="10" d="M10,24 c0-8.8365564,5.1634436-12,14-12s14,3.1634436,14,12s-5.1634445,22-14,22S10,32.8365555,10,24z" stroke-linejoin="miter"></path></g></svg>