<svg xmlns="http://www.w3.org/2000/svg" height="48" width="48" viewBox="0 0 48 48"><title>desk lamp</title><g stroke-linejoin="miter" fill="#212121" stroke-linecap="butt" class="nc-icon-wrapper"><path data-color="color-2" d="M6.15,17A6.293,6.293,0,0,0,5,20.636,6.364,6.364,0,0,0,11.364,27,6.293,6.293,0,0,0,15,25.85" fill="none" stroke="#212121" stroke-linecap="square" stroke-miterlimit="10" stroke-width="2"></path><line data-cap="butt" x1="40.033" y1="23.735" x2="24.764" y2="7.236" fill="none" stroke="#212121" stroke-miterlimit="10" stroke-width="2"></line><line data-cap="butt" x1="24.001" y1="45" x2="40.033" y2="28.265" fill="none" stroke="#212121" stroke-miterlimit="10" stroke-width="2"></line><circle cx="42.001" cy="26" r="2.999" fill="none" stroke="#212121" stroke-linecap="square" stroke-miterlimit="10" stroke-width="2"></circle><line x1="13" y1="45" x2="35" y2="45" fill="none" stroke="#212121" stroke-linecap="square" stroke-miterlimit="10" stroke-width="2"></line><line x1="24.764" y1="7.236" x2="29" y2="3" fill="none" stroke="#212121" stroke-linecap="square" stroke-miterlimit="10" stroke-width="2"></line><path d="M14.174,3A14.773,14.773,0,0,0,3.752,7.287L24.714,28.249A14.823,14.823,0,0,0,14.174,3Z" fill="none" stroke="#212121" stroke-linecap="square" stroke-miterlimit="10" stroke-width="2"></path></g></svg>