<svg xmlns="http://www.w3.org/2000/svg" height="48" width="48" viewBox="0 0 48 48"><title>drums</title><g stroke-linejoin="miter" fill="#212121" stroke-linecap="butt" class="nc-icon-wrapper"><path d="M4,18V36c0,4.418,8.954,8,20,8s20-3.582,20-8V18" fill="none" stroke="#212121" stroke-miterlimit="10" stroke-width="2" data-cap="butt"></path><line x1="44" y1="3" x2="16" y2="17" fill="none" stroke="#212121" stroke-linecap="square" stroke-miterlimit="10" stroke-width="2" data-color="color-2"></line><line x1="4" y1="3" x2="32" y2="17" fill="none" stroke="#212121" stroke-linecap="square" stroke-miterlimit="10" stroke-width="2" data-color="color-2"></line><line x1="19" y1="43.748" x2="19" y2="31.741" fill="none" stroke="#212121" stroke-miterlimit="10" stroke-width="2" data-cap="butt"></line><line x1="10" y1="29.797" x2="10" y2="41.712" fill="none" stroke="#212121" stroke-miterlimit="10" stroke-width="2" data-cap="butt"></line><line x1="29" y1="43.747" x2="29" y2="31.741" fill="none" stroke="#212121" stroke-miterlimit="10" stroke-width="2" data-cap="butt"></line><line x1="38" y1="29.797" x2="38" y2="41.712" fill="none" stroke="#212121" stroke-miterlimit="10" stroke-width="2" data-cap="butt"></line><path d="M10.812,12C6.644,13.462,4,15.605,4,18c0,4.418,8.954,8,20,8s20-3.582,20-8c0-2.221-2.265-4.229-5.918-5.679" fill="none" stroke="#212121" stroke-miterlimit="10" stroke-width="2" data-cap="butt"></path><path d="M4,26.944C8.769,30.033,15.957,32,24,32s15.231-1.967,20-5.056" fill="none" stroke="#212121" stroke-miterlimit="10" stroke-width="2" data-cap="butt"></path></g></svg>