<svg xmlns="http://www.w3.org/2000/svg" height="48" width="48" viewBox="0 0 48 48"><title>ecology</title><g stroke-linejoin="miter" fill="#212121" stroke-linecap="butt" class="nc-icon-wrapper"><path d="M11.39,5.971a10.382,10.382,0,0,1,2.453,3.634A4.739,4.739,0,0,1,15.417,11.5a5.221,5.221,0,0,1,.021,2.506S16.5,17.125,16,18s-2.625,1.438-2.625,1.438a4.1,4.1,0,0,1-2.688,1.938A2.517,2.517,0,0,0,8.312,24c0,1.688,1.688,4.438,1.688,4.438s1.75.856,2,1.481A9.523,9.523,0,0,1,12.335,32s1.665,2.938.727,4.625c-.3.538-1.688.938-1.688.938l-1.947,2.92" fill="none" stroke="#212121" stroke-miterlimit="10" stroke-width="2" data-cap="butt"></path><path d="M41.362,10.487a35.691,35.691,0,0,1-5.836,1.867s-2.713,3.02-4.5,2.77-3.594-2.25-3.594-2.25S27.562,9.188,27,9s-2.062.812-3,.062S23.6,6.2,23.6,6.2s-2.041-.636-2.291-1.324.743-2.219.932-2.806" fill="none" stroke="#212121" stroke-miterlimit="10" stroke-width="2" data-cap="butt"></path><path d="M44,14.836A22,22,0,1,0,18,45.144" fill="none" stroke="#212121" stroke-linecap="square" stroke-miterlimit="10" stroke-width="2"></path><path d="M39.321,31.161C28.934,34.871,31.9,46,23,46" fill="none" stroke="#212121" stroke-linecap="square" stroke-miterlimit="10" stroke-width="2" data-color="color-2"></path><path d="M30.257,20.523a8.4,8.4,0,0,0-1.675-.773,10.673,10.673,0,0,0-3.208.625s-3,3.625-3,5a1,1,0,0,0,.224.531" fill="none" stroke="#212121" stroke-linecap="square" stroke-miterlimit="10" stroke-width="2"></path><path d="M46,19.973A14.963,14.963,0,0,1,34,26a8,8,0,0,0,0,16A12,12,0,0,0,46,30Z" fill="none" stroke="#212121" stroke-linecap="square" stroke-miterlimit="10" stroke-width="2" data-color="color-2"></path></g></svg>