<svg xmlns="http://www.w3.org/2000/svg" height="48" width="48" viewBox="0 0 48 48"><title>farmer market</title><g stroke-linejoin="miter" fill="#212121" stroke-linecap="butt" class="nc-icon-wrapper"><circle cx="13" cy="41" r="4" fill="none" stroke="#212121" stroke-miterlimit="10" stroke-width="2" data-cap="butt"></circle><polyline points="9 41 3 41 3 31 45 31 45 45" fill="none" stroke="#212121" stroke-linecap="square" stroke-miterlimit="10" stroke-width="2"></polyline><line x1="17" y1="41" x2="45" y2="41" fill="none" stroke="#212121" stroke-linecap="square" stroke-miterlimit="10" stroke-width="2"></line><rect x="24" y="18" width="8" height="8" fill="none" stroke="#212121" stroke-miterlimit="10" stroke-width="2" data-cap="butt" data-color="color-2"></rect><rect x="16" y="18" width="8" height="8" fill="none" stroke="#212121" stroke-miterlimit="10" stroke-width="2" data-cap="butt" data-color="color-2"></rect><path d="M4,9.973c.911,1.224,2.357,2.027,4,2.027s3.089-.804,4-2.027c.911,1.224,2.357,2.027,4,2.027s3.089-.804,4-2.027c.911,1.224,2.357,2.027,4,2.027s3.089-.804,4-2.027c.911,1.224,2.357,2.027,4,2.027s3.089-.804,4-2.027c.911,1.224,2.357,2.027,4,2.027s3.089-.804,4-2.027l-4-6.973H8l-4,6.973Z" fill="none" stroke="#212121" stroke-linecap="square" stroke-miterlimit="10" stroke-width="2"></path><polyline points="7 26 7 11.896 7 13" fill="none" stroke="#212121" stroke-linecap="square" stroke-miterlimit="10" stroke-width="2"></polyline><polyline points="41 26 41 11.896 41 13" fill="none" stroke="#212121" stroke-linecap="square" stroke-miterlimit="10" stroke-width="2"></polyline><line x1="12" y1="9.973" x2="14" y2="3" fill="none" stroke="#212121" stroke-miterlimit="10" stroke-width="2" data-cap="butt"></line><line x1="20" y1="9.973" x2="20.5" y2="3" fill="none" stroke="#212121" stroke-miterlimit="10" stroke-width="2" data-cap="butt"></line><line x1="28" y1="9.973" x2="27.5" y2="3" fill="none" stroke="#212121" stroke-miterlimit="10" stroke-width="2" data-cap="butt"></line><line x1="36" y1="9.973" x2="34" y2="3" fill="none" stroke="#212121" stroke-miterlimit="10" stroke-width="2" data-cap="butt"></line></g></svg>