<svg xmlns="http://www.w3.org/2000/svg" height="48" width="48" viewBox="0 0 48 48"><title>finger snap</title><g stroke-linejoin="miter" fill="#212121" stroke-linecap="butt" class="nc-icon-wrapper"><line x1="42" y1="3" x2="35" y2="10" fill="none" stroke="#212121" stroke-linecap="square" stroke-miterlimit="10" stroke-width="2" data-color="color-2"></line><path d="M27.068,37.9l1.925-10.907h13.5a3.5,3.5,0,0,0,3.5-3.5h0a3.5,3.5,0,0,0-3.5-3.5L19.135,20a2,2,0,0,1-1.352-3.481l5.8-5.32a4,4,0,0,0,.727-5.006h0a2.72,2.72,0,0,0-3.593-1.01L1.993,14.993v24l17.943,3.738A6,6,0,0,0,27.068,37.9Z" fill="none" stroke="#212121" stroke-linecap="square" stroke-miterlimit="10" stroke-width="2"></path><line x1="30" y1="9" x2="31" y2="4" fill="none" stroke="#212121" stroke-linecap="square" stroke-miterlimit="10" stroke-width="2" data-color="color-2"></line><line x1="36" y1="15" x2="41" y2="14" fill="none" stroke="#212121" stroke-linecap="square" stroke-miterlimit="10" stroke-width="2" data-color="color-2"></line></g></svg>