<svg xmlns="http://www.w3.org/2000/svg" height="48" width="48" viewBox="0 0 48 48"><title>gaming console</title><g stroke-linejoin="miter" fill="#212121" stroke-linecap="butt" class="nc-icon-wrapper"><polyline points="26 20 26 2 46 2 46 46 38 46" fill="none" stroke="#212121" stroke-linecap="square" stroke-miterlimit="10" stroke-width="2" data-color="color-2"></polyline><line x1="36" y1="12" x2="36" y2="27" fill="none" stroke="#212121" stroke-linecap="square" stroke-miterlimit="10" stroke-width="2" data-color="color-2"></line><line x1="18" y1="23" x2="18" y2="12" fill="none" stroke="#212121" stroke-linecap="square" stroke-miterlimit="10" stroke-width="2"></line><line x1="15" y1="40" x2="21" y2="40" fill="none" stroke="#212121" stroke-miterlimit="10" stroke-width="2" data-cap="butt"></line><path d="M25.356,42.662l3.595,2.786A2.487,2.487,0,0,0,33,43.5a4.747,4.747,0,0,0-.052-.508L29.864,29.45A4.49,4.49,0,0,0,21.76,28H14.24a4.49,4.49,0,0,0-8.1,1.45L3.052,42.992A4.747,4.747,0,0,0,3,43.5a2.487,2.487,0,0,0,4.049,1.948l3.6-2.786" fill="none" stroke="#212121" stroke-miterlimit="10" stroke-width="2" data-cap="butt"></path><circle cx="24" cy="40" r="3" fill="none" stroke="#212121" stroke-linecap="square" stroke-miterlimit="10" stroke-width="2"></circle><circle cx="12" cy="40" r="3" fill="none" stroke="#212121" stroke-linecap="square" stroke-miterlimit="10" stroke-width="2"></circle></g></svg>