<svg xmlns="http://www.w3.org/2000/svg" height="48" width="48" viewBox="0 0 48 48"><title>grape</title><g stroke-linejoin="miter" fill="#212121" stroke-linecap="butt" class="nc-icon-wrapper"><path data-cap="butt" data-color="color-2" fill="none" stroke="#212121" stroke-width="2" stroke-miterlimit="10" d="M24,10c0-3.812,0.938-5.625,4-7 "></path> <circle fill="none" stroke="#212121" stroke-width="2" stroke-linecap="square" stroke-miterlimit="10" cx="24" cy="38" r="6"></circle> <circle fill="none" stroke="#212121" stroke-width="2" stroke-linecap="square" stroke-miterlimit="10" cx="18" cy="27" r="6"></circle> <circle fill="none" stroke="#212121" stroke-width="2" stroke-linecap="square" stroke-miterlimit="10" cx="30" cy="27" r="6"></circle> <circle fill="none" stroke="#212121" stroke-width="2" stroke-linecap="square" stroke-miterlimit="10" cx="24" cy="16" r="6"></circle> <path data-cap="butt" fill="none" stroke="#212121" stroke-width="2" stroke-miterlimit="10" d="M18.5,13.598 C17.575,11.477,15.462,10,13,10c-3.314,0-6,2.686-6,6s2.686,6,6,6c2.462,0,4.575-1.477,5.5-3.598"></path> <path data-cap="butt" fill="none" stroke="#212121" stroke-width="2" stroke-miterlimit="10" d="M29.5,13.598 C30.425,11.477,32.538,10,35,10c3.314,0,6,2.686,6,6s-2.686,6-6,6c-2.462,0-4.575-1.477-5.5-3.598"></path></g></svg>