<svg xmlns="http://www.w3.org/2000/svg" height="48" width="48" viewBox="0 0 48 48"><title>hair woman</title><g stroke-linejoin="miter" fill="#212121" stroke-linecap="butt" class="nc-icon-wrapper"><path d="M12,44.022l2.672-.455A4,4,0,0,0,18,39.624V37" fill="none" stroke="#212121" stroke-linecap="square" stroke-miterlimit="10" stroke-width="2"></path><path d="M41.737,45C48,33,41,33,41,19A17,17,0,0,0,7,19c0,14-7,14-.737,26" fill="none" stroke="#212121" stroke-linecap="square" stroke-miterlimit="10" stroke-width="2" data-color="color-2"></path><path d="M30,37v2.624a4,4,0,0,0,3.328,3.943L36,44.022" fill="none" stroke="#212121" stroke-linecap="square" stroke-miterlimit="10" stroke-width="2"></path><path d="M34.24,31.24C31.607,34.718,27.991,37,24,37s-7.629-2.3-10.265-5.792" fill="none" stroke="#212121" stroke-miterlimit="10" stroke-width="2" data-cap="butt"></path><path d="M37,34l-3.522-3.522a6,6,0,0,1-.75-7.571L33.4,21.9a6,6,0,0,0-.552-7.364L26.312,7.343A14.5,14.5,0,0,1,12,19.5l2.608,3.978a6,6,0,0,1-.286,6.979L10,36" fill="none" stroke="#212121" stroke-linecap="square" stroke-miterlimit="10" stroke-width="2" data-color="color-2"></path></g></svg>