<svg xmlns="http://www.w3.org/2000/svg" height="48" width="48" viewBox="0 0 48 48"><title>hair man</title><g stroke-linejoin="miter" fill="#212121" stroke-linecap="butt" class="nc-icon-wrapper"><path data-cap="butt" d="M38.583,18.042C38.583,27.707,32.054,37,24,37S9.417,27.707,9.417,18.042" fill="none" stroke="#212121" stroke-miterlimit="10" stroke-width="2"></path><path data-color="color-2" d="M24,2C16,2,7.958,3.458,9.417,18.042c0,.634.031,1.267.086,1.895A6,6,0,0,1,15.5,14H25a6,6,0,0,0,6-6,10,10,0,0,0,7.611,9.7C39.907,3.442,31.935,2,24,2Z" fill="none" stroke="#212121" stroke-linecap="square" stroke-miterlimit="10" stroke-width="2"></path><path d="M6.263,45l8.409-1.433A4,4,0,0,0,18,39.624V37" fill="none" stroke="#212121" stroke-linecap="square" stroke-miterlimit="10" stroke-width="2"></path><path d="M41.737,45l-8.409-1.433A4,4,0,0,1,30,39.624V37" fill="none" stroke="#212121" stroke-linecap="square" stroke-miterlimit="10" stroke-width="2"></path></g></svg>