<svg xmlns="http://www.w3.org/2000/svg" height="48" width="48" viewBox="0 0 48 48"><title>headphones</title><g stroke-linejoin="miter" fill="#212121" stroke-linecap="butt" class="nc-icon-wrapper"><path data-cap="butt" data-color="color-2" d="M4,28.7V18A16.047,16.047,0,0,1,20,2h8A16.047,16.047,0,0,1,44,18V28.7" fill="none" stroke="#212121" stroke-miterlimit="10" stroke-width="2"></path><path d="M16,24.4a10.323,10.323,0,0,0-3-.4,11,11,0,0,0,0,22,15.438,15.438,0,0,0,3-.4Z" fill="none" stroke="#212121" stroke-linecap="square" stroke-miterlimit="10" stroke-width="2"></path><path d="M32,45.6a10.323,10.323,0,0,0,3,.4,11,11,0,0,0,0-22,15.438,15.438,0,0,0-3,.4Z" fill="none" stroke="#212121" stroke-linecap="square" stroke-miterlimit="10" stroke-width="2"></path></g></svg>