<svg xmlns="http://www.w3.org/2000/svg" height="48" width="48" viewBox="0 0 48 48"><title>hide</title><g stroke-linejoin="miter" fill="#212121" stroke-linecap="butt" class="nc-icon-wrapper"><path d="M39.738,16a41.745,41.745,0,0,1,5.868,6.733,2.217,2.217,0,0,1-.005,2.53C43.063,28.876,34.974,39,24.008,39A18.9,18.9,0,0,1,18,38" fill="none" stroke="#212121" stroke-linecap="square" stroke-miterlimit="10" stroke-width="2"></path><path data-cap="butt" d="M12.62,35.38A38.793,38.793,0,0,1,2.4,25.255,2.217,2.217,0,0,1,2.4,22.74C4.884,19.13,12.855,9,24.008,9a21.012,21.012,0,0,1,11.378,3.613" fill="none" stroke="#212121" stroke-miterlimit="10" stroke-width="2"></path><path data-color="color-2" d="M32.785,22A9.007,9.007,0,0,1,22,32.775" fill="none" stroke="#212121" stroke-linecap="square" stroke-miterlimit="10" stroke-width="2"></path><line data-color="color-2" x1="4" y1="44" x2="44" y2="4" fill="none" stroke="#212121" stroke-linecap="square" stroke-miterlimit="10" stroke-width="2"></line><path data-cap="butt" data-color="color-2" d="M17.64,30.36A9,9,0,0,1,30.368,17.632" fill="none" stroke="#212121" stroke-miterlimit="10" stroke-width="2"></path></g></svg>