<svg xmlns="http://www.w3.org/2000/svg" height="48" width="48" viewBox="0 0 48 48"><title>hourglass</title><g stroke-linejoin="miter" fill="#212121" stroke-linecap="butt" class="nc-icon-wrapper"><path data-color="color-2" data-stroke="none" d="M11,46s5.571-14,13-14,13,14,13,14H11Z" fill="#212121" isolation="isolate" opacity=".4" stroke="none"></path><line x1="7" y1="2" x2="41" y2="2" fill="none" stroke="#212121" stroke-linecap="square" stroke-miterlimit="10" stroke-width="2"></line><line x1="7" y1="46" x2="41" y2="46" fill="none" stroke="#212121" stroke-linecap="square" stroke-miterlimit="10" stroke-width="2"></line><path data-cap="butt" d="M11,46s0-10,0-9.999c0-8.001,8-12.001,8-12.001,0,0-8-4.002-8-12.001,0,.001,0-9.999,0-9.999" fill="none" stroke="#212121" stroke-miterlimit="10" stroke-width="2"></path><path data-cap="butt" d="M37,2s0,10,0,9.999c0,7.999-8,12.001-8,12.001,0,0,8,4,8,12.001,0-.001,0,9.999,0,9.999" fill="none" stroke="#212121" stroke-miterlimit="10" stroke-width="2"></path></g></svg>