<svg xmlns="http://www.w3.org/2000/svg" height="48" width="48" viewBox="0 0 48 48"><title>interview</title><g stroke-linejoin="miter" fill="#212121" stroke-linecap="butt" class="nc-icon-wrapper"><path d="M2,12A12,12,0,0,1,14,24v2.08L17,33l-3,1v3a4,4,0,0,1-4,4H6v4" fill="none" stroke="#212121" stroke-linecap="square" stroke-miterlimit="10" stroke-width="2"></path><path d="M42,45V41H38a4,4,0,0,1-4-4V34l-3-1,3-6.92V24A12,12,0,0,1,46,12" fill="none" stroke="#212121" stroke-linecap="square" stroke-miterlimit="10" stroke-width="2"></path><circle cx="24" cy="20" r="1" fill="none" stroke="#212121" stroke-linecap="square" stroke-miterlimit="10" stroke-width="2" data-color="color-2"></circle><path d="M30.528,13.816a8.987,8.987,0,0,0-12.892-.18" fill="none" stroke="#212121" stroke-linecap="square" stroke-miterlimit="10" stroke-width="2" data-color="color-2"></path><path d="M36.33,8.319a16.975,16.975,0,0,0-24.351-.34" fill="none" stroke="#212121" stroke-linecap="square" stroke-miterlimit="10" stroke-width="2" data-color="color-2"></path></g></svg>