<svg xmlns="http://www.w3.org/2000/svg" height="48" width="48" viewBox="0 0 48 48"><title>lifering</title><g stroke-linejoin="miter" fill="#212121" stroke-linecap="butt" class="nc-icon-wrapper"><circle fill="none" stroke="#212121" stroke-width="2" stroke-linecap="square" stroke-miterlimit="10" cx="24" cy="24" r="10" stroke-linejoin="miter"></circle> <circle fill="none" stroke="#212121" stroke-width="2" stroke-linecap="square" stroke-miterlimit="10" cx="24" cy="24" r="20" stroke-linejoin="miter"></circle> <line data-cap="butt" fill="none" stroke="#212121" stroke-width="2" stroke-miterlimit="10" x1="20" y1="4.4" x2="20" y2="14.832" stroke-linejoin="miter" stroke-linecap="butt"></line> <line data-cap="butt" fill="none" stroke="#212121" stroke-width="2" stroke-miterlimit="10" x1="28" y1="4.4" x2="28" y2="14.832" stroke-linejoin="miter" stroke-linecap="butt"></line> <line data-cap="butt" fill="none" stroke="#212121" stroke-width="2" stroke-miterlimit="10" x1="43.6" y1="20" x2="33.168" y2="20" stroke-linejoin="miter" stroke-linecap="butt"></line> <line data-cap="butt" fill="none" stroke="#212121" stroke-width="2" stroke-miterlimit="10" x1="43.6" y1="28" x2="33.168" y2="28" stroke-linejoin="miter" stroke-linecap="butt"></line> <line data-cap="butt" fill="none" stroke="#212121" stroke-width="2" stroke-miterlimit="10" x1="28" y1="43.6" x2="28" y2="33.168" stroke-linejoin="miter" stroke-linecap="butt"></line> <line data-cap="butt" fill="none" stroke="#212121" stroke-width="2" stroke-miterlimit="10" x1="20" y1="43.6" x2="20" y2="33.168" stroke-linejoin="miter" stroke-linecap="butt"></line> <line data-cap="butt" fill="none" stroke="#212121" stroke-width="2" stroke-miterlimit="10" x1="4.4" y1="28" x2="14.832" y2="28" stroke-linejoin="miter" stroke-linecap="butt"></line> <line data-cap="butt" fill="none" stroke="#212121" stroke-width="2" stroke-miterlimit="10" x1="4.4" y1="20" x2="14.832" y2="20" stroke-linejoin="miter" stroke-linecap="butt"></line> <path data-color="color-2" fill="none" stroke="#212121" stroke-width="2" stroke-linecap="square" stroke-miterlimit="10" d="M2,13 C2,6.925,6.925,2,13,2" stroke-linejoin="miter"></path> <path data-color="color-2" fill="none" stroke="#212121" stroke-width="2" stroke-linecap="square" stroke-miterlimit="10" d="M35,2 c6.075,0,11,4.925,11,11" stroke-linejoin="miter"></path> <path data-color="color-2" fill="none" stroke="#212121" stroke-width="2" stroke-linecap="square" stroke-miterlimit="10" d="M46,35 c0,6.075-4.925,11-11,11" stroke-linejoin="miter"></path> <path data-color="color-2" fill="none" stroke="#212121" stroke-width="2" stroke-linecap="square" stroke-miterlimit="10" d="M13,46 C6.925,46,2,41.075,2,35" stroke-linejoin="miter"></path></g></svg>