<svg xmlns="http://www.w3.org/2000/svg" height="48" width="48" viewBox="0 0 48 48"><title>link</title><g stroke-linejoin="miter" fill="#212121" stroke-linecap="butt" class="nc-icon-wrapper"><path d="M24.955,31a8.466,8.466,0,0,1-2.47,6.515l-5,5a8.485,8.485,0,0,1-12,0h0a8.485,8.485,0,0,1,0-12l5-5A8.466,8.466,0,0,1,17,23.045" fill="none" stroke="#212121" stroke-linecap="square" stroke-miterlimit="10" stroke-width="2"></path><path d="M31,24.955a8.466,8.466,0,0,0,6.515-2.47l5-5a8.485,8.485,0,0,0,0-12h0a8.485,8.485,0,0,0-12,0l-5,5A8.466,8.466,0,0,0,23.045,17" fill="none" stroke="#212121" stroke-linecap="square" stroke-miterlimit="10" stroke-width="2"></path><line data-color="color-2" x1="16" y1="32" x2="32" y2="16" fill="none" stroke="#212121" stroke-linecap="square" stroke-miterlimit="10" stroke-width="2"></line></g></svg>