<svg xmlns="http://www.w3.org/2000/svg" height="48" width="48" viewBox="0 0 48 48"><title>megaphone</title><g stroke-linejoin="miter" fill="#212121" stroke-linecap="butt" class="nc-icon-wrapper"><path data-cap="butt" data-color="color-2" d="M21.251,32l3.467,8.61c.804,2.011-.169,4.294-2.177,5.106h0c-2.013,.808-4.299-.167-5.11-2.178l-6.306-15.538" fill="none" stroke="#212121" stroke-miterlimit="10" stroke-width="2"></path><path d="M22,10H11c-4.971,0-9,4.029-9,9h0c0,4.971,4.029,9,9,9h11c6,0,16,7,16,7V3s-9,7-16,7Z" fill="none" stroke="#212121" stroke-linecap="square" stroke-miterlimit="10" stroke-width="2"></path><path data-cap="butt" data-color="color-2" d="M42,15c2.209,0,4,1.791,4,4s-1.791,4-4,4" fill="none" stroke="#212121" stroke-miterlimit="10" stroke-width="2"></path></g></svg>