<svg xmlns="http://www.w3.org/2000/svg" height="48" width="48" viewBox="0 0 48 48"><title>palm tree</title><g stroke-linejoin="miter" fill="#212121" stroke-linecap="butt" class="nc-icon-wrapper"><path d="M29.457,39.852a35.731,35.731,0,0,0,.837-7.667,35.46,35.46,0,0,0-7.275-21.554L22.576,11A35.5,35.5,0,0,1,25.294,24.64a35.5,35.5,0,0,1-3.059,14.453" fill="none" stroke="#212121" stroke-miterlimit="10" stroke-width="2" data-cap="butt"></path><path d="M38.006,46A17.551,17.551,0,0,0,9.994,46Z" fill="none" stroke="#212121" stroke-linecap="square" stroke-miterlimit="10" stroke-width="2"></path><path d="M11,27,22.909,10.741C13.757,12,7,16,11,27Z" fill="none" stroke="#212121" stroke-linecap="square" stroke-miterlimit="10" stroke-width="2" data-color="color-2"></path><path d="M42,22,22.909,10.741S41,5,42,22Z" fill="none" stroke="#212121" stroke-linecap="square" stroke-miterlimit="10" stroke-width="2" data-color="color-2"></path><path d="M22.909,10.741,8,8.991S18-1.061,22.909,10.741Z" fill="none" stroke="#212121" stroke-linecap="square" stroke-miterlimit="10" stroke-width="2" data-color="color-2"></path><path d="M22.909,10.741,37,4S24-3.35,22.909,10.741Z" fill="none" stroke="#212121" stroke-linecap="square" stroke-miterlimit="10" stroke-width="2" data-color="color-2"></path></g></svg>