<svg xmlns="http://www.w3.org/2000/svg" height="48" width="48" viewBox="0 0 48 48"><title>present</title><g stroke-linejoin="miter" fill="#212121" stroke-linecap="butt" class="nc-icon-wrapper"><path d="M42,26V41a4,4,0,0,1-4,4H10a4,4,0,0,1-4-4V26" fill="none" stroke="#212121" stroke-linecap="square" stroke-miterlimit="10" stroke-width="2"></path><rect x="2" y="12.003" width="44" height="8" fill="none" stroke="#212121" stroke-linecap="square" stroke-miterlimit="10" stroke-width="2"></rect><polyline data-color="color-2" points="28 12.003 28 45 20 45 20 12.003" fill="none" stroke="#212121" stroke-linecap="square" stroke-miterlimit="10" stroke-width="2"></polyline><path data-color="color-2" d="M8,7a5.174,5.174,0,0,1,5.334-5C21.222,2,24,12,24,12H13.334A5.175,5.175,0,0,1,8,7Z" fill="none" stroke="#212121" stroke-linecap="square" stroke-miterlimit="10" stroke-width="2"></path><path data-color="color-2" d="M34.666,12H24S26.778,2,34.666,2A5.174,5.174,0,0,1,40,7,5.175,5.175,0,0,1,34.666,12Z" fill="none" stroke="#212121" stroke-linecap="square" stroke-miterlimit="10" stroke-width="2"></path></g></svg>