<svg xmlns="http://www.w3.org/2000/svg" height="48" width="48" viewBox="0 0 48 48"><title>rat</title><g stroke-linejoin="miter" fill="#212121" stroke-linecap="butt" class="nc-icon-wrapper"><circle cx="10.5" cy="19.5" r="1.5" fill="#212121" data-cap="butt" data-color="color-2" data-stroke="none" stroke="none"></circle><path d="M26.464,16.464A4.979,4.979,0,0,0,27.027,24,4.98,4.98,0,0,0,25,28H42a4,4,0,0,1,0,8H30a4,4,0,0,0,0,8h4" fill="none" stroke="#212121" stroke-linecap="square" stroke-miterlimit="10" stroke-width="2"></path><path d="M28,7a28.818,28.818,0,0,0-13.527,3.356,6.982,6.982,0,0,0-4.7-4.128l-2.485,9.5A29.125,29.125,0,0,0,2.65,21.935a4,4,0,0,0-.118,3.633L3.667,28H40.112A13.983,13.983,0,0,0,28,7Z" fill="none" stroke="#212121" stroke-linecap="square" stroke-miterlimit="10" stroke-width="2"></path></g></svg>