<svg xmlns="http://www.w3.org/2000/svg" height="48" width="48" viewBox="0 0 48 48"><title>salad</title><g stroke-linejoin="miter" fill="#212121" stroke-linecap="butt" class="nc-icon-wrapper"><path d="M5,4H5A10,10,0,0,1,15,14v4a0,0,0,0,1,0,0h0A10,10,0,0,1,5,8V4A0,0,0,0,1,5,4Z" transform="translate(20 22) rotate(-180)" fill="none" stroke="#212121" stroke-linecap="square" stroke-miterlimit="10" stroke-width="2" data-color="color-2"></path> <path d="M32,18a7,7,0,0,1-7-7" fill="none" stroke="#212121" stroke-linecap="square" stroke-miterlimit="10" stroke-width="2" data-color="color-2"></path> <path d="M15.1,43H32.9A20.983,20.983,0,0,0,45,24H3A20.983,20.983,0,0,0,15.1,43Z" fill="none" stroke="#212121" stroke-linecap="square" stroke-miterlimit="10" stroke-width="2"></path> <path d="M40,18a6,6,0,0,0-6-6A8,8,0,0,0,19.755,7" fill="none" stroke="#212121" stroke-linecap="square" stroke-miterlimit="10" stroke-width="2" data-color="color-2"></path></g></svg>