<svg xmlns="http://www.w3.org/2000/svg" height="48" width="48" viewBox="0 0 48 48"><title>selfie 2</title><g stroke-linejoin="miter" fill="#212121" stroke-linecap="butt" class="nc-icon-wrapper"><circle cx="21" cy="19" r="4" fill="none" stroke="#212121" stroke-linecap="square" stroke-miterlimit="10" stroke-width="2" data-color="color-2"></circle><path d="M14,33a7,7,0,0,1,7-7h0a7,7,0,0,1,7,7" fill="none" stroke="#212121" stroke-miterlimit="10" stroke-width="2" data-cap="butt" data-color="color-2"></path><path d="M20,33H6a3,3,0,0,1-3-3V12A3,3,0,0,1,6,9H24" fill="none" stroke="#212121" stroke-linecap="square" stroke-miterlimit="10" stroke-width="2"></path><path d="M45,7,35,3H24a3,3,0,0,0,0,6h7l8,4V29a4,4,0,0,1-4,4H20a3,3,0,0,0-.52,5.948L31,41l6,4" fill="none" stroke="#212121" stroke-linecap="square" stroke-miterlimit="10" stroke-width="2"></path></g></svg>