<svg xmlns="http://www.w3.org/2000/svg" height="48" width="48" viewBox="0 0 48 48"><title>settings</title><g stroke-linejoin="miter" fill="#212121" stroke-linecap="butt" class="nc-icon-wrapper"><path data-color="color-2" d="M38,29.77l3.989,3.6a6.1,6.1,0,0,1,.224,8.84h0a6.1,6.1,0,0,1-8.84-.224L27.964,36" fill="none" stroke="#212121" stroke-linecap="square" stroke-miterlimit="10" stroke-width="2"></path> <polyline data-cap="butt" data-color="color-2" points="22.225 18.69 15 11.464 15 9 9 3 3 9 9 15 11.464 15 18.51 22.046" fill="none" stroke="#212121" stroke-miterlimit="10" stroke-width="2"></polyline> <path d="M44.514,10.391l-5.738,5.737-6.9-6.9,5.737-5.738a11.784,11.784,0,0,0-4.095-.456,10.806,10.806,0,0,0-9.878,9.877,11.763,11.763,0,0,0,.457,4.1L4,35.155a3.026,3.026,0,0,0-.111,4.384l4.575,4.575A3.026,3.026,0,0,0,12.845,44L31,23.907a11.763,11.763,0,0,0,4.1.457,10.806,10.806,0,0,0,9.877-9.878A11.784,11.784,0,0,0,44.514,10.391Z" fill="none" stroke="#212121" stroke-linecap="square" stroke-miterlimit="10" stroke-width="2"></path></g></svg>