<svg xmlns="http://www.w3.org/2000/svg" height="48" width="48" viewBox="0 0 48 48"><title>shop</title><g stroke-linejoin="miter" fill="#212121" stroke-linecap="butt" class="nc-icon-wrapper"><polyline data-cap="butt" points="20 44 20 32 28 32 28 44" fill="none" stroke="#212121" stroke-miterlimit="10" stroke-width="2"></polyline> <polyline points="8 27 8 44 40 44 40 27" fill="none" stroke="#212121" stroke-linecap="square" stroke-miterlimit="10" stroke-width="2"></polyline> <path data-color="color-2" d="M46,16a6.148,6.148,0,0,1-6.286,6,6.361,6.361,0,0,1-5.238-2.686,6.45,6.45,0,0,1-10.476,0,6.45,6.45,0,0,1-10.476,0A6.361,6.361,0,0,1,8.286,22,6.148,6.148,0,0,1,2,16L10,4H38Z" fill="none" stroke="#212121" stroke-linecap="square" stroke-miterlimit="10" stroke-width="2"></path></g></svg>