<svg xmlns="http://www.w3.org/2000/svg" height="48" width="48" viewBox="0 0 48 48"><title>spaceship</title><g stroke-linejoin="miter" fill="#212121" stroke-linecap="butt" class="nc-icon-wrapper"><line data-cap="butt" x1="29.769" y1="6.086" x2="41.866" y2="18.182" fill="none" stroke="#212121" stroke-miterlimit="10" stroke-width="2"></line> <path data-cap="butt" d="M24.831,8.965C18.989,6.449,11.5,8,6,15l6.734,6.736" fill="none" stroke="#212121" stroke-miterlimit="10" stroke-width="2"></path> <path data-cap="butt" d="M39.035,23.169C41.551,29.011,40,36.5,33,42l-6.736-6.734" fill="none" stroke="#212121" stroke-miterlimit="10" stroke-width="2"></path> <path d="M21,38,10,27S18.894,3.414,46,2C44.468,28.988,21,38,21,38Z" fill="none" stroke="#212121" stroke-linecap="square" stroke-miterlimit="10" stroke-width="2"></path> <circle data-color="color-2" cx="27" cy="21" r="4" fill="none" stroke="#212121" stroke-linecap="square" stroke-miterlimit="10" stroke-width="2"></circle> <path data-color="color-2" d="M4.464,36.464a5,5,0,0,1,7.072,7.072C9.583,45.488,2,46,2,46S2.512,38.417,4.464,36.464Z" fill="none" stroke="#212121" stroke-linecap="square" stroke-miterlimit="10" stroke-width="2"></path></g></svg>