<svg xmlns="http://www.w3.org/2000/svg" height="48" width="48" viewBox="0 0 48 48"><title>telephone</title><g stroke-linejoin="miter" fill="#212121" stroke-linecap="butt" class="nc-icon-wrapper"><path d="M14,22,4,35v6a4,4,0,0,0,4,4H40a4,4,0,0,0,4-4V35L34,22Z" fill="none" stroke="#212121" stroke-linecap="square" stroke-miterlimit="10" stroke-width="2"></path><circle data-color="color-2" cx="24" cy="33" r="6" fill="none" stroke="#212121" stroke-linecap="square" stroke-miterlimit="10" stroke-width="2"></circle><path d="M17.13,14.247,16.639,9.83a29.3,29.3,0,0,1,14.721,0l-.491,4.417a2.36,2.36,0,0,0,1.5,2.461l7.273,2.8A2.359,2.359,0,0,0,42.521,18.5l3.153-5.362a2.372,2.372,0,0,0-.615-3.091,34.988,34.988,0,0,0-42.119,0,2.372,2.372,0,0,0-.614,3.09L5.479,18.5a2.359,2.359,0,0,0,2.879,1.006l7.273-2.8A2.36,2.36,0,0,0,17.13,14.247Z" fill="none" stroke="#212121" stroke-linecap="square" stroke-miterlimit="10" stroke-width="2"></path></g></svg>