<svg xmlns="http://www.w3.org/2000/svg" height="48" width="48" viewBox="0 0 48 48"><title>trumpet</title><g stroke-linejoin="miter" fill="#212121" stroke-linecap="butt" class="nc-icon-wrapper"><line x1="18.021" y1="29.979" x2="15.192" y2="27.151" fill="none" stroke="#212121" stroke-linecap="square" stroke-miterlimit="10" stroke-width="2" data-color="color-2"></line><line x1="22.263" y1="25.737" x2="19.435" y2="22.908" fill="none" stroke="#212121" stroke-linecap="square" stroke-miterlimit="10" stroke-width="2" data-color="color-2"></line><line x1="3.172" y1="39.172" x2="8.828" y2="44.828" fill="none" stroke="#212121" stroke-linecap="square" stroke-miterlimit="10" stroke-width="2"></line><path d="M31.794,3.34a17.977,17.977,0,0,1-4.62,17.486,17.977,17.977,0,0,1,17.486-4.62.2.2,0,0,0,.2-.327L32.121,3.145A.2.2,0,0,0,31.794,3.34Z" fill="none" stroke="#212121" stroke-linecap="square" stroke-miterlimit="10" stroke-width="2"></path><line x1="25.092" y1="37.05" x2="21.556" y2="33.515" fill="none" stroke="#212121" stroke-linecap="square" stroke-miterlimit="10" stroke-width="2" data-color="color-2"></line><line x1="29.335" y1="32.808" x2="25.799" y2="29.272" fill="none" stroke="#212121" stroke-linecap="square" stroke-miterlimit="10" stroke-width="2" data-color="color-2"></line><path d="M17.314,30.686A8,8,0,0,0,28.627,42l5.657-5.657A7.924,7.924,0,0,0,32.8,23.881" fill="none" stroke="#212121" stroke-linecap="square" stroke-miterlimit="10" stroke-width="2"></path><line x1="6" y1="42" x2="27.174" y2="20.826" fill="none" stroke="#212121" stroke-linecap="square" stroke-miterlimit="10" stroke-width="2"></line></g></svg>