<svg xmlns="http://www.w3.org/2000/svg" height="48" width="48" viewBox="0 0 48 48"><title>unlink</title><g stroke-linejoin="miter" fill="#212121" stroke-linecap="butt" class="nc-icon-wrapper"><line data-color="color-2" x1="44" y1="44" x2="4" y2="4" fill="none" stroke="#212121" stroke-linecap="square" stroke-miterlimit="10" stroke-width="2"></line><path d="M24.84,33a8.441,8.441,0,0,1-2.355,4.515l-5,5a8.485,8.485,0,0,1-12,0h0a8.485,8.485,0,0,1,0-12l5-5A8.441,8.441,0,0,1,15,23.16" fill="none" stroke="#212121" stroke-linecap="square" stroke-miterlimit="10" stroke-width="2"></path><path d="M33,24.84a8.441,8.441,0,0,0,4.515-2.355l5-5a8.485,8.485,0,0,0,0-12h0a8.485,8.485,0,0,0-12,0l-5,5A8.441,8.441,0,0,0,23.16,15" fill="none" stroke="#212121" stroke-linecap="square" stroke-miterlimit="10" stroke-width="2"></path><line data-color="color-2" x1="16" y1="32" x2="20" y2="28" fill="none" stroke="#212121" stroke-linecap="square" stroke-miterlimit="10" stroke-width="2"></line><line data-color="color-2" x1="32" y1="16" x2="28" y2="20" fill="none" stroke="#212121" stroke-linecap="square" stroke-miterlimit="10" stroke-width="2"></line></g></svg>