<svg xmlns="http://www.w3.org/2000/svg" height="48" width="48" viewBox="0 0 48 48"><title>watering plants</title><g stroke-linejoin="miter" fill="#212121" stroke-linecap="butt" class="nc-icon-wrapper"><path d="M39,12c0,2.209-1.791,4-4,4s-4-1.791-4-4c0-4,4-8,4-8,0,0,4,4,4,8Z" fill="none" stroke="#212121" stroke-linecap="square" stroke-miterlimit="10" stroke-width="2" data-color="color-2"></path><path d="M17,8.5c0,1.933-1.567,3.5-3.5,3.5s-3.5-1.567-3.5-3.5c0-2.5,3.5-5.5,3.5-5.5,0,0,3.5,3,3.5,5.5Z" fill="none" stroke="#212121" stroke-linecap="square" stroke-miterlimit="10" stroke-width="2" data-color="color-2"></path><path d="M30.77,31.189c-3.769,1.483-6.874,4.275-8.77,7.811" fill="none" stroke="#212121" stroke-miterlimit="10" stroke-width="2" data-cap="butt"></path><path d="M22,45v-15c0-6.075-4.925-11-11-11H6c0,6.497,4.773,11.861,11,12.825" fill="none" stroke="#212121" stroke-linecap="square" stroke-miterlimit="10" stroke-width="2"></path><path d="M25.333,16.667c0,1.289-1.045,2.333-2.333,2.333s-2.333-1.045-2.333-2.333c0-2.333,2.333-4.667,2.333-4.667,0,0,2.333,2.333,2.333,4.667Z" fill="none" stroke="#212121" stroke-linecap="square" stroke-miterlimit="10" stroke-width="2" data-color="color-2"></path><path d="M27,38.95c8.368-.519,15-7.451,15-15.95h-8c-6.627,0-12,5.373-12,12v4" fill="none" stroke="#212121" stroke-linecap="square" stroke-miterlimit="10" stroke-width="2"></path></g></svg>