<svg xmlns="http://www.w3.org/2000/svg" height="48" width="48" viewBox="0 0 48 48"><title>world</title><g stroke-linejoin="miter" fill="#212121" stroke-linecap="butt" class="nc-icon-wrapper"><path data-cap="butt" data-color="color-2" d="M11.39,5.971a10.382,10.382,0,0,1,2.453,3.634A4.739,4.739,0,0,1,15.417,11.5a5.221,5.221,0,0,1,.021,2.506S16.5,17.125,16,18s-2.625,1.438-2.625,1.438a4.1,4.1,0,0,1-2.688,1.938A2.517,2.517,0,0,0,8.312,24c0,1.688,1.688,4.438,1.688,4.438s1.75.856,2,1.481A9.523,9.523,0,0,1,12.335,32s1.665,2.938.727,4.625c-.3.538-1.688.938-1.688.938l-1.947,2.92" fill="none" stroke="#212121" stroke-miterlimit="10" stroke-width="2"></path><path data-cap="butt" data-color="color-2" d="M41.362,10.487a35.691,35.691,0,0,1-5.836,1.867s-2.713,3.02-4.5,2.77-3.594-2.25-3.594-2.25S27.562,9.188,27,9s-2.062.812-3,.062S23.6,6.2,23.6,6.2s-2.041-.636-2.291-1.324.743-2.219.932-2.806" fill="none" stroke="#212121" stroke-miterlimit="10" stroke-width="2"></path><path data-color="color-2" d="M40.125,25.438c.5,1.188-.939,4.22-2.125,4.812a8.054,8.054,0,0,0-3.08,2.456c-.438.688-1.013,3.524-2.45,4.087s-4.845,3.77-6.657,3.27S24,35.25,25.25,33.312c.746-1.157-.125-3.688-.188-4.562s-2.687-2.5-2.688-3.375c0-1.375,3-5,3-5a10.673,10.673,0,0,1,3.208-.625,11.346,11.346,0,0,1,2.167,1.062,15.05,15.05,0,0,1,3.875.812l1.438,1.312S39.625,24.25,40.125,25.438Z" fill="none" stroke="#212121" stroke-miterlimit="10" stroke-width="2"></path><circle cx="24" cy="24" r="22" fill="none" stroke="#212121" stroke-linecap="square" stroke-miterlimit="10" stroke-width="2"></circle></g></svg>