<svg xmlns="http://www.w3.org/2000/svg" height="32" width="32" viewBox="0 0 32 32"><title>accessibility</title><g fill="#212121" class="nc-icon-wrapper"><circle cx="16" cy="3.5" r="3.5" fill="#212121" data-color="color-2"></circle><path d="M2,9.278v.006c0,.681,.534,1.243,1.215,1.277l8.785,.439V30.722c0,.706,.572,1.278,1.278,1.278h0c.683,0,1.246-.538,1.277-1.22l.445-9.78h2l.445,9.78c.031,.683,.594,1.22,1.277,1.22h0c.706,0,1.278-.572,1.278-1.278V11l8.785-.439c.68-.034,1.215-.596,1.215-1.277v-.006c0-.706-.572-1.278-1.278-1.278H3.278c-.706,0-1.278,.572-1.278,1.278Z" fill="#212121"></path></g></svg>