<svg xmlns="http://www.w3.org/2000/svg" height="32" width="32" viewBox="0 0 32 32"><title>alarm disable</title><g fill="#212121" class="nc-icon-wrapper"><path d="M12.1,29A3.99,3.99,0,0,0,16,32a4.079,4.079,0,0,0,3.9-3Z" fill="#212121"></path><path d="M27,16V11a11.031,11.031,0,0,0-.133-1.626L9.242,27H30a.96.96,0,0,0,.9-.6.92.92,0,0,0-.1-1S27,20.7,27,16Z" fill="#212121"></path><path d="M2,27H5L25.859,6.141A10.993,10.993,0,0,0,5,11v5c0,4.7-3.7,9.3-3.8,9.4a1.072,1.072,0,0,0-.1,1.1A1.05,1.05,0,0,0,2,27Z" fill="#212121"></path><path data-color="color-2" d="M2,31a1,1,0,0,1-.707-1.707l28-28a1,1,0,0,1,1.414,1.414l-28,28A1,1,0,0,1,2,31Z" fill="#212121"></path></g></svg>