<svg xmlns="http://www.w3.org/2000/svg" height="32" width="32" viewBox="0 0 32 32"><title>alarm add</title><g fill="#212121" class="nc-icon-wrapper"><path d="M16,32c1.825-.015,3.417-1.24,3.9-3h-7.8c.455,1.778,2.065,3.016,3.9,3Z" fill="#212121"></path><path d="M27,16v-.231c-4.84,1.107-9.66-1.919-10.767-6.759-.718-3.141,.299-6.426,2.667-8.61-5.838-1.619-11.882,1.801-13.501,7.639-.267,.964-.402,1.96-.399,2.961v5c0,4.7-3.7,9.3-3.8,9.4-.234,.32-.272,.743-.1,1.1,.192,.312,.533,.502,.9,.5H30c.395,.004,.752-.234,.9-.6,.168-.324,.129-.716-.1-1,0,0-3.8-4.7-3.8-9.4Z" fill="#212121"></path><path data-color="color-2" d="M25,0c-3.866,0-7,3.134-7,7s3.134,7,7,7,7-3.134,7-7S28.866,0,25,0Zm5,7.5c0,.276-.224,.5-.5,.5h-3.5v3.5c0,.276-.224,.5-.5,.5h-1c-.276,0-.5-.224-.5-.5v-3.5h-3.5c-.276,0-.5-.224-.5-.5v-1c0-.276,.224-.5,.5-.5h3.5V2.5c0-.276,.224-.5,.5-.5h1c.276,0,.5,.224,.5,.5v3.5h3.5c.276,0,.5,.224,.5,.5v1Z" fill="#212121"></path></g></svg>