<svg xmlns="http://www.w3.org/2000/svg" height="32" width="32" viewBox="0 0 32 32"><title>algorithm</title><g fill="#212121" class="nc-icon-wrapper"><path d="M7.707,11.293,5,8.586V5.816a3,3,0,1,0-2,0V9a1,1,0,0,0,.293.707l3,3a1,1,0,1,0,1.414-1.414Z" fill="#212121"></path><path d="M7.707,20.707a1,1,0,0,0-1.414-1.414l-3,3A1,1,0,0,0,3,23v3.184a3,3,0,1,0,2,0v-2.77Z" fill="#212121"></path><path d="M31,3a3,3,0,1,0-4,2.816v2.77l-2.707,2.707a1,1,0,1,0,1.414,1.414l3-3A1,1,0,0,0,29,9V5.816A3,3,0,0,0,31,3Z" fill="#212121"></path><path d="M29,26.184V23a1,1,0,0,0-.293-.707l-3-3a1,1,0,0,0-1.414,1.414L27,23.414v2.77a3,3,0,1,0,2,0Z" fill="#212121"></path><path d="M22.562,15l-1.727-.216a4.964,4.964,0,0,0-.561-1.348l1.071-1.376a.5.5,0,0,0-.041-.66L20.6,10.7a.5.5,0,0,0-.66-.041L18.56,11.726a4.964,4.964,0,0,0-1.348-.561L17,9.438A.5.5,0,0,0,16.5,9h-1a.5.5,0,0,0-.5.438l-.216,1.727a4.964,4.964,0,0,0-1.348.561l-1.376-1.071a.5.5,0,0,0-.66.041L10.7,11.4a.5.5,0,0,0-.041.66l1.071,1.376a4.964,4.964,0,0,0-.561,1.348L9.438,15A.5.5,0,0,0,9,15.5v1a.5.5,0,0,0,.438.5l1.727.216a4.964,4.964,0,0,0,.561,1.348l-1.071,1.376a.5.5,0,0,0,.041.66l.708.708a.5.5,0,0,0,.354.146.5.5,0,0,0,.306-.105l1.376-1.071a4.964,4.964,0,0,0,1.348.561L15,22.562a.5.5,0,0,0,.5.438h1a.5.5,0,0,0,.5-.438l.216-1.727a4.964,4.964,0,0,0,1.348-.561l1.376,1.071a.5.5,0,0,0,.306.105A.5.5,0,0,0,20.6,21.3L21.3,20.6a.5.5,0,0,0,.041-.66L20.274,18.56a4.964,4.964,0,0,0,.561-1.348L22.562,17A.5.5,0,0,0,23,16.5v-1A.5.5,0,0,0,22.562,15ZM16,18a2,2,0,1,1,2-2A2,2,0,0,1,16,18Z" fill="#212121" data-color="color-2"></path><circle cx="16" cy="3" r="3" fill="#212121"></circle><circle cx="16" cy="29" r="3" fill="#212121"></circle></g></svg>