<svg xmlns="http://www.w3.org/2000/svg" height="32" width="32" viewBox="0 0 32 32"><title>alpha order</title><g fill="#212121" class="nc-icon-wrapper"><path data-color="color-2" d="M9.439,1.658A1,1,0,0,0,8.5,1h-1a1,1,0,0,0-.939.658l-4,11a1,1,0,1,0,1.878.684L5.655,10h4.69l1.216,3.342a1,1,0,1,0,1.878-.684ZM6.382,8,8,3.551,9.618,8Z" fill="#212121"></path><path data-color="color-2" d="M12,29H5.964l6.845-9.412A1,1,0,0,0,12,18H4a1,1,0,0,0,0,2h6.036L3.191,29.412A1,1,0,0,0,4,31h8a1,1,0,0,0,0-2Z" fill="#212121"></path><path d="M29.9,21.553A1,1,0,0,0,29,21H24V2a1,1,0,0,0-2,0V21H17a1,1,0,0,0-.8,1.6l6,8a1,1,0,0,0,1.6,0l6-8A1,1,0,0,0,29.9,21.553Z" fill="#212121"></path></g></svg>