<svg xmlns="http://www.w3.org/2000/svg" height="32" width="32" viewBox="0 0 32 32"><title>app store</title><g fill="#212121" class="nc-icon-wrapper"><path d="M13,2H3A1,1,0,0,0,2,3V13a1,1,0,0,0,1,1H13a1,1,0,0,0,1-1V3A1,1,0,0,0,13,2Z" fill="#212121"></path><path data-color="color-2" d="M31.7,7.293l-7-7a1,1,0,0,0-1.414,0l-7,7a1,1,0,0,0,0,1.414l7,7a1,1,0,0,0,1.414,0l7-7A1,1,0,0,0,31.7,7.293Z" fill="#212121"></path><path d="M29,18H19a1,1,0,0,0-1,1V29a1,1,0,0,0,1,1H29a1,1,0,0,0,1-1V19A1,1,0,0,0,29,18Z" fill="#212121"></path><path d="M13,18H3a1,1,0,0,0-1,1V29a1,1,0,0,0,1,1H13a1,1,0,0,0,1-1V19A1,1,0,0,0,13,18Z" fill="#212121"></path></g></svg>