<svg xmlns="http://www.w3.org/2000/svg" height="32" width="32" viewBox="0 0 32 32"><title>at sign</title><g fill="#212121" class="nc-icon-wrapper"><path d="M28.817,5.873C24.748,.322,15.011-2.375,7.546,2.638,.896,7.102-1.373,15.92,2.265,23.151c2.786,5.536,8.493,8.846,14.459,8.846,1.716,0,3.453-.274,5.148-.847,.785-.265,1.206-1.117,.94-1.901-.266-.785-1.117-1.205-1.901-.94-6.183,2.09-13.047-.705-15.967-6.506-2.911-5.786-1.034-13.11,4.273-16.673,4.85-3.256,13.229-2.872,17.18,2.518,2.294,3.127,2.713,7.915,.953,10.9-1.066,1.814-2.507,2.38-3.389,2.139-.837-.228-.962-1.154-.962-1.686V9.5c0-.829-.672-1.5-1.5-1.5s-1.5,.671-1.5,1.5v.354c-1.135-.851-2.513-1.354-4-1.354-3.859,0-7,3.364-7,7.5s3.141,7.5,7,7.5c1.784,0,3.41-.725,4.647-1.907,.546,.972,1.409,1.683,2.526,1.987,2.014,.547,4.888-.323,6.763-3.511,2.361-4.006,1.88-10.109-1.118-14.197Zm-12.817,14.627c-2.206,0-4-2.019-4-4.5s1.794-4.5,4-4.5,4,2.019,4,4.5-1.794,4.5-4,4.5Z" fill="#212121"></path></g></svg>