<svg xmlns="http://www.w3.org/2000/svg" height="32" width="32" viewBox="0 0 32 32"><title>attachment</title><g fill="#212121" class="nc-icon-wrapper"><path d="M16,32c-5.52-.006-9.994-4.48-10-10V7.814c0-4.107,3.165-7.688,7.269-7.811,4.247-.127,7.731,3.278,7.731,7.497v14.285c0,2.611-1.909,4.943-4.509,5.191-2.982,.284-5.491-2.053-5.491-4.977V8.5c0-.828,.672-1.5,1.5-1.5h0c.828,0,1.5,.672,1.5,1.5v13.393c0,.996,.681,1.92,1.664,2.08,1.253,.204,2.336-.758,2.336-1.973V7.693c0-2.35-1.718-4.449-4.058-4.672-2.684-.256-4.942,1.848-4.942,4.479v14.207c0,3.833,2.954,7.175,6.785,7.29,3.964,.119,7.215-3.059,7.215-6.997V9.5c0-.828,.672-1.5,1.5-1.5h0c.828,0,1.5,.672,1.5,1.5v12.5c-.006,5.52-4.48,9.994-10,10Z" fill="#212121"></path></g></svg>