<svg xmlns="http://www.w3.org/2000/svg" height="32" width="32" viewBox="0 0 32 32"><title>banana</title><g fill="#212121" class="nc-icon-wrapper"><path fill="#212121" d="M31.3,21.1c-0.6-0.8-1.5-1.2-2.3-1l-0.2,0c-1.5,0.4-6.1,1.5-13.8-1.9c-7.8-3.5-8.4-7.3-9-15.5 C6,2.4,5.9,2.2,5.7,2C5.5,1.8,5.2,1.7,4.9,1.8L1.5,2.2C1,2.3,0.6,2.7,0.6,3.2L0.8,8c-0.3,1-1.5,6.2-0.3,11.3 c1.6,6.9,9.7,10.7,16.9,10.9c0.4,0,0.7,0,1,0c6.2,0,11.1-1.5,12.7-4C32.4,24.4,32.1,22.3,31.3,21.1z"></path> <path data-color="color-2" fill="#212121" d="M15.8,16.4c3.3,1.5,6.4,2.2,9.2,2.2c1.6,0,2.7-0.3,3.3-0.4l0.2,0c0.3-0.1,0.6-0.1,0.9-0.1 c0.2,0,0.3,0,0.5,0c0.5-0.6,0.8-1.1,1.1-1.7c0.8-2.1,0-4.1-1.1-5c-0.8-0.7-1.7-0.8-2.5-0.4L27.3,11c-1.4,0.7-5.6,2.9-13.9,1.4 c-1.4-0.3-2.7-0.6-3.8-1C10.7,13.5,12.5,14.9,15.8,16.4z"></path></g></svg>