<svg xmlns="http://www.w3.org/2000/svg" height="32" width="32" viewBox="0 0 32 32"><title>basket</title><g fill="#212121" class="nc-icon-wrapper"><path data-color="color-2" d="M25.966,9L20.857,.485c-.276-.479-.888-.643-1.366-.366-.479,.276-.643,.888-.367,1.366l.019,.031,4.491,7.484H8.366L12.857,1.515c.301-.463,.17-1.082-.293-1.384-.463-.301-1.082-.17-1.384,.293-.006,.01-.013,.02-.019,.03l-.019,.031L6.034,9H1C.448,9,0,9.448,0,10v2C0,12.552,.448,13,1,13H31c.552,0,1-.448,1-1v-2c0-.552-.448-1-1-1h-5.034Z" fill="#212121"></path><path d="M3,15v13c0,2.209,1.791,4,4,4H25c2.209,0,4-1.791,4-4V15H3Zm8,11c0,.553-.448,1-1,1s-1-.447-1-1v-6c0-.553,.448-1,1-1s1,.447,1,1v6Zm6,0c0,.553-.448,1-1,1s-1-.447-1-1v-6c0-.553,.448-1,1-1s1,.447,1,1v6Zm6,0c0,.553-.448,1-1,1s-1-.447-1-1v-6c0-.553,.448-1,1-1s1,.447,1,1v6Z" fill="#212121"></path></g></svg>