<svg xmlns="http://www.w3.org/2000/svg" height="32" width="32" viewBox="0 0 32 32"><title>battery charging</title><g fill="#212121" class="nc-icon-wrapper"><path data-color="color-2" d="M31,11h-2v10h2c.552,0,1-.448,1-1V12c0-.552-.448-1-1-1Z" fill="#212121"></path><path d="M2,22V10c0-1.103,.897-2,2-2h6.138l1.538-2H4C1.794,6,0,7.794,0,10v12c0,2.206,1.794,4,4,4h4.436l.545-2H4c-1.103,0-2-.897-2-2Z" fill="#212121"></path><path d="M23,6h-3.536l-.727,2h4.263c1.103,0,2,.897,2,2v12c0,1.103-.897,2-2,2h-5.582l-1.385,2h6.966c2.206,0,4-1.794,4-4V10c0-2.206-1.794-4-4-4Z" fill="#212121"></path><path data-color="color-2" d="M20.886,14.536c-.173-.33-.514-.536-.886-.536h-5.572l3.512-9.658c.169-.464-.025-.98-.458-1.219-.437-.237-.975-.123-1.274,.268L6.207,16.391c-.232,.302-.272,.709-.104,1.051,.169,.342,.517,.559,.897,.559h5.69l-2.655,9.737c-.128,.47,.101,.964,.543,1.169,.136,.063,.279,.094,.422,.094,.319,0,.63-.153,.822-.431l9-13c.212-.306,.236-.704,.063-1.033Z" fill="#212121"></path></g></svg>