<svg xmlns="http://www.w3.org/2000/svg" height="32" width="32" viewBox="0 0 32 32"><title>battery low</title><g fill="#212121" class="nc-icon-wrapper"><path d="M23,6H4C1.794,6,0,7.794,0,10v12c0,2.206,1.794,4,4,4H23c2.206,0,4-1.794,4-4V10c0-2.206-1.794-4-4-4Zm2,16c0,1.103-.897,2-2,2H4c-1.103,0-2-.897-2-2V10c0-1.103,.897-2,2-2H23c1.103,0,2,.897,2,2v12Z" fill="#212121"></path><path data-color="color-2" d="M31,11h-2v10h2c.552,0,1-.448,1-1V12c0-.552-.448-1-1-1Z" fill="#212121"></path><rect data-color="color-2" x="4" y="10" width="5" height="12" rx="1" ry="1" fill="#212121"></rect></g></svg>