<svg xmlns="http://www.w3.org/2000/svg" height="32" width="32" viewBox="0 0 32 32"><title>blog</title><g fill="#212121" class="nc-icon-wrapper"><path d="M3,32H29c.552,0,1-.448,1-1V1c0-.552-.448-1-1-1H3c-.552,0-1,.448-1,1V31c0,.552,.448,1,1,1ZM7,7c0-.552,.447-1,1-1H24c.553,0,1,.448,1,1v6c0,.552-.447,1-1,1H8c-.553,0-1-.448-1-1V7Zm1,11H24c.553,0,1,.448,1,1s-.447,1-1,1H8c-.553,0-1-.448-1-1s.447-1,1-1Zm0,6H24c.553,0,1,.448,1,1s-.447,1-1,1H8c-.553,0-1-.448-1-1s.447-1,1-1Z" fill="#212121"></path> </g></svg>