<svg xmlns="http://www.w3.org/2000/svg" height="32" width="32" viewBox="0 0 32 32"><title>blueprint</title><g fill="#212121" class="nc-icon-wrapper"><path d="M22,8H5A1,1,0,0,0,4,9V25H6V10h7v5H9v2h5a1,1,0,0,0,1-1V10h6V23H11V20H9v4a1,1,0,0,0,1,1H22a1,1,0,0,0,1-1V9A1,1,0,0,0,22,8Z" fill="#212121" data-color="color-2"></path><path d="M27,0H26a1,1,0,0,0-1,1V20a1,1,0,0,0,1,1h.85a3.083,3.083,0,0,1,3.087,2.369,3.183,3.183,0,0,1,.063.577v.084a2.951,2.951,0,0,1-.678,1.869A2.99,2.99,0,0,1,27,27H2V6H23V4H1A1,1,0,0,0,0,5V28a1,1,0,0,0,1,1H27a5,5,0,0,0,5-4.943c0-.019,0-.037,0-.057V5A5.006,5.006,0,0,0,27,0Z" fill="#212121"></path></g></svg>