<svg xmlns="http://www.w3.org/2000/svg" height="32" width="32" viewBox="0 0 32 32"><title>book</title><g fill="#212121" class="nc-icon-wrapper"><path fill="#212121" d="M15,3.625C13.478,2.615,11.198,2,8.5,2C3.575,2,0,4.026,0,6.818V30c0,0.553,0.447,1,1,1s1-0.447,1-1 c0-1.419,2.67-3,6.5-3c2.111,0,3.87,0.48,5.024,1.149C14.181,28.53,15,28.033,15,27.273V3.625z"></path> <path data-color="color-2" fill="#212121" d="M23.5,2c-2.698,0-4.978,0.615-6.5,1.625v23.648c0,0.76,0.819,1.257,1.476,0.876 C19.63,27.48,21.389,27,23.5,27c3.83,0,6.5,1.581,6.5,3c0,0.553,0.447,1,1,1s1-0.447,1-1V6.818C32,4.026,28.425,2,23.5,2z"></path></g></svg>