<svg xmlns="http://www.w3.org/2000/svg" height="32" width="32" viewBox="0 0 32 32"><title>bouquet</title><g fill="#212121" class="nc-icon-wrapper"><path d="M8,5V3.141A4,4,0,1,0,9.71,9.926,7.951,7.951,0,0,1,8,5Z" fill="#212121" data-color="color-2"></path><path d="M24,5V3.141a4,4,0,1,1-1.71,6.785A7.951,7.951,0,0,0,24,5Z" fill="#212121" data-color="color-2"></path><path d="M19.721,27H12.279l-1.228,3.684A1,1,0,0,0,12,32h8a1,1,0,0,0,.949-1.316Z" fill="#212121"></path><path d="M21,0a9.245,9.245,0,0,0-4.6,1.226A7.946,7.946,0,0,1,18,6a1,1,0,0,1-2,0,6.006,6.006,0,0,0-6-6V5A6,6,0,0,0,22,5V0Z" fill="#212121" data-color="color-2"></path><path d="M29.707,13.062a3.71,3.71,0,0,0-5.128,0,1.626,1.626,0,0,1-2.3,0,3.712,3.712,0,0,0-5.129,0,1.627,1.627,0,0,1-2.3,0,3.711,3.711,0,0,0-5.128,0,1.63,1.63,0,0,1-2.3,0,3.71,3.71,0,0,0-5.128,0,1,1,0,0,0-.007,1.408L12.6,25H15V22a1,1,0,0,1,2,0v3h2.4L29.714,14.47A1,1,0,0,0,29.707,13.062Z" fill="#212121"></path></g></svg>