<svg xmlns="http://www.w3.org/2000/svg" height="32" width="32" viewBox="0 0 32 32"><title>bullet list</title><g fill="#212121" class="nc-icon-wrapper"><path fill="#212121" d="M5,9C2.795,9,1,7.205,1,5s1.795-4,4-4s4,1.795,4,4S7.205,9,5,9z"></path> <path data-color="color-2" fill="#212121" d="M30,6H13c-0.552,0-1-0.448-1-1v0c0-0.552,0.448-1,1-1h17c0.552,0,1,0.448,1,1v0 C31,5.552,30.552,6,30,6z"></path> <path data-color="color-2" fill="#212121" d="M30,14H13c-0.552,0-1-0.448-1-1v0c0-0.552,0.448-1,1-1h17c0.552,0,1,0.448,1,1v0 C31,13.552,30.552,14,30,14z"></path> <path fill="#212121" d="M5,25c-2.205,0-4-1.795-4-4s1.795-4,4-4s4,1.795,4,4S7.205,25,5,25z"></path> <path data-color="color-2" fill="#212121" d="M30,22H13c-0.552,0-1-0.448-1-1v0c0-0.552,0.448-1,1-1h17c0.552,0,1,0.448,1,1v0 C31,21.552,30.552,22,30,22z"></path> <path data-color="color-2" fill="#212121" d="M30,30H13c-0.552,0-1-0.448-1-1v0c0-0.552,0.448-1,1-1h17c0.552,0,1,0.448,1,1v0 C31,29.552,30.552,30,30,30z"></path></g></svg>