<svg xmlns="http://www.w3.org/2000/svg" height="32" width="32" viewBox="0 0 32 32"><title>c question</title><g fill="#212121" class="nc-icon-wrapper"><path d="M16,0C7.178,0,0,7.178,0,16s7.178,16,16,16,16-7.178,16-16S24.822,0,16,0Zm0,26c-1.105,0-2-.895-2-2s.895-2,2-2,2,.895,2,2-.895,2-2,2Zm4.926-11.645c-.958,1.142-2.715,2.138-3.374,3.144-.29,.441-.36,.935-.377,1.426-.009,.269-.229,.482-.498,.482h-1.388c-.277,0-.503-.223-.501-.5,.005-.68,.062-1.518,.487-2.294,.323-.591,.89-1.202,1.699-1.833,1.56-1.232,2.244-1.889,2.28-3.166,.035-1.199-.975-2.177-2.175-2.215-1.054-.034-2.098-.01-4.058,.892-.25,.115-.55,.015-.668-.233l-.594-1.245c-.117-.245-.019-.549,.224-.671,1.518-.762,3.133-1.142,4.846-1.142,1.586,0,2.844,.388,3.775,1.165,.931,.777,1.396,1.849,1.396,3.217,0,1.149-.312,2.066-1.074,2.973Z" fill="#212121"></path></g></svg>