<svg xmlns="http://www.w3.org/2000/svg" height="32" width="32" viewBox="0 0 32 32"><title>c remove</title><g fill="#212121" class="nc-icon-wrapper"><path d="M16,0C7.163,0,0,7.163,0,16s7.163,16,16,16,16-7.163,16-16C31.974,7.174,24.826,.026,16,0Zm6.707,21.293c.391,.391,.391,1.023,0,1.414-.195,.195-.451,.293-.707,.293s-.512-.098-.707-.293l-5.293-5.293-5.293,5.293c-.195,.195-.451,.293-.707,.293s-.512-.098-.707-.293c-.391-.391-.391-1.023,0-1.414l5.293-5.293-5.293-5.293c-.391-.391-.391-1.023,0-1.414s1.023-.391,1.414,0l5.293,5.293,5.293-5.293c.391-.391,1.023-.391,1.414,0s.391,1.023,0,1.414l-5.293,5.293,5.293,5.293Z" fill="#212121"></path></g></svg>