<svg xmlns="http://www.w3.org/2000/svg" height="32" width="32" viewBox="0 0 32 32"><title>calendar</title><g fill="#212121" class="nc-icon-wrapper"><path data-color="color-2" d="M8,7c.552,0,1-.448,1-1V1c0-.552-.448-1-1-1s-1,.448-1,1V6c0,.552,.448,1,1,1Z" fill="#212121"></path><path data-color="color-2" d="M24,7c.552,0,1-.448,1-1V1c0-.552-.448-1-1-1s-1,.448-1,1V6c0,.552,.448,1,1,1Z" fill="#212121"></path><path d="M32,5c0-.552-.448-1-1-1h-4v1.882c0,1.451-.978,2.784-2.402,3.06-1.915,.372-3.598-1.092-3.598-2.942v-2H11v1.882c0,1.451-.978,2.784-2.402,3.06-1.915,.372-3.598-1.092-3.598-2.942v-2H1c-.552,0-1,.448-1,1V30c0,.552,.448,1,1,1H31c.552,0,1-.448,1-1V5ZM2,29V11H30V29H2Z" fill="#212121"></path></g></svg>