<svg xmlns="http://www.w3.org/2000/svg" height="32" width="32" viewBox="0 0 32 32"><title>check double</title><g fill="#212121" class="nc-icon-wrapper"><path data-color="color-2" d="M30.636,6.228c-.428-.352-1.058-.289-1.407,.136L15.929,22.514l-1.546-1.546-1.277,1.551,2.188,2.188c.188,.188,.442,.293,.707,.293,.016,0,.032,0,.048,0,.282-.014,.545-.146,.724-.363L30.771,7.636c.352-.426,.291-1.057-.136-1.408Z" fill="#212121"></path><path d="M22.636,6.228c-.428-.352-1.057-.289-1.407,.136L7.929,22.514l-5.222-5.221c-.391-.391-1.023-.391-1.414,0s-.391,1.023,0,1.414l6,6c.188,.188,.442,.293,.707,.293,.016,0,.032,0,.048,0,.282-.014,.545-.146,.724-.363L22.771,7.636c.352-.426,.291-1.057-.136-1.408Z" fill="#212121"></path></g></svg>