<svg xmlns="http://www.w3.org/2000/svg" height="32" width="32" viewBox="0 0 32 32"><title>child</title><g fill="#212121" class="nc-icon-wrapper"><path d="M31.948,14.351A4,4,0,0,0,28,11h-.01A13,13,0,0,0,16,3a2,2,0,1,0,1.414,3.414,1,1,0,0,1,1.415,1.414,3.99,3.99,0,0,1-6.546-4.28A13.012,13.012,0,0,0,4.01,11H4a4,4,0,0,0-.65,7.947,12.985,12.985,0,0,0,25.3,0A4,4,0,0,0,31.948,14.351ZM9,14a2,2,0,1,1,2,2A2,2,0,0,1,9,14Zm7,9a4,4,0,0,1-4-4h8A4,4,0,0,1,16,23Zm5-7a2,2,0,1,1,2-2A2,2,0,0,1,21,16Z" fill="#212121"></path></g></svg>