<svg xmlns="http://www.w3.org/2000/svg" height="32" width="32" viewBox="0 0 32 32"><title>circle arrow right</title><g fill="#212121" class="nc-icon-wrapper"><path fill="#212121" d="M16,0C7.2,0,0,7.2,0,16s7.2,16,16,16s16-7.2,16-16S24.8,0,16,0z M25.9,16.4c-0.1,0.1-0.1,0.2-0.2,0.3l-7,7 C18.5,23.9,18.3,24,18,24s-0.5-0.1-0.7-0.3c-0.4-0.4-0.4-1,0-1.4l5.3-5.3H7c-0.6,0-1-0.4-1-1s0.4-1,1-1h15.6l-5.3-5.3 c-0.4-0.4-0.4-1,0-1.4s1-0.4,1.4,0l7,7c0.1,0.1,0.2,0.2,0.2,0.3C26,15.9,26,16.1,25.9,16.4z"></path></g></svg>