<svg xmlns="http://www.w3.org/2000/svg" height="32" width="32" viewBox="0 0 32 32"><title>circle arrow up</title><g fill="#212121" class="nc-icon-wrapper"><path fill="#212121" d="M16,0C7.2,0,0,7.2,0,16s7.2,16,16,16s16-7.2,16-16S24.8,0,16,0z M23.7,14.7C23.5,14.9,23.3,15,23,15 s-0.5-0.1-0.7-0.3L17,9.4V25c0,0.6-0.4,1-1,1s-1-0.4-1-1V9.4l-5.3,5.3c-0.4,0.4-1,0.4-1.4,0s-0.4-1,0-1.4l7-7 c0.1-0.1,0.2-0.2,0.3-0.2c0.2-0.1,0.5-0.1,0.8,0c0.1,0.1,0.2,0.1,0.3,0.2l7,7C24.1,13.7,24.1,14.3,23.7,14.7z"></path></g></svg>