<svg xmlns="http://www.w3.org/2000/svg" height="32" width="32" viewBox="0 0 32 32"><title>cogwheel</title><g fill="#212121" class="nc-icon-wrapper"><path d="M31.57,14.005l-3.846-.55a11.9,11.9,0,0,0-1.638-3.941L28.421,6.4a.5.5,0,0,0-.047-.653L26.253,3.625a.5.5,0,0,0-.653-.046L22.486,5.914a11.9,11.9,0,0,0-3.941-1.638L18,.429A.5.5,0,0,0,17.5,0h-3a.5.5,0,0,0-.495.429l-.55,3.847A11.9,11.9,0,0,0,9.514,5.914L6.4,3.579a.5.5,0,0,0-.653.046L3.626,5.747a.5.5,0,0,0-.047.653L5.914,9.514a11.9,11.9,0,0,0-1.638,3.941l-3.846.55A.5.5,0,0,0,0,14.5v3a.5.5,0,0,0,.43.5l3.846.55a11.9,11.9,0,0,0,1.638,3.941L3.579,25.6a.5.5,0,0,0,.047.653l2.121,2.122a.5.5,0,0,0,.354.146.494.494,0,0,0,.3-.1l3.114-2.335a11.923,11.923,0,0,0,3.941,1.638l.55,3.847A.5.5,0,0,0,14.5,32h3a.5.5,0,0,0,.5-.429l.55-3.847a11.923,11.923,0,0,0,3.941-1.638L25.6,28.421a.494.494,0,0,0,.3.1.5.5,0,0,0,.354-.146l2.121-2.122a.5.5,0,0,0,.047-.653l-2.335-3.114a11.9,11.9,0,0,0,1.638-3.941L31.57,18a.5.5,0,0,0,.43-.5v-3A.5.5,0,0,0,31.57,14.005ZM16,21a5,5,0,1,1,5-5A5,5,0,0,1,16,21Z" fill="#212121"></path></g></svg>