<svg xmlns="http://www.w3.org/2000/svg" height="32" width="32" viewBox="0 0 32 32"><title>control panel</title><g fill="#212121" class="nc-icon-wrapper"><path d="M16,3A15.981,15.981,0,0,0,3.221,28.6a1,1,0,0,0,.8.4H27.98a1,1,0,0,0,.8-.4A15.857,15.857,0,0,0,32,19,16.019,16.019,0,0,0,16,3ZM15,6.5a.5.5,0,0,1,.5-.5h1a.5.5,0,0,1,.5.5v3a.5.5,0,0,1-.5.5h-1a.5.5,0,0,1-.5-.5Zm-8,13a.5.5,0,0,1-.5.5h-3a.5.5,0,0,1-.5-.5v-1a.5.5,0,0,1,.5-.5h3a.5.5,0,0,1,.5.5Zm10.414.914a2,2,0,0,1-2.828,0c-.592-.593-6.78-8.689-7.483-9.61a.5.5,0,0,1,.7-.7c.922.7,9.019,6.89,9.611,7.483A2,2,0,0,1,17.414,20.414Zm5.3-7.425-.707-.707a.5.5,0,0,1,0-.707l2.122-2.121a.5.5,0,0,1,.707,0l.707.707a.5.5,0,0,1,0,.707l-2.122,2.121A.5.5,0,0,1,22.717,12.989ZM28.5,20h-3a.5.5,0,0,1-.5-.5v-1a.5.5,0,0,1,.5-.5h3a.5.5,0,0,1,.5.5v1A.5.5,0,0,1,28.5,20Z" fill="#212121"></path></g></svg>