<svg xmlns="http://www.w3.org/2000/svg" height="32" width="32" viewBox="0 0 32 32"><title>d edit</title><g fill="#212121" class="nc-icon-wrapper"><path data-color="color-2" d="M21.086,5.5L11.293,15.293c-.11,.11-.192,.244-.241,.391l-2,6c-.175,.524,.109,1.09,.633,1.265,.102,.034,.208,.051,.315,.051,.107,0,.214-.018,.316-.052l6-2c.147-.049,.281-.131,.391-.241l9.793-9.793-5.414-5.414Z" fill="#212121"></path><path data-color="color-2" d="M30.707,5.293L26.707,1.293c-.39-.39-1.024-.39-1.414,0l-2.793,2.793,5.414,5.414,2.793-2.793c.39-.39,.39-1.023,0-1.414Z" fill="#212121"></path><path d="M23,31H5c-2.206,0-4-1.794-4-4V9c0-2.206,1.794-4,4-4H13c.553,0,1,.448,1,1s-.447,1-1,1H5c-1.103,0-2,.897-2,2V27c0,1.103,.897,2,2,2H23c1.103,0,2-.897,2-2v-8c0-.552,.447-1,1-1s1,.448,1,1v8c0,2.206-1.794,4-4,4Z" fill="#212121"></path></g></svg>