<svg xmlns="http://www.w3.org/2000/svg" height="32" width="32" viewBox="0 0 32 32"><title>decision process</title><g fill="#212121" class="nc-icon-wrapper"><path d="M23,21a1,1,0,0,1-.5-.132l-7-4a1,1,0,0,1,0-1.736l7-4a1,1,0,0,1,.992,0l7,4a1,1,0,0,1,0,1.736l-7,4A1,1,0,0,1,23,21Z" fill="#212121" data-color="color-2"></path><path d="M14,9H2A1,1,0,0,1,1,8V2A1,1,0,0,1,2,1H14a1,1,0,0,1,1,1V8A1,1,0,0,1,14,9Z" fill="#212121"></path><path d="M14,31H2a1,1,0,0,1-1-1V24a1,1,0,0,1,1-1H14a1,1,0,0,1,1,1v6A1,1,0,0,1,14,31Z" fill="#212121"></path><rect x="7" y="11" width="2" height="10" fill="#212121"></rect><path d="M22,9h2V5a1,1,0,0,0-1-1H17V6h5Z" fill="#212121"></path><path d="M22,26H17v2h6a1,1,0,0,0,1-1V23H22Z" fill="#212121"></path></g></svg>