<svg xmlns="http://www.w3.org/2000/svg" height="32" width="32" viewBox="0 0 32 32"><title>deer</title><g fill="#212121" class="nc-icon-wrapper"><path fill="#212121" d="M32,7V1c0-0.5522461-0.4477539-1-1-1s-1,0.4477539-1,1v6c0,0.5512695-0.4487305,1-1,1h-2V4 c0-0.5522461-0.4477539-1-1-1s-1,0.4477539-1,1v4h-3.2506714C20.2537231,7.3302612,18.3540039,7,16,7 s-4.2537231,0.3302612-5.7493286,1H7V4c0-0.5522461-0.4477539-1-1-1S5,3.4477539,5,4v4H3C2.4487305,8,2,7.5512695,2,7V1 c0-0.5522461-0.4477539-1-1-1S0,0.4477539,0,1v6c0,1.6542969,1.3457031,3,3,3h4.6508789 c-0.4471436,0.5800781-0.8079834,1.2409058-1.0702515,2H1c-0.5522461,0-1,0.4477539-1,1c0,2.7568359,2.2431641,5,5,5h1.1030273 C6.6740112,24.2543945,9.8533936,32,16,32s9.3259888-7.7456055,9.8969727-14H27c2.7568359,0,5-2.2431641,5-5 c0-0.5522461-0.4477539-1-1-1h-5.5805664c-0.2622681-0.7590942-0.6231689-1.4199219-1.0703125-2H29C30.6542969,10,32,8.6542969,32,7 z M11,17c0,0.5522461-0.4477539,1-1,1s-1-0.4477539-1-1c0-1.6542969,1.3457031-3,3-3s3,1.3457031,3,3c0,0.5522461-0.4477539,1-1,1 s-1-0.4477539-1-1c0-0.5512695-0.4487305-1-1-1S11,16.4487305,11,17z M16,28c-2.2055664,0-4-1.7944336-4-4s1.7944336-4,4-4 s4,1.7944336,4,4S18.2055664,28,16,28z M22,18c-0.5522461,0-1-0.4477539-1-1c0-0.5512695-0.4487305-1-1-1s-1,0.4487305-1,1 c0,0.5522461-0.4477539,1-1,1s-1-0.4477539-1-1c0-1.6542969,1.3457031-3,3-3s3,1.3457031,3,3C23,17.5522461,22.5522461,18,22,18z"></path></g></svg>