<svg xmlns="http://www.w3.org/2000/svg" height="32" width="32" viewBox="0 0 32 32"><title>desk lamp</title><g fill="#212121" class="nc-icon-wrapper"><path data-color="color-2" d="M11.361,16.892l.14-.149-6.25-6.25-.142.146a4.43,4.43,0,0,0,6.252,6.253Z" fill="#212121"></path><path d="M28.707,16.293,21.88,9.466a10.948,10.948,0,0,0-2.432-5.5l2.259-2.259A1,1,0,0,0,20.293.293L18.034,2.552A10.971,10.971,0,0,0,2.7,3.8,1,1,0,0,0,2.746,5.16L16.84,19.254A1,1,0,0,0,18.2,19.3a10.992,10.992,0,0,0,3.711-6.976l4.725,4.726L15.54,30H9a1,1,0,0,0,0,2H25a1,1,0,0,0,0-2H18.174L28.759,17.651A1,1,0,0,0,28.707,16.293Z" fill="#212121"></path></g></svg>