<svg xmlns="http://www.w3.org/2000/svg" height="32" width="32" viewBox="0 0 32 32"><title>digital image</title><g fill="#212121" class="nc-icon-wrapper"><path d="M29,12c-1.657,0-3,1.343-3,3v2c0,1.657,1.343,3,3,3s3-1.343,3-3v-2c0-1.657-1.343-3-3-3Zm1,5c0,.552-.449,1-1,1s-1-.448-1-1v-2c0-.552,.449-1,1-1s1,.448,1,1v2Z" fill="#212121" data-color="color-2"></path><path d="M23,31c-.552,0-1-.447-1-1V2c0-.553,.448-1,1-1s1,.447,1,1V30c0,.553-.448,1-1,1Z" fill="#212121"></path><circle cx="8" cy="11" r="3" fill="#212121"></circle><path d="M20,27H4c-1.103,0-2-.897-2-2V7c0-1.103,.897-2,2-2H20V3H4C1.794,3,0,4.794,0,7V25c0,2.206,1.794,4,4,4H20v-2Z" fill="#212121"></path><path d="M19,24H8c-.404,0-.769-.243-.924-.617s-.069-.804,.217-1.09l11-11c.286-.286,.715-.374,1.09-.217,.374,.154,.617,.52,.617,.924v11c0,.553-.448,1-1,1Z" fill="#212121"></path><path d="M29,10c-.552,0-1-.447-1-1V5c-.552,0-1-.447-1-1s.448-1,1-1h1c.552,0,1,.447,1,1v5c0,.553-.448,1-1,1Z" fill="#212121" data-color="color-2"></path><path d="M29,29c-.552,0-1-.447-1-1v-4c-.552,0-1-.447-1-1s.448-1,1-1h1c.552,0,1,.447,1,1v5c0,.553-.448,1-1,1Z" fill="#212121" data-color="color-2"></path></g></svg>