<svg xmlns="http://www.w3.org/2000/svg" height="32" width="32" viewBox="0 0 32 32"><title>drop</title><g fill="#212121" class="nc-icon-wrapper"><path d="M16.71,.3c-.398-.379-1.023-.379-1.42,0-.461,.461-11.29,11.471-11.29,18.7-.064,6.564,5.205,11.936,11.769,12,.077,0,.154,0,.231,0,6.564,.064,11.936-5.205,12-11.769,0-.077,0-.154,0-.231C28,11.771,17.171,.761,16.71,.3Zm-.71,23.7c-2.757,0-5-2.243-5-5,0-.552,.448-1,1-1s1,.448,1,1c0,1.654,1.346,3,3,3,.552,0,1,.448,1,1s-.448,1-1,1Z" fill="#212121"></path></g></svg>