<svg xmlns="http://www.w3.org/2000/svg" height="32" width="32" viewBox="0 0 32 32"><title>drums</title><g fill="#212121" class="nc-icon-wrapper"><path d="M28,18.606l0,7.684A13.418,13.418,0,0,1,26,27.3l0-7.828a25.4,25.4,0,0,1-5,1.2v7.962c-.647.1-1.311.185-2,.246V20.879c-.966.077-1.965.121-3,.121s-2.034-.044-3-.121V28.87c-.689-.061-1.353-.146-2-.246V20.662a25.373,25.373,0,0,1-5-1.194V27.3A13.515,13.515,0,0,1,4,26.29V18.607A11.614,11.614,0,0,1,1,16.5V24c0,3.99,6.449,7,15,7s15-3.01,15-7V16.5A11.594,11.594,0,0,1,28,18.606Z" fill="#212121"></path><path d="M29.9,1.553a1,1,0,0,0-1.342-.448L16,7.382,3.447,1.105A1,1,0,0,0,2.553,2.9L13.764,8.5,8.553,11.105a1,1,0,0,0,.894,1.79L16,9.618,22.553,12.9a1,1,0,0,0,.894-1.79L18.236,8.5,29.447,2.9A1,1,0,0,0,29.9,1.553Z" fill="#212121" data-color="color-2"></path><path d="M16,19c8.551,0,15-3.01,15-7,0-2.124-1.839-3.964-4.838-5.226l-2.5,1.247C26.985,9,29,10.55,29,12c0,2.365-5.339,5-13,5S3,14.365,3,12c0-1.45,2.012-3,5.329-3.981L5.838,6.773C2.839,8.036,1,9.876,1,12,1,15.99,7.449,19,16,19Z" fill="#212121"></path></g></svg>