<svg xmlns="http://www.w3.org/2000/svg" height="32" width="32" viewBox="0 0 32 32"><title>e remove</title><g fill="#212121" class="nc-icon-wrapper"><path d="M26.606,6.808l-1.414-1.414c-.391-.391-1.023-.391-1.414,0l-7.778,7.778-7.778-7.778c-.391-.391-1.023-.391-1.414,0l-1.414,1.414c-.391,.391-.391,1.023,0,1.414l7.778,7.778-7.778,7.778c-.391,.391-.391,1.023,0,1.414l1.414,1.414c.195,.195,.451,.293,.707,.293s.512-.098,.707-.293l7.778-7.778,7.778,7.778c.195,.195,.451,.293,.707,.293s.512-.098,.707-.293l1.414-1.414c.391-.391,.391-1.023,0-1.414l-7.778-7.778,7.778-7.778c.391-.391,.391-1.023,0-1.414Z" fill="#212121"></path></g></svg>