<svg xmlns="http://www.w3.org/2000/svg" height="32" width="32" viewBox="0 0 32 32"><title>ecology</title><g fill="#212121" class="nc-icon-wrapper"><path d="M15,31a2.962,2.962,0,0,1,.191-1.035,13.925,13.925,0,0,1-7.869-3l1-.439a1,1,0,0,0,.435-.365l1.83-2.776a1,1,0,0,0-.223-1.342L7.736,20.005,6.678,18.113,5.732,16.15l1.983-2.344L11.1,13.18a1,1,0,0,0,.816-.925L12.1,9.048a.993.993,0,0,0-.217-.683L10,6,8.467,4.218a13.909,13.909,0,0,1,5.137-2l.005.175a1,1,0,0,0,.42.784l1.8,1.28,1.54,1.619.579,2.181a1,1,0,0,0,.4.566l1.915,1.321a1,1,0,0,0,.938.106l1.981-.789,2.648.027a.981.981,0,0,0,.547-.156l1.4-.887a14.051,14.051,0,0,1,1.207,2.339A3,3,0,0,1,30.823,10,15.992,15.992,0,1,0,15.171,31.958,2.96,2.96,0,0,1,15,31Z" fill="#212121"></path><path d="M31.316,12.032a1,1,0,0,0-1.116.35A8.924,8.924,0,0,1,23,16a5.993,5.993,0,0,0-3.277,11.015A1.99,1.99,0,0,0,20,26V25a7.942,7.942,0,0,1,2.346-5.654A1,1,0,0,1,23.76,20.76,5.957,5.957,0,0,0,22,25v1a3.975,3.975,0,0,1-.44,1.822l-.024.006A3.985,3.985,0,0,1,18,30a1,1,0,0,0,0,2,6,6,0,0,0,5.662-4.034A9.005,9.005,0,0,0,32,19V12.981A1,1,0,0,0,31.316,12.032Z" fill="#212121" data-color="color-2"></path></g></svg>