<svg xmlns="http://www.w3.org/2000/svg" height="32" width="32" viewBox="0 0 32 32"><title>enlarge</title><g fill="#212121" class="nc-icon-wrapper"><path fill="#212121" d="M22.707,10.293l-6-6c-0.391-0.391-1.023-0.391-1.414,0l-6,6c-0.391,0.391-0.391,1.023,0,1.414 s1.023,0.391,1.414,0L16,6.414l5.293,5.293C21.488,11.902,21.744,12,22,12s0.512-0.098,0.707-0.293 C23.098,11.316,23.098,10.684,22.707,10.293z"></path> <path data-color="color-2" fill="#212121" d="M21.293,20.293L16,25.586l-5.293-5.293c-0.391-0.391-1.023-0.391-1.414,0s-0.391,1.023,0,1.414l6,6 C15.488,27.902,15.744,28,16,28s0.512-0.098,0.707-0.293l6-6c0.391-0.391,0.391-1.023,0-1.414S21.684,19.902,21.293,20.293z"></path></g></svg>