<svg xmlns="http://www.w3.org/2000/svg" height="32" width="32" viewBox="0 0 32 32"><title>farmer market</title><g fill="#212121" class="nc-icon-wrapper"><path d="M9,32c-1.654,0-3-1.346-3-3s1.346-3,3-3,3,1.346,3,3-1.346,3-3,3Z" fill="#212121"></path><path d="M30,20H2c-.552,0-1,.447-1,1v7c0,.553,.448,1,1,1h2c0-2.757,2.243-5,5-5s5,2.243,5,5h15v2c0,.553,.448,1,1,1s1-.447,1-1v-10c0-.553-.448-1-1-1Z" fill="#212121"></path><path d="M14,12h-5c-.552,0-1,.448-1,1v5h7v-5c0-.552-.448-1-1-1Z" fill="#212121" data-color="color-2"></path><path d="M23,12h-5c-.552,0-1,.448-1,1v5h7v-5c0-.552-.448-1-1-1Z" fill="#212121" data-color="color-2"></path><path d="M31.864,7.496l-3.5-6c-.179-.308-.508-.496-.864-.496H4.5c-.355,0-.685,.188-.864,.496L.136,7.496c-.181,.31-.182,.691-.003,1.002s.509,.502,.867,.502H3v9h2V9H27v9h2V9h2c.358,0,.689-.191,.867-.502s.177-.692-.003-1.002Z" fill="#212121"></path></g></svg>