<svg xmlns="http://www.w3.org/2000/svg" height="32" width="32" viewBox="0 0 32 32"><title>file text</title><g fill="#212121" class="nc-icon-wrapper"><polygon data-color="color-2" points="22 1 22 8 29 8 22 1" fill="#212121"></polygon><path d="M20,0H3c-.552,0-1,.448-1,1V31c0,.552,.448,1,1,1H29c.552,0,1-.448,1-1V10h-10V0ZM9,8h6c.552,0,1,.447,1,1s-.448,1-1,1h-6c-.552,0-1-.447-1-1s.448-1,1-1Zm14,16H9c-.552,0-1-.447-1-1s.448-1,1-1h14c.552,0,1,.447,1,1s-.448,1-1,1Zm0-9c.552,0,1,.447,1,1s-.448,1-1,1H9c-.552,0-1-.447-1-1s.448-1,1-1h14Z" fill="#212121"></path></g></svg>