<svg xmlns="http://www.w3.org/2000/svg" height="32" width="32" viewBox="0 0 32 32"><title>file add</title><g fill="#212121" class="nc-icon-wrapper"><path d="M2,20c-.552,0-1,.448-1,1v5c0,2.209,1.791,4,4,4H27c2.209,0,4-1.791,4-4v-5c0-.552-.448-1-1-1s-1,.448-1,1v5c0,1.105-.895,2-2,2H5c-1.105,0-2-.895-2-2v-5c0-.552-.448-1-1-1Z" fill="#212121"></path><path data-color="color-2" d="M24,10c0-4.418-3.582-8-8-8s-8,3.582-8,8,3.582,8,8,8,8-3.582,8-8Zm-9,4.5v-3.5h-3.5c-.276,0-.5-.224-.5-.5v-1c0-.276,.224-.5,.5-.5h3.5v-3.5c0-.276,.224-.5,.5-.5h1c.276,0,.5,.224,.5,.5v3.5h3.5c.276,0,.5,.224,.5,.5v1c0,.276-.224,.5-.5,.5h-3.5v3.5c0,.276-.224,.5-.5,.5h-1c-.276,0-.5-.224-.5-.5Z" fill="#212121"></path> </g></svg>