<svg xmlns="http://www.w3.org/2000/svg" height="32" width="32" viewBox="0 0 32 32"><title>finger snap</title><g fill="#212121" class="nc-icon-wrapper"><path d="M23,7a1,1,0,0,0,.707-.293l5-5A1,1,0,0,0,27.293.293l-5,5A1,1,0,0,0,23,7Z" fill="#212121" data-color="color-2"></path><path d="M28.5,13H11.174a1,1,0,0,1-.759-1.651l3.923-4.577a2.751,2.751,0,0,0-3.88-3.879L1,11V28.252S12.727,31,18.91,31a1.847,1.847,0,0,0,.446-3.593,2.453,2.453,0,0,0,2.113-2.4,2.32,2.32,0,0,0-1.424-2.179s2.277-.4,2.277-2.326A2.39,2.39,0,0,0,20.5,18h7.857a2.6,2.6,0,0,0,2.63-2.242A2.5,2.5,0,0,0,28.5,13Z" fill="#212121"></path><path d="M18.757,5.97A1.025,1.025,0,0,0,19,6a1,1,0,0,0,.969-.758l1-4A1,1,0,1,0,19.03.758l-1,4A1,1,0,0,0,18.757,5.97Z" fill="#212121" data-color="color-2"></path><path d="M27.757,8.03l-4,1A1,1,0,0,0,24,11a1.025,1.025,0,0,0,.244-.03l4-1a1,1,0,0,0-.486-1.94Z" fill="#212121" data-color="color-2"></path></g></svg>