<svg xmlns="http://www.w3.org/2000/svg" height="32" width="32" viewBox="0 0 32 32"><title>flag diagonal 33</title><g fill="#212121" class="nc-icon-wrapper"><path data-color="color-2" fill="#212121" d="M3.1,7.7C2.9,7.2,2.2,7.1,1.8,7.3C1.3,7.6,1.1,8.2,1.4,8.7L14.3,31c0.2,0.3,0.5,0.5,0.9,0.5 c0.2,0,0.3,0,0.5-0.1c0.5-0.3,0.6-0.9,0.4-1.4L3.1,7.7z"></path> <path fill="#212121" d="M23.4,2.2C23.3,2,23,1.8,22.7,1.8c-0.3,0-0.6,0-0.8,0.3c-1.9,1.7-3.9,1.9-6,1.9l-1.6,0 c-2.9,0-5.9,0.3-8.1,4.2c-0.2,0.3-0.2,0.7,0,1l6.1,10.6c0.2,0.3,0.5,0.5,0.9,0.5c0,0,0,0,0,0c0.4,0,0.7-0.2,0.9-0.5 c1.7-3,3.7-3.2,6.5-3.2l1.3,0c2.4,0,5-0.2,7.4-2.3c0.4-0.3,0.4-0.8,0.2-1.2L23.4,2.2z"></path></g></svg>