<svg xmlns="http://www.w3.org/2000/svg" height="32" width="32" viewBox="0 0 32 32"><title>flower rose</title><g fill="#212121" class="nc-icon-wrapper"><path d="M21.889,24A5.964,5.964,0,0,0,17,26.563V20a1,1,0,0,0-2,0v6.733a5.953,5.953,0,0,0-7.944-1.958A5.96,5.96,0,0,0,15,29.644V31a1,1,0,0,0,2,0V29.681A5.932,5.932,0,0,0,18.889,30a6,6,0,0,0,5.944-5.225A5.973,5.973,0,0,0,21.889,24Z" fill="#212121"></path><path d="M16,0C10.869,0,7,2.149,7,5v7a9,9,0,0,0,18,0V5C25,2.149,21.131,0,16,0Zm7,6.5c0,3.444-2.376,5.376-4.286,6.928C17.258,14.612,16,15.635,16,17a2,2,0,0,0,.126.666,1,1,0,1,1-1.885.668A3.952,3.952,0,0,1,14,17c0-2.317,1.755-3.744,3.453-5.124C19.277,10.394,21,8.992,21,6.5,21,4.537,18.8,3,16,3a6.065,6.065,0,0,0-3.819,1.229,1,1,0,0,0,1.275,1.542A4.107,4.107,0,0,1,16,5c1.717,0,3,.792,3,1.5S17.717,8,16,8C11.994,8,9,6.416,9,5s2.994-3,7-3,7,1.584,7,3Z" fill="#212121" data-color="color-2"></path></g></svg>