<svg xmlns="http://www.w3.org/2000/svg" height="32" width="32" viewBox="0 0 32 32"><title>gaming console</title><g fill="#212121" class="nc-icon-wrapper"><path d="M12,6a1,1,0,0,0-1,1v8h2V7A1,1,0,0,0,12,6Z" fill="#212121"></path><path d="M22.44,19.359A4.971,4.971,0,0,0,13.521,17H10.479a4.971,4.971,0,0,0-8.916,2.341C0,28.875,0,28.887,0,29a3,3,0,0,0,3,3,2.962,2.962,0,0,0,1.718-.546L9.807,28h4.386l5.071,3.442A3,3,0,0,0,24,29C24,28.887,24,28.875,22.44,19.359ZM6.5,22a2,2,0,1,1,2-2A2,2,0,0,1,6.5,22Zm11,0a2,2,0,1,1,2-2A2,2,0,0,1,17.5,22Z" fill="#212121"></path><path d="M31,0H17a1,1,0,0,0-1,1V13.173A6.847,6.847,0,0,1,17.5,13,6.98,6.98,0,0,1,23,15.7V12h2V22.619c1,6.08,1,6.134,1,6.381a4.948,4.948,0,0,1-1.026,3H31a1,1,0,0,0,1-1V1A1,1,0,0,0,31,0ZM24,10a2,2,0,1,1,2-2A2,2,0,0,1,24,10Z" fill="#212121" data-color="color-2"></path></g></svg>