<svg xmlns="http://www.w3.org/2000/svg" height="32" width="32" viewBox="0 0 32 32"><title>grape</title><g fill="#212121" class="nc-icon-wrapper"><path fill="#212121" d="M29,12c0-2.8-2.2-5-5-5c-1.6,0-3.1,0.8-4,2c-0.7-1-1.7-1.7-2.9-1.9C17.4,5,18.8,3,22,3c0.6,0,1-0.4,1-1 s-0.4-1-1-1c-4.4,0-6.6,2.9-6.9,6.1C13.8,7.3,12.7,8,12,9c-0.9-1.2-2.4-2-4-2c-2.8,0-5,2.2-5,5c0,2.6,2,4.7,4.5,4.9 C7.2,17.6,7,18.3,7,19c0,2.6,2,4.7,4.5,4.9C11.2,24.6,11,25.3,11,26c0,2.8,2.2,5,5,5s5-2.2,5-5c0-0.7-0.2-1.4-0.5-2.1 C23,23.7,25,21.6,25,19c0-0.7-0.2-1.4-0.5-2.1C27,16.7,29,14.6,29,12z"></path></g></svg>