<svg xmlns="http://www.w3.org/2000/svg" height="32" width="32" viewBox="0 0 32 32"><title>grid interface</title><g fill="#212121" class="nc-icon-wrapper"><path d="M12,1H3A2,2,0,0,0,1,3v9a2,2,0,0,0,2,2h9a2,2,0,0,0,2-2V3A2,2,0,0,0,12,1Z" fill="#212121"></path><path data-color="color-2" d="M29,1H20a2,2,0,0,0-2,2v9a2,2,0,0,0,2,2h9a2,2,0,0,0,2-2V3A2,2,0,0,0,29,1Z" fill="#212121"></path><path data-color="color-2" d="M12,18H3a2,2,0,0,0-2,2v9a2,2,0,0,0,2,2h9a2,2,0,0,0,2-2V20A2,2,0,0,0,12,18Z" fill="#212121"></path><path d="M29,18H20a2,2,0,0,0-2,2v9a2,2,0,0,0,2,2h9a2,2,0,0,0,2-2V20A2,2,0,0,0,29,18Z" fill="#212121"></path></g></svg>