<svg xmlns="http://www.w3.org/2000/svg" height="32" width="32" viewBox="0 0 32 32"><title>hair woman</title><g fill="#212121" class="nc-icon-wrapper"><path d="M30.053,20.449A27.1,27.1,0,0,1,29,13,13,13,0,0,0,15.477.011,13.2,13.2,0,0,0,3,13.286a27.249,27.249,0,0,1-1.052,7.162C1.141,23.59.5,26.07,3.118,30.971A1,1,0,0,0,4,31.5a.99.99,0,0,0,.209-.022l4.628-.993A4.018,4.018,0,0,0,12,26.575V24.946a8.12,8.12,0,0,0,8,0v1.628a4.018,4.018,0,0,0,3.162,3.91l4.629.993a.992.992,0,0,0,1.091-.507C31.5,26.07,30.859,23.59,30.053,20.449Zm-7.705-5.928-.5.75a4,4,0,0,0,.431,4.965C20.67,22.45,18.471,24,16,24c-2.52,0-4.758-1.611-6.375-3.894a4,4,0,0,0,.1-4.277L8.029,13A10.5,10.5,0,0,0,18.184,5.18L22.057,9.7A4,4,0,0,1,22.348,14.521Z" fill="#212121"></path></g></svg>