<svg xmlns="http://www.w3.org/2000/svg" height="32" width="32" viewBox="0 0 32 32"><title>hair man</title><g fill="#212121" class="nc-icon-wrapper"><path d="M28.185,29.518l-5.55-1.041A2,2,0,0,1,21,26.513l0-2.164c3.487-2.395,5.983-7.119,6-12.3,0-.017,0-.033,0-.05h0c.406-4.229-.27-7.246-2.066-9.225C22.714.33,19.172,0,16,0S9.271.331,7.051,2.783C5.247,4.777,4.577,7.825,5,12c0,5.2,2.5,9.946,6,12.348l0,2.165a2,2,0,0,1-1.632,1.964l-5.55,1.041a1,1,0,1,0,.37,1.964l5.55-1.041A4,4,0,0,0,13,26.515v-1.1a7.964,7.964,0,0,0,6,0v1.1a4,4,0,0,0,3.263,3.926l5.549,1.041a1,1,0,1,0,.37-1.964ZM16,24c-4.521,0-8.639-5.272-8.968-11.336A3,3,0,0,1,9.985,10s5.835-.008,6-.022A5.505,5.505,0,0,0,20.5,6.755a6.477,6.477,0,0,0,4.474,5.9C24.688,18.67,20.546,24,16,24Z" fill="#212121"></path></g></svg>