<svg xmlns="http://www.w3.org/2000/svg" height="32" width="32" viewBox="0 0 32 32"><title>handshake</title><g fill="#212121" class="nc-icon-wrapper"><path d="M14.214,25.513a2.719,2.719,0,0,0-2.9-2.986,2.726,2.726,0,0,0-3.027-3.165,2.749,2.749,0,0,0-.8-2.011h0a2.762,2.762,0,0,0-3.907,0l-.558.558a2.758,2.758,0,0,0,2.01,4.711,2.728,2.728,0,0,0,3.165,3.027A2.727,2.727,0,0,0,11,28.564a2.437,2.437,0,0,0,.716,1.718h0a2.451,2.451,0,0,0,3.466,0l.6-.6a2.441,2.441,0,0,0-1.57-4.169Z" fill="#212121"></path> <path d="M31,1H20.9A7.934,7.934,0,0,0,16,2.684,7.934,7.934,0,0,0,11.1,1H1A1,1,0,0,0,0,2V15a1,1,0,0,0,2,0V3h9.1a5.956,5.956,0,0,1,3.415,1.07L9.01,9.576a2.5,2.5,0,0,0,3.156,3.849l7.106-4.737,9.27,9.269a1.475,1.475,0,0,1,0,2.086,1.51,1.51,0,0,1-2.085,0l-2.75-2.75a1,1,0,0,0-1.414,1.414l3.025,3.025a1.475,1.475,0,0,1-2.086,2.086l-3.025-3.025a1,1,0,0,0-1.414,1.414l2.249,2.25A1.475,1.475,0,0,1,20,26.975a1,1,0,0,0,0,2,3.461,3.461,0,0,0,3.413-2.849,3.5,3.5,0,0,0,.862.122,3.472,3.472,0,0,0,3.475-3.473c0-.109-.021-.214-.031-.321a3.445,3.445,0,0,0,2.239-1,3.479,3.479,0,0,0,0-4.914l-.013-.013L31.719,14.7A1,1,0,0,0,32,14V2A1,1,0,0,0,31,1Z" fill="#212121"></path></g></svg>