<svg xmlns="http://www.w3.org/2000/svg" height="32" width="32" viewBox="0 0 32 32"><title>headphones</title><g fill="#212121" class="nc-icon-wrapper"><path fill="#212121" d="M30,18v-7c0-6.1-4.9-11-11-11h-6C6.9,0,2,4.9,2,11v7c-1.2,1.5-2,3.4-2,5.5C0,28.2,3.8,32,8.5,32 c0.6,0,1.1-0.1,1.7-0.2c0.5-0.1,0.8-0.5,0.8-1V16.2c0-0.5-0.3-0.9-0.8-1C9.6,15.1,9.1,15,8.5,15c-1.7,0-3.2,0.5-4.5,1.3V11 c0-5,4-9,9-9h6c5,0,9,4,9,9v5.3c-1.3-0.8-2.8-1.3-4.5-1.3c-0.6,0-1.1,0.1-1.7,0.2c-0.5,0.1-0.8,0.5-0.8,1v14.7c0,0.5,0.3,0.9,0.8,1 c0.6,0.1,1.1,0.2,1.7,0.2c4.7,0,8.5-3.8,8.5-8.5C32,21.4,31.2,19.5,30,18z"></path></g></svg>