<svg xmlns="http://www.w3.org/2000/svg" height="32" width="32" viewBox="0 0 32 32"><title>hide</title><g fill="#212121" class="nc-icon-wrapper"><path d="M7.655,24.345l4.1-4.1a6,6,0,0,1,8.485-8.485l4.1-4.1A15.631,15.631,0,0,0,16,5C8.445,5,2.72,11.438.611,14.2a2.936,2.936,0,0,0,.011,3.592A28.88,28.88,0,0,0,7.655,24.345Z" fill="#212121"></path><path d="M26.8,9.44l-5.009,5.009a5.98,5.98,0,0,1-7.341,7.341l-4.019,4.02A14.259,14.259,0,0,0,16,27c7.464,0,13.239-6.433,15.374-9.195a2.935,2.935,0,0,0,0-3.605A30.757,30.757,0,0,0,26.8,9.44Z" fill="#212121"></path><path data-color="color-2" d="M1,32a1,1,0,0,1-.707-1.707l30-30a1,1,0,0,1,1.414,1.414l-30,30A1,1,0,0,1,1,32Z" fill="#212121"></path></g></svg>