<svg xmlns="http://www.w3.org/2000/svg" height="32" width="32" viewBox="0 0 32 32"><title>home</title><g fill="#212121" class="nc-icon-wrapper"><path data-color="color-2" d="M31,15c-.227,0-.448-.077-.625-.219L16,3.28,1.625,14.781c-.431,.345-1.061,.275-1.406-.156s-.275-1.061,.156-1.406h0L15.375,1.219c.365-.293,.885-.293,1.25,0l15,12c.431,.345,.501,.974,.156,1.406-.19,.237-.477,.376-.781,.375Z" fill="#212121"></path><path d="M16,5.842L4,15.442v13.058c0,1.381,1.119,2.5,2.5,2.5h6.5v-7c0-.552,.448-1,1-1h4c.552,0,1,.448,1,1v7h6.5c1.381,0,2.5-1.119,2.5-2.5V15.442L16,5.842Z" fill="#212121"></path></g></svg>