<svg xmlns="http://www.w3.org/2000/svg" height="32" width="32" viewBox="0 0 32 32"><title>hourglass</title><g fill="#212121" class="nc-icon-wrapper"><path data-color="color-2" d="M27,32H5c-.552,0-1-.448-1-1s.448-1,1-1H27c.552,0,1,.448,1,1s-.448,1-1,1Z" fill="#212121"></path><path d="M25,8V4H7v4c0,3.925,2.677,6.689,4.293,8-1.616,1.311-4.293,4.075-4.293,8v4h3s2.571-6,6-6,6,6,6,6h3v-4c0-3.925-2.677-6.689-4.293-8,1.616-1.311,4.293-4.075,4.293-8Z" fill="#212121"></path><path data-color="color-2" d="M27,2H5c-.552,0-1-.448-1-1s.448-1,1-1H27c.552,0,1,.448,1,1s-.448,1-1,1Z" fill="#212121"></path></g></svg>