<svg xmlns="http://www.w3.org/2000/svg" height="32" width="32" viewBox="0 0 32 32"><title>key</title><g fill="#212121" class="nc-icon-wrapper"><path d="M24.294,.291L12.473,12.053c-5.271-1.074-10.412,2.404-11.346,7.738-.862,4.924,2.387,9.837,7.256,10.971,5.274,1.228,10.487-2.142,11.561-7.413,.257-1.263,.257-2.565,0-3.828l1.915-1.968c.091-.093,.142-.218,.142-.349v-2.703c0-.276,.224-.5,.5-.5h3c.276,0,.5-.224,.5-.5v-3c0-.276,.224-.5,.5-.5h1.707c.133,0,.26-.053,.354-.146l3.147-3.147c.188-.188,.293-.442,.293-.707V1c0-.552-.448-1-1-1h-6c-.264,0-.518,.105-.705,.291ZM10,25c-1.657,0-3-1.343-3-3s1.343-3,3-3,3,1.343,3,3-1.343,3-3,3Z" fill="#212121"></path></g></svg>