<svg xmlns="http://www.w3.org/2000/svg" height="32" width="32" viewBox="0 0 32 32"><title>launch</title><g fill="#212121" class="nc-icon-wrapper"><path data-color="color-2" d="M30,1H20a1,1,0,0,0-.708,1.707L23.586,7,13.293,17.293a1,1,0,0,0,1.389,1.439l.025-.025L25,8.414l4.293,4.292A1,1,0,0,0,30,13a.988.988,0,0,0,.383-.076A1,1,0,0,0,31,12V2A1,1,0,0,0,30,1Z" fill="#212121"></path><path d="M25,20a1,1,0,0,0-1,1v6a2,2,0,0,1-2,2H5a2,2,0,0,1-2-2V10A2,2,0,0,1,5,8h6a1,1,0,0,0,0-2H5a4,4,0,0,0-4,4V27a4,4,0,0,0,4,4H22a4,4,0,0,0,4-4V21A1,1,0,0,0,25,20Z" fill="#212121"></path></g></svg>