<svg xmlns="http://www.w3.org/2000/svg" height="32" width="32" viewBox="0 0 32 32"><title>leave</title><g fill="#212121" class="nc-icon-wrapper"><path d="M18,16a1,1,0,0,0-1,1v6H12V8a1,1,0,0,0-.486-.858L4.61,3H17V9a1,1,0,0,0,2,0V2a1,1,0,0,0-1-1H1A1,1,0,0,0,0,2V24a1,1,0,0,0,.486.857l10,6A1,1,0,0,0,12,30V25h6a1,1,0,0,0,1-1V17A1,1,0,0,0,18,16Z" fill="#212121"></path><path data-color="color-2" d="M24.651,6.241A1,1,0,0,0,23,7v5H15a1,1,0,0,0,0,2h8v5a1,1,0,0,0,1.651.759l7-6a1,1,0,0,0,0-1.518Z" fill="#212121"></path></g></svg>