<svg xmlns="http://www.w3.org/2000/svg" height="32" width="32" viewBox="0 0 32 32"><title>license key</title><g fill="#212121" class="nc-icon-wrapper"><path d="M31,2H1A1,1,0,0,0,0,3V29a1,1,0,0,0,1,1H31a1,1,0,0,0,1-1V3A1,1,0,0,0,31,2ZM8,5A1,1,0,1,1,7,6,1,1,0,0,1,8,5ZM4,5A1,1,0,1,1,3,6,1,1,0,0,1,4,5ZM30,28H2V10H30Z" fill="#212121"></path><path d="M26.811,16.415A1,1,0,0,0,26,16H15.4a5.5,5.5,0,1,0,0,5h3.3l1.248.832a1,1,0,0,0,1.11,0L22.3,21H25a1,1,0,0,0,.949-.684l1-3A1,1,0,0,0,26.811,16.415ZM8.5,20A1.5,1.5,0,1,1,10,18.5,1.5,1.5,0,0,1,8.5,20Z" fill="#212121" data-color="color-2"></path></g></svg>