<svg xmlns="http://www.w3.org/2000/svg" height="32" width="32" viewBox="0 0 32 32"><title>link</title><g fill="#212121" class="nc-icon-wrapper"><path d="M14.891,22.059A4.13,4.13,0,0,1,13.782,24.1L11.1,26.786a4.157,4.157,0,0,1-5.879-5.879L7.9,18.221a4.125,4.125,0,0,1,2.032-1.106l2.84-2.84A7.156,7.156,0,0,0,5.782,16.1L3.1,18.786A7.157,7.157,0,0,0,13.218,28.907L15.9,26.221a7.158,7.158,0,0,0,1.823-7Z" fill="#212121"></path> <path d="M18.786,3.1,16.1,5.782a7.156,7.156,0,0,0-1.825,6.993l2.84-2.84A4.125,4.125,0,0,1,18.221,7.9l2.686-2.685A4.157,4.157,0,0,1,26.786,11.1L24.1,13.782a4.13,4.13,0,0,1-2.041,1.109l-2.836,2.835a7.158,7.158,0,0,0,7-1.823l2.686-2.685A7.157,7.157,0,0,0,18.786,3.1Z" fill="#212121"></path> <path data-color="color-2" d="M9.439,22.561a1.5,1.5,0,0,0,2.122,0l11-11a1.5,1.5,0,0,0-2.122-2.122l-11,11A1.5,1.5,0,0,0,9.439,22.561Z" fill="#212121"></path></g></svg>