<svg xmlns="http://www.w3.org/2000/svg" height="32" width="32" viewBox="0 0 32 32"><title>lock</title><g fill="#212121" class="nc-icon-wrapper"><path data-color="color-2" d="M23,11h-2V7c0-2.761-2.239-5-5-5s-5,2.239-5,5v4h-2V7c0-3.866,3.134-7,7-7s7,3.134,7,7v4Z" fill="#212121"></path><path d="M26.5,13H5.5c-1.381,0-2.5,1.119-2.5,2.5v14c0,1.381,1.119,2.5,2.5,2.5H26.5c1.381,0,2.5-1.119,2.5-2.5V15.5c0-1.381-1.119-2.5-2.5-2.5Zm-9.5,11.858v2.142c0,.552-.448,1-1,1s-1-.448-1-1v-2.142c-2.139-.552-3.425-2.734-2.873-4.873,.552-2.139,2.734-3.425,4.873-2.873,2.139,.552,3.425,2.734,2.873,4.873-.364,1.409-1.464,2.509-2.873,2.873Z" fill="#212121"></path></g></svg>