<svg xmlns="http://www.w3.org/2000/svg" height="32" width="32" viewBox="0 0 32 32"><title>loop</title><g fill="#212121" class="nc-icon-wrapper"><path data-color="color-2" d="M29,16a1,1,0,0,0-1,1v5a2,2,0,0,1-2,2H10V20a1,1,0,0,0-1.582-.813l-7,5a1,1,0,0,0-.231,1.395,1.013,1.013,0,0,0,.231.231l7,5A.987.987,0,0,0,9,31a1,1,0,0,0,1-1V26H26a4,4,0,0,0,4-4V17A1,1,0,0,0,29,16Z" fill="#212121"></path><path d="M30.582,6.187h0l-7-5A1,1,0,0,0,22,2V6H6a4,4,0,0,0-4,4v5a1,1,0,0,0,2,0V10A2,2,0,0,1,6,8H22v4a1,1,0,0,0,1,1,.987.987,0,0,0,.582-.187l7-5a1,1,0,0,0,.231-1.395A1.013,1.013,0,0,0,30.582,6.187Z" fill="#212121"></path></g></svg>