<svg xmlns="http://www.w3.org/2000/svg" height="32" width="32" viewBox="0 0 32 32"><title>love song</title><g fill="#212121" class="nc-icon-wrapper"><path d="M23.5,0a8.413,8.413,0,0,0-6,2.487A8.413,8.413,0,0,0,11.5,0,8.51,8.51,0,0,0,3,8.5a10.739,10.739,0,0,0,.674,3.6,2.99,2.99,0,0,1,1.652-1.027l13-3A3.087,3.087,0,0,1,19,8a3,3,0,0,1,3,3V23.83c4.128-3.456,10-9.411,10-15.33A8.51,8.51,0,0,0,23.5,0Z" fill="#212121"></path><path d="M19.623,10.218a1.006,1.006,0,0,0-.848-.193l-13,3A1,1,0,0,0,5,14V26.184A2.966,2.966,0,0,0,4,26a3,3,0,1,0,3,3V19.8l11-2.539v5.927A2.966,2.966,0,0,0,17,23a3,3,0,1,0,3,3V11A1,1,0,0,0,19.623,10.218ZM7,17.743V14.8l11-2.539V15.2Z" fill="#212121" data-color="color-2"></path></g></svg>