<svg xmlns="http://www.w3.org/2000/svg" height="32" width="32" viewBox="0 0 32 32"><title>lucky seven</title><g fill="#212121" class="nc-icon-wrapper"><path d="M0,24H32V8H0ZM10,13.749a.492.492,0,0,1-.19.392,7.537,7.537,0,0,0-2.8,5.366A.517.517,0,0,1,6.507,20c-.63,0-.992,0-.992,0a.506.506,0,0,1-.5-.52A7.27,7.27,0,0,1,7.431,14H4.5a.5.5,0,0,1-.5-.5v-1a.5.5,0,0,1,.5-.5h5a.5.5,0,0,1,.5.5Zm9,0a.492.492,0,0,1-.19.392,7.537,7.537,0,0,0-2.795,5.366.517.517,0,0,1-.508.488c-.63,0-.992,0-.992,0a.506.506,0,0,1-.5-.52A7.27,7.27,0,0,1,16.431,14H13.5a.5.5,0,0,1-.5-.5v-1a.5.5,0,0,1,.5-.5h5a.5.5,0,0,1,.5.5Zm9,0a.492.492,0,0,1-.19.392,7.537,7.537,0,0,0-2.795,5.366.517.517,0,0,1-.508.488c-.63,0-.992,0-.992,0a.506.506,0,0,1-.5-.52A7.27,7.27,0,0,1,25.431,14H22.5a.5.5,0,0,1-.5-.5v-1a.5.5,0,0,1,.5-.5h5a.5.5,0,0,1,.5.5Z" fill="#212121" data-color="color-2"></path><path d="M2,2H30a2,2,0,0,1,2,2V6a0,0,0,0,1,0,0H0A0,0,0,0,1,0,6V4A2,2,0,0,1,2,2Z" fill="#212121"></path><path d="M0,26.087H32a0,0,0,0,1,0,0v2a2,2,0,0,1-2,2H2a2,2,0,0,1-2-2v-2A0,0,0,0,1,0,26.087Z" fill="#212121"></path></g></svg>