<svg xmlns="http://www.w3.org/2000/svg" height="32" width="32" viewBox="0 0 32 32"><title>megaphone</title><g fill="#212121" class="nc-icon-wrapper"><path data-color="color-2" d="M28,8v8c2.209,0,4-1.791,4-4s-1.791-4-4-4Z" fill="#212121"></path><path data-color="color-2" d="M13.595,21.008H7c-.091,0-.178-.011-.268-.014l3.668,9.021c.496,1.232,1.687,1.983,2.942,1.983,.392,0,.79-.073,1.176-.228,1.613-.652,2.4-2.498,1.753-4.114l-2.676-6.649Z" fill="#212121"></path><path d="M25.425,.103c-.352-.163-.767-.11-1.064,.137-.058,.048-5.786,4.769-10.36,4.769H7C3.141,5.008,0,8.148,0,12.008s3.141,7,7,7h7c4.574,0,10.303,4.721,10.36,4.769,.183,.152,.41,.231,.64,.231,.145,0,.289-.031,.425-.095,.351-.165,.575-.518,.575-.905V1.008c0-.388-.225-.74-.575-.905Z" fill="#212121"></path></g></svg>