<svg xmlns="http://www.w3.org/2000/svg" height="32" width="32" viewBox="0 0 32 32"><title>menu</title><g fill="#212121" class="nc-icon-wrapper"><path data-color="color-2" fill="#212121" d="M30,17H2c-0.553,0-1-0.447-1-1s0.447-1,1-1h28c0.553,0,1,0.447,1,1S30.553,17,30,17z"></path> <path fill="#212121" d="M30,8H16c-0.553,0-1-0.447-1-1s0.447-1,1-1h14c0.553,0,1,0.447,1,1S30.553,8,30,8z"></path> <path fill="#212121" d="M16,26H2c-0.553,0-1-0.447-1-1s0.447-1,1-1h14c0.553,0,1,0.447,1,1S16.553,26,16,26z"></path></g></svg>