<svg xmlns="http://www.w3.org/2000/svg" height="32" width="32" viewBox="0 0 32 32"><title>microscope</title><g fill="#212121" class="nc-icon-wrapper"><path data-color="color-2" d="M17.123,24.754l8.9-5.138a1,1,0,1,0-1-1.732l-8.992,5.191A8.515,8.515,0,0,1,17.123,24.754Z" fill="#212121"></path><path d="M28,30H15.967L16,28.5a6.493,6.493,0,0,0-8.96-6.013l-.793-1.195a8,8,0,0,1,2.682-11.18l1.692-.965,1.132,1.961,1.685,2.918a1,1,0,0,0,.867.5,1.006,1.006,0,0,0,.5-.133l1.732-1,1,1.731a1,1,0,1,0,1.732-1l-1-1.732,1.732-1a1,1,0,0,0,.366-1.367l-1.5-2.6L14.866.5A1,1,0,0,0,13.5.134l-5.2,3A1,1,0,0,0,7.938,4.5L9.62,7.415l-1.695.967a10,10,0,0,0-3.354,14l.757,1.14A6.489,6.489,0,0,0,3,28.5V31a1,1,0,0,0,1,1H28a1,1,0,0,0,0-2Z" fill="#212121"></path></g></svg>