<svg xmlns="http://www.w3.org/2000/svg" height="32" width="32" viewBox="0 0 32 32"><title>mirror tablet phone</title><g fill="#212121" class="nc-icon-wrapper"><path data-color="color-2" d="M29.5,13h-11c-1.381,0-2.5,1.119-2.5,2.5v14c0,1.381,1.119,2.5,2.5,2.5h11.5c1.105,0,2-.895,2-2V15.5c0-1.381-1.119-2.5-2.5-2.5Zm.5,15.5c0,.276-.224,.5-.5,.5h-11c-.276,0-.5-.224-.5-.5V15.5c0-.276,.224-.5,.5-.5h11c.276,0,.5,.224,.5,.5v13Z" fill="#212121"></path><path d="M2,23.5V2.5c0-.276,.224-.5,.5-.5H21.5c.276,0,.5,.224,.5,.5V11h2V2.5c0-1.381-1.119-2.5-2.5-2.5H2.5C1.119,0,0,1.119,0,2.5V25.5c0,1.381,1.119,2.5,2.5,2.5H14v-4H2.5c-.276,0-.5-.224-.5-.5Z" fill="#212121"></path></g></svg>