<svg xmlns="http://www.w3.org/2000/svg" height="32" width="32" viewBox="0 0 32 32"><title>palm tree</title><g fill="#212121" class="nc-icon-wrapper"><path d="M25.973,8.066A10.554,10.554,0,0,0,20.9,6.416L26.414,3.91a1,1,0,0,0,.194-1.7C26.434,2.072,22.293-1.051,18.6.4c-1.859.73-3.2,2.451-4.024,5.1a6.042,6.042,0,0,0-3.716-2.265c-3.839-.632-7.413,2.9-7.563,3.054A1,1,0,0,0,3.91,8l5.425.493a8.883,8.883,0,0,0-4.189,3.436c-1.321,2.215-1.349,5.05-.083,8.427a1,1,0,0,0,.8.638A.978.978,0,0,0,6,21a1,1,0,0,0,.8-.4L15.27,9.306,28.5,16.868A1,1,0,0,0,29,17a1,1,0,0,0,1-1.083C29.7,12.311,28.342,9.669,25.973,8.066Z" fill="#212121" data-color="color-2"></path><path d="M26.346,30.4a12.877,12.877,0,0,0-8.273-4.967A23.15,23.15,0,0,0,19,19a23.124,23.124,0,0,0-.716-5.669l-2.473-1.413-.028.037A21.207,21.207,0,0,1,17,19a21.114,21.114,0,0,1-.96,6.247l-.04,0A12.892,12.892,0,0,0,5.654,30.4a1,1,0,0,0,.8,1.6h19.1a1,1,0,0,0,.8-1.6Z" fill="#212121"></path></g></svg>