<svg xmlns="http://www.w3.org/2000/svg" height="32" width="32" viewBox="0 0 32 32"><title>paragraph</title><g fill="#212121" class="nc-icon-wrapper"><path d="M13,1H2A.945.945,0,0,0,1,2V13a.945.945,0,0,0,1,1H13a.945.945,0,0,0,1-1V2A.945.945,0,0,0,13,1Z" fill="#212121"></path> <path data-color="color-2" d="M18,5H30a.945.945,0,0,0,1-1,.945.945,0,0,0-1-1H18a.945.945,0,0,0-1,1A.945.945,0,0,0,18,5Z" fill="#212121"></path> <path data-color="color-2" d="M18,11H30a.945.945,0,0,0,1-1,.945.945,0,0,0-1-1H18a.945.945,0,0,0-1,1A.945.945,0,0,0,18,11Z" fill="#212121"></path> <path d="M13,18H2a.945.945,0,0,0-1,1V30a.945.945,0,0,0,1,1H13a.945.945,0,0,0,1-1V19A.945.945,0,0,0,13,18Z" fill="#212121"></path> <path data-color="color-2" d="M30,20H18a1,1,0,0,0,0,2H30a1,1,0,0,0,0-2Z" fill="#212121"></path> <path data-color="color-2" d="M30,26H18a1,1,0,0,0,0,2H30a1,1,0,0,0,0-2Z" fill="#212121"></path></g></svg>