<svg xmlns="http://www.w3.org/2000/svg" height="32" width="32" viewBox="0 0 32 32"><title>park</title><g fill="#212121" class="nc-icon-wrapper"><polygon points="20 26 0 26 0 28 3 28 3 32 5 32 5 28 15 28 15 32 17 32 17 28 20 28 20 26" fill="#212121"></polygon><path d="M17,18a1,1,0,0,0-1-1H4a1,1,0,0,0-1,1v6H17Z" fill="#212121"></path><path d="M29.684,8.059A6.873,6.873,0,0,0,30,6c0-3.309-2.243-6-5-6s-5,2.691-5,6a6.873,6.873,0,0,0,.316,2.059A8.451,8.451,0,0,0,18,14a7.944,7.944,0,0,0,5,7.663V32h2V15a1,1,0,0,1,1-1h0a1,1,0,0,1,1,1v6.663A7.944,7.944,0,0,0,32,14,8.451,8.451,0,0,0,29.684,8.059Z" fill="#212121" data-color="color-2"></path></g></svg>