<svg xmlns="http://www.w3.org/2000/svg" height="32" width="32" viewBox="0 0 32 32"><title>phone call</title><g fill="#212121" class="nc-icon-wrapper"><path data-color="color-2" d="M30,15a1,1,0,0,1-1-1A11.013,11.013,0,0,0,18,3a1,1,0,0,1,0-2A13.015,13.015,0,0,1,31,14,1,1,0,0,1,30,15Z" fill="#212121"></path> <path data-color="color-2" d="M24,15a1,1,0,0,1-1-1,5.006,5.006,0,0,0-5-5,1,1,0,0,1,0-2,7.008,7.008,0,0,1,7,7A1,1,0,0,1,24,15Z" fill="#212121"></path> <path d="M21.028,19.528l-2.445,3.057a25.8,25.8,0,0,1-9.168-9.168l3.057-2.445a2.078,2.078,0,0,0,.6-2.464L10.286,2.235A2.076,2.076,0,0,0,7.865,1.067l-5.3,1.376A2.088,2.088,0,0,0,1.02,4.75,30.815,30.815,0,0,0,27.25,30.98a2.088,2.088,0,0,0,2.306-1.542l1.376-5.3a2.077,2.077,0,0,0-1.167-2.419L23.492,18.93A2.077,2.077,0,0,0,21.028,19.528Z" fill="#212121"></path></g></svg>