<svg xmlns="http://www.w3.org/2000/svg" height="32" width="32" viewBox="0 0 32 32"><title>pin</title><g fill="#212121" class="nc-icon-wrapper"><path data-color="color-2" fill="#212121" d="M9.172,21.414l-7.879,7.879c-0.391,0.391-0.391,1.023,0,1.414C1.488,30.902,1.744,31,2,31 s0.512-0.098,0.707-0.293l7.879-7.879L9.172,21.414z"></path> <path fill="#212121" d="M30.707,11.293l-10-10c-0.391-0.391-1.023-0.391-1.414,0s-0.391,1.023,0,1.414l1.111,1.111l-14.26,8.912 l-2.438-2.438c-0.391-0.391-1.023-0.391-1.414,0s-0.391,1.023,0,1.414l18,18C20.488,29.902,20.744,30,21,30s0.512-0.098,0.707-0.293 c0.391-0.391,0.391-1.023,0-1.414l-2.438-2.438l8.912-14.26l1.111,1.111C29.488,12.902,29.744,13,30,13s0.512-0.098,0.707-0.293 C31.098,12.316,31.098,11.684,30.707,11.293z"></path></g></svg>