<svg xmlns="http://www.w3.org/2000/svg" height="32" width="32" viewBox="0 0 32 32"><title>position marker</title><g fill="#212121" class="nc-icon-wrapper"><path data-color="color-2" fill="#212121" d="M19,22.093v1.998c6.606,0.413,10,2.123,10,2.909c0,0.897-4.423,3-13,3S3,27.897,3,27 c0-0.786,3.394-2.496,10-2.909v-1.998C6.778,22.471,1,24.039,1,27c0,3.436,7.775,5,15,5s15-1.564,15-5 C31,24.039,25.222,22.471,19,22.093z"></path> <path fill="#212121" d="M25,9c0-4.962-4.037-9-9-9S7,4.038,7,9c0,4.624,3.507,8.442,8,8.941V27h2v-9.059 C21.493,17.442,25,13.624,25,9z"></path></g></svg>