<svg xmlns="http://www.w3.org/2000/svg" height="32" width="32" viewBox="0 0 32 32"><title>present</title><g fill="#212121" class="nc-icon-wrapper"><path data-color="color-2" d="M31,7H25.444A3.959,3.959,0,0,0,26,5a4,4,0,0,0-4-4c-3.13,0-5,2.386-6,4.323C15,3.386,13.13,1,10,1A4,4,0,0,0,6,5a3.959,3.959,0,0,0,.556,2H1A1,1,0,0,0,0,8v4a1,1,0,0,0,1,1H31a1,1,0,0,0,1-1V8A1,1,0,0,0,31,7ZM22,3a2,2,0,0,1,0,4H17.416C18.078,5.446,19.515,3,22,3ZM8,5a2,2,0,0,1,2-2c2.472,0,3.914,2.446,4.58,4H10A2,2,0,0,1,8,5Z" fill="#212121"></path> <path d="M18,31h7a4,4,0,0,0,4-4V15H18Z" fill="#212121"></path> <path d="M3,27a4,4,0,0,0,4,4h7V15H3Z" fill="#212121"></path></g></svg>