<svg xmlns="http://www.w3.org/2000/svg" height="32" width="32" viewBox="0 0 32 32"><title>profile</title><g fill="#212121" class="nc-icon-wrapper"><path d="M16,15c3.309,0,6-2.691,6-6v-3c0-3.309-2.691-6-6-6s-6,2.691-6,6v3c0,3.309,2.691,6,6,6Z" fill="#212121" data-color="color-2"></path><path d="M26.967,22.413c-.751-2.752-3.037-4.753-5.823-5.097-3.382-.416-6.843-.418-10.227-.007-2.823,.344-5.133,2.349-5.886,5.107l-1.997,7.321c-.074,.273-.03,.564,.123,.802,.152,.238,.398,.4,.677,.447,4.009,.672,8.102,1.014,12.166,1.014s8.158-.341,12.166-1.014c.279-.047,.524-.209,.677-.447,.152-.238,.197-.53,.123-.802l-1.998-7.324Z" fill="#212121"></path></g></svg>