<svg xmlns="http://www.w3.org/2000/svg" height="32" width="32" viewBox="0 0 32 32"><title>progress 2</title><g fill="#212121" class="nc-icon-wrapper"><path d="M16,32a1,1,0,0,1,0-2A14,14,0,0,0,16,2a1,1,0,0,1,0-2,16,16,0,0,1,0,32Z" fill="#212121"></path><path d="M1.062,18.245a1,1,0,0,1-1-.917C.03,16.889,0,16.448,0,16s.03-.889.066-1.328a1,1,0,1,1,1.994.166C2.028,15.223,2,15.608,2,16s.028.777.06,1.162a1,1,0,0,1-.914,1.08Z" fill="#212121" data-color="color-2"></path><path d="M8.149,4.237a1,1,0,0,1-.526-1.851A15.925,15.925,0,0,1,9.989,1.178a1,1,0,1,1,.752,1.853A13.952,13.952,0,0,0,8.673,4.089,1,1,0,0,1,8.149,4.237Z" fill="#212121" data-color="color-2"></path><path d="M2.621,10.242a1,1,0,0,1-.892-1.451A16.112,16.112,0,0,1,3.123,6.53a1,1,0,1,1,1.61,1.186A14.145,14.145,0,0,0,3.514,9.693,1,1,0,0,1,2.621,10.242Z" fill="#212121" data-color="color-2"></path><path d="M3.9,25.84a1,1,0,0,1-.808-.409A16.039,16.039,0,0,1,1.706,23.16a1,1,0,1,1,1.787-.9,13.971,13.971,0,0,0,1.215,1.985A1,1,0,0,1,3.9,25.84Z" fill="#212121" data-color="color-2"></path><path d="M10.345,30.889a.991.991,0,0,1-.378-.075A16.117,16.117,0,0,1,7.6,29.6a1,1,0,0,1,1.051-1.7,14.037,14.037,0,0,0,2.075,1.066,1,1,0,0,1-.378,1.926Z" fill="#212121" data-color="color-2"></path><path d="M12.293,22.414,7.586,17.707a1,1,0,0,1,0-1.414l.707-.707a1,1,0,0,1,1.414,0L13,18.879l9.293-9.293a1,1,0,0,1,1.414,0l.707.707a1,1,0,0,1,0,1.414L13.707,22.414A1,1,0,0,1,12.293,22.414Z" fill="#212121"></path></g></svg>