<svg xmlns="http://www.w3.org/2000/svg" height="32" width="32" viewBox="0 0 32 32"><title>question mark</title><g fill="#212121" class="nc-icon-wrapper"><path d="M15.941,23h-1.826c-.552,0-1-.448-1-1v-.913c0-4.095,2.723-6.256,4.911-7.992,2.057-1.633,3.22-2.53,3.22-4.443,0-2.87-2.861-3.826-5.261-3.826-2.47,.134-4.87,.842-7.011,2.062-.491,.28-1.112,.134-1.391-.357l-.9-1.58c-.266-.468-.123-1.077,.341-1.35,2.717-1.602,5.798-2.498,8.961-2.6,5.52,0,9.087,3.348,9.087,7.652,0,3.826-2.588,5.79-4.667,7.44-2.147,1.705-3.464,2.857-3.464,4.995v.913c0,.552-.448,1-1,1Z" fill="#212121"></path><circle data-color="color-2" cx="15" cy="28.5" r="2.5" fill="#212121"></circle></g></svg>