<svg xmlns="http://www.w3.org/2000/svg" height="32" width="32" viewBox="0 0 32 32"><title>rat</title><g fill="#212121" class="nc-icon-wrapper"><path d="M28.519,18A9.827,9.827,0,0,0,29,15,10.011,10.011,0,0,0,19,5a19.043,19.043,0,0,0-8.143,1.833,4.952,4.952,0,0,0-2.93-1.74A1,1,0,0,0,6.9,5.535a11.987,11.987,0,0,0-1.861,5.594A19.074,19.074,0,0,0,.758,18.723,1,1,0,0,0,1.719,20H28.5a1.5,1.5,0,0,1,0,3h-8a3.5,3.5,0,0,0,0,7H23a1,1,0,0,0,0-2H20.5a1.5,1.5,0,0,1,0-3h8a3.5,3.5,0,0,0,.019-7ZM7,15a1,1,0,1,1,1-1A1,1,0,0,1,7,15Z" fill="#212121"></path></g></svg>