<svg xmlns="http://www.w3.org/2000/svg" height="32" width="32" viewBox="0 0 32 32"><title>reload</title><g fill="#212121" class="nc-icon-wrapper"><path d="M.987,17a1,1,0,0,0,1-1A14.007,14.007,0,0,1,23.928,4.454L21.035,7.347a1,1,0,0,0,.513,1.688l8.617,1.7a.971.971,0,0,0,.193.019,1,1,0,0,0,.984-1.183L29.725.871a1,1,0,0,0-1.69-.524L25.361,3.021A16,16,0,0,0-.013,16a1,1,0,0,0,1,1Z" fill="#212121"></path><path d="M31.014,15h0a1,1,0,0,0-1,1A14.007,14.007,0,0,1,8.073,27.546l2.892-2.893a1,1,0,0,0-.513-1.688l-8.617-1.7A1,1,0,0,0,.658,22.433l1.617,8.7a1,1,0,0,0,.687.772.976.976,0,0,0,.3.045,1,1,0,0,0,.707-.293l2.683-2.682A15.993,15.993,0,0,0,32.013,16,1,1,0,0,0,31.014,15Z" fill="#212121"></path></g></svg>