<svg xmlns="http://www.w3.org/2000/svg" height="32" width="32" viewBox="0 0 32 32"><title>replay</title><g fill="#212121" class="nc-icon-wrapper"><path d="M4,26H7a1,1,0,0,0,0-2H4a2,2,0,0,1-2-2V10A2,2,0,0,1,4,8h9v4a1,1,0,0,0,1,1,.988.988,0,0,0,.581-.187l7-5a1,1,0,0,0,0-1.626l-7-5A1,1,0,0,0,13,2V6H4a4,4,0,0,0-4,4V22A4,4,0,0,0,4,26Z" fill="#212121"></path><path data-color="color-2" d="M28,6H25a1,1,0,0,0,0,2h3a2,2,0,0,1,2,2V22a2,2,0,0,1-2,2H19V20a1,1,0,0,0-1.581-.813l-7,5a1,1,0,0,0,0,1.626l7,5A.988.988,0,0,0,18,31a1.019,1.019,0,0,0,.458-.11A1,1,0,0,0,19,30V26h9a4,4,0,0,0,4-4V10A4,4,0,0,0,28,6Z" fill="#212121"></path></g></svg>