<svg xmlns="http://www.w3.org/2000/svg" height="32" width="32" viewBox="0 0 32 32"><title>s pulse</title><g fill="#212121" class="nc-icon-wrapper"><path d="M7.42,15l3.712-6.496c.183-.321,.529-.528,.896-.504,.369,.011,.702,.223,.867,.553l6.164,12.329,3.073-5.378c.178-.312,.509-.504,.868-.504h8V5c0-2.209-1.791-4-4-4H5C2.791,1,1,2.791,1,5V15H7.42Z" fill="#212121"></path><path data-color="color-2" d="M23.58,17l-3.712,6.496c-.178,.312-.51,.504-.868,.504h-.028c-.369-.011-.702-.223-.867-.553l-6.164-12.329-3.073,5.378c-.178,.312-.509,.504-.868,.504H1v10c0,2.209,1.791,4,4,4H27c2.209,0,4-1.791,4-4v-10h-7.42Z" fill="#212121"></path></g></svg>