<svg xmlns="http://www.w3.org/2000/svg" height="32" width="32" viewBox="0 0 32 32"><title>s remove</title><g fill="#212121" class="nc-icon-wrapper"><path d="M27,1H5C2.791,1,1,2.791,1,5V27c0,2.209,1.791,4,4,4H27c2.209,0,4-1.791,4-4V5c0-2.209-1.791-4-4-4Zm-4.293,20.293c.391,.391,.391,1.023,0,1.414-.195,.195-.451,.293-.707,.293s-.512-.098-.707-.293l-5.293-5.293-5.293,5.293c-.195,.195-.451,.293-.707,.293s-.512-.098-.707-.293c-.391-.391-.391-1.023,0-1.414l5.293-5.293-5.293-5.293c-.391-.391-.391-1.023,0-1.414s1.023-.391,1.414,0l5.293,5.293,5.293-5.293c.391-.391,1.023-.391,1.414,0s.391,1.023,0,1.414l-5.293,5.293,5.293,5.293Z" fill="#212121"></path></g></svg>