<svg xmlns="http://www.w3.org/2000/svg" height="32" width="32" viewBox="0 0 32 32"><title>salad</title><g fill="#212121" class="nc-icon-wrapper"><path d="M30 14H2a1 1 0 0 0-1 1 14.925 14.925 0 0 0 9.454 13.929 1 1 0 0 0 .37.071h10.352a1 1 0 0 0 .37-.071A14.925 14.925 0 0 0 31 15a1 1 0 0 0-1-1z" fill="#212121"></path><path d="M2 2a8 8 0 0 1 8 8v2a8 8 0 0 1-8-8V2z" fill="#212121" data-color="color-2"></path><path d="M28.928 12A4.814 4.814 0 0 0 23.6 6.383 6.49 6.49 0 0 0 12.253 12z" fill="#212121" data-color="color-2"></path></g></svg>