<svg xmlns="http://www.w3.org/2000/svg" height="32" width="32" viewBox="0 0 32 32"><title>save for later</title><g fill="#212121" class="nc-icon-wrapper"><path d="M16,7.05c-.003-1.039,.175-2.072,.525-3.05H4C1.791,4,0,5.791,0,8V28c0,2.209,1.791,4,4,4H24c2.209,0,4-1.791,4-4V15.475c-.963,.345-1.977,.523-3,.525-4.957,.014-8.986-3.993-9-8.95Zm10,20.95c0,1.105-.895,2-2,2H4c-1.105,0-2-.895-2-2v-3H26v3Z" fill="#212121"></path><path data-color="color-2" d="M25,0c-3.866,0-7,3.134-7,7s3.134,7,7,7,7-3.134,7-7S28.866,0,25,0Zm4.5,8h-3.5v3.5c0,.276-.224,.5-.5,.5h-1c-.276,0-.5-.224-.5-.5v-3.5h-3.5c-.276,0-.5-.224-.5-.5v-1c0-.276,.224-.5,.5-.5h3.5V2.5c0-.276,.224-.5,.5-.5h1c.276,0,.5,.224,.5,.5v3.5h3.5c.276,0,.5,.224,.5,.5v1c0,.276-.224,.5-.5,.5Z" fill="#212121"></path></g></svg>