<svg xmlns="http://www.w3.org/2000/svg" height="32" width="32" viewBox="0 0 32 32"><title>screen enlarge</title><g fill="#212121" class="nc-icon-wrapper"><rect data-color="color-2" x="6" y="6" width="20" height="20" rx="1" ry="1" fill="#212121"></rect><path d="M2,11c.552,0,1-.448,1-1V5c0-1.105,.895-2,2-2h5c.552,0,1-.448,1-1s-.448-1-1-1H5C2.791,1,1,2.791,1,5v5c0,.552,.448,1,1,1Z" fill="#212121"></path><path d="M27,1h-5c-.552,0-1,.448-1,1s.448,1,1,1h5c1.105,0,2,.895,2,2v5c0,.552,.448,1,1,1s1-.448,1-1V5c0-2.209-1.791-4-4-4Z" fill="#212121"></path><path d="M30,21c-.552,0-1,.448-1,1v5c0,1.105-.895,2-2,2h-5c-.552,0-1,.448-1,1s.448,1,1,1h5c2.209,0,4-1.791,4-4v-5c0-.552-.448-1-1-1Z" fill="#212121"></path><path d="M10,29H5c-1.105,0-2-.895-2-2v-5c0-.552-.448-1-1-1s-1,.448-1,1v5c0,2.209,1.791,4,4,4h5c.552,0,1-.448,1-1s-.448-1-1-1Z" fill="#212121"></path></g></svg>