<svg xmlns="http://www.w3.org/2000/svg" height="32" width="32" viewBox="0 0 32 32"><title>selfie 2</title><g fill="#212121" class="nc-icon-wrapper"><circle cx="14" cy="10.5" r="2.5" fill="#212121" data-color="color-2"></circle><path d="M9,19a5,5,0,0,1,5-5h0a5,5,0,0,1,5,5Z" fill="#212121" data-color="color-2"></path><path d="M8.382,20H3a1,1,0,0,1-1-1V7A1,1,0,0,1,3,6h8.382a3.976,3.976,0,0,1-1.24-2H3A3,3,0,0,0,0,7V19a3,3,0,0,0,3,3H7.142A3.976,3.976,0,0,1,8.382,20Z" fill="#212121"></path><path d="M22,1H14a2,2,0,0,0,0,4h6l6,3V18a3,3,0,0,1-3,3H11a2,2,0,0,0-.365,3.963L19,26l7,4h6V5Z" fill="#212121"></path></g></svg>