<svg xmlns="http://www.w3.org/2000/svg" height="32" width="32" viewBox="0 0 32 32"><title>shopping cart</title><g fill="#212121" class="nc-icon-wrapper"><circle data-color="color-2" cx="8" cy="29" r="3" fill="#212121"></circle><circle data-color="color-2" cx="27" cy="29" r="3" fill="#212121"></circle><path d="M26.219,23H7.906c-1.284,0-2.36-.973-2.488-2.251L3.643,3H1.5C.672,3,0,2.328,0,1.5H0C0,.672,.672,0,1.5,0h3.499c.771,0,1.416,.584,1.493,1.351l.465,4.649H30.5c.828,0,1.5,.672,1.5,1.5,0,.123-.015,.245-.045,.364l-3.311,13.242c-.278,1.113-1.278,1.894-2.425,1.894Z" fill="#212121"></path></g></svg>