<svg xmlns="http://www.w3.org/2000/svg" height="32" width="32" viewBox="0 0 32 32"><title>shop</title><g fill="#212121" class="nc-icon-wrapper"><path d="M26.5,17h-.031a7.676,7.676,0,0,1-3.451-.883A7.505,7.505,0,0,1,19.507,17,7.71,7.71,0,0,1,16,16.112a7.388,7.388,0,0,1-7.024,0A7.7,7.7,0,0,1,5.566,17h0A7.757,7.757,0,0,1,4,16.835V30a1,1,0,0,0,1,1h8V24h6v7h8a1,1,0,0,0,1-1V16.846A7.5,7.5,0,0,1,26.5,17Z" fill="#212121"></path> <path data-color="color-2" d="M31.774,9.4,25.8,1.4A1,1,0,0,0,25,1H7a1,1,0,0,0-.8.4L.226,9.4a1.006,1.006,0,0,0-.193.709A5.5,5.5,0,0,0,5.522,15a5.658,5.658,0,0,0,3.465-1.282A5.466,5.466,0,0,0,12.513,15,5.565,5.565,0,0,0,16,13.718,5.582,5.582,0,0,0,19.5,15a5.441,5.441,0,0,0,3.506-1.278A5.616,5.616,0,0,0,26.5,15a5.5,5.5,0,0,0,5.467-4.89A1.006,1.006,0,0,0,31.774,9.4Z" fill="#212121"></path></g></svg>