<svg xmlns="http://www.w3.org/2000/svg" height="32" width="32" viewBox="0 0 32 32"><title>sidebar</title><g fill="#212121" class="nc-icon-wrapper"><path d="M28,3H4C1.791,3,0,4.791,0,7V25c0,2.209,1.791,4,4,4H28c2.209,0,4-1.791,4-4V7c0-2.209-1.791-4-4-4Zm-10,24H4c-1.105,0-2-.895-2-2V7c0-1.105,.895-2,2-2h14V27Zm9-4h-4c-.553,0-1-.448-1-1s.447-1,1-1h4c.553,0,1,.448,1,1s-.447,1-1,1Zm0-6h-4c-.553,0-1-.448-1-1s.447-1,1-1h4c.553,0,1,.448,1,1s-.447,1-1,1Zm0-6h-4c-.553,0-1-.448-1-1s.447-1,1-1h4c.553,0,1,.448,1,1s-.447,1-1,1Z" fill="#212121"></path></g></svg>