<svg xmlns="http://www.w3.org/2000/svg" height="32" width="32" viewBox="0 0 32 32"><title>spaceship</title><g fill="#212121" class="nc-icon-wrapper"><path data-color="color-2" d="M14.6,3.6A11.653,11.653,0,0,0,2.9,9.27a1,1,0,0,0,.154,1.215L5.67,13.1A34.588,34.588,0,0,1,14.6,3.6Z" fill="#212121"></path> <path data-color="color-2" d="M18.892,26.319l2.623,2.623a1,1,0,0,0,1.216.154,11.835,11.835,0,0,0,2.342-1.8,11.64,11.64,0,0,0,3.316-9.953A34.862,34.862,0,0,1,18.892,26.319Z" fill="#212121"></path> <path d="M31.708.3A1.016,1.016,0,0,0,30.947,0C12.36.972,5.5,17.519,5.432,17.686a1,1,0,0,0,.221,1.08l7.582,7.581a1,1,0,0,0,1.086.219C14.487,26.5,30.948,19.558,32,1.058A1,1,0,0,0,31.708.3ZM18.5,16A2.5,2.5,0,1,1,21,13.5,2.5,2.5,0,0,1,18.5,16Z" fill="#212121"></path> <path data-color="color-2" d="M7.828,24.172a4,4,0,0,1,0,5.656C6.266,31.391,0,32,0,32s.609-6.266,2.172-7.828A4,4,0,0,1,7.828,24.172Z" fill="#212121"></path></g></svg>