<svg xmlns="http://www.w3.org/2000/svg" height="32" width="32" viewBox="0 0 32 32"><title>stopwatch</title><g fill="#212121" class="nc-icon-wrapper"><path data-color="color-2" d="M12,2h3v2h2V2h3c.552,0,1-.448,1-1s-.448-1-1-1H12c-.552,0-1,.448-1,1s.448,1,1,1Z" fill="#212121"></path><path d="M16,6c-7.18,0-13,5.82-13,13s5.82,13,13,13,13-5.82,13-13c-.008-7.176-5.824-12.992-13-13Zm7,14h-7c-.552,0-1-.448-1-1v-7c0-.552,.448-1,1-1s1,.448,1,1v6h6c.552,0,1,.448,1,1s-.448,1-1,1Z" fill="#212121"></path><path data-color="color-2" d="M28,10c-.256,0-.512-.098-.707-.293l-2-2c-.391-.391-.391-1.023,0-1.414s1.023-.391,1.414,0l2,2c.391,.391,.391,1.023,0,1.414-.195,.195-.451,.293-.707,.293Z" fill="#212121"></path></g></svg>