<svg xmlns="http://www.w3.org/2000/svg" height="32" width="32" viewBox="0 0 32 32"><title>switches</title><g fill="#212121" class="nc-icon-wrapper"><path d="M23.5,0H8.5A7.555,7.555,0,0,0,1,7.5,7.555,7.555,0,0,0,8.5,15h15A7.555,7.555,0,0,0,31,7.5,7.555,7.555,0,0,0,23.5,0ZM8.5,13A5.5,5.5,0,1,1,14,7.5,5.477,5.477,0,0,1,8.5,13Z" fill="#212121"></path> <path data-color="color-2" d="M23.5,17H8.5a7.5,7.5,0,0,0,0,15h15a7.5,7.5,0,0,0,0-15Zm0,13A5.5,5.5,0,1,1,29,24.5,5.477,5.477,0,0,1,23.5,30Z" fill="#212121"></path></g></svg>