<svg xmlns="http://www.w3.org/2000/svg" height="32" width="32" viewBox="0 0 32 32"><title>telephone</title><g fill="#212121" class="nc-icon-wrapper"><path data-color="color-2" d="M1.494,5.442,1.9,9.11A1,1,0,0,0,2.9,10H7.219a1,1,0,0,0,.97-.757L9,6H23l.811,3.243a1,1,0,0,0,.97.757h4.324a1,1,0,0,0,.994-.89l.383-3.45a4.2,4.2,0,0,0-1.865-4.073A4,4,0,0,0,26.531,1H5.69A4.2,4.2,0,0,0,1.847,3.3,4,4,0,0,0,1.494,5.442Z" fill="#212121"></path> <path d="M30.781,22.375l-8-10A1,1,0,0,0,22,12H10a1,1,0,0,0-.781.375l-8,10A1,1,0,0,0,1,23v4a4,4,0,0,0,4,4H27a4,4,0,0,0,4-4V23A1,1,0,0,0,30.781,22.375ZM16,25a4,4,0,1,1,4-4A4,4,0,0,1,16,25Z" fill="#212121"></path></g></svg>