<svg xmlns="http://www.w3.org/2000/svg" height="32" width="32" viewBox="0 0 32 32"><title>theater</title><g fill="#212121" class="nc-icon-wrapper"><path d="M21.333,1.771a31.158,31.158,0,0,0-20.666,0A1,1,0,0,0,0,2.714V15a11,11,0,0,0,22,0V2.714A1,1,0,0,0,21.333,1.771ZM4,10.5A1.5,1.5,0,0,1,5.5,9h2a1.5,1.5,0,0,1,0,3h-2A1.5,1.5,0,0,1,4,10.5ZM11,22a4,4,0,0,1-4-4h8A4,4,0,0,1,11,22Zm5.5-10h-2a1.5,1.5,0,0,1,0-3h2a1.5,1.5,0,0,1,0,3Z" fill="#212121"></path><path d="M31.333,7.771A30.867,30.867,0,0,0,24,6.165V15c0,.031,0,.062,0,.093A1.488,1.488,0,0,1,24.5,15h2a1.5,1.5,0,0,1,0,3h-2a1.486,1.486,0,0,1-.8-.237,12.985,12.985,0,0,1-3.412,6.309A3.961,3.961,0,0,1,25,28H17a3.959,3.959,0,0,1,.387-1.691,12.9,12.9,0,0,1-4.932,1.6A10.992,10.992,0,0,0,32,21V8.714A1,1,0,0,0,31.333,7.771Z" fill="#212121" data-color="color-2"></path></g></svg>