<svg xmlns="http://www.w3.org/2000/svg" height="32" width="32" viewBox="0 0 32 32"><title>time alarm</title><g fill="#212121" class="nc-icon-wrapper"><path data-color="color-2" d="M2,8a1,1,0,0,1-.707-1.707l5-5A1,1,0,0,1,7.707,2.707l-5,5A1,1,0,0,1,2,8Z" fill="#212121"></path><path data-color="color-2" d="M30,8a1,1,0,0,1-.707-.293l-5-5a1,1,0,0,1,1.414-1.414l5,5A1,1,0,0,1,30,8Z" fill="#212121"></path><path d="M25.316,25.047a13,13,0,1,0-18.632,0L3.22,29.375a1,1,0,1,0,1.56,1.25l3.408-4.258a12.905,12.905,0,0,0,15.624,0l3.408,4.258a1,1,0,1,0,1.56-1.25ZM23,17H16a1,1,0,0,1-1-1V9a1,1,0,0,1,2,0v6h6a1,1,0,0,1,0,2Z" fill="#212121"></path></g></svg>