<svg xmlns="http://www.w3.org/2000/svg" height="32" width="32" viewBox="0 0 32 32"><title>trumpet</title><g fill="#212121" class="nc-icon-wrapper"><path d="M12.2,24.053l2.829,2.828a1,1,0,0,0,1.414-1.414l-2.829-2.828Z" fill="#212121" data-color="color-2"></path><path d="M15.731,20.517l2.828,2.829a1,1,0,0,0,1.414-1.414L17.145,19.1Z" fill="#212121" data-color="color-2"></path><path d="M19.984.44a1,1,0,0,0-.383,1.2,11,11,0,0,1-2.456,11.8c-.018.019-.024.043-.041.062l-2.737,2.733c-.016.014-.036.019-.051.034l-.707-.707A1,1,0,0,0,12.2,16.982l.713.713-2.121,2.121-.713-.713A1,1,0,0,0,8.66,20.517l.712.713L3,27.589,2.3,26.881A1,1,0,0,0,.881,28.3L3.71,31.124A1,1,0,1,0,5.124,29.71L4.417,29l3.4-3.39A6.5,6.5,0,0,0,18.539,30.4l5.031-5a6.557,6.557,0,0,0-.415-8.773,6.325,6.325,0,0,0-2-1.336,9.014,9.014,0,0,0-1.181.983c-.142.143-.27.294-.4.444a.961.961,0,0,0,.386.249,4.462,4.462,0,0,1,1.783,1.075,4.531,4.531,0,0,1,.356,6.008l-4.9,4.873a4.5,4.5,0,0,1-6.392-6.27l7.768-7.783h0c.016-.015.021-.036.035-.052a11,11,0,0,1,11.759-2.414,1,1,0,0,0,1.073-.223.961.961,0,0,0,.129-.16,1,1,0,0,0-.129-1.255L21.238.569A1,1,0,0,0,19.984.44Z" fill="#212121"></path></g></svg>