<svg xmlns="http://www.w3.org/2000/svg" height="32" width="32" viewBox="0 0 32 32"><title>unlink</title><g fill="#212121" class="nc-icon-wrapper"><path d="M14.891,22.059A4.13,4.13,0,0,1,13.782,24.1L11.1,26.786a4.157,4.157,0,0,1-5.879-5.879L7.9,18.221a4.125,4.125,0,0,1,2.032-1.106L11.4,15.646,9.845,14.087A7.1,7.1,0,0,0,5.782,16.1L3.1,18.786A7.157,7.157,0,0,0,13.218,28.907L15.9,26.221a7.1,7.1,0,0,0,2.012-4.064L16.354,20.6Z" fill="#212121"></path> <path d="M18.786,3.1,16.1,5.782a7.1,7.1,0,0,0-2.013,4.063L15.646,11.4l1.469-1.469A4.125,4.125,0,0,1,18.221,7.9l2.686-2.685A4.157,4.157,0,0,1,26.786,11.1L24.1,13.782a4.13,4.13,0,0,1-2.041,1.109L20.6,16.354l1.561,1.561A7.1,7.1,0,0,0,26.221,15.9l2.686-2.685A7.157,7.157,0,0,0,18.786,3.1Z" fill="#212121"></path> <path data-color="color-2" d="M22.561,9.439a1.5,1.5,0,0,0-2.122,0l-3.378,3.379,2.121,2.121,3.379-3.378A1.5,1.5,0,0,0,22.561,9.439Z" fill="#212121"></path> <path data-color="color-2" d="M9.439,22.561a1.5,1.5,0,0,0,2.122,0l3.378-3.379-2.121-2.121L9.439,20.439A1.5,1.5,0,0,0,9.439,22.561Z" fill="#212121"></path> <path data-color="color-2" d="M3.707,2.293A1,1,0,0,0,2.293,3.707l26,26a1,1,0,0,0,1.414-1.414Z" fill="#212121"></path></g></svg>