<svg xmlns="http://www.w3.org/2000/svg" height="32" width="32" viewBox="0 0 32 32"><title>upload</title><g fill="#212121" class="nc-icon-wrapper"><path data-color="color-2" d="M16,23a1,1,0,0,0,1-1V11h6a1,1,0,0,0,.79-1.614l-7-9a1.037,1.037,0,0,0-1.58,0l-7,9A1,1,0,0,0,9,11h6V22A1,1,0,0,0,16,23Z" fill="#212121"></path><path d="M26,14H22a1,1,0,0,0,0,2h4a2,2,0,0,1,2,2V28a2,2,0,0,1-2,2H6a2,2,0,0,1-2-2V18a2,2,0,0,1,2-2h4a1,1,0,0,0,0-2H6a4,4,0,0,0-4,4V28a4,4,0,0,0,4,4H26a4,4,0,0,0,4-4V18A4,4,0,0,0,26,14Z" fill="#212121"></path></g></svg>