<svg xmlns="http://www.w3.org/2000/svg" height="32" width="32" viewBox="0 0 32 32"><title>vacuum cleaner</title><g fill="#212121" class="nc-icon-wrapper"><path d="M31.6,29.2,28,26.5V16H26V26.5l-3.6,2.7a1,1,0,0,0-.4.8v1a1,1,0,0,0,1,1h8a1,1,0,0,0,1-1V30A1,1,0,0,0,31.6,29.2Z" fill="#212121" data-color="color-2"></path><path d="M15,24a4,4,0,1,1-4,4A4,4,0,0,1,15,24Zm0,5.5A1.5,1.5,0,1,0,13.5,28,1.5,1.5,0,0,0,15,29.5Z" fill="#212121" data-color="color-2"></path><path d="M3.566,13.892A11.469,11.469,0,0,1,11.357,11H12a5,5,0,0,1,5,5v6.35a5.9,5.9,0,0,0-3.772-.078A5.981,5.981,0,0,0,10.54,32H3a3,3,0,0,1-3-3V22A10.935,10.935,0,0,1,3.566,13.892ZM5,22a4,4,0,0,0,4-4V13.23A8.989,8.989,0,0,0,2,22Z" fill="#212121"></path><path d="M21.5,0A6.508,6.508,0,0,0,15,6.5V9.685a7.016,7.016,0,0,1,2,1.426V6.5a4.5,4.5,0,0,1,9,0V14h2V6.5A6.508,6.508,0,0,0,21.5,0Z" fill="#212121"></path></g></svg>