<svg xmlns="http://www.w3.org/2000/svg" height="32" width="32" viewBox="0 0 32 32"><title>vector</title><g fill="#212121" class="nc-icon-wrapper"><path fill="#212121" d="M29,4c-1.302,0-2.401,0.839-2.816,2H20V4c0-0.552-0.448-1-1-1h-6c-0.552,0-1,0.448-1,1v2H5.816 C5.401,4.839,4.302,4,3,4C1.346,4,0,5.346,0,7s1.346,3,3,3c1.302,0,2.401-0.839,2.816-2H12v2c0,0.552,0.448,1,1,1h6 c0.552,0,1-0.448,1-1V8h6.184c0.414,1.161,1.514,2,2.816,2c1.654,0,3-1.346,3-3S30.654,4,29,4z"></path> <path data-color="color-2" fill="#212121" d="M4,21H2c-0.552,0-1,0.448-1,1v6c0,0.552,0.448,1,1,1h6c0.552,0,1-0.448,1-1v-6 c0-0.552-0.448-1-1-1H6c0-3.262,1.577-6.154,4-7.981v-2.395C6.419,12.703,4,16.57,4,21z"></path> <path data-color="color-2" fill="#212121" d="M30,21h-2c0-4.43-2.419-8.297-6-10.376v2.395c2.423,1.827,4,4.719,4,7.981h-2 c-0.552,0-1,0.448-1,1v6c0,0.552,0.448,1,1,1h6c0.552,0,1-0.448,1-1v-6C31,21.448,30.552,21,30,21z"></path></g></svg>