<svg xmlns="http://www.w3.org/2000/svg" height="32" width="32" viewBox="0 0 32 32"><title>watering plants</title><g fill="#212121" class="nc-icon-wrapper"><path d="M28,15h-6c-2.909,0-5.493,1.394-7.14,3.542-.688-3.716-3.948-6.542-7.86-6.542H3c-.552,0-1,.447-1,1,0,4.963,4.038,9,9,9h2v9c0,.553,.448,1,1,1s1-.447,1-1v-5c0-3.859,3.14-7,7-7,.552,0,1,.447,1,1s-.448,1-1,1c-2.757,0-5,2.243-5,5v2c6.617,0,12-5.383,12-12,0-.553-.448-1-1-1Z" fill="#212121"></path><path d="M22,11c-2.206,0-4-1.794-4-4,0-3.375,3.158-6.572,3.293-6.707,.391-.391,1.023-.391,1.414,0,.135,.135,3.293,3.332,3.293,6.707,0,2.206-1.794,4-4,4Z" fill="#212121" data-color="color-2"></path><path d="M10,9c-1.654,0-3-1.346-3-3,0-1.912,2.091-3.858,2.329-4.074,.381-.346,.961-.346,1.342,0,.238,.216,2.329,2.162,2.329,4.074,0,1.654-1.346,3-3,3Z" fill="#212121" data-color="color-2"></path></g></svg>