<svg xmlns="http://www.w3.org/2000/svg" height="32" width="32" viewBox="0 0 32 32"><title>world</title><g fill="#212121" class="nc-icon-wrapper"><path data-color="color-2" d="M26.474,16.613l-2.007-2.558a1.006,1.006,0,0,0-.4-.3l-2.887-1.222a1.014,1.014,0,0,0-.573-.062l-3.416.636a1,1,0,0,0-.751.627l-1.184,3.114a1,1,0,0,0-.027.631L15.956,20l-1.147,2.568a1,1,0,0,0,.014.847L16.229,26.3a1,1,0,0,0,.9.561.951.951,0,0,0,.205-.021l2.631-.549a.985.985,0,0,0,.4-.18l2.019-1.522a.955.955,0,0,0,.147-.137l1.658-1.875,1.91-1.943a1,1,0,0,0,.28-.589l.306-2.7A1,1,0,0,0,26.474,16.613Z" fill="#212121"></path><path d="M16,0A16,16,0,1,0,32,16,16.019,16.019,0,0,0,16,0Zm0,30a13.92,13.92,0,0,1-8.678-3.035l1-.439a1,1,0,0,0,.435-.365l1.83-2.776a1,1,0,0,0-.223-1.342L7.736,20.005,6.678,18.113,5.732,16.15l1.983-2.344L11.1,13.18a1,1,0,0,0,.816-.925L12.1,9.048a.993.993,0,0,0-.217-.683L10,6,8.467,4.218a13.909,13.909,0,0,1,5.137-2l.005.175a1,1,0,0,0,.42.784l1.8,1.28,1.54,1.619.579,2.181a1,1,0,0,0,.4.566l1.915,1.321a1,1,0,0,0,.938.106l1.981-.789,2.648.027a.981.981,0,0,0,.547-.156l1.4-.887A13.977,13.977,0,0,1,16,30Z" fill="#212121"></path></g></svg>