<svg xmlns="http://www.w3.org/2000/svg" height="32" width="32" viewBox="0 0 32 32"><title>zoom in</title><g fill="#212121" class="nc-icon-wrapper"><path d="M22.821,19.993c3.855-5.417,2.589-12.933-2.828-16.788C14.576-.65,7.06,.616,3.205,6.033-.65,11.45,.616,18.966,6.033,22.821c4.178,2.974,9.782,2.974,13.96,0l7.644,7.644c.794,.767,2.061,.745,2.828-.049,.749-.775,.749-2.004,0-2.779l-7.644-7.644Zm-9.77,3.058c-5.52-.006-9.994-4.48-10-10C3.051,7.528,7.528,3.051,13.051,3.051s10,4.477,10,10-4.477,10-10,10Z" fill="#212121"></path><path data-color="color-2" d="M17,12h-3v-3c0-.552-.447-1-1-1s-1,.448-1,1v3h-3c-.553,0-1,.448-1,1s.447,1,1,1h3v3c0,.552,.447,1,1,1s1-.448,1-1v-3h3c.553,0,1-.448,1-1s-.447-1-1-1Z" fill="#212121"></path></g></svg>