<svg xmlns="http://www.w3.org/2000/svg" height="24" width="24" viewBox="0 0 24 24"><title>barcode qr</title><g stroke-linejoin="miter" fill="#212121" stroke-linecap="butt" class="nc-icon-wrapper"><polygon fill="none" stroke="#212121" stroke-width="2" stroke-linecap="square" stroke-miterlimit="10" points="10,10 1,10 1,1 10,1 10,1 " stroke-linejoin="miter"></polygon> <polygon fill="none" stroke="#212121" stroke-width="2" stroke-linecap="square" stroke-miterlimit="10" points="23,10 14,10 14,1 14,1 23,1 " stroke-linejoin="miter"></polygon> <polygon fill="none" stroke="#212121" stroke-width="2" stroke-linecap="square" stroke-miterlimit="10" points="10,23 1,23 1,14 10,14 10,14 " stroke-linejoin="miter"></polygon> <polyline fill="none" stroke="#212121" stroke-width="2" stroke-linecap="square" stroke-miterlimit="10" points="23,19 23,14 19,14 19,17 15,17 15,14 " stroke-linejoin="miter"></polyline> <polyline fill="none" stroke="#212121" stroke-width="2" stroke-linecap="square" stroke-miterlimit="10" points="23,23 15,23 15,21 " stroke-linejoin="miter"></polyline> <polygon data-color="color-2" fill="none" stroke="#212121" stroke-width="2" stroke-linecap="square" stroke-miterlimit="10" points=" 6,6 5,6 5,5 6,5 6,6 " stroke-linejoin="miter"></polygon> <polygon data-color="color-2" fill="none" stroke="#212121" stroke-width="2" stroke-linecap="square" stroke-miterlimit="10" points=" 19,6 18,6 18,6 18,5 19,5 " stroke-linejoin="miter"></polygon> <polygon data-color="color-2" fill="none" stroke="#212121" stroke-width="2" stroke-linecap="square" stroke-miterlimit="10" points=" 6,19 5,19 5,18 6,18 6,19 " stroke-linejoin="miter"></polygon></g></svg>