<svg xmlns="http://www.w3.org/2000/svg" height="24" width="24" viewBox="0 0 24 24"><title>bicep</title><g stroke-linejoin="miter" fill="#212121" stroke-linecap="butt" class="nc-icon-wrapper"><path d="M6.5,7a20.835,20.835,0,0,0,.257,3.725c.371,1.642,1.988,3.355,2.281,4.109,1.587-1.88,7.123-4,10.525-2.219,3.9,2.517,3.571,6.75,1.027,8.593a12.973,12.973,0,0,1-6.557,1.782,13.457,13.457,0,0,1-5.346-.619c-1.362.174-4.24.154-5.415-1.043C2.466,20.507.817,15.8,1.808,10.773,2.854,5.466,4.6,1,6.492,1a5.748,5.748,0,0,1,3.131.6c.7.569.2,2.267-.023,2.5a1.2,1.2,0,0,1,.241,1.617A4.59,4.59,0,0,1,7.7,7.084,2.867,2.867,0,0,1,6.5,7Z" fill="none" stroke="#212121" stroke-linecap="square" stroke-miterlimit="10" stroke-width="2"></path> <path d="M11.5,18a9.259,9.259,0,0,0,7-1" fill="none" stroke="#212121" stroke-linecap="square" stroke-miterlimit="10" stroke-width="2" data-color="color-2"></path></g></svg>