<svg xmlns="http://www.w3.org/2000/svg" height="24" width="24" viewBox="0 0 24 24"><title>blockchain</title><g stroke-linejoin="miter" fill="#212121" stroke-linecap="butt" class="nc-icon-wrapper"><polyline points="2 4 7 6.5 12 4" fill="none" stroke="#212121" stroke-miterlimit="10" stroke-width="2" data-cap="butt"></polyline><polygon points="12 4 7 1.5 2 4 2 10.5 7 13 12 10.5 12 4" fill="none" stroke="#212121" stroke-linecap="square" stroke-miterlimit="10" stroke-width="2"></polygon><line x1="7" y1="6.5" x2="7" y2="13" fill="none" stroke="#212121" stroke-miterlimit="10" stroke-width="2" data-cap="butt"></line><polyline points="12 4 17 6.5 22 4" fill="none" stroke="#212121" stroke-miterlimit="10" stroke-width="2" data-cap="butt"></polyline><polygon points="22 4 17 1.5 12 4 12 10.5 17 13 22 10.5 22 4" fill="none" stroke="#212121" stroke-linecap="square" stroke-miterlimit="10" stroke-width="2"></polygon><line x1="17" y1="6.5" x2="17" y2="13" fill="none" stroke="#212121" stroke-miterlimit="10" stroke-width="2" data-cap="butt"></line><polyline points="7 13 12 15.5 17 13" fill="none" stroke="#212121" stroke-miterlimit="10" stroke-width="2" data-cap="butt" data-color="color-2"></polyline><line x1="12" y1="15.5" x2="12" y2="22" fill="none" stroke="#212121" stroke-miterlimit="10" stroke-width="2" data-cap="butt" data-color="color-2"></line><polygon points="17 13 12 10.5 7 13 7 19.5 12 22 17 19.5 17 13" fill="none" stroke="#212121" stroke-linecap="square" stroke-miterlimit="10" stroke-width="2" data-color="color-2"></polygon></g></svg>