<svg xmlns="http://www.w3.org/2000/svg" height="24" width="24" viewBox="0 0 24 24"><title>bouquet</title><g stroke-linejoin="miter" fill="#212121" stroke-linecap="butt" class="nc-icon-wrapper"><path d="M20.45,11.5a1.707,1.707,0,0,0-2.415,0,1.706,1.706,0,0,1-2.414,0,1.706,1.706,0,0,0-2.414,0,1.706,1.706,0,0,1-2.414,0,1.706,1.706,0,0,0-2.414,0,1.706,1.706,0,0,1-2.414,0,1.707,1.707,0,0,0-2.415,0L10,19h4Z" fill="none" stroke="#212121" stroke-linecap="square" stroke-miterlimit="10" stroke-width="2"></path><polyline points="10 19 9 23 15 23 14 19" fill="none" stroke="#212121" stroke-linecap="square" stroke-miterlimit="10" stroke-width="2"></polyline><path d="M11.378,2.877A6.631,6.631,0,0,1,16,1V4A4,4,0,0,1,8,4V1a4,4,0,0,1,4,4" fill="none" stroke="#212121" stroke-miterlimit="10" stroke-width="2" data-cap="butt" data-color="color-2"></path><path d="M6,8a2.528,2.528,0,0,1,.5-5H8" fill="none" stroke="#212121" stroke-linecap="square" stroke-miterlimit="10" stroke-width="2" data-color="color-2"></path><path d="M18,8a2.528,2.528,0,0,0-.5-5H16" fill="none" stroke="#212121" stroke-linecap="square" stroke-miterlimit="10" stroke-width="2" data-color="color-2"></path></g></svg>