<svg xmlns="http://www.w3.org/2000/svg" height="24" width="24" viewBox="0 0 24 24"><title>child</title><g stroke-linejoin="miter" fill="#212121" stroke-linecap="butt" class="nc-icon-wrapper"><path d="M21,9a1.981,1.981,0,0,0-.5.07A8.991,8.991,0,0,0,3.5,9.07,2,2,0,1,0,3,13c.02,0,.038-.005.058-.006a9,9,0,0,0,17.884,0c.02,0,.038.006.058.006a2,2,0,0,0,0-4Z" fill="none" stroke="#212121" stroke-linecap="square" stroke-miterlimit="10" stroke-width="2"></path><circle data-color="color-2" data-stroke="none" cx="8.5" cy="10.5" r="1.5" fill="#212121" stroke="none"></circle><circle data-color="color-2" data-stroke="none" cx="15.5" cy="10.5" r="1.5" fill="#212121" stroke="none"></circle><path data-cap="butt" d="M13,6.732A2,2,0,1,1,12,3" fill="none" stroke="#212121" stroke-miterlimit="10" stroke-width="2"></path><path data-color="color-2" data-stroke="none" d="M12,18a3,3,0,0,0,3-3H9A3,3,0,0,0,12,18Z" fill="#212121" stroke="none"></path></g></svg>