<svg xmlns="http://www.w3.org/2000/svg" height="24" width="24" viewBox="0 0 24 24"><title>drums</title><g stroke-linejoin="miter" fill="#212121" stroke-linecap="butt" class="nc-icon-wrapper"><path d="M1,9.5v9C1,20.985,5.925,23,12,23s11-2.015,11-4.5v-9" fill="none" stroke="#212121" stroke-miterlimit="10" stroke-width="2" data-cap="butt"></path><line x1="22" y1="2" x2="8" y2="9" fill="none" stroke="#212121" stroke-linecap="square" stroke-miterlimit="10" stroke-width="2" data-color="color-2"></line><line x1="2" y1="2" x2="16" y2="9" fill="none" stroke="#212121" stroke-linecap="square" stroke-miterlimit="10" stroke-width="2" data-color="color-2"></line><path d="M4,6.419C2.146,7.224,1,8.306,1,9.5,1,11.985,5.925,14,12,14s11-2.015,11-4.5c0-1.194-1.146-2.276-3-3.081" fill="none" stroke="#212121" stroke-miterlimit="10" stroke-width="2" data-cap="butt"></path><line x1="12" y1="23" x2="12" y2="18" fill="none" stroke="#212121" stroke-miterlimit="10" stroke-width="2" data-cap="butt"></line><line x1="5" y1="17.092" x2="5" y2="21.971" fill="none" stroke="#212121" stroke-miterlimit="10" stroke-width="2" data-cap="butt"></line><line x1="19" y1="17.092" x2="19" y2="21.971" fill="none" stroke="#212121" stroke-miterlimit="10" stroke-width="2" data-cap="butt"></line></g></svg>