<svg xmlns="http://www.w3.org/2000/svg" height="24" width="24" viewBox="0 0 24 24"><title>ecology</title><g stroke-linejoin="miter" fill="#212121" stroke-linecap="butt" class="nc-icon-wrapper"><polyline points="5.11 3.425 6.722 4.75 8.367 6.506 7.963 9.246 5.369 10.558 4 11.726 4.667 12.864 5.974 14.264 6.68 16.737 4.717 18.384 4.358 19.912" fill="none" stroke="#212121" stroke-miterlimit="10" stroke-width="2" data-cap="butt"></polyline><path d="M23,8a7.483,7.483,0,0,1-6,3.014,4,4,0,0,0,0,8,6,6,0,0,0,6-6Z" fill="none" stroke="#212121" stroke-linecap="square" stroke-miterlimit="10" stroke-width="2" data-color="color-2"></path><path d="M16.757,15.771A5.985,5.985,0,0,0,15,20.014a3,3,0,0,1-3,3" fill="none" stroke="#212121" stroke-linecap="square" stroke-miterlimit="10" stroke-width="2" data-color="color-2"></path><path d="M8,22.242A10.994,10.994,0,1,1,20,4.473c.1.111.207.224.306.34l-1.463.83-3,.357L13.559,4.162l-.62-1.813L12.127,1l.046.077" fill="none" stroke="#212121" stroke-linecap="square" stroke-miterlimit="10" stroke-width="2"></path></g></svg>