<svg xmlns="http://www.w3.org/2000/svg" height="24" width="24" viewBox="0 0 24 24"><title>face recognition</title><g stroke-linejoin="miter" fill="#212121" stroke-linecap="butt" class="nc-icon-wrapper"><polyline points="2 6 2 2 6 2" fill="none" stroke="#212121" stroke-linecap="square" stroke-miterlimit="10" stroke-width="2" data-color="color-2"></polyline><polyline points="22 6 22 2 18 2" fill="none" stroke="#212121" stroke-linecap="square" stroke-miterlimit="10" stroke-width="2" data-color="color-2"></polyline><polyline points="2 18 2 22 6 22" fill="none" stroke="#212121" stroke-linecap="square" stroke-miterlimit="10" stroke-width="2" data-color="color-2"></polyline><polyline points="22 18 22 22 18 22" fill="none" stroke="#212121" stroke-linecap="square" stroke-miterlimit="10" stroke-width="2" data-color="color-2"></polyline><path d="M18,19l-2.469-.617a2,2,0,0,1-1.515-1.95l0-1.027A6.687,6.687,0,0,0,17,10V9A5,5,0,0,0,7,9v1a6.687,6.687,0,0,0,2.986,5.406l0,1.027a2,2,0,0,1-1.515,1.95L6,19" fill="none" stroke="#212121" stroke-linecap="square" stroke-miterlimit="10" stroke-width="2"></path></g></svg>