<svg xmlns="http://www.w3.org/2000/svg" height="24" width="24" viewBox="0 0 24 24"><title>finger snap</title><g stroke-linejoin="miter" fill="#212121" stroke-linecap="butt" class="nc-icon-wrapper"><path d="M15,13h5.893a2.075,2.075,0,0,0,2.08-1.664A2,2,0,0,0,21,9H9.766a1,1,0,0,1-.857-1.514l1.457-2.43a1.947,1.947,0,0,0-.049-2.081h0a1.946,1.946,0,0,0-3-.3L1,9V20l8.178,2.23A3,3,0,0,0,12.841,20.2Z" fill="none" stroke="#212121" stroke-linecap="square" stroke-miterlimit="10" stroke-width="2"></path><line x1="14" y1="2" x2="18" y2="6" fill="none" stroke="#212121" stroke-linecap="square" stroke-miterlimit="10" stroke-width="2" data-color="color-2"></line><line x1="18" y1="2" x2="14" y2="6" fill="none" stroke="#212121" stroke-linecap="square" stroke-miterlimit="10" stroke-width="2" data-color="color-2"></line></g></svg>