<svg xmlns="http://www.w3.org/2000/svg" height="24" width="24" viewBox="0 0 24 24"><title>flower rose</title><g stroke-linejoin="miter" fill="#212121" stroke-linecap="butt" class="nc-icon-wrapper"><line x1="12" y1="15" x2="12" y2="23" fill="none" stroke="#212121" stroke-linecap="square" stroke-miterlimit="10" stroke-width="2"></line><path d="M6,4V9A6,6,0,0,0,18,9V4" fill="none" stroke="#212121" stroke-miterlimit="10" stroke-width="2" data-cap="butt" data-color="color-2"></path><path d="M12,15a2,2,0,0,1-2-2c0-3,5-2,5-7.5" fill="none" stroke="#212121" stroke-miterlimit="10" stroke-width="2" data-cap="butt" data-color="color-2"></path><path d="M12,23a4,4,0,0,0-4-4,3.955,3.955,0,0,0-1.947.526A3.987,3.987,0,0,0,10,23Z" fill="none" stroke="#212121" stroke-linecap="square" stroke-miterlimit="10" stroke-width="2"></path><path d="M12,23a4,4,0,0,1,4-4,3.955,3.955,0,0,1,1.947.526A3.987,3.987,0,0,1,14,23Z" fill="none" stroke="#212121" stroke-linecap="square" stroke-miterlimit="10" stroke-width="2"></path><path d="M12,4c1.657,0,3,.672,3,1.5S13.657,7,12,7C8.686,7,6,5.657,6,4s2.686-3,6-3,6,1.343,6,3" fill="none" stroke="#212121" stroke-linecap="square" stroke-miterlimit="10" stroke-width="2" data-color="color-2"></path></g></svg>