<svg xmlns="http://www.w3.org/2000/svg" height="24" width="24" viewBox="0 0 24 24"><title>gaming console</title><g stroke-linejoin="miter" fill="#212121" stroke-linecap="butt" class="nc-icon-wrapper"><polyline points="13 8 13 1 23 1 23 23 20 23" fill="none" stroke="#212121" stroke-linecap="square" stroke-miterlimit="10" stroke-width="2" data-color="color-2"></polyline><line x1="18" y1="6" x2="18" y2="8" fill="none" stroke="#212121" stroke-linecap="square" stroke-miterlimit="10" stroke-width="2" data-color="color-2"></line><path d="M15.956,14.556A2.983,2.983,0,0,0,10.182,14H7.818a2.983,2.983,0,0,0-5.774.556S1,21.38,1,21.5a1.493,1.493,0,0,0,2.4,1.189L7.419,20h3.162L14.6,22.689A1.493,1.493,0,0,0,17,21.5C17,21.38,15.956,14.556,15.956,14.556Z" fill="none" stroke="#212121" stroke-linecap="square" stroke-miterlimit="10" stroke-width="2"></path><line x1="9" y1="10" x2="9" y2="6" fill="none" stroke="#212121" stroke-linecap="square" stroke-miterlimit="10" stroke-width="2"></line><circle cx="5" cy="16" r="1" fill="#212121" data-cap="butt" data-stroke="none" stroke="none"></circle><circle cx="13" cy="16" r="1" fill="#212121" data-cap="butt" data-stroke="none" stroke="none"></circle></g></svg>