<svg xmlns="http://www.w3.org/2000/svg" height="24" width="24" viewBox="0 0 24 24"><title>hair woman</title><g stroke-linejoin="miter" fill="#212121" stroke-linecap="butt" class="nc-icon-wrapper"><path d="M21,22.5C24,16,21,18,21,10A9,9,0,0,0,3,10c0,8-3,6,0,12.5" fill="none" stroke="#212121" stroke-linecap="square" stroke-miterlimit="10" stroke-width="2" data-color="color-2"></path><path d="M7,21.833l.329-.054A2,2,0,0,0,9,19.806V19" fill="none" stroke="#212121" stroke-linecap="square" stroke-miterlimit="10" stroke-width="2"></path><path d="M15,18.326v1.48a2,2,0,0,0,1.671,1.973l.329.054" fill="none" stroke="#212121" stroke-linecap="square" stroke-miterlimit="10" stroke-width="2"></path><path d="M16.958,15.094a3,3,0,0,1-.409-3.482l.435-.784a3,3,0,0,0-.348-3.413l-2.9-3.372A8,8,0,0,1,6,10l1.171,2.341a3,3,0,0,1-.284,3.142l-.16.213A6.571,6.571,0,0,0,12,19a6.638,6.638,0,0,0,5.369-3.457Z" fill="none" stroke="#212121" stroke-linecap="square" stroke-miterlimit="10" stroke-width="2"></path></g></svg>