<svg xmlns="http://www.w3.org/2000/svg" height="24" width="24" viewBox="0 0 24 24"><title>hair man</title><g stroke-linejoin="miter" fill="#212121" stroke-linecap="butt" class="nc-icon-wrapper"><path data-cap="butt" d="M19,9.5c0,4.694-3,9.5-7,9.5S5,14.194,5,9.5" fill="none" stroke="#212121" stroke-miterlimit="10" stroke-width="2"></path><path d="M3,22.5l4.329-.721A2,2,0,0,0,9,19.806V19" fill="none" stroke="#212121" stroke-linecap="square" stroke-miterlimit="10" stroke-width="2"></path><path d="M21,22.5l-4.329-.721A2,2,0,0,1,15,19.806V19" fill="none" stroke="#212121" stroke-linecap="square" stroke-miterlimit="10" stroke-width="2"></path><path data-color="color-2" d="M12,1C8.134,1,4,2,5,9.5c0,.336.02.673.05,1.008A4.982,4.982,0,0,1,10,6h2a3.975,3.975,0,0,0,3.056-1.447,4.992,4.992,0,0,0,4,4.357C19.756,1.964,15.759,1,12,1Z" fill="none" stroke="#212121" stroke-linecap="square" stroke-miterlimit="10" stroke-width="2"></path></g></svg>