<svg xmlns="http://www.w3.org/2000/svg" height="24" width="24" viewBox="0 0 24 24"><title>interview</title><g stroke-linejoin="miter" fill="#212121" stroke-linecap="butt" class="nc-icon-wrapper"><path d="M17.973,3.691a7.987,7.987,0,0,0-11.63-.348" fill="none" stroke="#212121" stroke-linecap="square" stroke-miterlimit="10" stroke-width="2" data-color="color-2"></path><path d="M14.978,6.353a3.975,3.975,0,0,0-5.806-.181" fill="none" stroke="#212121" stroke-linecap="square" stroke-miterlimit="10" stroke-width="2" data-color="color-2"></path><path d="M1,6a6,6,0,0,1,6,6v1.04L8.5,16.5,7,17v2a2,2,0,0,1-2,2H3v2" fill="none" stroke="#212121" stroke-linecap="square" stroke-miterlimit="10" stroke-width="2"></path><path d="M23,6a6,6,0,0,0-6,6v1.04L15.5,16.5,17,17v2a2,2,0,0,0,2,2h2v2" fill="none" stroke="#212121" stroke-linecap="square" stroke-miterlimit="10" stroke-width="2"></path></g></svg>