<svg xmlns="http://www.w3.org/2000/svg" height="24" width="24" viewBox="0 0 24 24"><title>lifering</title><g stroke-linejoin="miter" fill="#212121" stroke-linecap="butt" class="nc-icon-wrapper"><path data-cap="butt" fill="none" stroke="#212121" stroke-width="2" stroke-miterlimit="10" d="M2.2,10 C2.995,6.082,6.082,2.995,10,2.2" stroke-linejoin="miter" stroke-linecap="butt"></path> <path data-cap="butt" fill="none" stroke="#212121" stroke-width="2" stroke-miterlimit="10" d="M10,21.8 c-3.918-0.795-7.004-3.882-7.8-7.8" stroke-linejoin="miter" stroke-linecap="butt"></path> <path data-cap="butt" fill="none" stroke="#212121" stroke-width="2" stroke-miterlimit="10" d="M21.8,14 c-0.795,3.918-3.882,7.004-7.8,7.8" stroke-linejoin="miter" stroke-linecap="butt"></path> <path data-cap="butt" fill="none" stroke="#212121" stroke-width="2" stroke-miterlimit="10" d="M14,2.2 c3.918,0.795,7.004,3.882,7.8,7.8" stroke-linejoin="miter" stroke-linecap="butt"></path> <polyline data-cap="butt" data-color="color-2" fill="none" stroke="#212121" stroke-width="2" stroke-miterlimit="10" points="10,7.416 10,1 14,1 14,7.416 " stroke-linejoin="miter" stroke-linecap="butt"></polyline> <polyline data-cap="butt" data-color="color-2" fill="none" stroke="#212121" stroke-width="2" stroke-miterlimit="10" points="16.584,10 23,10 23,14 16.584,14 " stroke-linejoin="miter" stroke-linecap="butt"></polyline> <polyline data-cap="butt" data-color="color-2" fill="none" stroke="#212121" stroke-width="2" stroke-miterlimit="10" points="14,16.584 14,23 10,23 10,16.584 " stroke-linejoin="miter" stroke-linecap="butt"></polyline> <polyline data-cap="butt" data-color="color-2" fill="none" stroke="#212121" stroke-width="2" stroke-miterlimit="10" points="7.416,14 1,14 1,10 7.416,10 " stroke-linejoin="miter" stroke-linecap="butt"></polyline> <circle fill="none" stroke="#212121" stroke-width="2" stroke-linecap="square" stroke-miterlimit="10" cx="12" cy="12" r="5" stroke-linejoin="miter"></circle></g></svg>