<svg xmlns="http://www.w3.org/2000/svg" height="24" width="24" viewBox="0 0 24 24"><title>park</title><g stroke-linejoin="miter" fill="#212121" stroke-linecap="butt" class="nc-icon-wrapper"><line x1="1" y1="20" x2="14" y2="20" fill="none" stroke="#212121" stroke-linecap="square" stroke-miterlimit="10" stroke-width="2"></line><line x1="3" y1="20" x2="3" y2="23" fill="none" stroke="#212121" stroke-linecap="square" stroke-miterlimit="10" stroke-width="2"></line><line x1="12" y1="20" x2="12" y2="23" fill="none" stroke="#212121" stroke-linecap="square" stroke-miterlimit="10" stroke-width="2"></line><line x1="19" y1="23" x2="19" y2="11" fill="none" stroke="#212121" stroke-linecap="square" stroke-miterlimit="10" stroke-width="2" data-color="color-2"></line><rect x="3" y="12" width="9" height="4" fill="none" stroke="#212121" stroke-linecap="square" stroke-miterlimit="10" stroke-width="2"></rect><path d="M21.523,7.15A4.971,4.971,0,0,0,22,5c0-2.209-1.343-4-3-4s-3,1.791-3,4a4.971,4.971,0,0,0,.477,2.15A5.509,5.509,0,0,0,15,11c0,2.761,1.791,5,4,5s4-2.239,4-5A5.509,5.509,0,0,0,21.523,7.15Z" fill="none" stroke="#212121" stroke-linecap="square" stroke-miterlimit="10" stroke-width="2" data-color="color-2"></path></g></svg>