<svg xmlns="http://www.w3.org/2000/svg" height="24" width="24" viewBox="0 0 24 24"><title>profile</title><g stroke-linejoin="miter" fill="#212121" stroke-linecap="butt" class="nc-icon-wrapper"><path d="M16,5c0-2.209-1.791-4-4-4s-4,1.791-4,4v2c0,2.209,1.791,4,4,4s4-1.791,4-4v-2Z" fill="none" stroke="#212121" stroke-linecap="square" stroke-miterlimit="10" stroke-width="2" data-color="color-2"></path><path d="M19.643,17.249c-.415-1.451-1.604-2.556-3.087-2.831-1.316-.244-2.848-.419-4.556-.419-1.222,0-2.78,.09-4.556,.419-1.481,.274-2.674,1.383-3.087,2.831l-1.357,4.75c2.364,.532,5.423,1,9,1s6.636-.468,9-1l-1.357-4.75Z" fill="none" stroke="#212121" stroke-linecap="square" stroke-miterlimit="10" stroke-width="2"></path></g></svg>