<svg xmlns="http://www.w3.org/2000/svg" height="24" width="24" viewBox="0 0 24 24"><title>salad</title><g stroke-linejoin="miter" fill="#212121" stroke-linecap="butt" class="nc-icon-wrapper"><path d="M7.663,22h8.674A9.99,9.99,0,0,0,22,13H2A9.99,9.99,0,0,0,7.663,22Z" fill="none" stroke="#212121" stroke-linecap="square" stroke-miterlimit="10" stroke-width="2"></path> <path d="M3,2H3A5,5,0,0,1,8,7V9A0,0,0,0,1,8,9H8A5,5,0,0,1,3,4V2A0,0,0,0,1,3,2Z" transform="translate(11 11) rotate(180)" fill="none" stroke="#212121" stroke-linecap="square" stroke-miterlimit="10" stroke-width="2" data-color="color-2"></path> <path d="M20,9a3,3,0,0,0-3-3,4,4,0,0,0-6.646-3" fill="none" stroke="#212121" stroke-linecap="square" stroke-miterlimit="10" stroke-width="2" data-color="color-2"></path></g></svg>