<svg xmlns="http://www.w3.org/2000/svg" height="24" width="24" viewBox="0 0 24 24"><title>selfie 2</title><g stroke-linejoin="miter" fill="#212121" stroke-linecap="butt" class="nc-icon-wrapper"><circle cx="10" cy="9" r="2" fill="#212121" data-cap="butt" data-color="color-2" data-stroke="none" stroke="none"></circle><path d="M10,12a4,4,0,0,0-4,4h8A4,4,0,0,0,10,12Z" fill="#212121" data-cap="butt" data-color="color-2" data-stroke="none" stroke="none"></path><path d="M9.5,16H2a1,1,0,0,1-1-1V5A1,1,0,0,1,2,4h9.5" fill="none" stroke="#212121" stroke-linecap="square" stroke-miterlimit="10" stroke-width="2"></path><path d="M22,3,17,1H11.5a1.5,1.5,0,0,0,0,3H15l4,2v8a2,2,0,0,1-2,2H9.5a1.5,1.5,0,0,0-.26,2.974L15,20l3,2" fill="none" stroke="#212121" stroke-linecap="square" stroke-miterlimit="10" stroke-width="2"></path></g></svg>