<svg xmlns="http://www.w3.org/2000/svg" height="24" width="24" viewBox="0 0 24 24"><title>theater</title><g stroke-linejoin="miter" fill="#212121" stroke-linecap="butt" class="nc-icon-wrapper"><line x1="18" y1="12" x2="19" y2="12" fill="none" stroke="#212121" stroke-linecap="square" stroke-miterlimit="10" stroke-width="2" data-color="color-2"></line><line x1="5" y1="8" x2="6" y2="8" fill="none" stroke="#212121" stroke-linecap="square" stroke-miterlimit="10" stroke-width="2"></line><line x1="10" y1="8" x2="11" y2="8" fill="none" stroke="#212121" stroke-linecap="square" stroke-miterlimit="10" stroke-width="2"></line><path d="M11.5,21.356A7,7,0,0,0,23,16V6.221a21.188,21.188,0,0,0-5-1.116" fill="none" stroke="#212121" stroke-linecap="square" stroke-miterlimit="10" stroke-width="2" data-color="color-2"></path><path d="M1,12V2.221a20.676,20.676,0,0,1,14,0V12A7,7,0,0,1,1,12Z" fill="none" stroke="#212121" stroke-linecap="square" stroke-miterlimit="10" stroke-width="2"></path><path d="M11,13a3,3,0,0,1-6,0Z" fill="#212121" data-cap="butt" data-stroke="none" stroke="none"></path><path d="M18.121,18.879A2.991,2.991,0,0,0,16,18" fill="none" stroke="#212121" stroke-linecap="square" stroke-miterlimit="10" stroke-width="2" data-color="color-2"></path></g></svg>