<svg xmlns="http://www.w3.org/2000/svg" height="24" width="24" viewBox="0 0 24 24"><title>trumpet</title><g stroke-linejoin="miter" fill="#212121" stroke-linecap="butt" class="nc-icon-wrapper"><line x1="11.485" y1="18.172" x2="10.778" y2="17.464" fill="none" stroke="#212121" stroke-linecap="square" stroke-miterlimit="10" stroke-width="2" data-color="color-2"></line><line x1="14.314" y1="15.343" x2="13.607" y2="14.636" fill="none" stroke="#212121" stroke-linecap="square" stroke-miterlimit="10" stroke-width="2" data-color="color-2"></line><line x1="8.657" y1="15.343" x2="7.243" y2="13.929" fill="none" stroke="#212121" stroke-linecap="square" stroke-miterlimit="10" stroke-width="2" data-color="color-2"></line><line x1="11.485" y1="12.515" x2="10.071" y2="11.101" fill="none" stroke="#212121" stroke-linecap="square" stroke-miterlimit="10" stroke-width="2" data-color="color-2"></line><line x1="1.586" y1="19.586" x2="4.414" y2="22.414" fill="none" stroke="#212121" stroke-linecap="square" stroke-miterlimit="10" stroke-width="2"></line><path d="M15.913,1.64a8.987,8.987,0,0,1-2.306,8.753A8.989,8.989,0,0,1,22.36,8.086a.094.094,0,0,0,.095-.158L16.072,1.545A.1.1,0,0,0,15.913,1.64Z" fill="none" stroke="#212121" stroke-linecap="square" stroke-miterlimit="10" stroke-width="2"></path><path d="M8.657,15.343A4,4,0,0,0,14.314,21l2.828-2.828A3.964,3.964,0,0,0,16.4,11.94" fill="none" stroke="#212121" stroke-linecap="square" stroke-miterlimit="10" stroke-width="2"></path><line x1="3" y1="21" x2="13.607" y2="10.393" fill="none" stroke="#212121" stroke-linecap="square" stroke-miterlimit="10" stroke-width="2"></line></g></svg>