<svg xmlns="http://www.w3.org/2000/svg" height="24" width="24" viewBox="0 0 24 24"><title>vacuum cleaner</title><g stroke-linejoin="miter" fill="#212121" stroke-linecap="butt" class="nc-icon-wrapper"><circle cx="11" cy="21" r="2" fill="none" stroke="#212121" stroke-linecap="square" stroke-miterlimit="10" stroke-width="2" data-color="color-2"></circle><polygon points="23 21 20 19 17 21 17 23 23 23 23 21" fill="none" stroke="#212121" stroke-linecap="square" stroke-miterlimit="10" stroke-width="2" data-color="color-2"></polygon><path d="M6,23H3a2,2,0,0,1-2-2V15A6,6,0,0,1,7,9h4v6h0" fill="none" stroke="#212121" stroke-linecap="square" stroke-miterlimit="10" stroke-width="2"></path><line x1="20" y1="19" x2="20" y2="13" fill="none" stroke="#212121" stroke-linecap="square" stroke-miterlimit="10" stroke-width="2" data-color="color-2"></line><path d="M11,9V5.5a4.5,4.5,0,0,1,9,0V9" fill="none" stroke="#212121" stroke-linecap="square" stroke-miterlimit="10" stroke-width="2"></path><path d="M7,9v4a4,4,0,0,1-4,4H1" fill="none" stroke="#212121" stroke-miterlimit="10" stroke-width="2" data-cap="butt"></path></g></svg>