<svg xmlns="http://www.w3.org/2000/svg" height="24" width="24" viewBox="0 0 24 24"><title>watering plants</title><g stroke-linejoin="miter" fill="#212121" stroke-linecap="butt" class="nc-icon-wrapper"><path d="M19,6c0,1.105-.895,2-2,2s-2-.895-2-2c0-2,2-4,2-4,0,0,2,2,2,4Z" fill="none" stroke="#212121" stroke-linecap="square" stroke-miterlimit="10" stroke-width="2" data-color="color-2"></path><path d="M8,6c1.105,0,2-.839,2-1.875,0-1.429-2-3.125-2-3.125,0,0-2,1.696-2,3.125,0,1.036,.895,1.875,2,1.875Z" fill="none" stroke="#212121" stroke-linecap="square" stroke-miterlimit="10" stroke-width="2" data-color="color-2"></path><path d="M13,20c4.418,0,8-3.582,8-8h-4c-3.314,0-6,2.686-6,6v2h2Z" fill="none" stroke="#212121" stroke-linecap="square" stroke-miterlimit="10" stroke-width="2"></path><line x1="11" y1="23" x2="11" y2="20" fill="none" stroke="#212121" stroke-linecap="square" stroke-miterlimit="10" stroke-width="2"></line><path d="M11,23V15c0-2.761-2.239-5-5-5H3c0,3.314,2.686,6,6,6h2" fill="none" stroke="#212121" stroke-linecap="square" stroke-miterlimit="10" stroke-width="2"></path></g></svg>