<svg xmlns="http://www.w3.org/2000/svg" height="32" width="32" viewBox="0 0 32 32"><title>banana</title><g stroke-linejoin="miter" fill="#212121" stroke-linecap="butt" class="nc-icon-wrapper"><path data-cap="butt" data-color="color-2" fill="none" stroke="#212121" stroke-width="2" stroke-miterlimit="10" d="M6.206,10.811 c1.703,1.233,3.917,2.07,7.052,2.628c8.916,1.588,13.315-0.899,14.643-1.577s3.057,1.71,2.178,4.211 c-0.383,1.088-1.466,2.198-3.078,3.216"></path> <path fill="none" stroke="#212121" stroke-width="2" stroke-linecap="square" stroke-miterlimit="10" d="M5.055,2.763 c0.597,8.365,1.28,12.718,9.56,16.388s13.145,2.305,14.596,1.963c1.451-0.341,2.561,2.39,1.11,4.609 c-1.451,2.219-6.572,3.67-12.889,3.5C11.115,29.053,3.02,25.739,1.47,19.066C0.241,13.774,1.811,8.14,1.811,8.14L1.641,3.19 L5.055,2.763z"></path></g></svg>