<svg xmlns="http://www.w3.org/2000/svg" height="32" width="32" viewBox="0 0 32 32"><title>barcode qr</title><g stroke-linejoin="miter" fill="#212121" stroke-linecap="butt" class="nc-icon-wrapper"><polygon fill="none" stroke="#212121" stroke-width="2" stroke-linecap="square" stroke-miterlimit="10" points="11,11 1,11 1,1 11,1 11,1 " stroke-linejoin="miter"></polygon> <rect data-color="color-2" x="5" y="5" fill="none" stroke="#212121" stroke-width="2" stroke-linecap="square" stroke-miterlimit="10" width="2" height="2" stroke-linejoin="miter"></rect> <polygon fill="none" stroke="#212121" stroke-width="2" stroke-linecap="square" stroke-miterlimit="10" points="11,31 1,31 1,21 11,21 11,21 " stroke-linejoin="miter"></polygon> <rect data-color="color-2" x="5" y="25" fill="none" stroke="#212121" stroke-width="2" stroke-linecap="square" stroke-miterlimit="10" width="2" height="2" stroke-linejoin="miter"></rect> <polygon fill="none" stroke="#212121" stroke-width="2" stroke-linecap="square" stroke-miterlimit="10" points="31,11 21,11 21,1 31,1 31,1 " stroke-linejoin="miter"></polygon> <rect data-color="color-2" x="25" y="5" fill="none" stroke="#212121" stroke-width="2" stroke-linecap="square" stroke-miterlimit="10" width="2" height="2" stroke-linejoin="miter"></rect> <polyline fill="none" stroke="#212121" stroke-width="2" stroke-linecap="square" stroke-miterlimit="10" points="31,31 22,31 22,27 16,27 16,25 " stroke-linejoin="miter"></polyline> <polyline fill="none" stroke="#212121" stroke-width="2" stroke-linecap="square" stroke-miterlimit="10" points="20,22 27,22 27,16 31,16 " stroke-linejoin="miter"></polyline> <polyline fill="none" stroke="#212121" stroke-width="2" stroke-linecap="square" stroke-miterlimit="10" points="2,14 2,16 8,16 8,18 " stroke-linejoin="miter"></polyline> <polyline fill="none" stroke="#212121" stroke-width="2" stroke-linecap="square" stroke-miterlimit="10" points="18,2 18,6 15,6 15,16 22,16 22,18 " stroke-linejoin="miter"></polyline> <line fill="none" stroke="#212121" stroke-width="2" stroke-linecap="square" stroke-miterlimit="10" x1="27" y1="22" x2="31" y2="22" stroke-linejoin="miter"></line> <polyline fill="none" stroke="#212121" stroke-width="2" stroke-linecap="square" stroke-miterlimit="10" points="27,31 27,28 29,28 29,26 " stroke-linejoin="miter"></polyline> <line fill="none" stroke="#212121" stroke-width="2" stroke-linecap="square" stroke-miterlimit="10" x1="16" y1="27" x2="16" y2="31" stroke-linejoin="miter"></line> <line fill="none" stroke="#212121" stroke-width="2" stroke-linecap="square" stroke-miterlimit="10" x1="8" y1="16" x2="10" y2="16" stroke-linejoin="miter"></line> <line fill="none" stroke="#212121" stroke-width="2" stroke-linecap="square" stroke-miterlimit="10" x1="29" y1="16" x2="29" y2="14" stroke-linejoin="miter"></line> <rect x="15" y="16" fill="none" stroke="#212121" stroke-width="2" stroke-linecap="square" stroke-miterlimit="10" width="2" height="3" stroke-linejoin="miter"></rect> <line fill="none" stroke="#212121" stroke-width="2" stroke-linecap="square" stroke-miterlimit="10" x1="17" y1="11" x2="15" y2="11" stroke-linejoin="miter"></line> <line fill="none" stroke="#212121" stroke-width="2" stroke-linecap="square" stroke-miterlimit="10" x1="29" y1="28" x2="29" y2="31" stroke-linejoin="miter"></line></g></svg>