<svg xmlns="http://www.w3.org/2000/svg" height="32" width="32" viewBox="0 0 32 32"><title>bicep</title><g stroke-linejoin="miter" fill="#212121" stroke-linecap="butt" class="nc-icon-wrapper"><path d="M8.818,9.182a28.6,28.6,0,0,0,.351,5.079c.506,2.239,2.71,4.575,3.11,5.6,2.164-2.564,9.714-5.46,14.353-3.027,5.319,3.434,4.869,9.2,1.4,11.718a17.706,17.706,0,0,1-8.942,2.431c-3.58.09-6.164-.282-7.289-.845-1.858.238-5.782.21-7.385-1.422-1.1-1.119-3.347-7.542-2-14.394C3.846,7.09,6.231,1,8.807,1c1.262,0,3.313.042,4.27.818s.269,3.092-.031,3.409a1.642,1.642,0,0,1,.328,2.205A6.265,6.265,0,0,1,10.455,9.3,3.888,3.888,0,0,1,8.818,9.182Z" fill="none" stroke="#212121" stroke-linecap="square" stroke-miterlimit="10" stroke-width="2"></path> <path d="M15.637,24.182a12.625,12.625,0,0,0,9.545-1.364" fill="none" stroke="#212121" stroke-linecap="square" stroke-miterlimit="10" stroke-width="2" data-color="color-2"></path></g></svg>