<svg xmlns="http://www.w3.org/2000/svg" height="32" width="32" viewBox="0 0 32 32"><title>blockchain</title><g stroke-linejoin="miter" fill="#212121" stroke-linecap="butt" class="nc-icon-wrapper"><polyline points="2 6.5 9 10 16 6.5" fill="none" stroke="#212121" stroke-miterlimit="10" stroke-width="2" data-cap="butt"></polyline><line x1="9" y1="10" x2="9" y2="18.5" fill="none" stroke="#212121" stroke-miterlimit="10" stroke-width="2" data-cap="butt"></line><polygon points="16 6.5 9 2.999 2 6.5 2 15 9 18.5 16 15 16 6.5" fill="none" stroke="#212121" stroke-linecap="square" stroke-miterlimit="10" stroke-width="2"></polygon><polyline points="16 6.5 23 10 30 6.5" fill="none" stroke="#212121" stroke-miterlimit="10" stroke-width="2" data-cap="butt"></polyline><line x1="23" y1="10" x2="23" y2="18.5" fill="none" stroke="#212121" stroke-miterlimit="10" stroke-width="2" data-cap="butt"></line><polygon points="30 6.5 23 2.999 16 6.5 16 15 23 18.5 30 15 30 6.5" fill="none" stroke="#212121" stroke-linecap="square" stroke-miterlimit="10" stroke-width="2"></polygon><polyline points="9 18.5 16 22 23 18.5" fill="none" stroke="#212121" stroke-miterlimit="10" stroke-width="2" data-cap="butt" data-color="color-2"></polyline><line x1="16" y1="22" x2="16" y2="30.5" fill="none" stroke="#212121" stroke-miterlimit="10" stroke-width="2" data-cap="butt" data-color="color-2"></line><polygon points="23 18.5 16 14.999 9 18.5 9 27 16 30.5 23 27 23 18.5" fill="none" stroke="#212121" stroke-linecap="square" stroke-miterlimit="10" stroke-width="2" data-color="color-2"></polygon></g></svg>