<svg xmlns="http://www.w3.org/2000/svg" height="32" width="32" viewBox="0 0 32 32"><title>bouquet</title><g stroke-linejoin="miter" fill="#212121" stroke-linecap="butt" class="nc-icon-wrapper"><path d="M29,13.769a2.627,2.627,0,0,0-3.714,0,2.627,2.627,0,0,1-3.715,0,2.627,2.627,0,0,0-3.714,0,2.625,2.625,0,0,1-3.714,0,2.627,2.627,0,0,0-3.714,0,2.627,2.627,0,0,1-3.715,0,2.627,2.627,0,0,0-3.714,0L14,25h4Z" fill="none" stroke="#212121" stroke-linecap="square" stroke-miterlimit="10" stroke-width="2"></path><polyline points="14 25 12 31 20 31 18 25" fill="none" stroke="#212121" stroke-linecap="square" stroke-miterlimit="10" stroke-width="2"></polyline><path d="M8,4a3,3,0,0,0,0,6,2.968,2.968,0,0,0,1.467-.4" fill="none" stroke="#212121" stroke-linecap="square" stroke-miterlimit="10" stroke-width="2" data-color="color-2"></path><path d="M24,4a3,3,0,0,1,0,6,2.968,2.968,0,0,1-1.467-.4" fill="none" stroke="#212121" stroke-linecap="square" stroke-miterlimit="10" stroke-width="2" data-color="color-2"></path><path d="M15.223,3.346A8.291,8.291,0,0,1,21,1V5A5,5,0,0,1,11,5V1a5,5,0,0,1,5,5" fill="none" stroke="#212121" stroke-miterlimit="10" stroke-width="2" data-cap="butt" data-color="color-2"></path></g></svg>