<svg xmlns="http://www.w3.org/2000/svg" height="32" width="32" viewBox="0 0 32 32"><title>child</title><g stroke-linejoin="miter" fill="#212121" stroke-linecap="butt" class="nc-icon-wrapper"><path d="M28,12c-.225,.001-.449,.029-.668,.081-2.157-6.258-8.979-9.584-15.237-7.427-3.486,1.201-6.225,3.941-7.427,7.427-.219-.052-.443-.08-.668-.081-1.657,0-3,1.343-3,3s1.343,3,3,3c.061,0,.117-.014,.177-.018,1.088,6.53,7.263,10.941,13.793,9.853,5.052-.842,9.011-4.801,9.853-9.853,.06,0,.116,.018,.177,.018,1.657,0,3-1.343,3-3s-1.343-3-3-3Z" fill="none" stroke="#212121" stroke-linecap="square" stroke-miterlimit="10" stroke-width="2"></path><circle cx="11.5" cy="14.5" r="1.5" fill="#212121" data-cap="butt" data-color="color-2" data-stroke="none" stroke="none"></circle><circle cx="20.5" cy="14.5" r="1.5" fill="#212121" data-cap="butt" data-color="color-2" data-stroke="none" stroke="none"></circle><path d="M16,4c-1.657,0-3,1.343-3.001,2.999,0,1.657,1.343,3,2.999,3.001,.796,0,1.559-.316,2.122-.879" fill="none" stroke="#212121" stroke-miterlimit="10" stroke-width="2" data-cap="butt"></path><path d="M16,23c2.209,0,4-1.791,4-4H12c0,2.209,1.791,4,4,4Z" fill="none" stroke="#212121" stroke-linecap="square" stroke-miterlimit="10" stroke-width="2" data-color="color-2"></path></g></svg>