<svg xmlns="http://www.w3.org/2000/svg" height="32" width="32" viewBox="0 0 32 32"><title>deer</title><g stroke-linejoin="miter" fill="#212121" stroke-linecap="butt" class="nc-icon-wrapper"><path data-cap="butt" data-color="color-2" fill="none" stroke="#212121" stroke-width="2" stroke-miterlimit="10" d="M10.3864794,9H3 C1.8954304,9,1,8.1045694,1,7V1" stroke-linejoin="miter" stroke-linecap="butt"></path> <line data-cap="butt" data-color="color-2" fill="none" stroke="#212121" stroke-width="2" stroke-miterlimit="10" x1="6" y1="9" x2="6" y2="4" stroke-linejoin="miter" stroke-linecap="butt"></line> <path data-cap="butt" data-color="color-2" fill="none" stroke="#212121" stroke-width="2" stroke-miterlimit="10" d="M21.6135197,9H29 c1.1045704,0,2-0.8954306,2-2V1" stroke-linejoin="miter" stroke-linecap="butt"></path> <line data-cap="butt" data-color="color-2" fill="none" stroke="#212121" stroke-width="2" stroke-miterlimit="10" x1="26" y1="9" x2="26" y2="4" stroke-linejoin="miter" stroke-linecap="butt"></line> <line data-cap="butt" fill="none" stroke="#212121" stroke-width="2" stroke-miterlimit="10" x1="16" y1="26" x2="16" y2="31" stroke-linejoin="miter" stroke-linecap="butt"></line> <path data-cap="butt" fill="none" stroke="#212121" stroke-width="2" stroke-miterlimit="10" d="M7.0260582,17h-2.026062 C2.7908592,17,1,15.2091408,1,13.0000038V13h6.3205266" stroke-linejoin="miter" stroke-linecap="butt"></path> <path data-cap="butt" fill="none" stroke="#212121" stroke-width="2" stroke-miterlimit="10" d="M24.9739418,17h2.026062 C29.2091408,17,31,15.2091408,31,13.0000038V13h-6.3205261" stroke-linejoin="miter" stroke-linecap="butt"></path> <path fill="none" stroke="#212121" stroke-width="2" stroke-linecap="square" stroke-miterlimit="10" d="M7,16 c0-6.0249243,2.9750757-8,9-8s9,1.9750757,9,8s-2.9750748,15-9,15S7,22.0249252,7,16z" stroke-linejoin="miter"></path> <circle fill="none" stroke="#212121" stroke-width="2" stroke-linecap="square" stroke-miterlimit="10" cx="16" cy="23" r="3" stroke-linejoin="miter"></circle> <path fill="none" stroke="#212121" stroke-width="2" stroke-linecap="square" stroke-miterlimit="10" d="M10,16 c0-1.1045694,0.8954306-2,2-2s2,0.8954306,2,2" stroke-linejoin="miter"></path> <path fill="none" stroke="#212121" stroke-width="2" stroke-linecap="square" stroke-miterlimit="10" d="M18,16 c0-1.1045694,0.8954296-2,2-2s2,0.8954306,2,2" stroke-linejoin="miter"></path></g></svg>