<svg xmlns="http://www.w3.org/2000/svg" height="32" width="32" viewBox="0 0 32 32"><title>drums</title><g stroke-linejoin="miter" fill="#212121" stroke-linecap="butt" class="nc-icon-wrapper"><path d="M2,12V24c0,3.314,6.268,6,14,6s14-2.686,14-6V12" fill="none" stroke="#212121" stroke-miterlimit="10" stroke-width="2" data-cap="butt"></path><line x1="20" y1="29.751" x2="20" y2="21.748" fill="none" stroke="#212121" stroke-miterlimit="10" stroke-width="2" data-cap="butt"></line><line x1="12" y1="29.751" x2="12" y2="21.748" fill="none" stroke="#212121" stroke-miterlimit="10" stroke-width="2" data-cap="butt"></line><line x1="6" y1="20.274" x2="6" y2="28.199" fill="none" stroke="#212121" stroke-miterlimit="10" stroke-width="2" data-cap="butt"></line><line x1="26" y1="20.275" x2="25.997" y2="28.2" fill="none" stroke="#212121" stroke-miterlimit="10" stroke-width="2" data-cap="butt"></line><path d="M2,18.1C5.066,20.455,10.19,22,16,22s10.934-1.545,14-3.9" fill="none" stroke="#212121" stroke-miterlimit="10" stroke-width="2" data-cap="butt"></path><line x1="29" y1="2" x2="9" y2="12" fill="none" stroke="#212121" stroke-linecap="square" stroke-miterlimit="10" stroke-width="2" data-color="color-2"></line><line x1="3" y1="2" x2="23" y2="12" fill="none" stroke="#212121" stroke-linecap="square" stroke-miterlimit="10" stroke-width="2" data-color="color-2"></line><path d="M24.941,7.384C28.031,8.484,30,10.143,30,12c0,3.314-6.268,6-14,6S2,15.314,2,12c0-1.857,1.969-3.516,5.059-4.616" fill="none" stroke="#212121" stroke-miterlimit="10" stroke-width="2" data-cap="butt"></path></g></svg>