<svg xmlns="http://www.w3.org/2000/svg" height="32" width="32" viewBox="0 0 32 32"><title>ecology</title><g stroke-linejoin="miter" fill="#212121" stroke-linecap="butt" class="nc-icon-wrapper"><polyline points="6.977 4.016 9.238 6.654 11.105 8.989 10.917 12.197 7.182 12.888 4.55 16 5.777 18.547 6.962 20.67 9.756 22.833 7.926 25.61 5.471 26.683" fill="none" stroke="#212121" stroke-miterlimit="10" stroke-width="2" data-cap="butt"></polyline><polyline points="28.059 7.078 25.836 8.49 22.991 8.461 20.827 9.323 18.912 8.002 18.267 5.574 16.484 3.7 14.609 2.364 14.569 1.067" fill="none" stroke="#212121" stroke-miterlimit="10" stroke-width="2" data-cap="butt"></polyline><path d="M29.665,9.837A14.993,14.993,0,1,0,12,30.444" fill="none" stroke="#212121" stroke-linecap="square" stroke-miterlimit="10" stroke-width="2"></path><path d="M31,12.982A9.974,9.974,0,0,1,23,17a5,5,0,0,0,0,10,8,8,0,0,0,8-8Z" fill="none" stroke="#212121" stroke-linecap="square" stroke-miterlimit="10" stroke-width="2" data-color="color-2"></path><path d="M26,20c-3,1-5,3.239-5,6a5,5,0,0,1-5,5" fill="none" stroke="#212121" stroke-linecap="square" stroke-miterlimit="10" stroke-width="2" data-color="color-2"></path></g></svg>