<svg xmlns="http://www.w3.org/2000/svg" height="32" width="32" viewBox="0 0 32 32"><title>energy</title><g stroke-linejoin="miter" fill="#212121" stroke-linecap="butt" class="nc-icon-wrapper"><path d="M19,13s1.3-7.669-4-11a9.4,9.4,0,0,1-3.525,6.8c-2.264,2-6.52,6.484-6.475,11.28.037,3.875,2.145,8.615,7.011,10.3-.007-.1-.011-.2-.011-.3a7.393,7.393,0,0,1,1.947-4.793,5.939,5.939,0,0,0,1.734-3.717c2.863,1.594,4.319,5.8,4.319,8.3,0,.146,0,.293-.014.439a10.294,10.294,0,0,0,6.974-9.341C27.357,16.2,24.742,12.077,23,9.9" fill="none" stroke="#212121" stroke-linecap="square" stroke-miterlimit="10" stroke-width="2"></path></g></svg>