<svg xmlns="http://www.w3.org/2000/svg" height="32" width="32" viewBox="0 0 32 32"><title>face recognition</title><g stroke-linejoin="miter" fill="#212121" stroke-linecap="butt" class="nc-icon-wrapper"><polyline points="2 8 2 2 8 2" fill="none" stroke="#212121" stroke-linecap="square" stroke-miterlimit="10" stroke-width="2" data-color="color-2"></polyline><polyline points="30 8 30 2 24 2" fill="none" stroke="#212121" stroke-linecap="square" stroke-miterlimit="10" stroke-width="2" data-color="color-2"></polyline><polyline points="2 24 2 30 8 30" fill="none" stroke="#212121" stroke-linecap="square" stroke-miterlimit="10" stroke-width="2" data-color="color-2"></polyline><polyline points="30 24 30 30 24 30" fill="none" stroke="#212121" stroke-linecap="square" stroke-miterlimit="10" stroke-width="2" data-color="color-2"></polyline><path d="M7,26l4.632-1.544A2,2,0,0,0,13,22.558V21.243C10.187,19.678,9,15.97,9,13V12a7,7,0,0,1,14,0v1c0,2.97-1.187,6.678-4,8.243v1.315a2,2,0,0,0,1.368,1.9L25,26" fill="none" stroke="#212121" stroke-linecap="square" stroke-miterlimit="10" stroke-width="2"></path></g></svg>