<svg xmlns="http://www.w3.org/2000/svg" height="32" width="32" viewBox="0 0 32 32"><title>farmer market</title><g stroke-linejoin="miter" fill="#212121" stroke-linecap="butt" class="nc-icon-wrapper"><line x1="4" y1="17" x2="4" y2="7" fill="none" stroke="#212121" stroke-linecap="square" stroke-miterlimit="10" stroke-width="2"></line><line x1="28" y1="17" x2="28" y2="7" fill="none" stroke="#212121" stroke-linecap="square" stroke-miterlimit="10" stroke-width="2"></line><line x1="10.5" y1="2" x2="8.5" y2="7" fill="none" stroke="#212121" stroke-miterlimit="10" stroke-width="2" data-cap="butt"></line><line x1="21.5" y1="2" x2="23.5" y2="7" fill="none" stroke="#212121" stroke-miterlimit="10" stroke-width="2" data-cap="butt"></line><line x1="16" y1="2" x2="16" y2="7" fill="none" stroke="#212121" stroke-miterlimit="10" stroke-width="2" data-cap="butt"></line><rect x="16" y="12" width="7" height="5" fill="none" stroke="#212121" stroke-miterlimit="10" stroke-width="2" data-cap="butt" data-color="color-2"></rect><rect x="9" y="12" width="7" height="5" fill="none" stroke="#212121" stroke-miterlimit="10" stroke-width="2" data-cap="butt" data-color="color-2"></rect><circle cx="8" cy="27.5" r="2.5" fill="none" stroke="#212121" stroke-miterlimit="10" stroke-width="2" data-cap="butt"></circle><polyline points="31 30 31 21 1 21 1 28 5.552 28 5 28" fill="none" stroke="#212121" stroke-linecap="square" stroke-miterlimit="10" stroke-width="2"></polyline><polyline points="11 28 10.448 28 31 28" fill="none" stroke="#212121" stroke-linecap="square" stroke-miterlimit="10" stroke-width="2"></polyline><polygon points="30 7 2 7 4.5 2 27.5 2 30 7" fill="none" stroke="#212121" stroke-linecap="square" stroke-miterlimit="10" stroke-width="2"></polygon></g></svg>