<svg xmlns="http://www.w3.org/2000/svg" height="32" width="32" viewBox="0 0 32 32"><title>finger snap</title><g stroke-linejoin="miter" fill="#212121" stroke-linecap="butt" class="nc-icon-wrapper"><path d="M18.145,27.039,20,19h8.356a2.6,2.6,0,0,0,2.631-2.242A2.5,2.5,0,0,0,28.5,14H11.174a1,1,0,0,1-.759-1.65l3.923-4.577A2.755,2.755,0,0,0,15,5.982h0a2.751,2.751,0,0,0-4.542-2.089L1,12V28l11.06,2.765A5,5,0,0,0,18.145,27.039Z" fill="none" stroke="#212121" stroke-linecap="square" stroke-miterlimit="10" stroke-width="2"></path><line x1="28" y1="2" x2="23" y2="7" fill="none" stroke="#212121" stroke-linecap="square" stroke-miterlimit="10" stroke-width="2" data-color="color-2"></line><line x1="19" y1="6" x2="20" y2="2" fill="none" stroke="#212121" stroke-linecap="square" stroke-miterlimit="10" stroke-width="2" data-color="color-2"></line><line x1="24" y1="11" x2="28" y2="10" fill="none" stroke="#212121" stroke-linecap="square" stroke-miterlimit="10" stroke-width="2"></line></g></svg>