<svg xmlns="http://www.w3.org/2000/svg" height="32" width="32" viewBox="0 0 32 32"><title>flower rose</title><g stroke-linejoin="miter" fill="#212121" stroke-linecap="butt" class="nc-icon-wrapper"><line x1="16" y1="20" x2="16" y2="31" fill="none" stroke="#212121" stroke-linecap="square" stroke-miterlimit="10" stroke-width="2"></line><path d="M8,5v7a8,8,0,0,0,16,0V5" fill="none" stroke="#212121" stroke-miterlimit="10" stroke-width="2" data-cap="butt" data-color="color-2"></path><path d="M20,6.5C20,7.881,18.209,9,16,9,11.582,9,8,7.209,8,5s3.582-4,8-4,8,1.791,8,4" fill="none" stroke="#212121" stroke-miterlimit="10" stroke-width="2" data-cap="butt" data-color="color-2"></path><path d="M16,20a3,3,0,0,1-3-3c0-4,7-5,7-10.5C20,5.119,18.209,4,16,4a5.273,5.273,0,0,0-3,.846" fill="none" stroke="#212121" stroke-miterlimit="10" stroke-width="2" data-cap="butt" data-color="color-2"></path><path d="M15.975,31A5.488,5.488,0,0,0,8.1,26.555,5.5,5.5,0,0,0,13.5,31Z" fill="none" stroke="#212121" stroke-linecap="square" stroke-miterlimit="10" stroke-width="2"></path><path d="M16.025,31A5.488,5.488,0,0,1,23.9,26.555,5.5,5.5,0,0,1,18.5,31Z" fill="none" stroke="#212121" stroke-linecap="square" stroke-miterlimit="10" stroke-width="2"></path></g></svg>