<svg xmlns="http://www.w3.org/2000/svg" height="32" width="32" viewBox="0 0 32 32"><title>gaming console</title><g stroke-linejoin="miter" fill="#212121" stroke-linecap="butt" class="nc-icon-wrapper"><polyline points="17 12 17 1 31 1 31 31 27 31" fill="none" stroke="#212121" stroke-linecap="square" stroke-miterlimit="10" stroke-width="2" data-color="color-2"></polyline><line x1="24" y1="8" x2="24" y2="12" fill="none" stroke="#212121" stroke-linecap="square" stroke-miterlimit="10" stroke-width="2" data-color="color-2"></line><line x1="12" y1="14" x2="12" y2="8" fill="none" stroke="#212121" stroke-linecap="square" stroke-miterlimit="10" stroke-width="2"></line><path d="M21.45,19.5A3.974,3.974,0,0,0,14.055,18H9.945A3.974,3.974,0,0,0,2.55,19.5S1,28.956,1,29a2,2,0,0,0,3.157,1.627L9.5,27h5l5.343,3.627A2,2,0,0,0,23,29C23,28.956,21.45,19.5,21.45,19.5Z" fill="none" stroke="#212121" stroke-linecap="square" stroke-miterlimit="10" stroke-width="2"></path><circle cx="6.5" cy="20.5" r="1.5" fill="#212121" data-cap="butt" data-stroke="none" stroke="none"></circle><circle cx="17.5" cy="20.5" r="1.5" fill="#212121" data-cap="butt" data-stroke="none" stroke="none"></circle></g></svg>