<svg xmlns="http://www.w3.org/2000/svg" height="32" width="32" viewBox="0 0 32 32"><title>hair woman</title><g stroke-linejoin="miter" fill="#212121" stroke-linecap="butt" class="nc-icon-wrapper"><path d="M22.99,20.99C21.187,23.387,18.721,25,16,25s-5.189-1.614-6.992-4.012" fill="none" stroke="#212121" stroke-miterlimit="10" stroke-width="2" data-cap="butt"></path><path d="M4,30.5C.044,23.082,4,22,4,13a12,12,0,0,1,24,0c0,9,3.956,10.082,0,17.5" fill="none" stroke="#212121" stroke-linecap="square" stroke-miterlimit="10" stroke-width="2" data-color="color-2"></path><path d="M24,29.742l-1.507-.283a3,3,0,0,1-2.447-2.949V24.371" fill="none" stroke="#212121" stroke-linecap="square" stroke-miterlimit="10" stroke-width="2"></path><path d="M12.031,24.371V26.51a3,3,0,0,1-2.446,2.949L8,29.757" fill="none" stroke="#212121" stroke-linecap="square" stroke-miterlimit="10" stroke-width="2"></path><path d="M25,23l-2.681-2.681a4,4,0,0,1-.5-5.047l.5-.751A4,4,0,0,0,22.028,9.7L18.155,5.18A10.5,10.5,0,0,1,8,13l1.7,2.829a4,4,0,0,1-.1,4.277L7,24" fill="none" stroke="#212121" stroke-linecap="square" stroke-miterlimit="10" stroke-width="2" data-color="color-2"></path></g></svg>