<svg xmlns="http://www.w3.org/2000/svg" height="32" width="32" viewBox="0 0 32 32"><title>handshake</title><g stroke-linejoin="miter" fill="#212121" stroke-linecap="butt" class="nc-icon-wrapper"><path data-color="color-2" d="M19.5,21.5l2.25,2.25a2.476,2.476,0,0,1,0,3.5h0" fill="none" stroke="#212121" stroke-linecap="square" stroke-miterlimit="10" stroke-width="2"></path> <path data-color="color-2" d="M1,14V2H11.1a7.081,7.081,0,0,1,.9.058" fill="none" stroke="#212121" stroke-linecap="square" stroke-miterlimit="10" stroke-width="2"></path> <rect x="2.422" y="15.775" width="5.657" height="4.95" rx="2.475" ry="2.475" transform="translate(-11.367 9.058) rotate(-45)" fill="none" stroke="#212121" stroke-linecap="square" stroke-miterlimit="10" stroke-width="2"></rect> <rect x="5.727" y="19.275" width="6.046" height="4.95" rx="2.475" ry="2.475" transform="translate(-12.817 12.558) rotate(-45)" fill="none" stroke="#212121" stroke-linecap="square" stroke-miterlimit="10" stroke-width="2"></rect> <rect x="9.286" y="22.911" width="5.657" height="4.95" rx="2.475" ry="2.475" transform="translate(-14.402 16.001) rotate(-45)" fill="none" stroke="#212121" stroke-linecap="square" stroke-miterlimit="10" stroke-width="2"></rect> <rect x="12.905" y="26.485" width="4.977" height="4.243" rx="2.121" ry="2.121" transform="translate(-15.719 19.264) rotate(-45)" fill="none" stroke="#212121" stroke-linecap="square" stroke-miterlimit="10" stroke-width="2"></rect> <path data-color="color-2" d="M23,18l3.025,3.025a2.474,2.474,0,0,1,0,3.5h0a2.474,2.474,0,0,1-3.5,0" fill="none" stroke="#212121" stroke-linecap="square" stroke-miterlimit="10" stroke-width="2"></path> <path data-cap="butt" data-color="color-2" d="M25.75,20.75a2.476,2.476,0,0,0,3.5,0h0a2.476,2.476,0,0,0,0-3.5L20,8" fill="none" stroke="#212121" stroke-miterlimit="10" stroke-width="2"></path> <path d="M20,8l-6.9,5.173a2.232,2.232,0,0,1-2.336.211h0a2.23,2.23,0,0,1-.579-3.572L15.95,4.05A7,7,0,0,1,20.9,2H31V14" fill="none" stroke="#212121" stroke-linecap="square" stroke-miterlimit="10" stroke-width="2"></path></g></svg>