<svg xmlns="http://www.w3.org/2000/svg" height="32" width="32" viewBox="0 0 32 32"><title>hourglass</title><g stroke-linejoin="miter" fill="#212121" stroke-linecap="butt" class="nc-icon-wrapper"><path data-color="color-2" data-stroke="none" d="M7,30s3.857-10,9-10,9,10,9,10H7Z" fill="#212121" isolation="isolate" opacity=".4" stroke="none"></path><line x1="5" y1="2" x2="27" y2="2" fill="none" stroke="#212121" stroke-linecap="square" stroke-miterlimit="10" stroke-width="2"></line><line x1="5" y1="30" x2="27" y2="30" fill="none" stroke="#212121" stroke-linecap="square" stroke-miterlimit="10" stroke-width="2"></line><path data-cap="butt" d="M7,30s0-1,0-6,5-8,5-8c0,0-5-3-5-8s0-6,0-6" fill="none" stroke="#212121" stroke-miterlimit="10" stroke-width="2"></path><path data-cap="butt" d="M25,30v-6c0-5-5-8-5-8,0,0,5-3,5-8s0-6,0-6" fill="none" stroke="#212121" stroke-miterlimit="10" stroke-width="2"></path></g></svg>