<svg xmlns="http://www.w3.org/2000/svg" height="32" width="32" viewBox="0 0 32 32"><title>interview</title><g stroke-linejoin="miter" fill="#212121" stroke-linecap="butt" class="nc-icon-wrapper"><path d="M19.536,8.464a5,5,0,0,0-7.072,0" fill="none" stroke="#212121" stroke-linecap="square" stroke-miterlimit="10" stroke-width="2" data-color="color-2"></path><path d="M23.071,4.929a10,10,0,0,0-14.142,0" fill="none" stroke="#212121" stroke-linecap="square" stroke-miterlimit="10" stroke-width="2" data-color="color-2"></path><path d="M2,9a8,8,0,0,1,8,8v1l2,4.5-2,1V25a3,3,0,0,1-3,3H4v3" fill="none" stroke="#212121" stroke-linecap="square" stroke-miterlimit="10" stroke-width="2"></path><path d="M30,9a8,8,0,0,0-8,8v1l-2,4.5,2,1V25a3,3,0,0,0,3,3h3v3" fill="none" stroke="#212121" stroke-linecap="square" stroke-miterlimit="10" stroke-width="2"></path><circle cx="16" cy="12" r="1" fill="#212121" data-cap="butt" data-color="color-2" data-stroke="none" stroke="none"></circle></g></svg>