<svg xmlns="http://www.w3.org/2000/svg" height="32" width="32" viewBox="0 0 32 32"><title>lifering</title><g stroke-linejoin="miter" fill="#212121" stroke-linecap="butt" class="nc-icon-wrapper"><path data-cap="butt" fill="none" stroke="#212121" stroke-width="2" stroke-miterlimit="10" d="M13,29.678 C7.676,28.516,3.485,24.324,2.322,19" stroke-linejoin="miter" stroke-linecap="butt"></path> <path data-cap="butt" fill="none" stroke="#212121" stroke-width="2" stroke-miterlimit="10" d="M29.678,19 C28.515,24.324,24.324,28.516,19,29.678" stroke-linejoin="miter" stroke-linecap="butt"></path> <path data-cap="butt" fill="none" stroke="#212121" stroke-width="2" stroke-miterlimit="10" d="M19,2.322 C24.324,3.484,28.515,7.676,29.678,13" stroke-linejoin="miter" stroke-linecap="butt"></path> <path data-cap="butt" fill="none" stroke="#212121" stroke-width="2" stroke-miterlimit="10" d="M2.322,13 C3.485,7.676,7.676,3.484,13,2.322" stroke-linejoin="miter" stroke-linecap="butt"></path> <polyline data-cap="butt" data-color="color-2" fill="none" stroke="#212121" stroke-width="2" stroke-miterlimit="10" points="13,9.674 13,1 19,1 19,9.674 " stroke-linejoin="miter" stroke-linecap="butt"></polyline> <polyline data-cap="butt" data-color="color-2" fill="none" stroke="#212121" stroke-width="2" stroke-miterlimit="10" points="22.326,13 31,13 31,19 22.326,19 " stroke-linejoin="miter" stroke-linecap="butt"></polyline> <polyline data-cap="butt" data-color="color-2" fill="none" stroke="#212121" stroke-width="2" stroke-miterlimit="10" points="19,22.326 19,31 13,31 13,22.326 " stroke-linejoin="miter" stroke-linecap="butt"></polyline> <polyline data-cap="butt" data-color="color-2" fill="none" stroke="#212121" stroke-width="2" stroke-miterlimit="10" points="9.674,19 1,19 1,13 9.674,13 " stroke-linejoin="miter" stroke-linecap="butt"></polyline> <circle fill="none" stroke="#212121" stroke-width="2" stroke-linecap="square" stroke-miterlimit="10" cx="16" cy="16" r="7" stroke-linejoin="miter"></circle></g></svg>