<svg xmlns="http://www.w3.org/2000/svg" height="32" width="32" viewBox="0 0 32 32"><title>megaphone</title><g stroke-linejoin="miter" fill="#212121" stroke-linecap="butt" class="nc-icon-wrapper"><path data-cap="butt" data-color="color-2" d="M13.657,22l2.15,5.336c.546,1.364-.115,2.913-1.477,3.464h0c-1.366,.548-2.917-.113-3.467-1.478l-4.196-10.322" fill="none" stroke="#212121" stroke-miterlimit="10" stroke-width="2"></path><path d="M14,7H7c-3.314,0-6,2.686-6,6h0c0,3.314,2.686,6,6,6h7c5,0,11,5,11,5V2s-6,5-11,5Z" fill="none" stroke="#212121" stroke-linecap="square" stroke-miterlimit="10" stroke-width="2"></path><path data-cap="butt" data-color="color-2" d="M28,10c1.657,0,3,1.343,3,3s-1.343,3-3,3" fill="none" stroke="#212121" stroke-miterlimit="10" stroke-width="2"></path></g></svg>