<svg xmlns="http://www.w3.org/2000/svg" height="32" width="32" viewBox="0 0 32 32"><title>palm tree</title><g stroke-linejoin="miter" fill="#212121" stroke-linecap="butt" class="nc-icon-wrapper"><path d="M16.769,26.291A22.13,22.13,0,0,0,18,19,22.173,22.173,0,0,0,15.013,7.883" fill="none" stroke="#212121" stroke-miterlimit="10" stroke-width="2" data-cap="butt"></path><path d="M6,20,15,8C8.211,8.934,3,12,6,20Z" fill="none" stroke="#212121" stroke-linecap="square" stroke-miterlimit="10" stroke-width="2" data-color="color-2"></path><path d="M29,16,15,8S28,4,29,16Z" fill="none" stroke="#212121" stroke-linecap="square" stroke-miterlimit="10" stroke-width="2" data-color="color-2"></path><path d="M15,8,4,7S11,0,15,8Z" fill="none" stroke="#212121" stroke-linecap="square" stroke-miterlimit="10" stroke-width="2" data-color="color-2"></path><path d="M15,8,26,3S17.023-3.88,15,8Z" fill="none" stroke="#212121" stroke-linecap="square" stroke-miterlimit="10" stroke-width="2" data-color="color-2"></path><path d="M25.549,31a11.966,11.966,0,0,0-19.1,0Z" fill="none" stroke="#212121" stroke-linecap="square" stroke-miterlimit="10" stroke-width="2"></path></g></svg>