<svg xmlns="http://www.w3.org/2000/svg" height="32" width="32" viewBox="0 0 32 32"><title>park</title><g stroke-linejoin="miter" fill="#212121" stroke-linecap="butt" class="nc-icon-wrapper"><line x1="1" y1="27" x2="19" y2="27" fill="none" stroke="#212121" stroke-linecap="square" stroke-miterlimit="10" stroke-width="2"></line><line x1="4" y1="27" x2="4" y2="31" fill="none" stroke="#212121" stroke-linecap="square" stroke-miterlimit="10" stroke-width="2"></line><line x1="16" y1="27" x2="16" y2="31" fill="none" stroke="#212121" stroke-linecap="square" stroke-miterlimit="10" stroke-width="2"></line><line x1="25" y1="31" x2="25" y2="15" fill="none" stroke="#212121" stroke-linecap="square" stroke-miterlimit="10" stroke-width="2" data-color="color-2"></line><rect x="4" y="18" width="12" height="5" fill="none" stroke="#212121" stroke-linecap="square" stroke-miterlimit="10" stroke-width="2"></rect><path d="M28.516,8.336A5.929,5.929,0,0,0,29,6c0-2.761-1.791-5-4-5s-4,2.239-4,5a5.929,5.929,0,0,0,.484,2.336A7.4,7.4,0,0,0,19,14c0,3.866,2.686,7,6,7s6-3.134,6-7A7.4,7.4,0,0,0,28.516,8.336Z" fill="none" stroke="#212121" stroke-linecap="square" stroke-miterlimit="10" stroke-width="2" data-color="color-2"></path></g></svg>