<svg xmlns="http://www.w3.org/2000/svg" height="32" width="32" viewBox="0 0 32 32"><title>salad</title><g stroke-linejoin="miter" fill="#212121" stroke-linecap="butt" class="nc-icon-wrapper"><path d="M10.824,30H21.176A14,14,0,0,0,30,17H2A14,14,0,0,0,10.824,30Z" fill="none" stroke="#212121" stroke-linecap="square" stroke-miterlimit="10" stroke-width="2"></path> <path d="M2,3H2a8,8,0,0,1,8,8v2a0,0,0,0,1,0,0h0A8,8,0,0,1,2,5V3A0,0,0,0,1,2,3Z" fill="none" stroke="#212121" stroke-linecap="square" stroke-miterlimit="10" stroke-width="2" data-color="color-2"></path> <path d="M28,13a4.955,4.955,0,0,0-6.158-4.852A7,7,0,0,0,13,5.674" fill="none" stroke="#212121" stroke-linecap="square" stroke-miterlimit="10" stroke-width="2" data-color="color-2"></path></g></svg>