<svg xmlns="http://www.w3.org/2000/svg" height="32" width="32" viewBox="0 0 32 32"><title>selfie 2</title><g stroke-linejoin="miter" fill="#212121" stroke-linecap="butt" class="nc-icon-wrapper"><circle cx="13" cy="11.5" r="2.5" fill="none" stroke="#212121" stroke-linecap="square" stroke-miterlimit="10" stroke-width="2" data-color="color-2"></circle><path d="M8,22a5,5,0,0,1,5-5h0a5,5,0,0,1,5,5" fill="none" stroke="#212121" stroke-miterlimit="10" stroke-width="2" data-cap="butt" data-color="color-2"></path><path d="M12,22H3a2,2,0,0,1-2-2V8A2,2,0,0,1,3,6H14.667" fill="none" stroke="#212121" stroke-linecap="square" stroke-miterlimit="10" stroke-width="2"></path><path d="M24,30l-5-3-7.365-1.037A2,2,0,0,1,12,22H22a3,3,0,0,0,3-3V9L20,6H15a2,2,0,0,1,0-4h7l8,3" fill="none" stroke="#212121" stroke-linecap="square" stroke-miterlimit="10" stroke-width="2"></path></g></svg>