<svg xmlns="http://www.w3.org/2000/svg" height="32" width="32" viewBox="0 0 32 32"><title>shop</title><g stroke-linejoin="miter" fill="#212121" stroke-linecap="butt" class="nc-icon-wrapper"><polyline points="5 19 5 30 27 30 27 19" fill="none" stroke="#212121" stroke-linecap="square" stroke-miterlimit="10" stroke-width="2"></polyline> <path data-color="color-2" d="M30.973,11A4.5,4.5,0,0,1,26.5,15,4.6,4.6,0,0,1,23,13.3,4.475,4.475,0,0,1,19.5,15,4.572,4.572,0,0,1,16,13.3,4.572,4.572,0,0,1,12.5,15,4.475,4.475,0,0,1,9,13.3,4.671,4.671,0,0,1,5.5,15a4.5,4.5,0,0,1-4.473-4L7,2H25Z" fill="none" stroke="#212121" stroke-linecap="square" stroke-miterlimit="10" stroke-width="2"></path> <polyline data-cap="butt" points="13 30 13 22 19 22 19 30" fill="none" stroke="#212121" stroke-miterlimit="10" stroke-width="2"></polyline></g></svg>