<svg xmlns="http://www.w3.org/2000/svg" height="32" width="32" viewBox="0 0 32 32"><title>spaceship</title><g stroke-linejoin="miter" fill="#212121" stroke-linecap="butt" class="nc-icon-wrapper"><line data-cap="butt" x1="20.456" y1="3.723" x2="28.246" y2="11.513" fill="none" stroke="#212121" stroke-miterlimit="10" stroke-width="2"></line> <path data-cap="butt" d="M17.3,5.371C12.75,3.723,8,4.708,4,10l4.164,4.174" fill="none" stroke="#212121" stroke-miterlimit="10" stroke-width="2"></path> <path data-cap="butt" d="M17.826,23.836,22,28c5.292-4,6.277-8.75,4.629-13.3" fill="none" stroke="#212121" stroke-miterlimit="10" stroke-width="2"></path> <path d="M14,26,6,18S12.493,2.292,30.656,1.344C29.629,19.429,14,26,14,26Z" fill="none" stroke="#212121" stroke-linecap="square" stroke-miterlimit="10" stroke-width="2"></path> <circle data-color="color-2" cx="18.5" cy="13.5" r="2.5" fill="none" stroke="#212121" stroke-linecap="square" stroke-miterlimit="10" stroke-width="2"></circle> <path data-color="color-2" d="M2.879,24.879a3,3,0,0,1,4.242,4.242c-1.171,1.172-5.949,1.707-5.949,1.707S1.707,26.05,2.879,24.879Z" fill="none" stroke="#212121" stroke-linecap="square" stroke-miterlimit="10" stroke-width="2"></path></g></svg>