<svg xmlns="http://www.w3.org/2000/svg" height="32" width="32" viewBox="0 0 32 32"><title>switches</title><g stroke-linejoin="miter" fill="#212121" stroke-linecap="butt" class="nc-icon-wrapper"><path d="M22.5,14H9.5A6.487,6.487,0,0,1,3,7.5H3A6.487,6.487,0,0,1,9.5,1h13A6.487,6.487,0,0,1,29,7.5h0A6.487,6.487,0,0,1,22.5,14Z" fill="none" stroke="#212121" stroke-linecap="square" stroke-miterlimit="10" stroke-width="2"></path> <path d="M22.5,31H9.5A6.487,6.487,0,0,1,3,24.5H3A6.487,6.487,0,0,1,9.5,18h13A6.487,6.487,0,0,1,29,24.5h0A6.487,6.487,0,0,1,22.5,31Z" fill="none" stroke="#212121" stroke-linecap="square" stroke-miterlimit="10" stroke-width="2"></path> <circle data-color="color-2" cx="9.5" cy="7.5" r="2.5" fill="none" stroke="#212121" stroke-linecap="square" stroke-miterlimit="10" stroke-width="2"></circle> <circle data-color="color-2" cx="22.5" cy="24.5" r="2.5" fill="none" stroke="#212121" stroke-linecap="square" stroke-miterlimit="10" stroke-width="2"></circle></g></svg>