<svg xmlns="http://www.w3.org/2000/svg" height="32" width="32" viewBox="0 0 32 32"><title>theater</title><g stroke-linejoin="miter" fill="#212121" stroke-linecap="butt" class="nc-icon-wrapper"><line x1="24" y1="16" x2="26" y2="16" fill="none" stroke="#212121" stroke-linecap="square" stroke-miterlimit="10" stroke-width="2" data-color="color-2"></line><path d="M23.121,25.879a3,3,0,0,0-4.242,0" fill="none" stroke="#212121" stroke-linecap="square" stroke-miterlimit="10" stroke-width="2" data-color="color-2"></path><path d="M14.454,28.551A9.993,9.993,0,0,0,31,21V8.714a29.923,29.923,0,0,0-6-1.445" fill="none" stroke="#212121" stroke-linecap="square" stroke-miterlimit="10" stroke-width="2" data-color="color-2"></path><path d="M1,15a10,10,0,0,0,20,0V2.714a30.029,30.029,0,0,0-20,0Z" fill="none" stroke="#212121" stroke-linecap="square" stroke-miterlimit="10" stroke-width="2"></path><line x1="6" y1="10" x2="8" y2="10" fill="none" stroke="#212121" stroke-linecap="square" stroke-miterlimit="10" stroke-width="2"></line><line x1="14" y1="10" x2="16" y2="10" fill="none" stroke="#212121" stroke-linecap="square" stroke-miterlimit="10" stroke-width="2"></line><path d="M11,21a3,3,0,0,0,3-3H8A3,3,0,0,0,11,21Z" fill="none" stroke="#212121" stroke-linecap="square" stroke-miterlimit="10" stroke-width="2"></path></g></svg>