<svg xmlns="http://www.w3.org/2000/svg" height="32" width="32" viewBox="0 0 32 32"><title>trumpet</title><g stroke-linejoin="miter" fill="#212121" stroke-linecap="butt" class="nc-icon-wrapper"><line x1="15.728" y1="26.172" x2="12.899" y2="23.343" fill="none" stroke="#212121" stroke-linecap="square" stroke-miterlimit="10" stroke-width="2" data-color="color-2"></line><line x1="19.263" y1="22.636" x2="16.435" y2="19.808" fill="none" stroke="#212121" stroke-linecap="square" stroke-miterlimit="10" stroke-width="2" data-color="color-2"></line><line x1="10.778" y1="21.222" x2="9.364" y2="19.808" fill="none" stroke="#212121" stroke-linecap="square" stroke-miterlimit="10" stroke-width="2" data-color="color-2"></line><line x1="14.314" y1="17.686" x2="12.899" y2="16.272" fill="none" stroke="#212121" stroke-linecap="square" stroke-miterlimit="10" stroke-width="2" data-color="color-2"></line><path d="M20.973,1.674a12,12,0,0,1-2.9,12.257,12,12,0,0,1,12.257-2.9.147.147,0,0,0,.154-.242L21.215,1.52A.147.147,0,0,0,20.973,1.674Z" fill="none" stroke="#212121" stroke-linecap="square" stroke-miterlimit="10" stroke-width="2"></path><line x1="1.586" y1="27.586" x2="4.414" y2="30.414" fill="none" stroke="#212121" stroke-linecap="square" stroke-miterlimit="10" stroke-width="2"></line><line x1="3" y1="29" x2="18.069" y2="13.931" fill="none" stroke="#212121" stroke-linecap="square" stroke-miterlimit="10" stroke-width="2"></line><path d="M12,20l-1.911,1.947a5.5,5.5,0,0,0,7.742,7.742L22.8,24.757a5.522,5.522,0,0,0-.354-7.424,5.454,5.454,0,0,0-2.177-1.317" fill="none" stroke="#212121" stroke-linecap="square" stroke-miterlimit="10" stroke-width="2"></path></g></svg>