<svg xmlns="http://www.w3.org/2000/svg" height="32" width="32" viewBox="0 0 32 32"><title>unlink</title><g stroke-linejoin="miter" fill="#212121" stroke-linecap="butt" class="nc-icon-wrapper"><path d="M10,15.724a5.632,5.632,0,0,0-3.343,1.619l-3,3a5.657,5.657,0,0,0,0,8h0a5.657,5.657,0,0,0,8,0l3-3A5.632,5.632,0,0,0,16.276,22" fill="none" stroke="#212121" stroke-linecap="square" stroke-miterlimit="10" stroke-width="2"></path> <line data-color="color-2" x1="10" y1="22" x2="13" y2="19" fill="none" stroke="#212121" stroke-linecap="square" stroke-miterlimit="10" stroke-width="2"></line> <path d="M22,16.276a5.632,5.632,0,0,0,3.343-1.619l3-3a5.657,5.657,0,0,0,0-8h0a5.657,5.657,0,0,0-8,0l-3,3A5.632,5.632,0,0,0,15.724,10" fill="none" stroke="#212121" stroke-linecap="square" stroke-miterlimit="10" stroke-width="2"></path> <line data-color="color-2" x1="19" y1="13" x2="22" y2="10" fill="none" stroke="#212121" stroke-linecap="square" stroke-miterlimit="10" stroke-width="2"></line> <line data-color="color-2" x1="3" y1="3" x2="29" y2="29" fill="none" stroke="#212121" stroke-linecap="square" stroke-miterlimit="10" stroke-width="2"></line></g></svg>