<svg xmlns="http://www.w3.org/2000/svg" height="32" width="32" viewBox="0 0 32 32"><title>watering plants</title><g stroke-linejoin="miter" fill="#212121" stroke-linecap="butt" class="nc-icon-wrapper"><path d="M25,8c0,1.657-1.343,3-3,3s-3-1.343-3-3c0-3,3-6,3-6,0,0,3,3,3,6Z" fill="none" stroke="#212121" stroke-linecap="square" stroke-miterlimit="10" stroke-width="2" data-color="color-2"></path><path d="M10,8c1.105,0,2-.895,2-2,0-1.524-2-3.333-2-3.333,0,0-2,1.81-2,3.333,0,1.105,.895,2,2,2Z" fill="none" stroke="#212121" stroke-linecap="square" stroke-miterlimit="10" stroke-width="2" data-color="color-2"></path><line x1="14" y1="31" x2="14" y2="26.857" fill="none" stroke="#212121" stroke-linecap="square" stroke-miterlimit="10" stroke-width="2"></line><path d="M21,20.766c-3.009,1.184-5.486,3.412-7,6.234" fill="none" stroke="#212121" stroke-miterlimit="10" stroke-width="2" data-cap="butt"></path><path d="M18,26.95c5.606-.506,10-5.212,10-10.95h-6c-4.418,0-8,3.582-8,8" fill="none" stroke="#212121" stroke-linecap="square" stroke-miterlimit="10" stroke-width="2"></path><path d="M14,31v-11c0-3.866-3.134-7-7-7H3c0,4.079,3.055,7.438,7,7.931" fill="none" stroke="#212121" stroke-linecap="square" stroke-miterlimit="10" stroke-width="2"></path></g></svg>