<svg xmlns="http://www.w3.org/2000/svg" height="32" width="32" viewBox="0 0 32 32"><title>world</title><g stroke-linejoin="miter" fill="#212121" stroke-linecap="butt" class="nc-icon-wrapper"><polyline data-cap="butt" data-color="color-2" points="6.977 4.016 9.238 6.654 11.105 8.989 10.917 12.197 7.182 12.888 4.55 16 5.777 18.547 6.962 20.67 9.756 22.833 7.926 25.61 5.471 26.683" fill="none" stroke="#212121" stroke-miterlimit="10" stroke-width="2"></polyline><polyline data-cap="butt" data-color="color-2" points="28.059 7.078 25.836 8.49 22.991 8.461 20.827 9.323 18.912 8.002 18.267 5.574 16.484 3.7 14.609 2.364 14.569 1.067" fill="none" stroke="#212121" stroke-miterlimit="10" stroke-width="2"></polyline><polygon data-color="color-2" points="25.688 17.23 25.381 19.929 23.471 21.873 21.778 23.787 19.759 25.31 17.128 25.858 15.722 22.977 17.018 20.075 16.193 17.199 17.378 14.085 20.793 13.45 23.68 14.672 25.688 17.23" fill="none" stroke="#212121" stroke-linecap="square" stroke-miterlimit="10" stroke-width="2"></polygon><circle cx="16" cy="16" r="15" fill="none" stroke="#212121" stroke-linecap="square" stroke-miterlimit="10" stroke-width="2"></circle></g></svg>