<svg xmlns="http://www.w3.org/2000/svg" height="24" width="24" viewBox="0 0 24 24"><title>alarm disable</title><g fill="#212121" class="nc-icon-wrapper"><path d="M13.007,23.822A3,3,0,0,0,14.826,22H9.174a3,3,0,0,0,3.833,1.819Z" fill="#212121"></path><path d="M2.482,19.852A1,1,0,0,0,3,20H4L19.287,4.713A8,8,0,0,0,4,8v3.982a12.853,12.853,0,0,1-1.855,6.494A1,1,0,0,0,2.482,19.852Z" fill="#212121"></path><path d="M20,11.991V8.242L8.245,20H21a1,1,0,0,0,.855-1.518A12.851,12.851,0,0,1,20,11.991Z" fill="#212121"></path><path data-color="color-2" d="M1,24a1,1,0,0,1-.707-1.707l22-22a1,1,0,0,1,1.414,1.414l-22,22A1,1,0,0,1,1,24Z" fill="#212121"></path></g></svg>