<svg xmlns="http://www.w3.org/2000/svg" height="24" width="24" viewBox="0 0 24 24"><title>alarm add</title><g fill="#212121" class="nc-icon-wrapper"><path d="M13.007,23.822c.849-.303,1.517-.972,1.819-1.822h-5.652c.555,1.561,2.27,2.377,3.831,1.823,0,0,.001,0,.002,0Z" fill="#212121"></path><path d="M20.136,13.7c-4.248,1.186-8.653-1.297-9.839-5.545-.82-2.939,.106-6.09,2.388-8.117-.226-.02-.454-.038-.685-.038C7.584,.005,4.005,3.584,4,8v3.982c-.028,2.291-.669,4.533-1.855,6.494-.289,.47-.143,1.086,.328,1.376,.159,.098,.341,.149,.527,.148H21c.552,0,1-.448,1-1,0-.183-.05-.362-.145-.518-.885-1.464-1.469-3.09-1.719-4.782Z" fill="#212121"></path><path data-color="color-2" d="M18,0c-3.314,0-6,2.686-6,6s2.686,6,6,6,6-2.686,6-6S21.314,0,18,0Zm3.5,7h-2.5v2.5c0,.276-.224,.5-.5,.5h-1c-.276,0-.5-.224-.5-.5v-2.5h-2.5c-.276,0-.5-.224-.5-.5v-1c0-.276,.224-.5,.5-.5h2.5V2.5c0-.276,.224-.5,.5-.5h1c.276,0,.5,.224,.5,.5v2.5h2.5c.276,0,.5,.224,.5,.5v1c0,.276-.224,.5-.5,.5Z" fill="#212121"></path></g></svg>