<svg xmlns="http://www.w3.org/2000/svg" height="24" width="24" viewBox="0 0 24 24"><title>algorithm</title><g fill="#212121" class="nc-icon-wrapper"><path d="M17,17H15.858a3.915,3.915,0,0,0-.425-1.019l.81-.81a1,1,0,1,0-1.414-1.414l-.81.81A3.915,3.915,0,0,0,13,14.142V13a1,1,0,0,0-2,0v1.142a3.915,3.915,0,0,0-1.019.425l-.81-.81a1,1,0,1,0-1.414,1.414l.81.81A3.915,3.915,0,0,0,8.142,17H7a1,1,0,0,0,0,2H8.142a3.915,3.915,0,0,0,.425,1.019l-.81.81a1,1,0,1,0,1.414,1.414l.81-.81A3.915,3.915,0,0,0,11,21.858V23a1,1,0,0,0,2,0V21.858a3.915,3.915,0,0,0,1.019-.425l.81.81a1,1,0,1,0,1.414-1.414l-.81-.81A3.915,3.915,0,0,0,15.858,19H17a1,1,0,0,0,0-2Zm-5,3a2,2,0,1,1,2-2A2,2,0,0,1,12,20Z" fill="#212121" data-color="color-2"></path><path d="M15,3a3,3,0,1,0-4,2.816V9a1,1,0,0,0,2,0V5.816A3,3,0,0,0,15,3Z" fill="#212121"></path><path d="M6.271,10.856,4,8.586V5.816a3,3,0,1,0-2,0V9a1,1,0,0,0,.293.707l2.564,2.564a1,1,0,1,0,1.414-1.415Z" fill="#212121"></path><path d="M24,3a3,3,0,1,0-4,2.816v2.77l-2.271,2.27a1,1,0,0,0,1.414,1.415l2.564-2.564A1,1,0,0,0,22,9V5.816A3,3,0,0,0,24,3Z" fill="#212121"></path></g></svg>