<svg xmlns="http://www.w3.org/2000/svg" height="24" width="24" viewBox="0 0 24 24"><title>alpha order</title><g fill="#212121" class="nc-icon-wrapper"><path data-color="color-2" d="M7.407,1.333A.5.5,0,0,0,6.936,1H5.054a.5.5,0,0,0-.472.334l-3.177,9A.5.5,0,0,0,1.877,11H3.083a.5.5,0,0,0,.479-.354l.616-2.025H7.822l.616,2.025A.5.5,0,0,0,8.917,11h1.206a.5.5,0,0,0,.471-.667Zm-2.7,5.511Q5.775,3.393,6,2.517c.04.164.1.383.185.67L7.316,6.844Z" fill="#212121"></path><path data-color="color-2" d="M9.219,21.25H4.8L9.5,14.5a.5.5,0,0,0,.09-.286v-.69a.508.508,0,0,0-.55-.52H2.911a.5.5,0,0,0-.5.5v.75a.5.5,0,0,0,.5.5H7.073L2.371,21.5a.5.5,0,0,0-.09.286v.652A.506.506,0,0,0,2.859,23h6.36a.5.5,0,0,0,.5-.5v-.75A.5.5,0,0,0,9.219,21.25Z" fill="#212121"></path><path d="M21.9,16.567A1,1,0,0,0,21,16H18V2a1,1,0,0,0-2,0V16H13a1,1,0,0,0-.781,1.625l4,5a1,1,0,0,0,1.562,0l4-5A1,1,0,0,0,21.9,16.567Z" fill="#212121"></path></g></svg>