<svg xmlns="http://www.w3.org/2000/svg" height="24" width="24" viewBox="0 0 24 24"><title>at sign</title><g fill="#212121" class="nc-icon-wrapper"><path d="M5.663,1.978C.677,5.326-1.026,11.94,1.703,17.363c2.09,4.152,6.37,6.635,10.845,6.635,1.287,0,2.591-.206,3.862-.636,.523-.177,.804-.745,.627-1.268-.176-.523-.742-.804-1.268-.627-4.761,1.607-10.035-.544-12.279-5.004C1.25,12.014,2.694,6.38,6.778,3.638c4.524-3.037,10.713-1.479,13.221,1.943,1.771,2.413,2.092,6.112,.73,8.421-.874,1.487-2.226,2.019-3.106,1.779-.623-.169-.623-.63-.623-.782V7c0-.552-.447-1-1-1s-1,.448-1,1v.459c-.892-.752-2.014-1.205-3.235-1.205-2.888,0-5.236,2.509-5.236,5.594s2.349,5.594,5.236,5.594c1.315,0,2.515-.525,3.436-1.383,.311,.8,.977,1.402,1.897,1.653,1.563,.427,3.908-.235,5.355-2.694,1.765-2.995,1.403-7.56-.841-10.619C18.562,.238,11.263-1.78,5.663,1.978Zm6.102,13.463c-1.784,0-3.236-1.612-3.236-3.594s1.452-3.594,3.236-3.594,3.235,1.612,3.235,3.594-1.451,3.594-3.235,3.594Z" fill="#212121"></path></g></svg>