<svg xmlns="http://www.w3.org/2000/svg" height="24" width="24" viewBox="0 0 24 24"><title>b chart</title><g fill="#212121" class="nc-icon-wrapper"><path d="M4,18h2c.552,0,1-.448,1-1V8c0-.552-.448-1-1-1h-2c-.552,0-1,.448-1,1v9c0,.552,.448,1,1,1Z" fill="#212121"></path><path d="M11,18h2c.552,0,1-.448,1-1V3c0-.552-.448-1-1-1h-2c-.552,0-1,.448-1,1v14c0,.552,.448,1,1,1Z" fill="#212121"></path><path d="M17,12v5c0,.552,.448,1,1,1h2c.552,0,1-.448,1-1v-5c0-.552-.448-1-1-1h-2c-.552,0-1,.448-1,1Z" fill="#212121"></path><path data-color="color-2" d="M23,22H1c-.552,0-1-.448-1-1s.448-1,1-1H23c.552,0,1,.448,1,1s-.448,1-1,1Z" fill="#212121"></path></g></svg>