<svg xmlns="http://www.w3.org/2000/svg" height="24" width="24" viewBox="0 0 24 24"><title>battery charging</title><g fill="#212121" class="nc-icon-wrapper"><path data-color="color-2" d="M23,16h-1V8h1c.552,0,1,.448,1,1v6c0,.552-.448,1-1,1Z" fill="#212121"></path><path d="M18,4H3c-1.654,0-3,1.346-3,3v10c0,1.654,1.346,3,3,3h15c1.654,0,3-1.346,3-3V7c0-1.654-1.346-3-3-3Zm-2.07,9.756c-.127,.212-.388,.3-.615,.208l-4.314-1.726v3.262c0,.194-.112,.37-.288,.453-.067,.031-.14,.047-.212,.047-.115,0-.229-.039-.32-.116l-6-5c-.188-.157-.235-.429-.109-.64,.127-.212,.389-.299,.615-.208l4.314,1.726v-3.262c0-.194,.112-.37,.288-.453,.176-.08,.384-.056,.532,.069l6,5c.188,.157,.235,.429,.109,.64Z" fill="#212121"></path></g></svg>