<svg xmlns="http://www.w3.org/2000/svg" height="24" width="24" viewBox="0 0 24 24"><title>battery low</title><g fill="#212121" class="nc-icon-wrapper"><path data-color="color-2" d="M23,16h-1V8h1c.552,0,1,.448,1,1v6c0,.552-.448,1-1,1Z" fill="#212121"></path><path d="M18,4H3c-1.654,0-3,1.346-3,3v10c0,1.654,1.346,3,3,3h15c1.654,0,3-1.346,3-3V7c0-1.654-1.346-3-3-3ZM6,16.5c0,.276-.224,.5-.5,.5H3.5c-.276,0-.5-.224-.5-.5V7.5c0-.276,.224-.5,.5-.5h2c.276,0,.5,.224,.5,.5v9Zm5,0c0,.276-.224,.5-.5,.5h-2c-.276,0-.5-.224-.5-.5V7.5c0-.276,.224-.5,.5-.5h2c.276,0,.5,.224,.5,.5v9Z" fill="#212121"></path></g></svg>