<svg xmlns="http://www.w3.org/2000/svg" height="24" width="24" viewBox="0 0 24 24"><title>blog</title><g fill="#212121" class="nc-icon-wrapper"> <path d="M21,0H3c-.552,0-1,.448-1,1V23c0,.552,.448,1,1,1H21c.552,0,1-.448,1-1V1c0-.552-.448-1-1-1Zm-3,19.5c0,.276-.224,.5-.5,.5H6.5c-.276,0-.5-.224-.5-.5v-1c0-.276,.224-.5,.5-.5h11c.276,0,.5,.224,.5,.5v1Zm0-5c0,.276-.224,.5-.5,.5H6.5c-.276,0-.5-.224-.5-.5v-1c0-.276,.224-.5,.5-.5h11c.276,0,.5,.224,.5,.5v1Zm0-5c0,.276-.224,.5-.5,.5H6.5c-.276,0-.5-.224-.5-.5V4.5c0-.276,.224-.5,.5-.5h11c.276,0,.5,.224,.5,.5v5Z" fill="#212121"></path></g></svg>