<svg xmlns="http://www.w3.org/2000/svg" height="24" width="24" viewBox="0 0 24 24"><title>blueprint</title><g fill="#212121" class="nc-icon-wrapper"><path d="M15,7H5A1,1,0,0,0,4,8V18H6V9h4v3h2V9h2v7H10V14H8v3a1,1,0,0,0,1,1h6a1,1,0,0,0,1-1V8A1,1,0,0,0,15,7Z" fill="#212121" data-color="color-2"></path><path d="M20,0H19a1,1,0,0,0-1,1V15a1,1,0,0,0,1,1h1a2,2,0,0,1,1.972,2.339A2.079,2.079,0,0,1,19.887,20H2V5H16V3H1A1,1,0,0,0,0,4V21a1,1,0,0,0,1,1H20a4.008,4.008,0,0,0,3.874-3H24V4A4,4,0,0,0,20,0Z" fill="#212121"></path></g></svg>