<svg xmlns="http://www.w3.org/2000/svg" height="24" width="24" viewBox="0 0 24 24"><title>book</title><g fill="#212121" class="nc-icon-wrapper"><path d="M11,2.1A8.814,8.814,0,0,0,6.5,1C2.8,1,0,2.7,0,5V22a.945.945,0,0,0,1,1,.945.945,0,0,0,1-1c0-.8,1.8-2,4.5-2a7.469,7.469,0,0,1,3.094.618A.992.992,0,0,0,11,19.71Z" fill="#212121"></path> <path data-color="color-2" d="M17.5,1A8.814,8.814,0,0,0,13,2.1V19.71a.992.992,0,0,0,1.406.908A7.469,7.469,0,0,1,17.5,20c2.7,0,4.5,1.2,4.5,2a1,1,0,0,0,2,0V5C24,2.7,21.2,1,17.5,1Z" fill="#212121"></path></g></svg>