<svg xmlns="http://www.w3.org/2000/svg" height="24" width="24" viewBox="0 0 24 24"><title>child</title><g fill="#212121" class="nc-icon-wrapper"><path d="M21.16,8a10,10,0,0,0-9.149-6,1.5,1.5,0,1,0,.757,2.8,1,1,0,0,1,1,1.73A3.5,3.5,0,0,1,8.519,3.5a3.488,3.488,0,0,1,.13-.9A10,10,0,0,0,2.84,8a3,3,0,0,0-.659,5.883,10,10,0,0,0,19.638,0A3,3,0,0,0,21.16,8ZM7,10.5A1.5,1.5,0,1,1,8.5,12,1.5,1.5,0,0,1,7,10.5ZM12,18a3,3,0,0,1-3-3h6A3,3,0,0,1,12,18Zm3.5-6A1.5,1.5,0,1,1,17,10.5,1.5,1.5,0,0,1,15.5,12Z" fill="#212121"></path></g></svg>