<svg xmlns="http://www.w3.org/2000/svg" height="24" width="24" viewBox="0 0 24 24"><title>cogwheel</title><g fill="#212121" class="nc-icon-wrapper"><path d="M23.57,10.005l-2.907-.415c-.197-.71-.476-1.385-.831-2.014l1.76-2.348c.148-.199,.129-.478-.047-.653l-2.121-2.121c-.176-.176-.456-.194-.653-.047l-2.348,1.76c-.628-.356-1.303-.634-2.014-.831l-.415-2.907c-.035-.247-.246-.43-.495-.43h-3c-.249,0-.46,.183-.495,.43l-.415,2.907c-.71,.197-1.385,.476-2.014,.831l-2.348-1.76c-.197-.147-.478-.129-.653,.047l-2.121,2.121c-.176,.176-.195,.454-.047,.653l1.76,2.348c-.356,.628-.634,1.303-.831,2.014l-2.907,.415c-.247,.035-.43,.246-.43,.495v3c0,.249,.183,.46,.43,.495l2.907,.415c.197,.71,.476,1.385,.831,2.014l-1.76,2.348c-.148,.199-.129,.478,.047,.653l2.121,2.121c.097,.097,.225,.146,.354,.146,.105,0,.211-.033,.3-.1l2.348-1.76c.628,.356,1.303,.634,2.014,.831l.415,2.907c.035,.247,.246,.43,.495,.43h3c.249,0,.46-.183,.495-.43l.415-2.907c.71-.197,1.385-.476,2.014-.831l2.348,1.76c.089,.066,.194,.1,.3,.1,.129,0,.257-.05,.354-.146l2.121-2.121c.176-.176,.195-.454,.047-.653l-1.76-2.348c.356-.628,.634-1.303,.831-2.014l2.907-.415c.247-.035,.43-.246,.43-.495v-3c0-.249-.183-.46-.43-.495Zm-11.57,5.995c-2.209,0-4-1.791-4-4s1.791-4,4-4,4,1.791,4,4-1.791,4-4,4Z" fill="#212121"></path></g></svg>