<svg xmlns="http://www.w3.org/2000/svg" height="24" width="24" viewBox="0 0 24 24"><title>control panel</title><g fill="#212121" class="nc-icon-wrapper"><path d="M22,15a1,1,0,0,1,0-2h1.949a11.941,11.941,0,0,0-2.794-6.741L19.778,7.636a1,1,0,1,1-1.414-1.414l1.377-1.377A11.941,11.941,0,0,0,13,2.051V4a1,1,0,0,1-2,0V2.051A12.006,12.006,0,0,0,.051,13H2a1,1,0,0,1,0,2H.044a12.025,12.025,0,0,0,2.7,6.637l.3.363H20.956l.3-.363A12.025,12.025,0,0,0,23.956,15Zm-8.586.414a2,2,0,0,1-2.828,0c-.6-.6-4.552-6.468-5-7.135a.5.5,0,0,1,.694-.694c.667.448,6.533,4.4,7.135,5A2,2,0,0,1,13.414,15.414Z" fill="#212121"></path></g></svg>