<svg xmlns="http://www.w3.org/2000/svg" height="24" width="24" viewBox="0 0 24 24"><title>download</title><g fill="#212121" class="nc-icon-wrapper"><path d="M20,8H17a1,1,0,0,0,0,2h3a1,1,0,0,1,1,1v9a1,1,0,0,1-1,1H4a1,1,0,0,1-1-1V11a1,1,0,0,1,1-1H7A1,1,0,0,0,7,8H4a3,3,0,0,0-3,3v9a3,3,0,0,0,3,3H20a3,3,0,0,0,3-3V11A3,3,0,0,0,20,8Z" fill="#212121"></path><path data-color="color-2" d="M8,12a1,1,0,0,0-.781,1.625l4,5a1,1,0,0,0,1.562,0l4-5A1,1,0,0,0,16,12H13V2a1,1,0,0,0-2,0V12Z" fill="#212121"></path></g></svg>