<svg xmlns="http://www.w3.org/2000/svg" height="24" width="24" viewBox="0 0 24 24"><title>drums</title><g fill="#212121" class="nc-icon-wrapper"><path d="M21.066,4.822,18.731,5.989C20.824,6.708,22,7.691,22,8.5,22,9.962,18.2,12,12,12S2,9.962,2,8.5c0-.81,1.171-1.795,3.264-2.514L2.93,4.819C1.154,5.726,0,6.959,0,8.5v9C0,20.538,5.373,23,12,23s12-2.462,12-5.5v-9C24,6.958,22.842,5.727,21.066,4.822ZM6,20.183A12.587,12.587,0,0,1,4,19.4v-6.74A16.094,16.094,0,0,0,6,13.3Zm7,.794c-.327.013-.658.023-1,.023s-.673-.01-1-.023v-7c.331.011.66.027,1,.027s.669-.016,1-.027ZM20,19.4a12.587,12.587,0,0,1-2,.781V13.3a16.094,16.094,0,0,0,2-.642Z" fill="#212121"></path><path d="M22.9.553A1,1,0,0,0,21.553.105L12,4.882,2.447.105A1,1,0,0,0,1.553,1.9L9.764,6,7.553,7.105A1,1,0,0,0,8.447,8.9L12,7.118,15.553,8.9a1,1,0,1,0,.894-1.79L14.236,6,22.447,1.9A1,1,0,0,0,22.9.553Z" fill="#212121" data-color="color-2"></path></g></svg>