<svg xmlns="http://www.w3.org/2000/svg" height="24" width="24" viewBox="0 0 24 24"><title>ecology</title><g fill="#212121" class="nc-icon-wrapper"><path d="M10,23a2.96,2.96,0,0,1,.246-1.165A9.987,9.987,0,0,1,4.868,19l1.455-1.222a1,1,0,0,0,.318-1.04l-.7-2.472a1.015,1.015,0,0,0-.231-.409L4.474,12.536l-.187-.319.64-.547,2.487-1.258a1,1,0,0,0,.538-.746l.4-2.74A1,1,0,0,0,8.1,6.1L6.451,4.34a.877.877,0,0,0-.094-.089L6.039,3.99a9.929,9.929,0,0,1,5.54-1.969l.448.745.586,1.713a1.012,1.012,0,0,0,.319.455l2.284,1.837a1,1,0,0,0,.627.221.934.934,0,0,0,.118-.007l3-.356a1.011,1.011,0,0,0,.375-.123c.417-.211.918.05,1,0a2.838,2.838,0,0,0,.268-.318,2.983,2.983,0,0,1,1.293-.967A11.993,11.993,0,1,0,10.134,23.84,2.988,2.988,0,0,1,10,23Z" fill="#212121"></path><path d="M23.316,7.037a1,1,0,0,0-1.116.35A6.447,6.447,0,0,1,17,10a5.006,5.006,0,0,0-5,5,4.946,4.946,0,0,0,1.07,3.063,6.932,6.932,0,0,1,1.98-4.012,1,1,0,1,1,1.414,1.414A4.966,4.966,0,0,0,15,19v1a2,2,0,0,1-2,2,1,1,0,0,0,0,2,4,4,0,0,0,4-4,7.008,7.008,0,0,0,7-7V7.986A1,1,0,0,0,23.316,7.037Z" fill="#212121" data-color="color-2"></path></g></svg>