<svg xmlns="http://www.w3.org/2000/svg" height="24" width="24" viewBox="0 0 24 24"><title>edit</title><g fill="#212121" class="nc-icon-wrapper"><path data-color="color-2" d="M22,23H2c-.553,0-1-.448-1-1s.447-1,1-1H22c.553,0,1,.448,1,1s-.447,1-1,1Z" fill="#212121"></path><path d="M18.414,8l2-2c.378-.378,.586-.88,.586-1.414s-.208-1.037-.586-1.414l-1.586-1.586c-.779-.78-2.049-.78-2.828,0l-2,2,4.414,4.414Z" fill="#212121"></path><path d="M12.586,5l-7.293,7.293c-.096,.096-.171,.21-.222,.335l-2,5c-.148,.372-.062,.796,.222,1.079,.191,.191,.447,.293,.707,.293,.125,0,.251-.023,.371-.071l5-2c.126-.05,.24-.126,.336-.222l7.293-7.293-4.414-4.414Z" fill="#212121"></path></g></svg>