<svg xmlns="http://www.w3.org/2000/svg" height="24" width="24" viewBox="0 0 24 24"><title>face recognition</title><g fill="#212121" class="nc-icon-wrapper"><path d="M3,7H1V2A1,1,0,0,1,2,1H7V3H3Z" fill="#212121" data-color="color-2"></path><path d="M23,7H21V3H17V1h5a1,1,0,0,1,1,1Z" fill="#212121" data-color="color-2"></path><path d="M7,23H2a1,1,0,0,1-1-1V17H3v4H7Z" fill="#212121" data-color="color-2"></path><path d="M22,23H17V21h4V17h2v5A1,1,0,0,1,22,23Z" fill="#212121" data-color="color-2"></path><path d="M18.242,18.03l-2.727-.681a1,1,0,0,1-.744-.806l-.249-1.491A6.792,6.792,0,0,0,17,10V9A5,5,0,0,0,7,9v1a6.792,6.792,0,0,0,2.478,5.052l-.249,1.491a1,1,0,0,1-.743.806l-2.728.681A1,1,0,0,0,6,20H18a1,1,0,0,0,.242-1.97Z" fill="#212121"></path></g></svg>