<svg xmlns="http://www.w3.org/2000/svg" height="24" width="24" viewBox="0 0 24 24"><title>farmer market</title><g fill="#212121" class="nc-icon-wrapper"><path d="M8,19c-1.379,0-2.5,1.121-2.5,2.5s1.121,2.5,2.5,2.5,2.5-1.121,2.5-2.5-1.121-2.5-2.5-2.5Z" fill="#212121"></path><path d="M16,13H8v-3c0-.552,.448-1,1-1h6c.552,0,1,.448,1,1v3Z" fill="#212121" data-color="color-2"></path><path d="M23,15H2c-.552,0-1,.447-1,1v5c0,.553,.448,1,1,1h1.551c-.019-.166-.051-.329-.051-.5,0-2.481,2.019-4.5,4.5-4.5s4.5,2.019,4.5,4.5c0,.171-.032,.334-.051,.5h9.551v1c0,.553,.448,1,1,1s1-.447,1-1v-7c0-.553-.448-1-1-1Z" fill="#212121"></path><path d="M23.8,4.4L20.8,.4c-.188-.252-.485-.4-.8-.4H4c-.315,0-.611,.148-.8,.4L.2,4.4c-.228,.303-.264,.708-.095,1.047s.516,.553,.895,.553h1v7h2V6H20v7h2V6h1c.379,0,.725-.214,.895-.553s.133-.744-.095-1.047Z" fill="#212121"></path></g></svg>