<svg xmlns="http://www.w3.org/2000/svg" height="24" width="24" viewBox="0 0 24 24"><title>finger snap</title><g fill="#212121" class="nc-icon-wrapper"><path d="M13.293,6.707a1,1,0,0,0,1.414,0L16.5,4.914l1.793,1.793a1,1,0,0,0,1.414-1.414L17.914,3.5l1.793-1.793A1,1,0,0,0,18.293.293L16.5,2.086,14.707.293a1,1,0,0,0-1.414,1.414L15.086,3.5,13.293,5.293A1,1,0,0,0,13.293,6.707Z" fill="#212121" data-color="color-2"></path><path d="M21,9H9.766a1,1,0,0,1-.857-1.515l1.457-2.429A1.946,1.946,0,0,0,7.321,2.679L1,9V20.693s8.8,2.062,13.44,2.062a1.386,1.386,0,0,0,.335-2.7,1.84,1.84,0,0,0,1.585-1.8,1.74,1.74,0,0,0-1.068-1.635S17,16.325,17,14.877A1.793,1.793,0,0,0,15.633,13h5.26a2.075,2.075,0,0,0,2.08-1.664A2,2,0,0,0,21,9Z" fill="#212121"></path></g></svg>