<svg xmlns="http://www.w3.org/2000/svg" height="24" width="24" viewBox="0 0 24 24"><title>flower rose</title><g fill="#212121" class="nc-icon-wrapper"><path d="M17.041,17A4.984,4.984,0,0,0,13,19.077V15a1,1,0,0,0-2,0v4.027a4.948,4.948,0,0,0-5.959-1.62A4.984,4.984,0,0,0,10,22h1v1a1,1,0,0,0,2,0V22h1.041A4.984,4.984,0,0,0,19,17.407,4.961,4.961,0,0,0,17.041,17Z" fill="#212121"></path><path d="M12,0C8.009,0,5,1.72,5,4V9A7,7,0,0,0,19,9V4C19,1.72,15.991,0,12,0Zm5,9a5.006,5.006,0,0,1-5,5,1,1,0,0,1-1-1c0-.655.379-.946,1.462-1.61C13.956,10.476,16,9.224,16,5.5,16,4.052,14.318,3,12,3a1,1,0,0,0,0,2,3.261,3.261,0,0,1,1.941.5A3.261,3.261,0,0,1,12,6C8.948,6,7,4.815,7,4s1.948-2,5-2,5,1.185,5,2Z" fill="#212121" data-color="color-2"></path></g></svg>