<svg xmlns="http://www.w3.org/2000/svg" height="24" width="24" viewBox="0 0 24 24"><title>gaming console</title><g fill="#212121" class="nc-icon-wrapper"><path d="M23,0H13a1,1,0,0,0-1,1V9.1A5.841,5.841,0,0,1,13,9a5.957,5.957,0,0,1,4,1.54V5h2v9.8c1,6.907,1,7.02,1,7.2a3.959,3.959,0,0,1-.556,2H23a1,1,0,0,0,1-1V1A1,1,0,0,0,23,0Z" fill="#212121" data-color="color-2"></path><path d="M9,5A1,1,0,0,0,8,6v4h2V6A1,1,0,0,0,9,5Z" fill="#212121"></path><path d="M16.98,14.806A3.978,3.978,0,0,0,9.555,13H8.445A3.978,3.978,0,0,0,1.02,14.806S0,21.858,0,22a2,2,0,0,0,2,2,1.956,1.956,0,0,0,1.012-.283L6.952,21h4.1l3.94,2.717A1.956,1.956,0,0,0,16,24a2,2,0,0,0,2-2C18,21.858,16.98,14.806,16.98,14.806ZM5,16.5A1.5,1.5,0,1,1,6.5,15,1.5,1.5,0,0,1,5,16.5Zm8,0A1.5,1.5,0,1,1,14.5,15,1.5,1.5,0,0,1,13,16.5Z" fill="#212121"></path></g></svg>