<svg xmlns="http://www.w3.org/2000/svg" height="24" width="24" viewBox="0 0 24 24"><title>grid layout</title><g fill="#212121" class="nc-icon-wrapper"><path d="M20,1H4c-1.654,0-3,1.346-3,3V20c0,1.654,1.346,3,3,3H20c1.654,0,3-1.346,3-3V4c0-1.654-1.346-3-3-3ZM10,18c0,.552-.448,1-1,1h-3c-.552,0-1-.448-1-1v-3c0-.552,.448-1,1-1h3c.552,0,1,.448,1,1v3Zm0-9c0,.552-.448,1-1,1h-3c-.552,0-1-.448-1-1v-3c0-.552,.448-1,1-1h3c.552,0,1,.448,1,1v3Zm9,9c0,.552-.448,1-1,1h-3c-.552,0-1-.448-1-1v-3c0-.552,.448-1,1-1h3c.552,0,1,.448,1,1v3Zm0-9c0,.552-.448,1-1,1h-3c-.552,0-1-.448-1-1v-3c0-.552,.448-1,1-1h3c.552,0,1,.448,1,1v3Z" fill="#212121"></path></g></svg>