<svg xmlns="http://www.w3.org/2000/svg" height="24" width="24" viewBox="0 0 24 24"><title>hair man</title><g fill="#212121" class="nc-icon-wrapper"><path d="M21.165,21.514l-4.33-.722A1,1,0,0,1,16,19.806V18.564A11.734,11.734,0,0,0,19.975,10L20,10l.048-.917c.322-3.064-.166-5.315-1.509-6.849A7.254,7.254,0,0,0,13.58.066C13.5.058,13.418.056,13.336.05c-.193-.014-.387-.029-.572-.036C12.5,0,12.243,0,12,0h0C10.032,0,7.213.231,5.459,2.236,4.045,3.852,3.567,6.25,4,9.567v.01c0,.341.022.682.053,1.021,0,.01.007.018.008.028A11.591,11.591,0,0,0,8,18.564v1.242a1,1,0,0,1-.836.986l-4.329.722A1,1,0,0,0,3,23.5a.946.946,0,0,0,.166-.014l4.328-.721A2.991,2.991,0,0,0,10,19.806v-.152a5.953,5.953,0,0,0,4,0v.152a2.991,2.991,0,0,0,2.507,2.959l4.328.721A.946.946,0,0,0,21,23.5a1,1,0,0,0,.164-1.986ZM12,18c-3.143,0-5.553-3.76-5.939-7.474A3.968,3.968,0,0,1,10,7h2a3.975,3.975,0,0,0,3.056-1.447A5,5,0,0,0,18,9.564C17.971,13.56,15.416,18,12,18Z" fill="#212121"></path></g></svg>