<svg xmlns="http://www.w3.org/2000/svg" height="24" width="24" viewBox="0 0 24 24"><title>hair woman</title><g fill="#212121" class="nc-icon-wrapper"><path d="M22.811,16.254A14.759,14.759,0,0,1,21.971,11c0-7.222-5.016-11-9.971-11S2.029,3.778,2.029,11a14.759,14.759,0,0,1-.84,5.254c-.651,1.976-.927,3.263.962,6.725a1,1,0,0,0,1.074.5L6.616,22.8A3.008,3.008,0,0,0,9.029,19.86v-.579A6.621,6.621,0,0,0,12.043,20a5.913,5.913,0,0,0,2.986-.819v.683a3.01,3.01,0,0,0,2.405,2.941l3.339.675a1.041,1.041,0,0,0,.2.02,1,1,0,0,0,.877-.521C23.738,19.517,23.462,18.23,22.811,16.254Zm-5.826-5.426-.436.784a3,3,0,0,0,.134,3.128C15.544,16.666,13.8,18,12,18s-3.559-1.346-4.7-3.285C9,12,6,10,6,10c1.734-.189,6.834-2.528,7.736-5.957l2.9,3.372A3,3,0,0,1,16.985,10.828Z" fill="#212121"></path></g></svg>