<svg xmlns="http://www.w3.org/2000/svg" height="24" width="24" viewBox="0 0 24 24"><title>home</title><g fill="#212121" class="nc-icon-wrapper"><path d="M12,5.876L3,13.24v8.76c0,.552,.448,1,1,1h6v-5.5c0-.276,.224-.5,.5-.5h3c.276,0,.5,.224,.5,.5v5.5h6c.552,0,1-.448,1-1V13.24L12,5.876Z" fill="#212121"></path><path data-color="color-2" d="M23,12c-.223,0-.447-.074-.633-.226L12,3.292,1.633,11.774c-.428,.349-1.057,.287-1.407-.141-.35-.428-.287-1.058,.141-1.407L11.367,1.226c.368-.302,.898-.302,1.267,0l11,9c.427,.35,.49,.979,.141,1.407-.198,.242-.485,.367-.774,.367Z" fill="#212121"></path></g></svg>