<svg xmlns="http://www.w3.org/2000/svg" height="24" width="24" viewBox="0 0 24 24"><title>interview</title><g fill="#212121" class="nc-icon-wrapper"><path d="M4,24H0V5H1c3.866,0,7,3.134,7,7v.833l1.417,3.267c.219,.507-.014,1.096-.521,1.315-.026,.011-.052,.021-.079,.03l-.817,.276v1.279c0,1.657-1.343,3-3,3h-1v2Z" fill="#212121"></path><path d="M20,24h4V5h-1c-3.866,0-7,3.134-7,7v.833l-1.417,3.267c-.219,.507,.014,1.096,.521,1.315,.026,.011,.052,.021,.079,.03l.816,.273v1.282c0,1.657,1.343,3,3,3h1v2Z" fill="#212121"></path><path d="M17.815,4.691c-.276,0-.551-.114-.748-.337-2.558-2.885-6.983-3.151-9.864-.597-.105,.094-.211,.193-.312,.294-.393,.39-1.026,.388-1.415-.003-.39-.391-.388-1.024,.003-1.414,.129-.128,.262-.252,.396-.373,3.71-3.286,9.401-2.944,12.688,.766,.366,.413,.328,1.045-.085,1.412-.19,.168-.427,.251-.663,.251Z" fill="#212121" data-color="color-2"></path><path d="M14.82,7.353c-.277,0-.554-.115-.752-.34-1.08-1.231-2.963-1.357-4.199-.273-.049,.043-.1,.091-.148,.14-.391,.391-1.023,.391-1.414,0s-.391-1.023,0-1.414c.078-.078,.158-.154,.241-.227,2.065-1.811,5.215-1.605,7.024,.455,.364,.415,.323,1.047-.092,1.411-.19,.167-.426,.249-.66,.249Z" fill="#212121" data-color="color-2"></path></g></svg>