<svg xmlns="http://www.w3.org/2000/svg" height="24" width="24" viewBox="0 0 24 24"><title>key</title><g fill="#212121" class="nc-icon-wrapper"><path d="M18.293,.293L10.257,8.329C5.507,6.925,.49,10.125-.009,15.33c-.304,3.169,1.397,6.299,4.222,7.767,4.639,2.411,10.053-.058,11.458-4.808,.439-1.484,.439-3.062,0-4.546l2.036-2.036c.188-.188,.293-.442,.293-.707v-2c0-.552,.448-1,1-1h2c.265,0,.52-.105,.707-.293l2-2c.188-.188,.293-.442,.293-.707V1c0-.552-.448-1-1-1h-4c-.265,0-.52,.105-.707,.293ZM8,19c-1.657,0-3-1.343-3-3s1.343-3,3-3,3,1.343,3,3-1.343,3-3,3Z" fill="#212121"></path></g></svg>