<svg xmlns="http://www.w3.org/2000/svg" height="24" width="24" viewBox="0 0 24 24"><title>launch</title><g fill="#212121" class="nc-icon-wrapper"><path data-color="color-2" d="M22,1H14a1,1,0,0,0-.707,1.707L16.586,6l-6.293,6.293a1,1,0,1,0,1.414,1.414L18,7.414l3.293,3.293A1,1,0,0,0,22,11a.987.987,0,0,0,.383-.076A1,1,0,0,0,23,10V2A1,1,0,0,0,22,1Z" fill="#212121"></path><path d="M4,23H18a3,3,0,0,0,3-3V15a1,1,0,0,0-2,0v5a1,1,0,0,1-1,1H4a1,1,0,0,1-1-1V6A1,1,0,0,1,4,5H9A1,1,0,0,0,9,3H4A3,3,0,0,0,1,6V20A3,3,0,0,0,4,23Z" fill="#212121"></path></g></svg>