<svg xmlns="http://www.w3.org/2000/svg" height="24" width="24" viewBox="0 0 24 24"><title>leave</title><g fill="#212121" class="nc-icon-wrapper"><path data-color="color-2" d="M23.625,9.219l-5-4A1,1,0,0,0,17,6V9H11a1,1,0,0,0,0,2h6v3a1,1,0,0,0,1.625.781l5-4a1,1,0,0,0,0-1.562Z" fill="#212121"></path><path d="M13,7a1,1,0,0,0,1-1V1a1,1,0,0,0-1-1H1A1,1,0,0,0,0,1V18a1,1,0,0,0,.419.814l7,5A.988.988,0,0,0,8,24a1.019,1.019,0,0,0,.458-.11A1,1,0,0,0,9,23V19h4a1,1,0,0,0,1-1V14a1,1,0,0,0-2,0v3H9V6.016A1,1,0,0,0,8.583,5.2L4.112,2H12V6A1,1,0,0,0,13,7Z" fill="#212121"></path></g></svg>