<svg xmlns="http://www.w3.org/2000/svg" height="24" width="24" viewBox="0 0 24 24"><title>license key</title><g fill="#212121" class="nc-icon-wrapper"><path d="M23,1H1A1,1,0,0,0,0,2V22a1,1,0,0,0,1,1H23a1,1,0,0,0,1-1V2A1,1,0,0,0,23,1ZM7,3A1,1,0,1,1,6,4,1,1,0,0,1,7,3ZM3,3A1,1,0,1,1,2,4,1,1,0,0,1,3,3ZM22,21H2V7H22Z" fill="#212121"></path><path d="M20.851,12.475A1,1,0,0,0,20,12H11.445a4,4,0,1,0,0,4H14l1.5,1L17,16h2a1,1,0,0,0,.895-.553l1-2A1,1,0,0,0,20.851,12.475ZM7,15a1,1,0,1,1,1-1A1,1,0,0,1,7,15Z" fill="#212121" data-color="color-2"></path></g></svg>