<svg xmlns="http://www.w3.org/2000/svg" height="24" width="24" viewBox="0 0 24 24"><title>loop</title><g fill="#212121" class="nc-icon-wrapper"><path d="M23.625,5.219l-5-4A1,1,0,0,0,17,2V5H4A3,3,0,0,0,1,8v3a1,1,0,0,0,2,0V8A1,1,0,0,1,4,7H17v3a1,1,0,0,0,1.625.781l5-4a1,1,0,0,0,0-1.562Z" fill="#212121"></path><path data-color="color-2" d="M22,12a1,1,0,0,0-1,1v3a1,1,0,0,1-1,1H7V14a1,1,0,0,0-1.625-.781l-5,4a1,1,0,0,0,0,1.562l5,4A1,1,0,0,0,7,22V19H20a3,3,0,0,0,3-3V13A1,1,0,0,0,22,12Z" fill="#212121"></path></g></svg>