<svg xmlns="http://www.w3.org/2000/svg" height="24" width="24" viewBox="0 0 24 24"><title>love song</title><g fill="#212121" class="nc-icon-wrapper"><path d="M4.409,8.059l10-2A3.049,3.049,0,0,1,15,6a3,3,0,0,1,3,3v7.764c2.836-2.922,6-6.929,6-10.264A6.5,6.5,0,0,0,13,1.815,6.5,6.5,0,0,0,2,6.5a7.466,7.466,0,0,0,.593,2.728A2.985,2.985,0,0,1,4.409,8.059Z" fill="#212121"></path><path d="M16,19V9a1,1,0,0,0-1.2-.98l-10,2A1,1,0,0,0,4,11v8.05A2.559,2.559,0,0,0,3.5,19a2.594,2.594,0,1,0,2.466,2.164A.917.917,0,0,0,6,21V15.82l8-1.6v2.83a2.559,2.559,0,0,0-.5-.05,2.591,2.591,0,1,0,2.466,2.162A.99.99,0,0,0,16,19ZM6,13.78V11.819l8-1.6v1.96Z" fill="#212121" data-color="color-2"></path></g></svg>