<svg xmlns="http://www.w3.org/2000/svg" height="24" width="24" viewBox="0 0 24 24"><title>lucky seven</title><g fill="#212121" class="nc-icon-wrapper"><path d="M0,5V19H24V5ZM7,9.749a.492.492,0,0,1-.19.392,7.537,7.537,0,0,0-2.795,5.366A.517.517,0,0,1,3.507,16c-.63,0-.992.005-.992.005a.506.506,0,0,1-.5-.52A7.27,7.27,0,0,1,4.431,10H1.5A.5.5,0,0,1,1,9.5v-1A.5.5,0,0,1,1.5,8h5a.5.5,0,0,1,.5.5Zm8,0a.492.492,0,0,1-.19.392,7.537,7.537,0,0,0-2.795,5.366.517.517,0,0,1-.508.488c-.63,0-.992.005-.992.005a.506.506,0,0,1-.5-.52A7.27,7.27,0,0,1,12.431,10H9.5A.5.5,0,0,1,9,9.5v-1A.5.5,0,0,1,9.5,8h5a.5.5,0,0,1,.5.5Zm8,0a.492.492,0,0,1-.19.392,7.537,7.537,0,0,0-2.795,5.366.517.517,0,0,1-.508.488c-.63,0-.992.005-.992.005a.506.506,0,0,1-.5-.52A7.27,7.27,0,0,1,20.431,10H17.5a.5.5,0,0,1-.5-.5v-1a.5.5,0,0,1,.5-.5h5a.5.5,0,0,1,.5.5Z" fill="#212121" data-color="color-2"></path><path d="M1,1H23a1,1,0,0,1,1,1V3a0,0,0,0,1,0,0H0A0,0,0,0,1,0,3V2A1,1,0,0,1,1,1Z" fill="#212121"></path><path d="M0,21H24a0,0,0,0,1,0,0v1a1,1,0,0,1-1,1H1a1,1,0,0,1-1-1V21A0,0,0,0,1,0,21Z" fill="#212121"></path></g></svg>