<svg xmlns="http://www.w3.org/2000/svg" height="24" width="24" viewBox="0 0 24 24"><title>megaphone</title><g fill="#212121" class="nc-icon-wrapper"><path data-color="color-2" d="M10.467,16.004H5.07l2.613,6.43c.392,.973,1.331,1.565,2.322,1.565,.31,0,.624-.058,.929-.18,1.275-.516,1.896-1.973,1.384-3.252l-1.852-4.563Z" fill="#212121"></path><path d="M18.383,.081c-.371-.156-.804-.07-1.089,.215-.038,.037-3.763,3.708-7.294,3.708H5C2.243,4.004,0,6.247,0,9.004s2.243,5,5,5h5c3.531,0,7.256,3.671,7.294,3.708,.19,.19,.446,.292,.706,.292,.129,0,.26-.025,.383-.077,.374-.154,.617-.519,.617-.923V1.004c0-.404-.243-.769-.617-.923Z" fill="#212121"></path><path data-color="color-2" d="M21,6.004v6c1.657,0,3-1.343,3-3s-1.343-3-3-3Z" fill="#212121"></path></g></svg>