<svg xmlns="http://www.w3.org/2000/svg" height="24" width="24" viewBox="0 0 24 24"><title>microscope</title><g fill="#212121" class="nc-icon-wrapper"><path data-color="color-2" d="M13.494,18.405l6.131-3.539a1,1,0,1,0-1-1.732L12.5,16.673A7,7,0,0,1,13.494,18.405Z" fill="#212121"></path><path d="M21,22H12V21a5.006,5.006,0,0,0-5-5,4.946,4.946,0,0,0-1.787.345L4.9,15.861A4.988,4.988,0,0,1,6.335,8.773l1.382-.8,1.417,2.454a1,1,0,0,0,1.366.366l.866-.5.7,1.206a1,1,0,0,0,.867.5,1,1,0,0,0,.866-1.5l-.7-1.206.866-.5a1,1,0,0,0,.366-1.366L10.33.5A1,1,0,0,0,8.964.134l-3.464,2A1,1,0,0,0,5.134,3.5L6.717,6.243l-1.41.816a6.984,6.984,0,0,0-2.063,9.916l.282.442A4.977,4.977,0,0,0,2,21v2a1,1,0,0,0,1,1H21a1,1,0,0,0,0-2Z" fill="#212121"></path></g></svg>