<svg xmlns="http://www.w3.org/2000/svg" height="24" width="24" viewBox="0 0 24 24"><title>palm tree</title><g fill="#212121" class="nc-icon-wrapper"><path d="M18.847,6.1a7.55,7.55,0,0,0-2.974-1.175l4.533-2.015a1,1,0,0,0,.149-1.746,7.223,7.223,0,0,0-5.732-.89A7.087,7.087,0,0,0,10.857,3.91,5.533,5.533,0,0,0,7.7,1.812,6.986,6.986,0,0,0,2.375,3.219,1,1,0,0,0,2.757,4.97L7.023,6.036A9.031,9.031,0,0,0,3.756,8.9a6.759,6.759,0,0,0-.685,6.469,1,1,0,0,0,.789.619A.951.951,0,0,0,4,16a1,1,0,0,0,.79-.386l6.77-8.705,8.885,5.923a1,1,0,0,0,1.547-.956A7.776,7.776,0,0,0,18.847,6.1Z" fill="#212121" data-color="color-2"></path><path d="M23,22H12.816a22.05,22.05,0,0,0,1.178-7.059,21.976,21.976,0,0,0-.429-4.292L12,9.6l-.552.71a19.89,19.89,0,0,1,.548,4.627A20.073,20.073,0,0,1,10.7,22H1a1,1,0,0,0,0,2H23a1,1,0,0,0,0-2Z" fill="#212121"></path></g></svg>