<svg xmlns="http://www.w3.org/2000/svg" height="24" width="24" viewBox="0 0 24 24"><title>park</title><g fill="#212121" class="nc-icon-wrapper"><polygon points="15 19 0 19 0 21 2 21 2 24 4 24 4 21 11 21 11 24 13 24 13 21 15 21 15 19" fill="#212121"></polygon><path d="M3,11h9a1,1,0,0,1,1,1v5a0,0,0,0,1,0,0H2a0,0,0,0,1,0,0V12A1,1,0,0,1,3,11Z" fill="#212121"></path><path d="M22.679,6.96A6.1,6.1,0,0,0,23,5c0-2.757-1.794-5-4-5s-4,2.243-4,5a6.1,6.1,0,0,0,.321,1.96A6.669,6.669,0,0,0,14,11c0,2.9,1.721,5.321,4,5.879V24h2V16.879c2.279-.558,4-2.981,4-5.879A6.669,6.669,0,0,0,22.679,6.96Z" fill="#212121" data-color="color-2"></path></g></svg>