<svg xmlns="http://www.w3.org/2000/svg" height="24" width="24" viewBox="0 0 24 24"><title>pen</title><g fill="#212121" class="nc-icon-wrapper"><path d="M13.086,5.5L3.293,15.293c-.109,.11-.192,.244-.241,.391l-2,6c-.12,.359-.026,.756,.241,1.023,.19,.191,.446,.293,.707,.293,.105,0,.213-.017,.316-.051l6-2c.147-.049,.281-.132,.391-.242l9.793-9.793-5.414-5.414Z" fill="#212121"></path><path data-color="color-2" d="M22.414,4.172l-2.586-2.586c-.779-.78-2.049-.78-2.828,0l-2.5,2.5,5.414,5.414,2.5-2.5c.378-.378,.586-.88,.586-1.414s-.208-1.037-.586-1.414Z" fill="#212121"></path></g></svg>