<svg xmlns="http://www.w3.org/2000/svg" height="24" width="24" viewBox="0 0 24 24"><title>phone call</title><g fill="#212121" class="nc-icon-wrapper"><path d="M21.2,17.676l-5.59-2.4a1,1,0,0,0-1.1.211l-2.334,2.3A18.952,18.952,0,0,1,8.8,15.2a19.151,19.151,0,0,1-2.588-3.37L8.512,9.5A1,1,0,0,0,8.72,8.4L6.32,2.81a1,1,0,0,0-1.17-.573L.75,3.4A1,1,0,0,0,0,4.4,21.143,21.143,0,0,0,5.985,18.016,21.135,21.135,0,0,0,19.606,24a1,1,0,0,0,1-.749l1.162-4.4A1,1,0,0,0,21.2,17.676Z" fill="#212121"></path><path data-color="color-2" d="M18,10a1,1,0,0,0,2,0,6.006,6.006,0,0,0-6-6,1,1,0,0,0,0,2A4,4,0,0,1,18,10Z" fill="#212121"></path><path data-color="color-2" d="M14,0a1,1,0,0,0,0,2,8.009,8.009,0,0,1,8,8,1,1,0,0,0,2,0A10.011,10.011,0,0,0,14,0Z" fill="#212121"></path></g></svg>