<svg xmlns="http://www.w3.org/2000/svg" height="24" width="24" viewBox="0 0 24 24"><title>progress 2</title><g fill="#212121" class="nc-icon-wrapper"><path d="M12,24a1,1,0,0,1,0-2A10,10,0,0,0,12,2a1,1,0,0,1,0-2,12,12,0,0,1,0,24Z" fill="#212121"></path><path d="M1.045,13.913a1,1,0,0,1-1-.919C.022,12.665,0,12.336,0,12s.022-.665.049-.994a1,1,0,1,1,1.993.162C2.021,11.442,2,11.719,2,12s.021.558.042.832a1,1,0,0,1-.916,1.078Q1.086,13.913,1.045,13.913Z" fill="#212121" data-color="color-2"></path><path d="M6.243,3.641a1,1,0,0,1-.526-1.852,12.022,12.022,0,0,1,1.774-.9,1,1,0,1,1,.754,1.851,10.133,10.133,0,0,0-1.478.757A.993.993,0,0,1,6.243,3.641Z" fill="#212121" data-color="color-2"></path><path d="M2.188,8.044a.988.988,0,0,1-.451-.108A1,1,0,0,1,1.3,6.592,12.131,12.131,0,0,1,2.342,4.9,1,1,0,0,1,3.953,6.083,10.1,10.1,0,0,0,3.081,7.5,1,1,0,0,1,2.188,8.044Z" fill="#212121" data-color="color-2"></path><path d="M3.128,19.482a1,1,0,0,1-.808-.409,12.049,12.049,0,0,1-1.041-1.7,1,1,0,1,1,1.787-.9,10.047,10.047,0,0,0,.868,1.418,1,1,0,0,1-.217,1.4A.986.986,0,0,1,3.128,19.482Z" fill="#212121" data-color="color-2"></path><path d="M7.853,23.185a.983.983,0,0,1-.377-.075A11.879,11.879,0,0,1,5.7,22.2,1,1,0,0,1,6.75,20.5a10.041,10.041,0,0,0,1.48.761,1,1,0,0,1-.377,1.926Z" fill="#212121" data-color="color-2"></path><path d="M10,17a1,1,0,0,1-.707-.293l-4-4a1,1,0,0,1,1.414-1.414L10,14.586l7.293-7.293a1,1,0,1,1,1.414,1.414l-8,8A1,1,0,0,1,10,17Z" fill="#212121"></path></g></svg>