<svg xmlns="http://www.w3.org/2000/svg" height="24" width="24" viewBox="0 0 24 24"><title>question mark</title><g fill="#212121" class="nc-icon-wrapper"><circle data-color="color-2" cx="12" cy="21" r="2" fill="#212121"></circle><path d="M12,17c-.828,0-1.5-.672-1.5-1.5v-.5c0-2.233,1.427-3.615,3.443-5.324,.618-.523,2.548-2.374,1.429-4.187-.731-1.183-3.48-1.339-5.766-.327-.76,.334-1.644-.009-1.979-.766-.335-.758,.008-1.644,.766-1.979,3.324-1.467,7.796-1.312,9.531,1.494,1.58,2.561,.798,5.646-2.042,8.053-2.039,1.728-2.383,2.332-2.383,3.035v.5c0,.828-.672,1.5-1.5,1.5Z" fill="#212121"></path></g></svg>