<svg xmlns="http://www.w3.org/2000/svg" height="24" width="24" viewBox="0 0 24 24"><title>reload</title><g fill="#212121" class="nc-icon-wrapper"><path d="M2,12A9.989,9.989,0,0,1,17.619,3.738L15.816,6a.5.5,0,0,0,.081.7.49.49,0,0,0,.268.107l6.672.568a.5.5,0,0,0,.541-.456.512.512,0,0,0-.022-.194L21.314.35a.5.5,0,0,0-.385-.339A.46.46,0,0,0,20.838,0a.5.5,0,0,0-.391.189l-1.58,1.982A11.985,11.985,0,0,0,0,12a1,1,0,0,0,2,0Z" fill="#212121"></path><path data-color="color-2" d="M23,11a1,1,0,0,0-1,1A9.989,9.989,0,0,1,6.381,20.262L8.184,18a.5.5,0,0,0-.349-.809l-6.672-.568a.5.5,0,0,0-.541.456.512.512,0,0,0,.022.194L2.686,23.65a.5.5,0,0,0,.385.339A.46.46,0,0,0,3.162,24a.5.5,0,0,0,.391-.189l1.58-1.982A11.985,11.985,0,0,0,24,12,1,1,0,0,0,23,11Z" fill="#212121"></path></g></svg>