<svg xmlns="http://www.w3.org/2000/svg" height="24" width="24" viewBox="0 0 24 24"><title>replay</title><g fill="#212121" class="nc-icon-wrapper"><path data-color="color-2" d="M21,5H20a1,1,0,0,0,0,2h1a1,1,0,0,1,1,1v8a1,1,0,0,1-1,1H14V14a1,1,0,0,0-1.625-.781l-5,4a1,1,0,0,0,0,1.562l5,4A1,1,0,0,0,14,22V19h7a3,3,0,0,0,3-3V8A3,3,0,0,0,21,5Z" fill="#212121"></path><path d="M4,17H3a1,1,0,0,1-1-1V8A1,1,0,0,1,3,7h7v3a1,1,0,0,0,1.625.781l5-4a1,1,0,0,0,0-1.562l-5-4A1,1,0,0,0,10,2V5H3A3,3,0,0,0,0,8v8a3,3,0,0,0,3,3H4a1,1,0,0,0,0-2Z" fill="#212121"></path></g></svg>