<svg xmlns="http://www.w3.org/2000/svg" height="24" width="24" viewBox="0 0 24 24"><title>s pulse</title><g fill="#212121" class="nc-icon-wrapper"><path d="M6.434,11l2.709-4.515c.284-.473,.899-.627,1.372-.342,.187,.113,.333,.283,.414,.486l3.251,8.128,1.963-3.272c.181-.301,.506-.485,.857-.485h6V4c0-1.657-1.343-3-3-3H4c-1.657,0-3,1.343-3,3v7H6.434Z" fill="#212121"></path><path data-color="color-2" d="M17.566,13l-2.709,4.515c-.181,.301-.506,.485-.857,.485h-.08c-.379-.03-.708-.273-.849-.626l-3.251-8.131-1.963,3.272c-.181,.301-.506,.485-.857,.485H1v7c0,1.657,1.343,3,3,3H20c1.657,0,3-1.343,3-3v-7h-5.434Z" fill="#212121"></path></g></svg>