<svg xmlns="http://www.w3.org/2000/svg" height="24" width="24" viewBox="0 0 24 24"><title>s question</title><g fill="#212121" class="nc-icon-wrapper"><path d="M20,1H4c-1.654,0-3,1.346-3,3V20c0,1.654,1.346,3,3,3H20c1.654,0,3-1.346,3-3V4c0-1.654-1.346-3-3-3ZM12,19.5c-.69,0-1.25-.56-1.25-1.25s.56-1.25,1.25-1.25,1.25,.56,1.25,1.25-.56,1.25-1.25,1.25Zm2.688-7.198c-1.444,1.224-1.688,1.667-1.688,2.198,0,.553-.448,1-1,1s-1-.447-1-1c0-1.434,.807-2.379,2.395-3.724,.447-.38,1.844-1.72,1.025-3.046-.532-.86-2.515-.984-4.162-.256-.505,.22-1.096-.005-1.319-.511-.223-.505,.005-1.096,.51-1.319,2.329-1.028,5.462-.924,6.672,1.035,1.103,1.784,.554,3.938-1.433,5.622Z" fill="#212121"></path></g></svg>