<svg xmlns="http://www.w3.org/2000/svg" height="24" width="24" viewBox="0 0 24 24"><title>save for later</title><g fill="#212121" class="nc-icon-wrapper"><path d="M18,14A7.993,7.993,0,0,1,10.587,3H1A1,1,0,0,0,0,4V23a1,1,0,0,0,1,1H20a1,1,0,0,0,1-1V13.413A7.952,7.952,0,0,1,18,14Zm1,8H2V18H19Z" fill="#212121"></path><path data-color="color-2" d="M18,0a6,6,0,1,0,6,6A6,6,0,0,0,18,0Zm3.5,7H19V9.5a.5.5,0,0,1-.5.5h-1a.5.5,0,0,1-.5-.5V7H14.5a.5.5,0,0,1-.5-.5v-1a.5.5,0,0,1,.5-.5H17V2.5a.5.5,0,0,1,.5-.5h1a.5.5,0,0,1,.5.5V5h2.5a.5.5,0,0,1,.5.5v1A.5.5,0,0,1,21.5,7Z" fill="#212121"></path></g></svg>