<svg xmlns="http://www.w3.org/2000/svg" height="24" width="24" viewBox="0 0 24 24"><title>screen enlarge</title><g fill="#212121" class="nc-icon-wrapper"><rect data-color="color-2" x="6" y="6" width="12" height="12" rx="1" ry="1" fill="#212121"></rect><path d="M2,9c.552,0,1-.448,1-1V4c0-.552,.448-1,1-1h4c.552,0,1-.448,1-1s-.448-1-1-1H4c-1.657,0-3,1.343-3,3v4c0,.552,.448,1,1,1Z" fill="#212121"></path><path d="M20,1h-4c-.552,0-1,.448-1,1s.448,1,1,1h4c.552,0,1,.448,1,1v4c0,.552,.448,1,1,1s1-.448,1-1V4c0-1.657-1.343-3-3-3Z" fill="#212121"></path><path d="M22,15c-.552,0-1,.448-1,1v4c0,.552-.448,1-1,1h-4c-.552,0-1,.448-1,1s.448,1,1,1h4c1.657,0,3-1.343,3-3v-4c0-.552-.448-1-1-1Z" fill="#212121"></path><path d="M8,21H4c-.552,0-1-.448-1-1v-4c0-.552-.448-1-1-1s-1,.448-1,1v4c0,1.657,1.343,3,3,3h4c.552,0,1-.448,1-1s-.448-1-1-1Z" fill="#212121"></path></g></svg>