<svg xmlns="http://www.w3.org/2000/svg" height="24" width="24" viewBox="0 0 24 24"><title>selfie 2</title><g fill="#212121" class="nc-icon-wrapper"><path d="M6,14a3,3,0,0,1,3-3h2a3,3,0,0,1,3,3Z" fill="#212121" data-color="color-2"></path><circle cx="10" cy="8" r="2" fill="#212121" data-color="color-2"></circle><path d="M24,4.072,17.192,1.084A1.009,1.009,0,0,0,16.79,1H10.449a1.5,1.5,0,0,0,0,3H15l4,2v8a2,2,0,0,1-2,2H8.55a1.57,1.57,0,0,0-1.592,1.34A1.5,1.5,0,0,0,8.19,18.974L15,20l4.762,2.857a1,1,0,0,0,.515.143H24Z" fill="#212121"></path><path d="M6.008,15H2V5H8.008c-.079-.077-.144-.164-.215-.248s-.122-.137-.175-.212a3.4,3.4,0,0,1-.21-.342c-.029-.052-.059-.1-.085-.156a3.526,3.526,0,0,1-.178-.436c-.009-.028-.017-.056-.026-.085A3.458,3.458,0,0,1,7,3H2A2,2,0,0,0,0,5V15a2,2,0,0,0,2,2H5A3.475,3.475,0,0,1,6.008,15Z" fill="#212121"></path></g></svg>