<svg xmlns="http://www.w3.org/2000/svg" height="24" width="24" viewBox="0 0 24 24"><title>settings</title><g fill="#212121" class="nc-icon-wrapper"><path data-color="color-2" d="M6.79,9.5,9.222,7.354a6.69,6.69,0,0,1-.043-.862v-.02L2.854.146a.5.5,0,0,0-.708,0l-2,2a.5.5,0,0,0,0,.708Z" fill="#212121"></path><path data-color="color-2" d="M20.107,14.4a8.456,8.456,0,0,1-.839.234l-.114.02a9.8,9.8,0,0,1-1.433.107,9.57,9.57,0,0,1-1.044-.058l-3.616,4.065L17.093,22.8A3.975,3.975,0,0,0,19.909,24h.042A4.05,4.05,0,0,0,22.8,17.1Z" fill="#212121"></path><path d="M23.628,4.427a.5.5,0,0,0-.82-.179L19.943,7.1,16.9,4.068l2.863-2.85A.494.494,0,0,0,19.9.771.5.5,0,0,0,19.6.405,4.866,4.866,0,0,0,17,.045a6.376,6.376,0,0,0-5.822,6.473,4.9,4.9,0,0,0,.235,1.569L1.367,16.939a4.076,4.076,0,0,0-.329,5.752l.086.094a3.939,3.939,0,0,0,5.564.124,3.733,3.733,0,0,0,.322-.347l8.914-10.021a7.524,7.524,0,0,0,2.938.135,6.427,6.427,0,0,0,4.883-4.51A5.846,5.846,0,0,0,23.628,4.427Z" fill="#212121"></path></g></svg>