<svg xmlns="http://www.w3.org/2000/svg" height="24" width="24" viewBox="0 0 24 24"><title>shopping cart</title><g fill="#212121" class="nc-icon-wrapper"><circle data-color="color-2" cx="6.5" cy="21.5" r="2.5" fill="#212121"></circle><circle data-color="color-2" cx="19.5" cy="21.5" r="2.5" fill="#212121"></circle><path d="M20,17H6c-.501,0-.925-.371-.991-.868L3.125,2H1c-.552,0-1-.448-1-1H0C0,.448,.448,0,1,0h3c.501,0,.925,.371,.991,.868l.551,4.132H23c.316,0,.614,.149,.802,.403,.189,.254,.247,.582,.156,.884l-3,10c-.127,.423-.516,.713-.958,.713Z" fill="#212121"></path></g></svg>