<svg xmlns="http://www.w3.org/2000/svg" height="24" width="24" viewBox="0 0 24 24"><title>shopping label</title><g fill="#212121" class="nc-icon-wrapper"><path d="M21.707,9.293L12.707,.293c-.391-.39-1.024-.39-1.414,0L2.293,9.293c-.187,.187-.293,.442-.293,.707v11c0,1.657,1.343,3,3,3h14c1.657,0,3-1.343,3-3V10c0-.265-.105-.519-.293-.707Zm-9.707-1.293c1.105,0,2,.895,2,2s-.895,2-2,2-2-.895-2-2,.895-2,2-2Zm4,10H8c-.552,0-1-.447-1-1s.448-1,1-1h8c.552,0,1,.447,1,1s-.448,1-1,1Z" fill="#212121"></path></g></svg>