<svg xmlns="http://www.w3.org/2000/svg" height="24" width="24" viewBox="0 0 24 24"><title>sidebar</title><g fill="#212121" class="nc-icon-wrapper"><path d="M21,2H3C1.346,2,0,3.346,0,5v14c0,1.654,1.346,3,3,3H21c1.654,0,3-1.346,3-3V5c0-1.654-1.346-3-3-3ZM12,20H3c-.552,0-1-.449-1-1V5c0-.551,.448-1,1-1H12V20Zm9-3.5c0,.276-.224,.5-.5,.5h-5c-.276,0-.5-.224-.5-.5v-1c0-.276,.224-.5,.5-.5h5c.276,0,.5,.224,.5,.5v1Zm0-4c0,.276-.224,.5-.5,.5h-5c-.276,0-.5-.224-.5-.5v-1c0-.276,.224-.5,.5-.5h5c.276,0,.5,.224,.5,.5v1Zm0-4c0,.276-.224,.5-.5,.5h-5c-.276,0-.5-.224-.5-.5v-1c0-.276,.224-.5,.5-.5h5c.276,0,.5,.224,.5,.5v1Z" fill="#212121"></path> </g></svg>