<svg xmlns="http://www.w3.org/2000/svg" height="24" width="24" viewBox="0 0 24 24"><title>theater</title><g fill="#212121" class="nc-icon-wrapper"><path d="M15.334,1.278a21.767,21.767,0,0,0-14.668,0A1,1,0,0,0,0,2.221V12a8,8,0,0,0,16,0V2.221A1,1,0,0,0,15.334,1.278ZM3,8A1,1,0,0,1,4,7H5A1,1,0,0,1,5,9H4A1,1,0,0,1,3,8Zm5,9a3,3,0,0,1-3-3h6A3,3,0,0,1,8,17Zm4-8H11a1,1,0,0,1,0-2h1a1,1,0,0,1,0,2Z" fill="#212121"></path><path d="M23.334,5.273A22.073,22.073,0,0,0,18,4.1V12a1,1,0,0,1,1-1h1a1,1,0,0,1,0,2H19a1,1,0,0,1-1-1V12a9.938,9.938,0,0,1-2.016,6H16a3,3,0,0,1,3,3H15v0H12.276a9.862,9.862,0,0,1-1.877.7A7.993,7.993,0,0,0,24,16V6.215A1,1,0,0,0,23.334,5.273Z" fill="#212121" data-color="color-2"></path></g></svg>