<svg xmlns="http://www.w3.org/2000/svg" height="24" width="24" viewBox="0 0 24 24"><title>time alarm</title><g fill="#212121" class="nc-icon-wrapper"><path data-color="color-2" d="M1,7A1,1,0,0,1,.293,5.293l5-5A1,1,0,0,1,6.707,1.707l-5,5A1,1,0,0,1,1,7Z" fill="#212121"></path><path data-color="color-2" d="M23,7a1,1,0,0,1-.707-.293l-5-5A1,1,0,0,1,18.707.293l5,5A1,1,0,0,1,23,7Z" fill="#212121"></path><path d="M19.2,18.927a10,10,0,1,0-14.39,0L2.2,22.4a1,1,0,1,0,1.6,1.2l2.529-3.373a9.956,9.956,0,0,0,11.342,0L20.2,23.6a1,1,0,1,0,1.6-1.2ZM17,13H12a1,1,0,0,1-1-1V7a1,1,0,0,1,2,0v4h4a1,1,0,0,1,0,2Z" fill="#212121"></path></g></svg>