<svg xmlns="http://www.w3.org/2000/svg" height="24" width="24" viewBox="0 0 24 24"><title>unlink</title><g fill="#212121" class="nc-icon-wrapper"><path data-color="color-2" d="M9.172,13.414l-1.879,1.879c-.397,.384-.408,1.017-.025,1.414s1.017,.408,1.414,.025c.008-.008,.017-.016,.025-.025l1.879-1.879-1.414-1.414Z" fill="#212121"></path><path d="M12.672,16.914l-2.932,2.932c-1.554,1.531-4.055,1.514-5.586-.04-1.516-1.538-1.516-4.008,0-5.546l2.932-2.932-1.415-1.414-2.933,2.933c-2.323,2.323-2.323,6.09,0,8.413,2.323,2.323,6.09,2.323,8.414,0l2.933-2.933-1.413-1.413Z" fill="#212121"></path><path data-color="color-2" d="M13.414,9.172l1.879-1.879c.384-.397,1.017-.408,1.414-.025s.408,1.017,.025,1.414c-.008,.008-.016,.017-.025,.025l-1.879,1.879-1.414-1.414Z" fill="#212121"></path><path d="M16.914,12.672l2.932-2.932c1.531-1.554,1.514-4.055-.04-5.586-1.538-1.516-4.008-1.516-5.546,0l-2.932,2.932-1.414-1.415,2.933-2.933c2.323-2.323,6.09-2.323,8.413,0,2.323,2.323,2.323,6.09,0,8.414l-2.933,2.933-1.413-1.413Z" fill="#212121"></path><path data-color="color-2" d="M22,23c-.256,0-.512-.098-.707-.293L1.293,2.707c-.391-.391-.391-1.023,0-1.414s1.023-.391,1.414,0L22.707,21.293c.391,.391,.391,1.023,0,1.414-.195,.195-.451,.293-.707,.293Z" fill="#212121"></path></g></svg>