<svg xmlns="http://www.w3.org/2000/svg" height="24" width="24" viewBox="0 0 24 24"><title>upload</title><g fill="#212121" class="nc-icon-wrapper"><path d="M20,10H17a1,1,0,0,0,0,2h3a1,1,0,0,1,1,1v7a1,1,0,0,1-1,1H4a1,1,0,0,1-1-1V13a1,1,0,0,1,1-1H7a1,1,0,0,0,0-2H4a3,3,0,0,0-3,3v7a3,3,0,0,0,3,3H20a3,3,0,0,0,3-3V13A3,3,0,0,0,20,10Z" fill="#212121"></path><path data-color="color-2" d="M8,8h3v8a1,1,0,0,0,2,0V8h3a1,1,0,0,0,.781-1.625l-4-5a1.034,1.034,0,0,0-1.562,0l-4,5A1,1,0,0,0,8,8Z" fill="#212121"></path></g></svg>