<svg xmlns="http://www.w3.org/2000/svg" height="24" width="24" viewBox="0 0 24 24"><title>vacuum cleaner</title><g fill="#212121" class="nc-icon-wrapper"><path d="M7,8H9a3,3,0,0,1,3,3v5.1a5.069,5.069,0,0,0-2.55.14A4.977,4.977,0,0,0,7.026,24H2a2,2,0,0,1-2-2V15A7,7,0,0,1,7,8ZM2,16H3a3,3,0,0,0,3-3V10.1A5.009,5.009,0,0,0,2,15Z" fill="#212121"></path><path d="M11,24a3,3,0,1,0-3-3A3,3,0,0,0,11,24Z" fill="#212121" data-color="color-2"></path><path d="M15.5,0A5.506,5.506,0,0,0,10,5.5v.6a4.954,4.954,0,0,1,2,.925V5.5a3.5,3.5,0,0,1,7,0V10h2V5.5A5.506,5.506,0,0,0,15.5,0Z" fill="#212121"></path><path d="M23.555,21.168,21,19.465V12H19v7.465l-2.555,1.7A1,1,0,0,0,16,22v1a1,1,0,0,0,1,1h6a1,1,0,0,0,1-1V22A1,1,0,0,0,23.555,21.168Z" fill="#212121" data-color="color-2"></path></g></svg>