<svg xmlns="http://www.w3.org/2000/svg" height="24" width="24" viewBox="0 0 24 24"><title>watering plants</title><g fill="#212121" class="nc-icon-wrapper"><path d="M17,8c-1.654,0-3-1.346-3-3,0-2.347,2.058-4.473,2.293-4.707,.391-.391,1.023-.391,1.414,0,.235,.234,2.293,2.36,2.293,4.707,0,1.654-1.346,3-3,3Z" fill="#212121" data-color="color-2"></path><path d="M8.5,7c-1.378,0-2.5-1.121-2.5-2.5,0-1.51,1.523-2.965,1.829-3.241,.381-.346,.961-.346,1.342,0,.306,.276,1.829,1.731,1.829,3.241,0,1.379-1.122,2.5-2.5,2.5Z" fill="#212121" data-color="color-2"></path><path d="M21,11h-4c-2.082,0-3.949,.919-5.232,2.366-.714-2.516-3.026-4.366-5.768-4.366H3c-.552,0-1,.447-1,1,0,3.859,3.14,7,7,7h1v6c0,.553,.448,1,1,1s1-.447,1-1v-5c0-.31,.032-.613,.092-.906,.429-2.325,2.462-4.094,4.908-4.094,.552,0,1,.447,1,1s-.448,1-1,1c-1.654,0-3,1.346-3,3v2.941c4.493-.499,8-4.316,8-8.941,0-.553-.448-1-1-1Z" fill="#212121"></path></g></svg>