<svg xmlns="http://www.w3.org/2000/svg" height="24" width="24" viewBox="0 0 24 24"><title>zoom in</title><g fill="#212121" class="nc-icon-wrapper"><path d="M22.561,20.439l-5.233-5.233c2.891-4.063,1.941-9.699-2.122-12.59C11.143-.275,5.507,.675,2.616,4.738-.275,8.801,.675,14.437,4.738,17.328c3.133,2.229,7.335,2.229,10.468,0l5.233,5.233c.586,.586,1.536,.586,2.122,0,.586-.586,.586-1.536,0-2.122Zm-12.561-3.439c-3.864-.004-6.996-3.136-7-7,0-3.866,3.134-7,7-7s7,3.134,7,7-3.134,7-7,7Z" fill="#212121"></path><path data-color="color-2" d="M13,9h-2v-2c0-.552-.447-1-1-1s-1,.448-1,1v2h-2c-.553,0-1,.448-1,1s.447,1,1,1h2v2c0,.552,.447,1,1,1s1-.448,1-1v-2h2c.553,0,1-.448,1-1s-.447-1-1-1Z" fill="#212121"></path></g></svg>