<svg xmlns="http://www.w3.org/2000/svg" xmlns:xlink="http://www.w3.org/1999/xlink" width="100" zoomAndPan="magnify" viewBox="0 0 75 74.999997" height="100" preserveAspectRatio="xMidYMid meet" version="1.0"><defs><clipPath id="94ef046a99"><path d="M 21.082031 13.574219 L 54 13.574219 L 54 61 L 21.082031 61 Z M 21.082031 13.574219 " clip-rule="nonzero"/></clipPath></defs><g clip-path="url(#94ef046a99)"><path fill="#ffffff" d="M 37.5 13.589844 C 46.566406 13.589844 53.917969 20.9375 53.917969 30.007812 C 53.917969 33.160156 53.027344 36.109375 51.484375 38.609375 C 49.632812 41.675781 47.78125 44.742188 45.933594 47.804688 C 43.679688 51.46875 41.855469 54.433594 39.601562 58.097656 C 37.617188 61.324219 37.480469 61.40625 35.484375 58.160156 C 33.242188 54.515625 31.355469 51.449219 29.117188 47.804688 C 27.269531 44.773438 25.421875 41.742188 23.578125 38.714844 C 21.996094 36.1875 21.082031 33.207031 21.082031 30.007812 C 21.082031 20.9375 28.429688 13.589844 37.5 13.589844 Z M 37.5 21.820312 C 41.5625 21.820312 44.859375 25.117188 44.859375 29.179688 C 44.859375 33.246094 41.5625 36.539062 37.5 36.539062 C 33.433594 36.539062 30.136719 33.246094 30.136719 29.179688 C 30.136719 25.117188 33.433594 21.820312 37.5 21.820312 Z M 37.5 21.820312 " fill-opacity="1" fill-rule="evenodd"/></g></svg>