<svg xmlns="http://www.w3.org/2000/svg" xmlns:xlink="http://www.w3.org/1999/xlink" width="100" zoomAndPan="magnify" viewBox="0 0 75 74.999997" height="100" preserveAspectRatio="xMidYMid meet" version="1.0"><defs><clipPath id="dc35aa2301"><path d="M 12.890625 1.640625 L 62.390625 1.640625 L 62.390625 73 L 12.890625 73 Z M 12.890625 1.640625 " clip-rule="nonzero"/></clipPath></defs><g clip-path="url(#dc35aa2301)"><path fill="#ffffff" d="M 37.5 1.660156 C 51.089844 1.660156 62.109375 12.679688 62.109375 26.269531 C 62.109375 31 60.773438 35.417969 58.464844 39.167969 C 55.691406 43.761719 52.914062 48.355469 50.144531 52.949219 C 46.765625 58.441406 44.03125 62.882812 40.652344 68.375 C 37.675781 73.214844 37.476562 73.335938 34.480469 68.46875 C 31.121094 63.007812 28.296875 58.414062 24.933594 52.949219 C 22.167969 48.40625 19.402344 43.863281 16.632812 39.320312 C 14.261719 35.539062 12.890625 31.066406 12.890625 26.269531 C 12.890625 12.679688 23.910156 1.660156 37.5 1.660156 Z M 37.5 14 C 43.59375 14 48.53125 18.9375 48.53125 25.03125 C 48.53125 31.125 43.59375 36.066406 37.5 36.066406 C 31.40625 36.066406 26.46875 31.125 26.46875 25.03125 C 26.46875 18.9375 31.40625 14 37.5 14 Z M 37.5 14 " fill-opacity="1" fill-rule="evenodd"/></g></svg>