<svg xmlns="http://www.w3.org/2000/svg" xmlns:xlink="http://www.w3.org/1999/xlink" width="100" zoomAndPan="magnify" viewBox="0 0 75 74.999997" height="100" preserveAspectRatio="xMidYMid meet" version="1.0"><defs><clipPath id="2e0011e043"><path d="M 13.609375 13.609375 L 61.609375 13.609375 L 61.609375 61.609375 L 13.609375 61.609375 Z M 13.609375 13.609375 " clip-rule="nonzero"/></clipPath></defs><rect x="-7.5" width="90" fill="#ffffff" y="-7.5" height="89.999996" fill-opacity="1"/><rect x="-7.5" width="90" fill="#000000" y="-7.5" height="89.999996" fill-opacity="1"/><g clip-path="url(#2e0011e043)"><path fill="#ffffff" d="M 37.496094 61.386719 C 50.691406 61.386719 61.386719 50.691406 61.386719 37.496094 C 61.386719 24.304688 50.691406 13.609375 37.496094 13.609375 C 24.304688 13.609375 13.609375 24.304688 13.609375 37.496094 C 13.609375 50.691406 24.304688 61.386719 37.496094 61.386719 Z M 26.648438 27.335938 L 37.496094 36.015625 L 48.347656 27.335938 L 48.660156 27.074219 L 26.335938 27.074219 Z M 49.820312 29.121094 L 50.238281 28.773438 L 50.238281 46.761719 C 50.238281 47.402344 49.71875 47.921875 49.078125 47.921875 L 25.914062 47.921875 C 25.273438 47.921875 24.757812 47.402344 24.757812 46.761719 L 24.757812 28.773438 L 25.171875 29.121094 L 36.773438 38.402344 C 37.195312 38.738281 37.796875 38.738281 38.21875 38.402344 L 49.804688 29.136719 Z M 49.820312 29.121094 " fill-opacity="1" fill-rule="evenodd"/></g></svg>