<svg xmlns="http://www.w3.org/2000/svg" xmlns:xlink="http://www.w3.org/1999/xlink" width="100" zoomAndPan="magnify" viewBox="0 0 75 74.999997" height="100" preserveAspectRatio="xMidYMid meet" version="1.0"><defs><clipPath id="8cea9aff7e"><path d="M 2.132812 2.132812 L 72.632812 2.132812 L 72.632812 72.632812 L 2.132812 72.632812 Z M 2.132812 2.132812 " clip-rule="nonzero"/></clipPath></defs><g clip-path="url(#8cea9aff7e)"><path fill="#ffffff" d="M 37.496094 72.855469 C 57.023438 72.855469 72.855469 57.023438 72.855469 37.496094 C 72.855469 17.964844 57.023438 2.132812 37.496094 2.132812 C 17.964844 2.132812 2.132812 17.964844 2.132812 37.496094 C 2.132812 57.023438 17.964844 72.855469 37.496094 72.855469 Z M 21.433594 22.449219 L 37.496094 35.300781 L 53.554688 22.449219 L 54.019531 22.0625 L 20.96875 22.0625 Z M 55.738281 25.097656 L 56.355469 24.582031 L 56.355469 51.210938 C 56.355469 52.15625 55.585938 52.925781 54.640625 52.925781 L 20.351562 52.925781 C 19.402344 52.925781 18.636719 52.15625 18.636719 51.210938 L 18.636719 24.582031 L 19.253906 25.097656 L 19.277344 25.117188 L 36.425781 38.832031 C 37.050781 39.335938 37.941406 39.335938 38.566406 38.832031 L 55.710938 25.117188 Z M 55.738281 25.097656 " fill-opacity="1" fill-rule="evenodd"/></g></svg>