<svg xmlns="http://www.w3.org/2000/svg" height="24" width="24" viewBox="0 0 24 24"><title>telephone</title><g fill="#212121" class="nc-icon-wrapper"><path data-color="color-2" d="M20,0H4A4,4,0,0,0,0,4V8A1,1,0,0,0,1,9H5a1,1,0,0,0,.97-.757L6.781,5H17.219l.811,3.243A1,1,0,0,0,19,9h4a1,1,0,0,0,1-1V4A4,4,0,0,0,20,0Z" fill="#212121"></path><path d="M22.759,17.349l-6-7A1,1,0,0,0,16,10H8a1,1,0,0,0-.759.349l-6,7A1,1,0,0,0,1,18v3a3,3,0,0,0,3,3H20a3,3,0,0,0,3-3V18A1,1,0,0,0,22.759,17.349ZM12,20a3,3,0,1,1,3-3A3,3,0,0,1,12,20Z" fill="#212121"></path></g></svg>