<svg xmlns="http://www.w3.org/2000/svg" xmlns:xlink="http://www.w3.org/1999/xlink" width="100" zoomAndPan="magnify" viewBox="0 0 75 74.999997" height="100" preserveAspectRatio="xMidYMid meet" version="1.0"><defs><clipPath id="3f0bf9b232"><path d="M 2 15.140625 L 73 15.140625 L 73 37 L 2 37 Z M 2 15.140625 " clip-rule="nonzero"/></clipPath></defs><path fill="#ffffff" d="M 52.054688 35.121094 L 49.046875 35.121094 L 49.046875 28.78125 L 44.214844 28.78125 L 44.214844 35.121094 L 30.894531 35.121094 L 30.894531 28.78125 L 25.953125 28.78125 L 25.953125 35.121094 L 22.945312 35.121094 C 22.945312 35.121094 14.886719 55.53125 7.90625 58.214844 L 7.90625 71.859375 L 66.988281 71.859375 L 66.988281 58.109375 C 60.21875 55.53125 52.054688 35.121094 52.054688 35.121094 Z M 33.472656 51.234375 L 28.746094 51.234375 L 28.746094 48.546875 L 33.472656 48.546875 Z M 33.472656 47.257812 L 28.746094 47.257812 L 28.746094 44.574219 L 33.472656 44.574219 Z M 33.472656 43.285156 L 28.746094 43.285156 L 28.746094 40.597656 L 33.472656 40.597656 Z M 39.917969 51.234375 L 35.191406 51.234375 L 35.191406 48.546875 L 39.917969 48.546875 Z M 39.917969 47.257812 L 35.191406 47.257812 L 35.191406 44.574219 L 39.917969 44.574219 Z M 39.917969 43.285156 L 35.191406 43.285156 L 35.191406 40.597656 L 39.917969 40.597656 Z M 46.363281 51.234375 L 41.636719 51.234375 L 41.636719 48.546875 L 46.363281 48.546875 Z M 46.363281 47.257812 L 41.636719 47.257812 L 41.636719 44.574219 L 46.363281 44.574219 Z M 46.363281 43.285156 L 41.636719 43.285156 L 41.636719 40.597656 L 46.363281 40.597656 Z M 46.363281 43.285156 " fill-opacity="1" fill-rule="nonzero"/><g clip-path="url(#3f0bf9b232)"><path fill="#ffffff" d="M 53.988281 15.140625 L 21.011719 15.140625 C 0.0625 15.140625 2.105469 33.1875 2.105469 33.1875 C 2.105469 36.730469 7.261719 36.625 7.261719 36.625 L 12.738281 36.625 C 16.5 36.625 17.25 33.9375 17.25 33.9375 C 17.25 26.632812 22.730469 24.59375 22.730469 24.59375 L 52.269531 24.59375 C 52.269531 24.59375 57.75 26.742188 57.75 33.9375 C 57.75 33.9375 58.5 36.625 62.261719 36.625 L 67.738281 36.625 C 67.738281 36.625 72.894531 36.730469 72.894531 33.1875 C 72.894531 33.292969 74.9375 15.140625 53.988281 15.140625 Z M 53.988281 15.140625 " fill-opacity="1" fill-rule="nonzero"/></g></svg>