<svg xmlns="http://www.w3.org/2000/svg" xmlns:xlink="http://www.w3.org/1999/xlink" width="100" zoomAndPan="magnify" viewBox="0 0 75 74.999997" height="100" preserveAspectRatio="xMidYMid meet" version="1.0"><defs><clipPath id="a11a3d0e61"><path d="M 16 27 L 59 27 L 59 57.4375 L 16 57.4375 Z M 16 27 " clip-rule="nonzero"/></clipPath><clipPath id="f29fbf7e9c"><path d="M 12 17.6875 L 63 17.6875 L 63 33 L 12 33 Z M 12 17.6875 " clip-rule="nonzero"/></clipPath></defs><g clip-path="url(#a11a3d0e61)"><path fill="#ffffff" d="M 47.667969 31.644531 L 45.566406 31.644531 L 45.566406 27.21875 L 42.191406 27.21875 L 42.191406 31.644531 L 32.882812 31.644531 L 32.882812 27.21875 L 29.433594 27.21875 L 29.433594 31.644531 L 27.332031 31.644531 C 27.332031 31.644531 21.703125 45.902344 16.824219 47.777344 L 16.824219 57.308594 L 58.097656 57.308594 L 58.097656 47.703125 C 53.371094 45.902344 47.667969 31.644531 47.667969 31.644531 Z M 34.683594 42.902344 L 31.382812 42.902344 L 31.382812 41.023438 L 34.683594 41.023438 Z M 34.683594 40.125 L 31.382812 40.125 L 31.382812 38.25 L 34.683594 38.25 Z M 34.683594 37.347656 L 31.382812 37.347656 L 31.382812 35.472656 L 34.683594 35.472656 Z M 39.1875 42.902344 L 35.886719 42.902344 L 35.886719 41.023438 L 39.1875 41.023438 Z M 39.1875 40.125 L 35.886719 40.125 L 35.886719 38.25 L 39.1875 38.25 Z M 39.1875 37.347656 L 35.886719 37.347656 L 35.886719 35.472656 L 39.1875 35.472656 Z M 43.691406 42.902344 L 40.386719 42.902344 L 40.386719 41.023438 L 43.691406 41.023438 Z M 43.691406 40.125 L 40.386719 40.125 L 40.386719 38.25 L 43.691406 38.25 Z M 43.691406 37.347656 L 40.386719 37.347656 L 40.386719 35.472656 L 43.691406 35.472656 Z M 43.691406 37.347656 " fill-opacity="1" fill-rule="nonzero"/></g><g clip-path="url(#f29fbf7e9c)"><path fill="#ffffff" d="M 49.019531 17.6875 L 25.980469 17.6875 C 11.347656 17.6875 12.773438 30.292969 12.773438 30.292969 C 12.773438 32.769531 16.375 32.695312 16.375 32.695312 L 20.203125 32.695312 C 22.828125 32.695312 23.355469 30.820312 23.355469 30.820312 C 23.355469 25.71875 27.179688 24.292969 27.179688 24.292969 L 47.816406 24.292969 C 47.816406 24.292969 51.644531 25.792969 51.644531 30.820312 C 51.644531 30.820312 52.167969 32.695312 54.796875 32.695312 L 58.625 32.695312 C 58.625 32.695312 62.226562 32.769531 62.226562 30.292969 C 62.226562 30.371094 63.652344 17.6875 49.019531 17.6875 Z M 49.019531 17.6875 " fill-opacity="1" fill-rule="nonzero"/></g></svg>